<svg width="300" height="400" viewBox="0 0 300 400" fill="none" xmlns="http://www.w3.org/2000/svg">
<g id="eggs1">
<rect x="0.5" y="0.5" width="299" height="399" fill="white"/>
<g id="test2">
<path id="screen with results of a search, locations" d="M36.4668 127.602C36.5254 128.096 36.6523 128.448 36.8477 128.656C37.1927 129.027 37.8307 129.213 38.7617 129.213C39.3086 129.213 39.7415 129.132 40.0605 128.969C40.3861 128.806 40.5488 128.562 40.5488 128.236C40.5488 127.924 40.4186 127.686 40.1582 127.523C39.8978 127.361 38.931 127.081 37.2578 126.684C36.0534 126.384 35.2038 126.01 34.709 125.561C34.2142 125.118 33.9668 124.48 33.9668 123.646C33.9668 122.663 34.3509 121.82 35.1191 121.117C35.8939 120.408 36.9811 120.053 38.3809 120.053C39.709 120.053 40.7897 120.32 41.623 120.854C42.4629 121.381 42.9447 122.296 43.0684 123.598H40.2852C40.2461 123.24 40.1452 122.956 39.9824 122.748C39.6764 122.37 39.1556 122.182 38.4199 122.182C37.8145 122.182 37.3815 122.276 37.1211 122.465C36.8672 122.654 36.7402 122.875 36.7402 123.129C36.7402 123.448 36.877 123.679 37.1504 123.822C37.4238 123.972 38.3906 124.229 40.0508 124.594C41.1576 124.854 41.9876 125.248 42.541 125.775C43.0879 126.309 43.3613 126.977 43.3613 127.777C43.3613 128.832 42.9674 129.695 42.1797 130.365C41.3984 131.029 40.1875 131.361 38.5469 131.361C36.8737 131.361 35.6367 131.01 34.8359 130.307C34.0417 129.597 33.6445 128.695 33.6445 127.602H36.4668ZM51.7891 124.174C51.737 123.777 51.6035 123.419 51.3887 123.1C51.0762 122.67 50.5911 122.455 49.9336 122.455C48.9961 122.455 48.3548 122.921 48.0098 123.852C47.8275 124.346 47.7363 125.004 47.7363 125.824C47.7363 126.605 47.8275 127.234 48.0098 127.709C48.3418 128.594 48.9668 129.037 49.8848 129.037C50.5358 129.037 50.998 128.861 51.2715 128.51C51.5449 128.158 51.7109 127.702 51.7695 127.143H54.6113C54.5462 127.989 54.2402 128.79 53.6934 129.545C52.821 130.762 51.5286 131.371 49.8164 131.371C48.1042 131.371 46.8444 130.863 46.0371 129.848C45.2298 128.832 44.8262 127.514 44.8262 125.893C44.8262 124.063 45.2721 122.641 46.1641 121.625C47.056 120.609 48.2865 120.102 49.8555 120.102C51.1901 120.102 52.2806 120.401 53.127 121C53.9798 121.599 54.4844 122.657 54.6406 124.174H51.7891ZM62.3457 120.102C62.3978 120.102 62.4401 120.105 62.4727 120.111C62.5117 120.111 62.5931 120.115 62.7168 120.121V122.973C62.541 122.953 62.3848 122.94 62.248 122.934C62.1113 122.927 62.0007 122.924 61.916 122.924C60.7962 122.924 60.0443 123.288 59.6602 124.018C59.4453 124.428 59.3379 125.059 59.3379 125.912V131H56.5352V120.355H59.1914V122.211C59.6211 121.501 59.9954 121.016 60.3145 120.756C60.8353 120.32 61.5124 120.102 62.3457 120.102ZM68.5566 122.367C67.9121 122.367 67.4108 122.569 67.0527 122.973C66.7012 123.376 66.4798 123.923 66.3887 124.613H70.7148C70.6693 123.878 70.4447 123.321 70.041 122.943C69.6439 122.559 69.1491 122.367 68.5566 122.367ZM68.5566 120.072C69.4421 120.072 70.2396 120.238 70.9492 120.57C71.6589 120.902 72.2448 121.426 72.707 122.143C73.1237 122.774 73.3939 123.507 73.5176 124.34C73.5892 124.828 73.6185 125.531 73.6055 126.449H66.3203C66.3594 127.517 66.6947 128.266 67.3262 128.695C67.7103 128.962 68.1725 129.096 68.7129 129.096C69.2858 129.096 69.7513 128.933 70.1094 128.607C70.3047 128.432 70.4772 128.188 70.627 127.875H73.4688C73.3971 128.507 73.0684 129.148 72.4824 129.799C71.571 130.834 70.2949 131.352 68.6543 131.352C67.3001 131.352 66.1055 130.915 65.0703 130.043C64.0352 129.171 63.5176 127.751 63.5176 125.785C63.5176 123.943 63.9831 122.53 64.9141 121.547C65.8516 120.564 67.0658 120.072 68.5566 120.072ZM79.6895 122.367C79.0449 122.367 78.5436 122.569 78.1855 122.973C77.834 123.376 77.6126 123.923 77.5215 124.613H81.8477C81.8021 123.878 81.5775 123.321 81.1738 122.943C80.7767 122.559 80.2819 122.367 79.6895 122.367ZM79.6895 120.072C80.5749 120.072 81.3724 120.238 82.082 120.57C82.7917 120.902 83.3776 121.426 83.8398 122.143C84.2565 122.774 84.5267 123.507 84.6504 124.34C84.722 124.828 84.7513 125.531 84.7383 126.449H77.4531C77.4922 127.517 77.8275 128.266 78.459 128.695C78.8431 128.962 79.3053 129.096 79.8457 129.096C80.4186 129.096 80.8841 128.933 81.2422 128.607C81.4375 128.432 81.61 128.188 81.7598 127.875H84.6016C84.5299 128.507 84.2012 129.148 83.6152 129.799C82.7038 130.834 81.4277 131.352 79.7871 131.352C78.4329 131.352 77.2383 130.915 76.2031 130.043C75.168 129.171 74.6504 127.751 74.6504 125.785C74.6504 123.943 75.1159 122.53 76.0469 121.547C76.9844 120.564 78.1986 120.072 79.6895 120.072ZM92.5215 120.102C93.6217 120.102 94.5202 120.391 95.2168 120.971C95.9199 121.544 96.2715 122.497 96.2715 123.832V131H93.4199V124.525C93.4199 123.965 93.3451 123.536 93.1953 123.236C92.9219 122.689 92.401 122.416 91.6328 122.416C90.6888 122.416 90.041 122.816 89.6895 123.617C89.5072 124.04 89.416 124.581 89.416 125.238V131H86.6426V120.375H89.3281V121.928C89.6862 121.381 90.0247 120.987 90.3438 120.746C90.9167 120.316 91.6426 120.102 92.5215 120.102ZM109.436 120.355H112.258L113.879 128.021L115.539 120.355H118.439L115.354 131H112.492L110.822 123.246L109.133 131H106.242L103.254 120.355H106.242L107.902 127.992L109.436 120.355ZM122.844 119.086H120.021V116.518H122.844V119.086ZM120.021 120.355H122.844V131H120.021V120.355ZM124.455 122.436V120.453H125.939V117.484H128.693V120.453H130.422V122.436H128.693V128.061C128.693 128.497 128.749 128.77 128.859 128.881C128.97 128.985 129.309 129.037 129.875 129.037C129.96 129.037 130.048 129.037 130.139 129.037C130.236 129.031 130.331 129.024 130.422 129.018V131.098L129.104 131.146C127.788 131.192 126.89 130.964 126.408 130.463C126.096 130.144 125.939 129.652 125.939 128.988V122.436H124.455ZM138.078 120.082C138.736 120.082 139.331 120.196 139.865 120.424C140.406 120.652 140.848 121 141.193 121.469C141.486 121.866 141.665 122.276 141.73 122.699C141.796 123.116 141.828 123.799 141.828 124.75V131H138.986V124.525C138.986 123.952 138.889 123.49 138.693 123.139C138.439 122.644 137.958 122.396 137.248 122.396C136.512 122.396 135.952 122.644 135.568 123.139C135.191 123.627 135.002 124.327 135.002 125.238V131H132.229V116.654H135.002V121.742C135.406 121.124 135.871 120.694 136.398 120.453C136.932 120.206 137.492 120.082 138.078 120.082ZM155.783 120.102C155.835 120.102 155.878 120.105 155.91 120.111C155.949 120.111 156.031 120.115 156.154 120.121V122.973C155.979 122.953 155.822 122.94 155.686 122.934C155.549 122.927 155.438 122.924 155.354 122.924C154.234 122.924 153.482 123.288 153.098 124.018C152.883 124.428 152.775 125.059 152.775 125.912V131H149.973V120.355H152.629V122.211C153.059 121.501 153.433 121.016 153.752 120.756C154.273 120.32 154.95 120.102 155.783 120.102ZM161.994 122.367C161.35 122.367 160.848 122.569 160.49 122.973C160.139 123.376 159.917 123.923 159.826 124.613H164.152C164.107 123.878 163.882 123.321 163.479 122.943C163.081 122.559 162.587 122.367 161.994 122.367ZM161.994 120.072C162.88 120.072 163.677 120.238 164.387 120.57C165.096 120.902 165.682 121.426 166.145 122.143C166.561 122.774 166.831 123.507 166.955 124.34C167.027 124.828 167.056 125.531 167.043 126.449H159.758C159.797 127.517 160.132 128.266 160.764 128.695C161.148 128.962 161.61 129.096 162.15 129.096C162.723 129.096 163.189 128.933 163.547 128.607C163.742 128.432 163.915 128.188 164.064 127.875H166.906C166.835 128.507 166.506 129.148 165.92 129.799C165.008 130.834 163.732 131.352 162.092 131.352C160.738 131.352 159.543 130.915 158.508 130.043C157.473 129.171 156.955 127.751 156.955 125.785C156.955 123.943 157.421 122.53 158.352 121.547C159.289 120.564 160.503 120.072 161.994 120.072ZM171.096 127.602C171.154 128.096 171.281 128.448 171.477 128.656C171.822 129.027 172.46 129.213 173.391 129.213C173.938 129.213 174.37 129.132 174.689 128.969C175.015 128.806 175.178 128.562 175.178 128.236C175.178 127.924 175.048 127.686 174.787 127.523C174.527 127.361 173.56 127.081 171.887 126.684C170.682 126.384 169.833 126.01 169.338 125.561C168.843 125.118 168.596 124.48 168.596 123.646C168.596 122.663 168.98 121.82 169.748 121.117C170.523 120.408 171.61 120.053 173.01 120.053C174.338 120.053 175.419 120.32 176.252 120.854C177.092 121.381 177.574 122.296 177.697 123.598H174.914C174.875 123.24 174.774 122.956 174.611 122.748C174.305 122.37 173.785 122.182 173.049 122.182C172.443 122.182 172.01 122.276 171.75 122.465C171.496 122.654 171.369 122.875 171.369 123.129C171.369 123.448 171.506 123.679 171.779 123.822C172.053 123.972 173.02 124.229 174.68 124.594C175.786 124.854 176.617 125.248 177.17 125.775C177.717 126.309 177.99 126.977 177.99 127.777C177.99 128.832 177.596 129.695 176.809 130.365C176.027 131.029 174.816 131.361 173.176 131.361C171.503 131.361 170.266 131.01 169.465 130.307C168.671 129.597 168.273 128.695 168.273 127.602H171.096ZM182.834 120.355V126.771C182.834 127.377 182.906 127.833 183.049 128.139C183.303 128.679 183.801 128.949 184.543 128.949C185.493 128.949 186.145 128.565 186.496 127.797C186.678 127.38 186.77 126.83 186.77 126.146V120.355H189.592V131H186.887V129.496C186.861 129.529 186.796 129.626 186.691 129.789C186.587 129.952 186.464 130.095 186.32 130.219C185.884 130.609 185.461 130.876 185.051 131.02C184.647 131.163 184.172 131.234 183.625 131.234C182.049 131.234 180.988 130.668 180.441 129.535C180.135 128.91 179.982 127.989 179.982 126.771V120.355H182.834ZM195.129 131H192.346V116.605H195.129V131ZM196.76 122.436V120.453H198.244V117.484H200.998V120.453H202.727V122.436H200.998V128.061C200.998 128.497 201.053 128.77 201.164 128.881C201.275 128.985 201.613 129.037 202.18 129.037C202.264 129.037 202.352 129.037 202.443 129.037C202.541 129.031 202.635 129.024 202.727 129.018V131.098L201.408 131.146C200.093 131.192 199.195 130.964 198.713 130.463C198.4 130.144 198.244 129.652 198.244 128.988V122.436H196.76ZM206.682 127.602C206.74 128.096 206.867 128.448 207.062 128.656C207.408 129.027 208.046 129.213 208.977 129.213C209.523 129.213 209.956 129.132 210.275 128.969C210.601 128.806 210.764 128.562 210.764 128.236C210.764 127.924 210.633 127.686 210.373 127.523C210.113 127.361 209.146 127.081 207.473 126.684C206.268 126.384 205.419 126.01 204.924 125.561C204.429 125.118 204.182 124.48 204.182 123.646C204.182 122.663 204.566 121.82 205.334 121.117C206.109 120.408 207.196 120.053 208.596 120.053C209.924 120.053 211.005 120.32 211.838 120.854C212.678 121.381 213.16 122.296 213.283 123.598H210.5C210.461 123.24 210.36 122.956 210.197 122.748C209.891 122.37 209.37 122.182 208.635 122.182C208.029 122.182 207.596 122.276 207.336 122.465C207.082 122.654 206.955 122.875 206.955 123.129C206.955 123.448 207.092 123.679 207.365 123.822C207.639 123.972 208.605 124.229 210.266 124.594C211.372 124.854 212.202 125.248 212.756 125.775C213.303 126.309 213.576 126.977 213.576 127.777C213.576 128.832 213.182 129.695 212.395 130.365C211.613 131.029 210.402 131.361 208.762 131.361C207.089 131.361 205.852 131.01 205.051 130.307C204.257 129.597 203.859 128.695 203.859 127.602H206.682ZM39.0742 152.037C39.888 152.037 40.513 151.747 40.9492 151.168C41.3854 150.589 41.6035 149.765 41.6035 148.697C41.6035 147.63 41.3854 146.809 40.9492 146.236C40.513 145.657 39.888 145.367 39.0742 145.367C38.2604 145.367 37.6322 145.657 37.1895 146.236C36.7533 146.809 36.5352 147.63 36.5352 148.697C36.5352 149.765 36.7533 150.589 37.1895 151.168C37.6322 151.747 38.2604 152.037 39.0742 152.037ZM44.5234 148.697C44.5234 150.26 44.0742 151.598 43.1758 152.711C42.2773 153.818 40.9134 154.371 39.084 154.371C37.2546 154.371 35.8906 153.818 34.9922 152.711C34.0938 151.598 33.6445 150.26 33.6445 148.697C33.6445 147.161 34.0938 145.829 34.9922 144.703C35.8906 143.577 37.2546 143.014 39.084 143.014C40.9134 143.014 42.2773 143.577 43.1758 144.703C44.0742 145.829 44.5234 147.161 44.5234 148.697ZM50.4512 139.459C50.627 139.459 50.7865 139.465 50.9297 139.479C51.0729 139.485 51.2682 139.498 51.5156 139.518V141.783C51.3594 141.764 51.0957 141.751 50.7246 141.744C50.36 141.731 50.1061 141.812 49.9629 141.988C49.8262 142.158 49.7578 142.346 49.7578 142.555C49.7578 142.763 49.7578 143.062 49.7578 143.453H51.584V145.416H49.7578V154H46.9844V145.416H45.4316V143.453H46.9551V142.77C46.9551 141.63 47.1471 140.846 47.5312 140.416C47.9349 139.778 48.9082 139.459 50.4512 139.459ZM64.6211 148.824C64.4453 148.935 64.2663 149.026 64.084 149.098C63.9082 149.163 63.6641 149.225 63.3516 149.283L62.7266 149.4C62.1406 149.505 61.7207 149.632 61.4668 149.781C61.0371 150.035 60.8223 150.429 60.8223 150.963C60.8223 151.438 60.9525 151.783 61.2129 151.998C61.4798 152.206 61.8021 152.311 62.1797 152.311C62.7786 152.311 63.3288 152.135 63.8301 151.783C64.3379 151.432 64.6016 150.79 64.6211 149.859V148.824ZM62.9316 147.525C63.446 147.46 63.8138 147.379 64.0352 147.281C64.4323 147.112 64.6309 146.848 64.6309 146.49C64.6309 146.054 64.4779 145.755 64.1719 145.592C63.8724 145.423 63.4297 145.338 62.8438 145.338C62.1862 145.338 61.7207 145.501 61.4473 145.826C61.252 146.067 61.1217 146.393 61.0566 146.803H58.3711C58.4297 145.872 58.6901 145.107 59.1523 144.508C59.888 143.57 61.151 143.102 62.9414 143.102C64.1068 143.102 65.1419 143.333 66.0469 143.795C66.9518 144.257 67.4043 145.13 67.4043 146.412V151.295C67.4043 151.633 67.4108 152.044 67.4238 152.525C67.4434 152.89 67.4987 153.137 67.5898 153.268C67.681 153.398 67.8177 153.505 68 153.59V154H64.9727C64.888 153.785 64.8294 153.583 64.7969 153.395C64.7643 153.206 64.7383 152.991 64.7188 152.75C64.3346 153.167 63.8919 153.521 63.3906 153.814C62.7917 154.16 62.1146 154.332 61.3594 154.332C60.3958 154.332 59.5983 154.059 58.9668 153.512C58.3418 152.958 58.0293 152.177 58.0293 151.168C58.0293 149.859 58.5339 148.912 59.543 148.326C60.0964 148.007 60.9102 147.779 61.9844 147.643L62.9316 147.525ZM77.6191 150.602C77.6777 151.096 77.8047 151.448 78 151.656C78.3451 152.027 78.9831 152.213 79.9141 152.213C80.4609 152.213 80.8939 152.132 81.2129 151.969C81.5384 151.806 81.7012 151.562 81.7012 151.236C81.7012 150.924 81.571 150.686 81.3105 150.523C81.0501 150.361 80.0833 150.081 78.4102 149.684C77.2057 149.384 76.3561 149.01 75.8613 148.561C75.3665 148.118 75.1191 147.48 75.1191 146.646C75.1191 145.663 75.5033 144.82 76.2715 144.117C77.0462 143.408 78.1335 143.053 79.5332 143.053C80.8613 143.053 81.9421 143.32 82.7754 143.854C83.6152 144.381 84.097 145.296 84.2207 146.598H81.4375C81.3984 146.24 81.2975 145.956 81.1348 145.748C80.8288 145.37 80.3079 145.182 79.5723 145.182C78.9668 145.182 78.5339 145.276 78.2734 145.465C78.0195 145.654 77.8926 145.875 77.8926 146.129C77.8926 146.448 78.0293 146.679 78.3027 146.822C78.5762 146.972 79.543 147.229 81.2031 147.594C82.3099 147.854 83.14 148.248 83.6934 148.775C84.2402 149.309 84.5137 149.977 84.5137 150.777C84.5137 151.832 84.1198 152.695 83.332 153.365C82.5508 154.029 81.3398 154.361 79.6992 154.361C78.026 154.361 76.7891 154.01 75.9883 153.307C75.194 152.597 74.7969 151.695 74.7969 150.602H77.6191ZM90.7832 145.367C90.1387 145.367 89.6374 145.569 89.2793 145.973C88.9277 146.376 88.7064 146.923 88.6152 147.613H92.9414C92.8958 146.878 92.6712 146.321 92.2676 145.943C91.8704 145.559 91.3757 145.367 90.7832 145.367ZM90.7832 143.072C91.6686 143.072 92.4661 143.238 93.1758 143.57C93.8854 143.902 94.4714 144.426 94.9336 145.143C95.3503 145.774 95.6204 146.507 95.7441 147.34C95.8158 147.828 95.8451 148.531 95.832 149.449H88.5469C88.5859 150.517 88.9212 151.266 89.5527 151.695C89.9368 151.962 90.3991 152.096 90.9395 152.096C91.5124 152.096 91.9779 151.933 92.3359 151.607C92.5312 151.432 92.7038 151.188 92.8535 150.875H95.6953C95.6237 151.507 95.2949 152.148 94.709 152.799C93.7975 153.834 92.5215 154.352 90.8809 154.352C89.5267 154.352 88.332 153.915 87.2969 153.043C86.2617 152.171 85.7441 150.751 85.7441 148.785C85.7441 146.943 86.2096 145.53 87.1406 144.547C88.0781 143.564 89.2923 143.072 90.7832 143.072ZM103.586 148.824C103.41 148.935 103.231 149.026 103.049 149.098C102.873 149.163 102.629 149.225 102.316 149.283L101.691 149.4C101.105 149.505 100.686 149.632 100.432 149.781C100.002 150.035 99.7871 150.429 99.7871 150.963C99.7871 151.438 99.9173 151.783 100.178 151.998C100.445 152.206 100.767 152.311 101.145 152.311C101.743 152.311 102.294 152.135 102.795 151.783C103.303 151.432 103.566 150.79 103.586 149.859V148.824ZM101.896 147.525C102.411 147.46 102.779 147.379 103 147.281C103.397 147.112 103.596 146.848 103.596 146.49C103.596 146.054 103.443 145.755 103.137 145.592C102.837 145.423 102.395 145.338 101.809 145.338C101.151 145.338 100.686 145.501 100.412 145.826C100.217 146.067 100.087 146.393 100.021 146.803H97.3359C97.3945 145.872 97.6549 145.107 98.1172 144.508C98.8529 143.57 100.116 143.102 101.906 143.102C103.072 143.102 104.107 143.333 105.012 143.795C105.917 144.257 106.369 145.13 106.369 146.412V151.295C106.369 151.633 106.376 152.044 106.389 152.525C106.408 152.89 106.464 153.137 106.555 153.268C106.646 153.398 106.783 153.505 106.965 153.59V154H103.938C103.853 153.785 103.794 153.583 103.762 153.395C103.729 153.206 103.703 152.991 103.684 152.75C103.299 153.167 102.857 153.521 102.355 153.814C101.757 154.16 101.079 154.332 100.324 154.332C99.3607 154.332 98.5632 154.059 97.9316 153.512C97.3066 152.958 96.9941 152.177 96.9941 151.168C96.9941 149.859 97.4987 148.912 98.5078 148.326C99.0612 148.007 99.875 147.779 100.949 147.643L101.896 147.525ZM114.631 143.102C114.683 143.102 114.725 143.105 114.758 143.111C114.797 143.111 114.878 143.115 115.002 143.121V145.973C114.826 145.953 114.67 145.94 114.533 145.934C114.396 145.927 114.286 145.924 114.201 145.924C113.081 145.924 112.329 146.288 111.945 147.018C111.73 147.428 111.623 148.059 111.623 148.912V154H108.82V143.355H111.477V145.211C111.906 144.501 112.281 144.016 112.6 143.756C113.12 143.32 113.798 143.102 114.631 143.102ZM123 147.174C122.948 146.777 122.814 146.419 122.6 146.1C122.287 145.67 121.802 145.455 121.145 145.455C120.207 145.455 119.566 145.921 119.221 146.852C119.038 147.346 118.947 148.004 118.947 148.824C118.947 149.605 119.038 150.234 119.221 150.709C119.553 151.594 120.178 152.037 121.096 152.037C121.747 152.037 122.209 151.861 122.482 151.51C122.756 151.158 122.922 150.702 122.98 150.143H125.822C125.757 150.989 125.451 151.79 124.904 152.545C124.032 153.762 122.74 154.371 121.027 154.371C119.315 154.371 118.055 153.863 117.248 152.848C116.441 151.832 116.037 150.514 116.037 148.893C116.037 147.063 116.483 145.641 117.375 144.625C118.267 143.609 119.497 143.102 121.066 143.102C122.401 143.102 123.492 143.401 124.338 144C125.191 144.599 125.695 145.657 125.852 147.174H123ZM133.645 143.082C134.302 143.082 134.898 143.196 135.432 143.424C135.972 143.652 136.415 144 136.76 144.469C137.053 144.866 137.232 145.276 137.297 145.699C137.362 146.116 137.395 146.799 137.395 147.75V154H134.553V147.525C134.553 146.952 134.455 146.49 134.26 146.139C134.006 145.644 133.524 145.396 132.814 145.396C132.079 145.396 131.519 145.644 131.135 146.139C130.757 146.627 130.568 147.327 130.568 148.238V154H127.795V139.654H130.568V144.742C130.972 144.124 131.438 143.694 131.965 143.453C132.499 143.206 133.059 143.082 133.645 143.082ZM139.855 156.314C140.415 156.158 140.826 155.898 141.086 155.533C141.353 155.169 141.506 154.658 141.545 154H139.855V151.09H142.863V153.609C142.863 154.052 142.805 154.514 142.688 154.996C142.57 155.478 142.352 155.895 142.033 156.246C141.688 156.624 141.281 156.907 140.812 157.096C140.35 157.291 140.031 157.389 139.855 157.389V156.314ZM37.1406 177H34.3574V162.605H37.1406V177ZM44.6406 175.037C45.4544 175.037 46.0794 174.747 46.5156 174.168C46.9518 173.589 47.1699 172.765 47.1699 171.697C47.1699 170.63 46.9518 169.809 46.5156 169.236C46.0794 168.657 45.4544 168.367 44.6406 168.367C43.8268 168.367 43.1986 168.657 42.7559 169.236C42.3197 169.809 42.1016 170.63 42.1016 171.697C42.1016 172.765 42.3197 173.589 42.7559 174.168C43.1986 174.747 43.8268 175.037 44.6406 175.037ZM50.0898 171.697C50.0898 173.26 49.6406 174.598 48.7422 175.711C47.8438 176.818 46.4798 177.371 44.6504 177.371C42.821 177.371 41.457 176.818 40.5586 175.711C39.6602 174.598 39.2109 173.26 39.2109 171.697C39.2109 170.161 39.6602 168.829 40.5586 167.703C41.457 166.577 42.821 166.014 44.6504 166.014C46.4798 166.014 47.8438 166.577 48.7422 167.703C49.6406 168.829 50.0898 170.161 50.0898 171.697ZM58.4492 170.174C58.3971 169.777 58.2637 169.419 58.0488 169.1C57.7363 168.67 57.2513 168.455 56.5938 168.455C55.6562 168.455 55.015 168.921 54.6699 169.852C54.4876 170.346 54.3965 171.004 54.3965 171.824C54.3965 172.605 54.4876 173.234 54.6699 173.709C55.002 174.594 55.627 175.037 56.5449 175.037C57.196 175.037 57.6582 174.861 57.9316 174.51C58.2051 174.158 58.3711 173.702 58.4297 173.143H61.2715C61.2064 173.989 60.9004 174.79 60.3535 175.545C59.4811 176.762 58.1888 177.371 56.4766 177.371C54.7643 177.371 53.5046 176.863 52.6973 175.848C51.89 174.832 51.4863 173.514 51.4863 171.893C51.4863 170.063 51.9323 168.641 52.8242 167.625C53.7161 166.609 54.9466 166.102 56.5156 166.102C57.8503 166.102 58.9408 166.401 59.7871 167C60.64 167.599 61.1445 168.657 61.3008 170.174H58.4492ZM69.0938 171.824C68.918 171.935 68.7389 172.026 68.5566 172.098C68.3809 172.163 68.1367 172.225 67.8242 172.283L67.1992 172.4C66.6133 172.505 66.1934 172.632 65.9395 172.781C65.5098 173.035 65.2949 173.429 65.2949 173.963C65.2949 174.438 65.4251 174.783 65.6855 174.998C65.9525 175.206 66.2747 175.311 66.6523 175.311C67.2513 175.311 67.8014 175.135 68.3027 174.783C68.8105 174.432 69.0742 173.79 69.0938 172.859V171.824ZM67.4043 170.525C67.9186 170.46 68.2865 170.379 68.5078 170.281C68.9049 170.112 69.1035 169.848 69.1035 169.49C69.1035 169.054 68.9505 168.755 68.6445 168.592C68.3451 168.423 67.9023 168.338 67.3164 168.338C66.6589 168.338 66.1934 168.501 65.9199 168.826C65.7246 169.067 65.5944 169.393 65.5293 169.803H62.8438C62.9023 168.872 63.1628 168.107 63.625 167.508C64.3607 166.57 65.6237 166.102 67.4141 166.102C68.5794 166.102 69.6146 166.333 70.5195 166.795C71.4245 167.257 71.877 168.13 71.877 169.412V174.295C71.877 174.633 71.8835 175.044 71.8965 175.525C71.916 175.89 71.9714 176.137 72.0625 176.268C72.1536 176.398 72.2904 176.505 72.4727 176.59V177H69.4453C69.3607 176.785 69.3021 176.583 69.2695 176.395C69.237 176.206 69.2109 175.991 69.1914 175.75C68.8073 176.167 68.3646 176.521 67.8633 176.814C67.2643 177.16 66.5872 177.332 65.832 177.332C64.8685 177.332 64.071 177.059 63.4395 176.512C62.8145 175.958 62.502 175.177 62.502 174.168C62.502 172.859 63.0065 171.912 64.0156 171.326C64.569 171.007 65.3828 170.779 66.457 170.643L67.4043 170.525ZM73.2637 168.436V166.453H74.748V163.484H77.502V166.453H79.2305V168.436H77.502V174.061C77.502 174.497 77.5573 174.77 77.668 174.881C77.7786 174.985 78.1172 175.037 78.6836 175.037C78.7682 175.037 78.8561 175.037 78.9473 175.037C79.0449 175.031 79.1393 175.024 79.2305 175.018V177.098L77.9121 177.146C76.597 177.192 75.6986 176.964 75.2168 176.463C74.9043 176.144 74.748 175.652 74.748 174.988V168.436H73.2637ZM83.8789 165.086H81.0566V162.518H83.8789V165.086ZM81.0566 166.355H83.8789V177H81.0566V166.355ZM91.3594 175.037C92.1732 175.037 92.7982 174.747 93.2344 174.168C93.6706 173.589 93.8887 172.765 93.8887 171.697C93.8887 170.63 93.6706 169.809 93.2344 169.236C92.7982 168.657 92.1732 168.367 91.3594 168.367C90.5456 168.367 89.9173 168.657 89.4746 169.236C89.0384 169.809 88.8203 170.63 88.8203 171.697C88.8203 172.765 89.0384 173.589 89.4746 174.168C89.9173 174.747 90.5456 175.037 91.3594 175.037ZM96.8086 171.697C96.8086 173.26 96.3594 174.598 95.4609 175.711C94.5625 176.818 93.1986 177.371 91.3691 177.371C89.5397 177.371 88.1758 176.818 87.2773 175.711C86.3789 174.598 85.9297 173.26 85.9297 171.697C85.9297 170.161 86.3789 168.829 87.2773 167.703C88.1758 166.577 89.5397 166.014 91.3691 166.014C93.1986 166.014 94.5625 166.577 95.4609 167.703C96.3594 168.829 96.8086 170.161 96.8086 171.697ZM104.709 166.102C105.809 166.102 106.708 166.391 107.404 166.971C108.107 167.544 108.459 168.497 108.459 169.832V177H105.607V170.525C105.607 169.965 105.533 169.536 105.383 169.236C105.109 168.689 104.589 168.416 103.82 168.416C102.876 168.416 102.229 168.816 101.877 169.617C101.695 170.04 101.604 170.581 101.604 171.238V177H98.8301V166.375H101.516V167.928C101.874 167.381 102.212 166.987 102.531 166.746C103.104 166.316 103.83 166.102 104.709 166.102ZM113.205 173.602C113.264 174.096 113.391 174.448 113.586 174.656C113.931 175.027 114.569 175.213 115.5 175.213C116.047 175.213 116.48 175.132 116.799 174.969C117.124 174.806 117.287 174.562 117.287 174.236C117.287 173.924 117.157 173.686 116.896 173.523C116.636 173.361 115.669 173.081 113.996 172.684C112.792 172.384 111.942 172.01 111.447 171.561C110.952 171.118 110.705 170.48 110.705 169.646C110.705 168.663 111.089 167.82 111.857 167.117C112.632 166.408 113.719 166.053 115.119 166.053C116.447 166.053 117.528 166.32 118.361 166.854C119.201 167.381 119.683 168.296 119.807 169.598H117.023C116.984 169.24 116.883 168.956 116.721 168.748C116.415 168.37 115.894 168.182 115.158 168.182C114.553 168.182 114.12 168.276 113.859 168.465C113.605 168.654 113.479 168.875 113.479 169.129C113.479 169.448 113.615 169.679 113.889 169.822C114.162 169.972 115.129 170.229 116.789 170.594C117.896 170.854 118.726 171.248 119.279 171.775C119.826 172.309 120.1 172.977 120.1 173.777C120.1 174.832 119.706 175.695 118.918 176.365C118.137 177.029 116.926 177.361 115.285 177.361C113.612 177.361 112.375 177.01 111.574 176.307C110.78 175.597 110.383 174.695 110.383 173.602H113.205Z" fill="#BD1F1F"/>
<path id="pending:" d="M41.6328 84.6777C41.6328 83.8574 41.444 83.1315 41.0664 82.5C40.6953 81.8685 40.0898 81.5527 39.25 81.5527C38.2409 81.5527 37.5475 82.0312 37.1699 82.9883C36.9746 83.4961 36.877 84.1406 36.877 84.9219C36.877 86.1589 37.2057 87.028 37.8633 87.5293C38.2539 87.8223 38.7161 87.9688 39.25 87.9688C40.0247 87.9688 40.6139 87.6693 41.0176 87.0703C41.4277 86.4714 41.6328 85.6738 41.6328 84.6777ZM40.0508 79.1211C41.2943 79.1211 42.3457 79.5801 43.2051 80.498C44.071 81.416 44.5039 82.7637 44.5039 84.541C44.5039 86.416 44.0807 87.8451 43.2344 88.8281C42.3945 89.8112 41.3105 90.3027 39.9824 90.3027C39.1361 90.3027 38.4329 90.0911 37.873 89.668C37.5671 89.4336 37.2676 89.0918 36.9746 88.6426V94.1895H34.2207V79.3555H36.8867V80.9277C37.1862 80.4655 37.5052 80.1009 37.8438 79.834C38.4622 79.3587 39.1979 79.1211 40.0508 79.1211ZM50.7246 81.3672C50.0801 81.3672 49.5788 81.569 49.2207 81.9727C48.8691 82.3763 48.6478 82.9232 48.5566 83.6133H52.8828C52.8372 82.8776 52.6126 82.321 52.209 81.9434C51.8118 81.5592 51.3171 81.3672 50.7246 81.3672ZM50.7246 79.0723C51.61 79.0723 52.4076 79.2383 53.1172 79.5703C53.8268 79.9023 54.4128 80.4264 54.875 81.1426C55.2917 81.7741 55.5618 82.5065 55.6855 83.3398C55.7572 83.8281 55.7865 84.5312 55.7734 85.4492H48.4883C48.5273 86.5169 48.8626 87.2656 49.4941 87.6953C49.8783 87.9622 50.3405 88.0957 50.8809 88.0957C51.4538 88.0957 51.9193 87.9329 52.2773 87.6074C52.4727 87.4316 52.6452 87.1875 52.7949 86.875H55.6367C55.5651 87.5065 55.2363 88.1478 54.6504 88.7988C53.7389 89.834 52.4629 90.3516 50.8223 90.3516C49.4681 90.3516 48.2734 89.9154 47.2383 89.043C46.2031 88.1706 45.6855 86.7513 45.6855 84.7852C45.6855 82.9427 46.151 81.5299 47.082 80.5469C48.0195 79.5638 49.2337 79.0723 50.7246 79.0723ZM63.5566 79.1016C64.6569 79.1016 65.5553 79.3913 66.252 79.9707C66.9551 80.5436 67.3066 81.4974 67.3066 82.832V90H64.4551V83.5254C64.4551 82.9655 64.3802 82.5358 64.2305 82.2363C63.957 81.6895 63.4362 81.416 62.668 81.416C61.724 81.416 61.0762 81.8164 60.7246 82.6172C60.5423 83.0404 60.4512 83.5807 60.4512 84.2383V90H57.6777V79.375H60.3633V80.9277C60.7214 80.3809 61.0599 79.987 61.3789 79.7461C61.9518 79.3164 62.6777 79.1016 63.5566 79.1016ZM73.8105 79.1016C74.4551 79.1016 75.028 79.2448 75.5293 79.5312C76.0306 79.8112 76.4375 80.2018 76.75 80.7031V75.625H79.5723V90H76.8672V88.5254C76.4701 89.1569 76.0176 89.6159 75.5098 89.9023C75.002 90.1888 74.3704 90.332 73.6152 90.332C72.3717 90.332 71.3236 89.8307 70.4707 88.8281C69.6243 87.819 69.2012 86.5267 69.2012 84.9512C69.2012 83.1348 69.6178 81.7057 70.4512 80.6641C71.291 79.6224 72.4108 79.1016 73.8105 79.1016ZM74.416 87.9883C75.2038 87.9883 75.8027 87.6953 76.2129 87.1094C76.623 86.5234 76.8281 85.765 76.8281 84.834C76.8281 83.5319 76.4993 82.6009 75.8418 82.041C75.4382 81.7025 74.9694 81.5332 74.4355 81.5332C73.6217 81.5332 73.0228 81.8424 72.6387 82.4609C72.2611 83.0729 72.0723 83.8346 72.0723 84.7461C72.0723 85.7292 72.2643 86.5169 72.6484 87.1094C73.0391 87.6953 73.6283 87.9883 74.416 87.9883ZM84.9727 78.0859H82.1504V75.5176H84.9727V78.0859ZM82.1504 79.3555H84.9727V90H82.1504V79.3555ZM93.5762 79.1016C94.6764 79.1016 95.5749 79.3913 96.2715 79.9707C96.9746 80.5436 97.3262 81.4974 97.3262 82.832V90H94.4746V83.5254C94.4746 82.9655 94.3997 82.5358 94.25 82.2363C93.9766 81.6895 93.4557 81.416 92.6875 81.416C91.7435 81.416 91.0957 81.8164 90.7441 82.6172C90.5618 83.0404 90.4707 83.5807 90.4707 84.2383V90H87.6973V79.375H90.3828V80.9277C90.7409 80.3809 91.0794 79.987 91.3984 79.7461C91.9714 79.3164 92.6973 79.1016 93.5762 79.1016ZM104.475 87.7148C105.126 87.7148 105.676 87.4707 106.125 86.9824C106.574 86.4876 106.799 85.7031 106.799 84.6289C106.799 83.6198 106.584 82.8516 106.154 82.3242C105.731 81.7969 105.161 81.5332 104.445 81.5332C103.469 81.5332 102.795 81.9922 102.424 82.9102C102.229 83.3984 102.131 84.0007 102.131 84.7168C102.131 85.3353 102.235 85.8854 102.443 86.3672C102.821 87.2656 103.498 87.7148 104.475 87.7148ZM103.781 79.1016C104.315 79.1016 104.781 79.1829 105.178 79.3457C105.855 79.6257 106.402 80.14 106.818 80.8887V79.3555H109.523V89.4531C109.523 90.8268 109.292 91.862 108.83 92.5586C108.036 93.7565 106.512 94.3555 104.26 94.3555C102.899 94.3555 101.789 94.0885 100.93 93.5547C100.07 93.0208 99.5951 92.2233 99.5039 91.1621H102.531C102.609 91.4876 102.736 91.722 102.912 91.8652C103.212 92.1191 103.716 92.2461 104.426 92.2461C105.428 92.2461 106.099 91.9108 106.438 91.2402C106.659 90.8105 106.77 90.0879 106.77 89.0723V88.3887C106.503 88.8444 106.216 89.1862 105.91 89.4141C105.357 89.8372 104.637 90.0488 103.752 90.0488C102.385 90.0488 101.291 89.5703 100.471 88.6133C99.6569 87.6497 99.25 86.3477 99.25 84.707C99.25 83.125 99.6439 81.7969 100.432 80.7227C101.219 79.6419 102.336 79.1016 103.781 79.1016ZM113.098 79.7754H116.057V82.6855H113.098V79.7754ZM113.098 87.0898H116.057V90H113.098V87.0898Z" fill="#BD1F1F"/>
</g>
<rect x="0.5" y="0.5" width="299" height="399" stroke="#CCCCCC"/>
</g>
</svg>
