<svg width="300" height="400" viewBox="0 0 300 400" fill="none" xmlns="http://www.w3.org/2000/svg">
<g id="eggs3">
<rect x="0.5" y="0.5" width="299" height="399" fill="white"/>
<path id="screen with ok and location message, pickup option" d="M35.4668 127.602C35.5254 128.096 35.6523 128.448 35.8477 128.656C36.1927 129.027 36.8307 129.213 37.7617 129.213C38.3086 129.213 38.7415 129.132 39.0605 128.969C39.3861 128.806 39.5488 128.562 39.5488 128.236C39.5488 127.924 39.4186 127.686 39.1582 127.523C38.8978 127.361 37.931 127.081 36.2578 126.684C35.0534 126.384 34.2038 126.01 33.709 125.561C33.2142 125.118 32.9668 124.48 32.9668 123.646C32.9668 122.663 33.3509 121.82 34.1191 121.117C34.8939 120.408 35.9811 120.053 37.3809 120.053C38.709 120.053 39.7897 120.32 40.623 120.854C41.4629 121.381 41.9447 122.296 42.0684 123.598H39.2852C39.2461 123.24 39.1452 122.956 38.9824 122.748C38.6764 122.37 38.1556 122.182 37.4199 122.182C36.8145 122.182 36.3815 122.276 36.1211 122.465C35.8672 122.654 35.7402 122.875 35.7402 123.129C35.7402 123.448 35.877 123.679 36.1504 123.822C36.4238 123.972 37.3906 124.229 39.0508 124.594C40.1576 124.854 40.9876 125.248 41.541 125.775C42.0879 126.309 42.3613 126.977 42.3613 127.777C42.3613 128.832 41.9674 129.695 41.1797 130.365C40.3984 131.029 39.1875 131.361 37.5469 131.361C35.8737 131.361 34.6367 131.01 33.8359 130.307C33.0417 129.597 32.6445 128.695 32.6445 127.602H35.4668ZM50.7891 124.174C50.737 123.777 50.6035 123.419 50.3887 123.1C50.0762 122.67 49.5911 122.455 48.9336 122.455C47.9961 122.455 47.3548 122.921 47.0098 123.852C46.8275 124.346 46.7363 125.004 46.7363 125.824C46.7363 126.605 46.8275 127.234 47.0098 127.709C47.3418 128.594 47.9668 129.037 48.8848 129.037C49.5358 129.037 49.998 128.861 50.2715 128.51C50.5449 128.158 50.7109 127.702 50.7695 127.143H53.6113C53.5462 127.989 53.2402 128.79 52.6934 129.545C51.821 130.762 50.5286 131.371 48.8164 131.371C47.1042 131.371 45.8444 130.863 45.0371 129.848C44.2298 128.832 43.8262 127.514 43.8262 125.893C43.8262 124.063 44.2721 122.641 45.1641 121.625C46.056 120.609 47.2865 120.102 48.8555 120.102C50.1901 120.102 51.2806 120.401 52.127 121C52.9798 121.599 53.4844 122.657 53.6406 124.174H50.7891ZM61.3457 120.102C61.3978 120.102 61.4401 120.105 61.4727 120.111C61.5117 120.111 61.5931 120.115 61.7168 120.121V122.973C61.541 122.953 61.3848 122.94 61.248 122.934C61.1113 122.927 61.0007 122.924 60.916 122.924C59.7962 122.924 59.0443 123.288 58.6602 124.018C58.4453 124.428 58.3379 125.059 58.3379 125.912V131H55.5352V120.355H58.1914V122.211C58.6211 121.501 58.9954 121.016 59.3145 120.756C59.8353 120.32 60.5124 120.102 61.3457 120.102ZM67.5566 122.367C66.9121 122.367 66.4108 122.569 66.0527 122.973C65.7012 123.376 65.4798 123.923 65.3887 124.613H69.7148C69.6693 123.878 69.4447 123.321 69.041 122.943C68.6439 122.559 68.1491 122.367 67.5566 122.367ZM67.5566 120.072C68.4421 120.072 69.2396 120.238 69.9492 120.57C70.6589 120.902 71.2448 121.426 71.707 122.143C72.1237 122.774 72.3939 123.507 72.5176 124.34C72.5892 124.828 72.6185 125.531 72.6055 126.449H65.3203C65.3594 127.517 65.6947 128.266 66.3262 128.695C66.7103 128.962 67.1725 129.096 67.7129 129.096C68.2858 129.096 68.7513 128.933 69.1094 128.607C69.3047 128.432 69.4772 128.188 69.627 127.875H72.4688C72.3971 128.507 72.0684 129.148 71.4824 129.799C70.571 130.834 69.2949 131.352 67.6543 131.352C66.3001 131.352 65.1055 130.915 64.0703 130.043C63.0352 129.171 62.5176 127.751 62.5176 125.785C62.5176 123.943 62.9831 122.53 63.9141 121.547C64.8516 120.564 66.0658 120.072 67.5566 120.072ZM78.6895 122.367C78.0449 122.367 77.5436 122.569 77.1855 122.973C76.834 123.376 76.6126 123.923 76.5215 124.613H80.8477C80.8021 123.878 80.5775 123.321 80.1738 122.943C79.7767 122.559 79.2819 122.367 78.6895 122.367ZM78.6895 120.072C79.5749 120.072 80.3724 120.238 81.082 120.57C81.7917 120.902 82.3776 121.426 82.8398 122.143C83.2565 122.774 83.5267 123.507 83.6504 124.34C83.722 124.828 83.7513 125.531 83.7383 126.449H76.4531C76.4922 127.517 76.8275 128.266 77.459 128.695C77.8431 128.962 78.3053 129.096 78.8457 129.096C79.4186 129.096 79.8841 128.933 80.2422 128.607C80.4375 128.432 80.61 128.188 80.7598 127.875H83.6016C83.5299 128.507 83.2012 129.148 82.6152 129.799C81.7038 130.834 80.4277 131.352 78.7871 131.352C77.4329 131.352 76.2383 130.915 75.2031 130.043C74.168 129.171 73.6504 127.751 73.6504 125.785C73.6504 123.943 74.1159 122.53 75.0469 121.547C75.9844 120.564 77.1986 120.072 78.6895 120.072ZM91.5215 120.102C92.6217 120.102 93.5202 120.391 94.2168 120.971C94.9199 121.544 95.2715 122.497 95.2715 123.832V131H92.4199V124.525C92.4199 123.965 92.3451 123.536 92.1953 123.236C91.9219 122.689 91.401 122.416 90.6328 122.416C89.6888 122.416 89.041 122.816 88.6895 123.617C88.5072 124.04 88.416 124.581 88.416 125.238V131H85.6426V120.375H88.3281V121.928C88.6862 121.381 89.0247 120.987 89.3438 120.746C89.9167 120.316 90.6426 120.102 91.5215 120.102ZM108.436 120.355H111.258L112.879 128.021L114.539 120.355H117.439L114.354 131H111.492L109.822 123.246L108.133 131H105.242L102.254 120.355H105.242L106.902 127.992L108.436 120.355ZM121.844 119.086H119.021V116.518H121.844V119.086ZM119.021 120.355H121.844V131H119.021V120.355ZM123.455 122.436V120.453H124.939V117.484H127.693V120.453H129.422V122.436H127.693V128.061C127.693 128.497 127.749 128.77 127.859 128.881C127.97 128.985 128.309 129.037 128.875 129.037C128.96 129.037 129.048 129.037 129.139 129.037C129.236 129.031 129.331 129.024 129.422 129.018V131.098L128.104 131.146C126.788 131.192 125.89 130.964 125.408 130.463C125.096 130.144 124.939 129.652 124.939 128.988V122.436H123.455ZM137.078 120.082C137.736 120.082 138.331 120.196 138.865 120.424C139.406 120.652 139.848 121 140.193 121.469C140.486 121.866 140.665 122.276 140.73 122.699C140.796 123.116 140.828 123.799 140.828 124.75V131H137.986V124.525C137.986 123.952 137.889 123.49 137.693 123.139C137.439 122.644 136.958 122.396 136.248 122.396C135.512 122.396 134.952 122.644 134.568 123.139C134.191 123.627 134.002 124.327 134.002 125.238V131H131.229V116.654H134.002V121.742C134.406 121.124 134.871 120.694 135.398 120.453C135.932 120.206 136.492 120.082 137.078 120.082ZM153.777 129.037C154.591 129.037 155.216 128.747 155.652 128.168C156.089 127.589 156.307 126.765 156.307 125.697C156.307 124.63 156.089 123.809 155.652 123.236C155.216 122.657 154.591 122.367 153.777 122.367C152.964 122.367 152.335 122.657 151.893 123.236C151.456 123.809 151.238 124.63 151.238 125.697C151.238 126.765 151.456 127.589 151.893 128.168C152.335 128.747 152.964 129.037 153.777 129.037ZM159.227 125.697C159.227 127.26 158.777 128.598 157.879 129.711C156.98 130.818 155.617 131.371 153.787 131.371C151.958 131.371 150.594 130.818 149.695 129.711C148.797 128.598 148.348 127.26 148.348 125.697C148.348 124.161 148.797 122.829 149.695 121.703C150.594 120.577 151.958 120.014 153.787 120.014C155.617 120.014 156.98 120.577 157.879 121.703C158.777 122.829 159.227 124.161 159.227 125.697ZM161.199 116.654H163.934V124.408L167.4 120.404H170.848L167.127 124.477L170.994 131H167.635L165.086 126.449L163.934 127.65V131H161.199V116.654ZM183.797 125.824C183.621 125.935 183.442 126.026 183.26 126.098C183.084 126.163 182.84 126.225 182.527 126.283L181.902 126.4C181.316 126.505 180.896 126.632 180.643 126.781C180.213 127.035 179.998 127.429 179.998 127.963C179.998 128.438 180.128 128.783 180.389 128.998C180.656 129.206 180.978 129.311 181.355 129.311C181.954 129.311 182.505 129.135 183.006 128.783C183.514 128.432 183.777 127.79 183.797 126.859V125.824ZM182.107 124.525C182.622 124.46 182.99 124.379 183.211 124.281C183.608 124.112 183.807 123.848 183.807 123.49C183.807 123.054 183.654 122.755 183.348 122.592C183.048 122.423 182.605 122.338 182.02 122.338C181.362 122.338 180.896 122.501 180.623 122.826C180.428 123.067 180.298 123.393 180.232 123.803H177.547C177.605 122.872 177.866 122.107 178.328 121.508C179.064 120.57 180.327 120.102 182.117 120.102C183.283 120.102 184.318 120.333 185.223 120.795C186.128 121.257 186.58 122.13 186.58 123.412V128.295C186.58 128.633 186.587 129.044 186.6 129.525C186.619 129.89 186.674 130.137 186.766 130.268C186.857 130.398 186.993 130.505 187.176 130.59V131H184.148C184.064 130.785 184.005 130.583 183.973 130.395C183.94 130.206 183.914 129.991 183.895 129.75C183.51 130.167 183.068 130.521 182.566 130.814C181.967 131.16 181.29 131.332 180.535 131.332C179.572 131.332 178.774 131.059 178.143 130.512C177.518 129.958 177.205 129.177 177.205 128.168C177.205 126.859 177.71 125.912 178.719 125.326C179.272 125.007 180.086 124.779 181.16 124.643L182.107 124.525ZM194.959 120.102C196.059 120.102 196.958 120.391 197.654 120.971C198.357 121.544 198.709 122.497 198.709 123.832V131H195.857V124.525C195.857 123.965 195.783 123.536 195.633 123.236C195.359 122.689 194.839 122.416 194.07 122.416C193.126 122.416 192.479 122.816 192.127 123.617C191.945 124.04 191.854 124.581 191.854 125.238V131H189.08V120.375H191.766V121.928C192.124 121.381 192.462 120.987 192.781 120.746C193.354 120.316 194.08 120.102 194.959 120.102ZM205.213 120.102C205.857 120.102 206.43 120.245 206.932 120.531C207.433 120.811 207.84 121.202 208.152 121.703V116.625H210.975V131H208.27V129.525C207.872 130.157 207.42 130.616 206.912 130.902C206.404 131.189 205.773 131.332 205.018 131.332C203.774 131.332 202.726 130.831 201.873 129.828C201.027 128.819 200.604 127.527 200.604 125.951C200.604 124.135 201.02 122.706 201.854 121.664C202.693 120.622 203.813 120.102 205.213 120.102ZM205.818 128.988C206.606 128.988 207.205 128.695 207.615 128.109C208.025 127.523 208.23 126.765 208.23 125.834C208.23 124.532 207.902 123.601 207.244 123.041C206.84 122.702 206.372 122.533 205.838 122.533C205.024 122.533 204.425 122.842 204.041 123.461C203.663 124.073 203.475 124.835 203.475 125.746C203.475 126.729 203.667 127.517 204.051 128.109C204.441 128.695 205.031 128.988 205.818 128.988ZM36.1406 154H33.3574V139.605H36.1406V154ZM43.6406 152.037C44.4544 152.037 45.0794 151.747 45.5156 151.168C45.9518 150.589 46.1699 149.765 46.1699 148.697C46.1699 147.63 45.9518 146.809 45.5156 146.236C45.0794 145.657 44.4544 145.367 43.6406 145.367C42.8268 145.367 42.1986 145.657 41.7559 146.236C41.3197 146.809 41.1016 147.63 41.1016 148.697C41.1016 149.765 41.3197 150.589 41.7559 151.168C42.1986 151.747 42.8268 152.037 43.6406 152.037ZM49.0898 148.697C49.0898 150.26 48.6406 151.598 47.7422 152.711C46.8438 153.818 45.4798 154.371 43.6504 154.371C41.821 154.371 40.457 153.818 39.5586 152.711C38.6602 151.598 38.2109 150.26 38.2109 148.697C38.2109 147.161 38.6602 145.829 39.5586 144.703C40.457 143.577 41.821 143.014 43.6504 143.014C45.4798 143.014 46.8438 143.577 47.7422 144.703C48.6406 145.829 49.0898 147.161 49.0898 148.697ZM57.4492 147.174C57.3971 146.777 57.2637 146.419 57.0488 146.1C56.7363 145.67 56.2513 145.455 55.5938 145.455C54.6562 145.455 54.015 145.921 53.6699 146.852C53.4876 147.346 53.3965 148.004 53.3965 148.824C53.3965 149.605 53.4876 150.234 53.6699 150.709C54.002 151.594 54.627 152.037 55.5449 152.037C56.196 152.037 56.6582 151.861 56.9316 151.51C57.2051 151.158 57.3711 150.702 57.4297 150.143H60.2715C60.2064 150.989 59.9004 151.79 59.3535 152.545C58.4811 153.762 57.1888 154.371 55.4766 154.371C53.7643 154.371 52.5046 153.863 51.6973 152.848C50.89 151.832 50.4863 150.514 50.4863 148.893C50.4863 147.063 50.9323 145.641 51.8242 144.625C52.7161 143.609 53.9466 143.102 55.5156 143.102C56.8503 143.102 57.9408 143.401 58.7871 144C59.64 144.599 60.1445 145.657 60.3008 147.174H57.4492ZM68.0938 148.824C67.918 148.935 67.7389 149.026 67.5566 149.098C67.3809 149.163 67.1367 149.225 66.8242 149.283L66.1992 149.4C65.6133 149.505 65.1934 149.632 64.9395 149.781C64.5098 150.035 64.2949 150.429 64.2949 150.963C64.2949 151.438 64.4251 151.783 64.6855 151.998C64.9525 152.206 65.2747 152.311 65.6523 152.311C66.2513 152.311 66.8014 152.135 67.3027 151.783C67.8105 151.432 68.0742 150.79 68.0938 149.859V148.824ZM66.4043 147.525C66.9186 147.46 67.2865 147.379 67.5078 147.281C67.9049 147.112 68.1035 146.848 68.1035 146.49C68.1035 146.054 67.9505 145.755 67.6445 145.592C67.3451 145.423 66.9023 145.338 66.3164 145.338C65.6589 145.338 65.1934 145.501 64.9199 145.826C64.7246 146.067 64.5944 146.393 64.5293 146.803H61.8438C61.9023 145.872 62.1628 145.107 62.625 144.508C63.3607 143.57 64.6237 143.102 66.4141 143.102C67.5794 143.102 68.6146 143.333 69.5195 143.795C70.4245 144.257 70.877 145.13 70.877 146.412V151.295C70.877 151.633 70.8835 152.044 70.8965 152.525C70.916 152.89 70.9714 153.137 71.0625 153.268C71.1536 153.398 71.2904 153.505 71.4727 153.59V154H68.4453C68.3607 153.785 68.3021 153.583 68.2695 153.395C68.237 153.206 68.2109 152.991 68.1914 152.75C67.8073 153.167 67.3646 153.521 66.8633 153.814C66.2643 154.16 65.5872 154.332 64.832 154.332C63.8685 154.332 63.071 154.059 62.4395 153.512C61.8145 152.958 61.502 152.177 61.502 151.168C61.502 149.859 62.0065 148.912 63.0156 148.326C63.569 148.007 64.3828 147.779 65.457 147.643L66.4043 147.525ZM72.2637 145.436V143.453H73.748V140.484H76.502V143.453H78.2305V145.436H76.502V151.061C76.502 151.497 76.5573 151.77 76.668 151.881C76.7786 151.985 77.1172 152.037 77.6836 152.037C77.7682 152.037 77.8561 152.037 77.9473 152.037C78.0449 152.031 78.1393 152.024 78.2305 152.018V154.098L76.9121 154.146C75.597 154.192 74.6986 153.964 74.2168 153.463C73.9043 153.144 73.748 152.652 73.748 151.988V145.436H72.2637ZM82.8789 142.086H80.0566V139.518H82.8789V142.086ZM80.0566 143.355H82.8789V154H80.0566V143.355ZM90.3594 152.037C91.1732 152.037 91.7982 151.747 92.2344 151.168C92.6706 150.589 92.8887 149.765 92.8887 148.697C92.8887 147.63 92.6706 146.809 92.2344 146.236C91.7982 145.657 91.1732 145.367 90.3594 145.367C89.5456 145.367 88.9173 145.657 88.4746 146.236C88.0384 146.809 87.8203 147.63 87.8203 148.697C87.8203 149.765 88.0384 150.589 88.4746 151.168C88.9173 151.747 89.5456 152.037 90.3594 152.037ZM95.8086 148.697C95.8086 150.26 95.3594 151.598 94.4609 152.711C93.5625 153.818 92.1986 154.371 90.3691 154.371C88.5397 154.371 87.1758 153.818 86.2773 152.711C85.3789 151.598 84.9297 150.26 84.9297 148.697C84.9297 147.161 85.3789 145.829 86.2773 144.703C87.1758 143.577 88.5397 143.014 90.3691 143.014C92.1986 143.014 93.5625 143.577 94.4609 144.703C95.3594 145.829 95.8086 147.161 95.8086 148.697ZM103.709 143.102C104.809 143.102 105.708 143.391 106.404 143.971C107.107 144.544 107.459 145.497 107.459 146.832V154H104.607V147.525C104.607 146.965 104.533 146.536 104.383 146.236C104.109 145.689 103.589 145.416 102.82 145.416C101.876 145.416 101.229 145.816 100.877 146.617C100.695 147.04 100.604 147.581 100.604 148.238V154H97.8301V143.375H100.516V144.928C100.874 144.381 101.212 143.987 101.531 143.746C102.104 143.316 102.83 143.102 103.709 143.102ZM127.498 143.121C127.967 143.121 128.429 143.212 128.885 143.395C129.34 143.577 129.754 143.896 130.125 144.352C130.424 144.723 130.626 145.178 130.73 145.719C130.796 146.077 130.828 146.601 130.828 147.291L130.809 154H127.957V147.223C127.957 146.819 127.892 146.487 127.762 146.227C127.514 145.732 127.059 145.484 126.395 145.484C125.626 145.484 125.096 145.803 124.803 146.441C124.653 146.78 124.578 147.187 124.578 147.662V154H121.775V147.662C121.775 147.031 121.71 146.572 121.58 146.285C121.346 145.771 120.887 145.514 120.203 145.514C119.409 145.514 118.875 145.771 118.602 146.285C118.452 146.578 118.377 147.014 118.377 147.594V154H115.555V143.375H118.26V144.928C118.605 144.374 118.93 143.98 119.236 143.746C119.777 143.329 120.477 143.121 121.336 143.121C122.15 143.121 122.807 143.3 123.309 143.658C123.712 143.99 124.018 144.417 124.227 144.938C124.591 144.312 125.044 143.854 125.584 143.561C126.157 143.268 126.795 143.121 127.498 143.121ZM137.596 145.367C136.951 145.367 136.45 145.569 136.092 145.973C135.74 146.376 135.519 146.923 135.428 147.613H139.754C139.708 146.878 139.484 146.321 139.08 145.943C138.683 145.559 138.188 145.367 137.596 145.367ZM137.596 143.072C138.481 143.072 139.279 143.238 139.988 143.57C140.698 143.902 141.284 144.426 141.746 145.143C142.163 145.774 142.433 146.507 142.557 147.34C142.628 147.828 142.658 148.531 142.645 149.449H135.359C135.398 150.517 135.734 151.266 136.365 151.695C136.749 151.962 137.212 152.096 137.752 152.096C138.325 152.096 138.79 151.933 139.148 151.607C139.344 151.432 139.516 151.188 139.666 150.875H142.508C142.436 151.507 142.107 152.148 141.521 152.799C140.61 153.834 139.334 154.352 137.693 154.352C136.339 154.352 135.145 153.915 134.109 153.043C133.074 152.171 132.557 150.751 132.557 148.785C132.557 146.943 133.022 145.53 133.953 144.547C134.891 143.564 136.105 143.072 137.596 143.072ZM146.697 150.602C146.756 151.096 146.883 151.448 147.078 151.656C147.423 152.027 148.061 152.213 148.992 152.213C149.539 152.213 149.972 152.132 150.291 151.969C150.617 151.806 150.779 151.562 150.779 151.236C150.779 150.924 150.649 150.686 150.389 150.523C150.128 150.361 149.161 150.081 147.488 149.684C146.284 149.384 145.434 149.01 144.939 148.561C144.445 148.118 144.197 147.48 144.197 146.646C144.197 145.663 144.581 144.82 145.35 144.117C146.124 143.408 147.212 143.053 148.611 143.053C149.939 143.053 151.02 143.32 151.854 143.854C152.693 144.381 153.175 145.296 153.299 146.598H150.516C150.477 146.24 150.376 145.956 150.213 145.748C149.907 145.37 149.386 145.182 148.65 145.182C148.045 145.182 147.612 145.276 147.352 145.465C147.098 145.654 146.971 145.875 146.971 146.129C146.971 146.448 147.107 146.679 147.381 146.822C147.654 146.972 148.621 147.229 150.281 147.594C151.388 147.854 152.218 148.248 152.771 148.775C153.318 149.309 153.592 149.977 153.592 150.777C153.592 151.832 153.198 152.695 152.41 153.365C151.629 154.029 150.418 154.361 148.777 154.361C147.104 154.361 145.867 154.01 145.066 153.307C144.272 152.597 143.875 151.695 143.875 150.602H146.697ZM157.83 150.602C157.889 151.096 158.016 151.448 158.211 151.656C158.556 152.027 159.194 152.213 160.125 152.213C160.672 152.213 161.105 152.132 161.424 151.969C161.749 151.806 161.912 151.562 161.912 151.236C161.912 150.924 161.782 150.686 161.521 150.523C161.261 150.361 160.294 150.081 158.621 149.684C157.417 149.384 156.567 149.01 156.072 148.561C155.577 148.118 155.33 147.48 155.33 146.646C155.33 145.663 155.714 144.82 156.482 144.117C157.257 143.408 158.344 143.053 159.744 143.053C161.072 143.053 162.153 143.32 162.986 143.854C163.826 144.381 164.308 145.296 164.432 146.598H161.648C161.609 146.24 161.508 145.956 161.346 145.748C161.04 145.37 160.519 145.182 159.783 145.182C159.178 145.182 158.745 145.276 158.484 145.465C158.23 145.654 158.104 145.875 158.104 146.129C158.104 146.448 158.24 146.679 158.514 146.822C158.787 146.972 159.754 147.229 161.414 147.594C162.521 147.854 163.351 148.248 163.904 148.775C164.451 149.309 164.725 149.977 164.725 150.777C164.725 151.832 164.331 152.695 163.543 153.365C162.762 154.029 161.551 154.361 159.91 154.361C158.237 154.361 157 154.01 156.199 153.307C155.405 152.597 155.008 151.695 155.008 150.602H157.83ZM172.664 148.824C172.488 148.935 172.309 149.026 172.127 149.098C171.951 149.163 171.707 149.225 171.395 149.283L170.77 149.4C170.184 149.505 169.764 149.632 169.51 149.781C169.08 150.035 168.865 150.429 168.865 150.963C168.865 151.438 168.995 151.783 169.256 151.998C169.523 152.206 169.845 152.311 170.223 152.311C170.822 152.311 171.372 152.135 171.873 151.783C172.381 151.432 172.645 150.79 172.664 149.859V148.824ZM170.975 147.525C171.489 147.46 171.857 147.379 172.078 147.281C172.475 147.112 172.674 146.848 172.674 146.49C172.674 146.054 172.521 145.755 172.215 145.592C171.915 145.423 171.473 145.338 170.887 145.338C170.229 145.338 169.764 145.501 169.49 145.826C169.295 146.067 169.165 146.393 169.1 146.803H166.414C166.473 145.872 166.733 145.107 167.195 144.508C167.931 143.57 169.194 143.102 170.984 143.102C172.15 143.102 173.185 143.333 174.09 143.795C174.995 144.257 175.447 145.13 175.447 146.412V151.295C175.447 151.633 175.454 152.044 175.467 152.525C175.486 152.89 175.542 153.137 175.633 153.268C175.724 153.398 175.861 153.505 176.043 153.59V154H173.016C172.931 153.785 172.872 153.583 172.84 153.395C172.807 153.206 172.781 152.991 172.762 152.75C172.378 153.167 171.935 153.521 171.434 153.814C170.835 154.16 170.158 154.332 169.402 154.332C168.439 154.332 167.641 154.059 167.01 153.512C166.385 152.958 166.072 152.177 166.072 151.168C166.072 149.859 166.577 148.912 167.586 148.326C168.139 148.007 168.953 147.779 170.027 147.643L170.975 147.525ZM182.498 151.715C183.149 151.715 183.699 151.471 184.148 150.982C184.598 150.488 184.822 149.703 184.822 148.629C184.822 147.62 184.607 146.852 184.178 146.324C183.755 145.797 183.185 145.533 182.469 145.533C181.492 145.533 180.818 145.992 180.447 146.91C180.252 147.398 180.154 148.001 180.154 148.717C180.154 149.335 180.258 149.885 180.467 150.367C180.844 151.266 181.521 151.715 182.498 151.715ZM181.805 143.102C182.339 143.102 182.804 143.183 183.201 143.346C183.878 143.626 184.425 144.14 184.842 144.889V143.355H187.547V153.453C187.547 154.827 187.316 155.862 186.854 156.559C186.059 157.757 184.536 158.355 182.283 158.355C180.923 158.355 179.812 158.089 178.953 157.555C178.094 157.021 177.618 156.223 177.527 155.162H180.555C180.633 155.488 180.76 155.722 180.936 155.865C181.235 156.119 181.74 156.246 182.449 156.246C183.452 156.246 184.122 155.911 184.461 155.24C184.682 154.811 184.793 154.088 184.793 153.072V152.389C184.526 152.844 184.24 153.186 183.934 153.414C183.38 153.837 182.661 154.049 181.775 154.049C180.408 154.049 179.314 153.57 178.494 152.613C177.68 151.65 177.273 150.348 177.273 148.707C177.273 147.125 177.667 145.797 178.455 144.723C179.243 143.642 180.359 143.102 181.805 143.102ZM194.354 145.367C193.709 145.367 193.208 145.569 192.85 145.973C192.498 146.376 192.277 146.923 192.186 147.613H196.512C196.466 146.878 196.242 146.321 195.838 145.943C195.441 145.559 194.946 145.367 194.354 145.367ZM194.354 143.072C195.239 143.072 196.036 143.238 196.746 143.57C197.456 143.902 198.042 144.426 198.504 145.143C198.921 145.774 199.191 146.507 199.314 147.34C199.386 147.828 199.415 148.531 199.402 149.449H192.117C192.156 150.517 192.492 151.266 193.123 151.695C193.507 151.962 193.969 152.096 194.51 152.096C195.083 152.096 195.548 151.933 195.906 151.607C196.102 151.432 196.274 151.188 196.424 150.875H199.266C199.194 151.507 198.865 152.148 198.279 152.799C197.368 153.834 196.092 154.352 194.451 154.352C193.097 154.352 191.902 153.915 190.867 153.043C189.832 152.171 189.314 150.751 189.314 148.785C189.314 146.943 189.78 145.53 190.711 144.547C191.648 143.564 192.863 143.072 194.354 143.072ZM201.141 156.314C201.701 156.158 202.111 155.898 202.371 155.533C202.638 155.169 202.791 154.658 202.83 154H201.141V151.09H204.148V153.609C204.148 154.052 204.09 154.514 203.973 154.996C203.855 155.478 203.637 155.895 203.318 156.246C202.973 156.624 202.566 156.907 202.098 157.096C201.635 157.291 201.316 157.389 201.141 157.389V156.314ZM40.6328 171.678C40.6328 170.857 40.444 170.132 40.0664 169.5C39.6953 168.868 39.0898 168.553 38.25 168.553C37.2409 168.553 36.5475 169.031 36.1699 169.988C35.9746 170.496 35.877 171.141 35.877 171.922C35.877 173.159 36.2057 174.028 36.8633 174.529C37.2539 174.822 37.7161 174.969 38.25 174.969C39.0247 174.969 39.6139 174.669 40.0176 174.07C40.4277 173.471 40.6328 172.674 40.6328 171.678ZM39.0508 166.121C40.2943 166.121 41.3457 166.58 42.2051 167.498C43.071 168.416 43.5039 169.764 43.5039 171.541C43.5039 173.416 43.0807 174.845 42.2344 175.828C41.3945 176.811 40.3105 177.303 38.9824 177.303C38.1361 177.303 37.4329 177.091 36.873 176.668C36.5671 176.434 36.2676 176.092 35.9746 175.643V181.189H33.2207V166.355H35.8867V167.928C36.1862 167.465 36.5052 167.101 36.8438 166.834C37.4622 166.359 38.1979 166.121 39.0508 166.121ZM48.3867 165.086H45.5645V162.518H48.3867V165.086ZM45.5645 166.355H48.3867V177H45.5645V166.355ZM57.4492 170.174C57.3971 169.777 57.2637 169.419 57.0488 169.1C56.7363 168.67 56.2513 168.455 55.5938 168.455C54.6562 168.455 54.015 168.921 53.6699 169.852C53.4876 170.346 53.3965 171.004 53.3965 171.824C53.3965 172.605 53.4876 173.234 53.6699 173.709C54.002 174.594 54.627 175.037 55.5449 175.037C56.196 175.037 56.6582 174.861 56.9316 174.51C57.2051 174.158 57.3711 173.702 57.4297 173.143H60.2715C60.2064 173.989 59.9004 174.79 59.3535 175.545C58.4811 176.762 57.1888 177.371 55.4766 177.371C53.7643 177.371 52.5046 176.863 51.6973 175.848C50.89 174.832 50.4863 173.514 50.4863 171.893C50.4863 170.063 50.9323 168.641 51.8242 167.625C52.7161 166.609 53.9466 166.102 55.5156 166.102C56.8503 166.102 57.9408 166.401 58.7871 167C59.64 167.599 60.1445 168.657 60.3008 170.174H57.4492ZM62.1953 162.654H64.9297V170.408L68.3965 166.404H71.8438L68.123 170.477L71.9902 177H68.6309L66.082 172.449L64.9297 173.65V177H62.1953V162.654ZM76.1309 166.355V172.771C76.1309 173.377 76.2025 173.833 76.3457 174.139C76.5996 174.679 77.0977 174.949 77.8398 174.949C78.7904 174.949 79.4414 174.565 79.793 173.797C79.9753 173.38 80.0664 172.83 80.0664 172.146V166.355H82.8887V177H80.1836V175.496C80.1576 175.529 80.0924 175.626 79.9883 175.789C79.8841 175.952 79.7604 176.095 79.6172 176.219C79.181 176.609 78.7578 176.876 78.3477 177.02C77.944 177.163 77.4688 177.234 76.9219 177.234C75.3464 177.234 74.2852 176.668 73.7383 175.535C73.4323 174.91 73.2793 173.989 73.2793 172.771V166.355H76.1309ZM92.918 171.678C92.918 170.857 92.7292 170.132 92.3516 169.5C91.9805 168.868 91.375 168.553 90.5352 168.553C89.526 168.553 88.8327 169.031 88.4551 169.988C88.2598 170.496 88.1621 171.141 88.1621 171.922C88.1621 173.159 88.4909 174.028 89.1484 174.529C89.5391 174.822 90.0013 174.969 90.5352 174.969C91.3099 174.969 91.8991 174.669 92.3027 174.07C92.7129 173.471 92.918 172.674 92.918 171.678ZM91.3359 166.121C92.5794 166.121 93.6309 166.58 94.4902 167.498C95.3561 168.416 95.7891 169.764 95.7891 171.541C95.7891 173.416 95.3659 174.845 94.5195 175.828C93.6797 176.811 92.5957 177.303 91.2676 177.303C90.4212 177.303 89.7181 177.091 89.1582 176.668C88.8522 176.434 88.5527 176.092 88.2598 175.643V181.189H85.5059V166.355H88.1719V167.928C88.4714 167.465 88.7904 167.101 89.1289 166.834C89.7474 166.359 90.4831 166.121 91.3359 166.121ZM108.152 175.037C108.966 175.037 109.591 174.747 110.027 174.168C110.464 173.589 110.682 172.765 110.682 171.697C110.682 170.63 110.464 169.809 110.027 169.236C109.591 168.657 108.966 168.367 108.152 168.367C107.339 168.367 106.71 168.657 106.268 169.236C105.831 169.809 105.613 170.63 105.613 171.697C105.613 172.765 105.831 173.589 106.268 174.168C106.71 174.747 107.339 175.037 108.152 175.037ZM113.602 171.697C113.602 173.26 113.152 174.598 112.254 175.711C111.355 176.818 109.992 177.371 108.162 177.371C106.333 177.371 104.969 176.818 104.07 175.711C103.172 174.598 102.723 173.26 102.723 171.697C102.723 170.161 103.172 168.829 104.07 167.703C104.969 166.577 106.333 166.014 108.162 166.014C109.992 166.014 111.355 166.577 112.254 167.703C113.152 168.829 113.602 170.161 113.602 171.697ZM122.938 171.678C122.938 170.857 122.749 170.132 122.371 169.5C122 168.868 121.395 168.553 120.555 168.553C119.546 168.553 118.852 169.031 118.475 169.988C118.279 170.496 118.182 171.141 118.182 171.922C118.182 173.159 118.51 174.028 119.168 174.529C119.559 174.822 120.021 174.969 120.555 174.969C121.329 174.969 121.919 174.669 122.322 174.07C122.732 173.471 122.938 172.674 122.938 171.678ZM121.355 166.121C122.599 166.121 123.65 166.58 124.51 167.498C125.376 168.416 125.809 169.764 125.809 171.541C125.809 173.416 125.385 174.845 124.539 175.828C123.699 176.811 122.615 177.303 121.287 177.303C120.441 177.303 119.738 177.091 119.178 176.668C118.872 176.434 118.572 176.092 118.279 175.643V181.189H115.525V166.355H118.191V167.928C118.491 167.465 118.81 167.101 119.148 166.834C119.767 166.359 120.503 166.121 121.355 166.121ZM126.736 168.436V166.453H128.221V163.484H130.975V166.453H132.703V168.436H130.975V174.061C130.975 174.497 131.03 174.77 131.141 174.881C131.251 174.985 131.59 175.037 132.156 175.037C132.241 175.037 132.329 175.037 132.42 175.037C132.518 175.031 132.612 175.024 132.703 175.018V177.098L131.385 177.146C130.07 177.192 129.171 176.964 128.689 176.463C128.377 176.144 128.221 175.652 128.221 174.988V168.436H126.736ZM137.352 165.086H134.529V162.518H137.352V165.086ZM134.529 166.355H137.352V177H134.529V166.355ZM144.832 175.037C145.646 175.037 146.271 174.747 146.707 174.168C147.143 173.589 147.361 172.765 147.361 171.697C147.361 170.63 147.143 169.809 146.707 169.236C146.271 168.657 145.646 168.367 144.832 168.367C144.018 168.367 143.39 168.657 142.947 169.236C142.511 169.809 142.293 170.63 142.293 171.697C142.293 172.765 142.511 173.589 142.947 174.168C143.39 174.747 144.018 175.037 144.832 175.037ZM150.281 171.697C150.281 173.26 149.832 174.598 148.934 175.711C148.035 176.818 146.671 177.371 144.842 177.371C143.012 177.371 141.648 176.818 140.75 175.711C139.852 174.598 139.402 173.26 139.402 171.697C139.402 170.161 139.852 168.829 140.75 167.703C141.648 166.577 143.012 166.014 144.842 166.014C146.671 166.014 148.035 166.577 148.934 167.703C149.832 168.829 150.281 170.161 150.281 171.697ZM158.182 166.102C159.282 166.102 160.18 166.391 160.877 166.971C161.58 167.544 161.932 168.497 161.932 169.832V177H159.08V170.525C159.08 169.965 159.005 169.536 158.855 169.236C158.582 168.689 158.061 168.416 157.293 168.416C156.349 168.416 155.701 168.816 155.35 169.617C155.167 170.04 155.076 170.581 155.076 171.238V177H152.303V166.375H154.988V167.928C155.346 167.381 155.685 166.987 156.004 166.746C156.577 166.316 157.303 166.102 158.182 166.102Z" fill="#BD1F1F"/>
<path id="pending:" d="M41.6328 84.6777C41.6328 83.8574 41.444 83.1315 41.0664 82.5C40.6953 81.8685 40.0898 81.5527 39.25 81.5527C38.2409 81.5527 37.5475 82.0312 37.1699 82.9883C36.9746 83.4961 36.877 84.1406 36.877 84.9219C36.877 86.1589 37.2057 87.028 37.8633 87.5293C38.2539 87.8223 38.7161 87.9688 39.25 87.9688C40.0247 87.9688 40.6139 87.6693 41.0176 87.0703C41.4277 86.4714 41.6328 85.6738 41.6328 84.6777ZM40.0508 79.1211C41.2943 79.1211 42.3457 79.5801 43.2051 80.498C44.071 81.416 44.5039 82.7637 44.5039 84.541C44.5039 86.416 44.0807 87.8451 43.2344 88.8281C42.3945 89.8112 41.3105 90.3027 39.9824 90.3027C39.1361 90.3027 38.4329 90.0911 37.873 89.668C37.5671 89.4336 37.2676 89.0918 36.9746 88.6426V94.1895H34.2207V79.3555H36.8867V80.9277C37.1862 80.4655 37.5052 80.1009 37.8438 79.834C38.4622 79.3587 39.1979 79.1211 40.0508 79.1211ZM50.7246 81.3672C50.0801 81.3672 49.5788 81.569 49.2207 81.9727C48.8691 82.3763 48.6478 82.9232 48.5566 83.6133H52.8828C52.8372 82.8776 52.6126 82.321 52.209 81.9434C51.8118 81.5592 51.3171 81.3672 50.7246 81.3672ZM50.7246 79.0723C51.61 79.0723 52.4076 79.2383 53.1172 79.5703C53.8268 79.9023 54.4128 80.4264 54.875 81.1426C55.2917 81.7741 55.5618 82.5065 55.6855 83.3398C55.7572 83.8281 55.7865 84.5312 55.7734 85.4492H48.4883C48.5273 86.5169 48.8626 87.2656 49.4941 87.6953C49.8783 87.9622 50.3405 88.0957 50.8809 88.0957C51.4538 88.0957 51.9193 87.9329 52.2773 87.6074C52.4727 87.4316 52.6452 87.1875 52.7949 86.875H55.6367C55.5651 87.5065 55.2363 88.1478 54.6504 88.7988C53.7389 89.834 52.4629 90.3516 50.8223 90.3516C49.4681 90.3516 48.2734 89.9154 47.2383 89.043C46.2031 88.1706 45.6855 86.7513 45.6855 84.7852C45.6855 82.9427 46.151 81.5299 47.082 80.5469C48.0195 79.5638 49.2337 79.0723 50.7246 79.0723ZM63.5566 79.1016C64.6569 79.1016 65.5553 79.3913 66.252 79.9707C66.9551 80.5436 67.3066 81.4974 67.3066 82.832V90H64.4551V83.5254C64.4551 82.9655 64.3802 82.5358 64.2305 82.2363C63.957 81.6895 63.4362 81.416 62.668 81.416C61.724 81.416 61.0762 81.8164 60.7246 82.6172C60.5423 83.0404 60.4512 83.5807 60.4512 84.2383V90H57.6777V79.375H60.3633V80.9277C60.7214 80.3809 61.0599 79.987 61.3789 79.7461C61.9518 79.3164 62.6777 79.1016 63.5566 79.1016ZM73.8105 79.1016C74.4551 79.1016 75.028 79.2448 75.5293 79.5312C76.0306 79.8112 76.4375 80.2018 76.75 80.7031V75.625H79.5723V90H76.8672V88.5254C76.4701 89.1569 76.0176 89.6159 75.5098 89.9023C75.002 90.1888 74.3704 90.332 73.6152 90.332C72.3717 90.332 71.3236 89.8307 70.4707 88.8281C69.6243 87.819 69.2012 86.5267 69.2012 84.9512C69.2012 83.1348 69.6178 81.7057 70.4512 80.6641C71.291 79.6224 72.4108 79.1016 73.8105 79.1016ZM74.416 87.9883C75.2038 87.9883 75.8027 87.6953 76.2129 87.1094C76.623 86.5234 76.8281 85.765 76.8281 84.834C76.8281 83.5319 76.4993 82.6009 75.8418 82.041C75.4382 81.7025 74.9694 81.5332 74.4355 81.5332C73.6217 81.5332 73.0228 81.8424 72.6387 82.4609C72.2611 83.0729 72.0723 83.8346 72.0723 84.7461C72.0723 85.7292 72.2643 86.5169 72.6484 87.1094C73.0391 87.6953 73.6283 87.9883 74.416 87.9883ZM84.9727 78.0859H82.1504V75.5176H84.9727V78.0859ZM82.1504 79.3555H84.9727V90H82.1504V79.3555ZM93.5762 79.1016C94.6764 79.1016 95.5749 79.3913 96.2715 79.9707C96.9746 80.5436 97.3262 81.4974 97.3262 82.832V90H94.4746V83.5254C94.4746 82.9655 94.3997 82.5358 94.25 82.2363C93.9766 81.6895 93.4557 81.416 92.6875 81.416C91.7435 81.416 91.0957 81.8164 90.7441 82.6172C90.5618 83.0404 90.4707 83.5807 90.4707 84.2383V90H87.6973V79.375H90.3828V80.9277C90.7409 80.3809 91.0794 79.987 91.3984 79.7461C91.9714 79.3164 92.6973 79.1016 93.5762 79.1016ZM104.475 87.7148C105.126 87.7148 105.676 87.4707 106.125 86.9824C106.574 86.4876 106.799 85.7031 106.799 84.6289C106.799 83.6198 106.584 82.8516 106.154 82.3242C105.731 81.7969 105.161 81.5332 104.445 81.5332C103.469 81.5332 102.795 81.9922 102.424 82.9102C102.229 83.3984 102.131 84.0007 102.131 84.7168C102.131 85.3353 102.235 85.8854 102.443 86.3672C102.821 87.2656 103.498 87.7148 104.475 87.7148ZM103.781 79.1016C104.315 79.1016 104.781 79.1829 105.178 79.3457C105.855 79.6257 106.402 80.14 106.818 80.8887V79.3555H109.523V89.4531C109.523 90.8268 109.292 91.862 108.83 92.5586C108.036 93.7565 106.512 94.3555 104.26 94.3555C102.899 94.3555 101.789 94.0885 100.93 93.5547C100.07 93.0208 99.5951 92.2233 99.5039 91.1621H102.531C102.609 91.4876 102.736 91.722 102.912 91.8652C103.212 92.1191 103.716 92.2461 104.426 92.2461C105.428 92.2461 106.099 91.9108 106.438 91.2402C106.659 90.8105 106.77 90.0879 106.77 89.0723V88.3887C106.503 88.8444 106.216 89.1862 105.91 89.4141C105.357 89.8372 104.637 90.0488 103.752 90.0488C102.385 90.0488 101.291 89.5703 100.471 88.6133C99.6569 87.6497 99.25 86.3477 99.25 84.707C99.25 83.125 99.6439 81.7969 100.432 80.7227C101.219 79.6419 102.336 79.1016 103.781 79.1016ZM113.098 79.7754H116.057V82.6855H113.098V79.7754ZM113.098 87.0898H116.057V90H113.098V87.0898Z" fill="#BD1F1F"/>
<rect x="0.5" y="0.5" width="299" height="399" stroke="#CCCCCC"/>
</g>
</svg>
