<svg width="300" height="400" viewBox="0 0 300 400" fill="none" xmlns="http://www.w3.org/2000/svg">
<g id="eggs2">
<rect x="0.5" y="0.5" width="299" height="399" fill="white"/>
<path id="screen with location, talk" d="M35.4668 127.602C35.5254 128.096 35.6523 128.448 35.8477 128.656C36.1927 129.027 36.8307 129.213 37.7617 129.213C38.3086 129.213 38.7415 129.132 39.0605 128.969C39.3861 128.806 39.5488 128.562 39.5488 128.236C39.5488 127.924 39.4186 127.686 39.1582 127.523C38.8978 127.361 37.931 127.081 36.2578 126.684C35.0534 126.384 34.2038 126.01 33.709 125.561C33.2142 125.118 32.9668 124.48 32.9668 123.646C32.9668 122.663 33.3509 121.82 34.1191 121.117C34.8939 120.408 35.9811 120.053 37.3809 120.053C38.709 120.053 39.7897 120.32 40.623 120.854C41.4629 121.381 41.9447 122.296 42.0684 123.598H39.2852C39.2461 123.24 39.1452 122.956 38.9824 122.748C38.6764 122.37 38.1556 122.182 37.4199 122.182C36.8145 122.182 36.3815 122.276 36.1211 122.465C35.8672 122.654 35.7402 122.875 35.7402 123.129C35.7402 123.448 35.877 123.679 36.1504 123.822C36.4238 123.972 37.3906 124.229 39.0508 124.594C40.1576 124.854 40.9876 125.248 41.541 125.775C42.0879 126.309 42.3613 126.977 42.3613 127.777C42.3613 128.832 41.9674 129.695 41.1797 130.365C40.3984 131.029 39.1875 131.361 37.5469 131.361C35.8737 131.361 34.6367 131.01 33.8359 130.307C33.0417 129.597 32.6445 128.695 32.6445 127.602H35.4668ZM50.7891 124.174C50.737 123.777 50.6035 123.419 50.3887 123.1C50.0762 122.67 49.5911 122.455 48.9336 122.455C47.9961 122.455 47.3548 122.921 47.0098 123.852C46.8275 124.346 46.7363 125.004 46.7363 125.824C46.7363 126.605 46.8275 127.234 47.0098 127.709C47.3418 128.594 47.9668 129.037 48.8848 129.037C49.5358 129.037 49.998 128.861 50.2715 128.51C50.5449 128.158 50.7109 127.702 50.7695 127.143H53.6113C53.5462 127.989 53.2402 128.79 52.6934 129.545C51.821 130.762 50.5286 131.371 48.8164 131.371C47.1042 131.371 45.8444 130.863 45.0371 129.848C44.2298 128.832 43.8262 127.514 43.8262 125.893C43.8262 124.063 44.2721 122.641 45.1641 121.625C46.056 120.609 47.2865 120.102 48.8555 120.102C50.1901 120.102 51.2806 120.401 52.127 121C52.9798 121.599 53.4844 122.657 53.6406 124.174H50.7891ZM61.3457 120.102C61.3978 120.102 61.4401 120.105 61.4727 120.111C61.5117 120.111 61.5931 120.115 61.7168 120.121V122.973C61.541 122.953 61.3848 122.94 61.248 122.934C61.1113 122.927 61.0007 122.924 60.916 122.924C59.7962 122.924 59.0443 123.288 58.6602 124.018C58.4453 124.428 58.3379 125.059 58.3379 125.912V131H55.5352V120.355H58.1914V122.211C58.6211 121.501 58.9954 121.016 59.3145 120.756C59.8353 120.32 60.5124 120.102 61.3457 120.102ZM67.5566 122.367C66.9121 122.367 66.4108 122.569 66.0527 122.973C65.7012 123.376 65.4798 123.923 65.3887 124.613H69.7148C69.6693 123.878 69.4447 123.321 69.041 122.943C68.6439 122.559 68.1491 122.367 67.5566 122.367ZM67.5566 120.072C68.4421 120.072 69.2396 120.238 69.9492 120.57C70.6589 120.902 71.2448 121.426 71.707 122.143C72.1237 122.774 72.3939 123.507 72.5176 124.34C72.5892 124.828 72.6185 125.531 72.6055 126.449H65.3203C65.3594 127.517 65.6947 128.266 66.3262 128.695C66.7103 128.962 67.1725 129.096 67.7129 129.096C68.2858 129.096 68.7513 128.933 69.1094 128.607C69.3047 128.432 69.4772 128.188 69.627 127.875H72.4688C72.3971 128.507 72.0684 129.148 71.4824 129.799C70.571 130.834 69.2949 131.352 67.6543 131.352C66.3001 131.352 65.1055 130.915 64.0703 130.043C63.0352 129.171 62.5176 127.751 62.5176 125.785C62.5176 123.943 62.9831 122.53 63.9141 121.547C64.8516 120.564 66.0658 120.072 67.5566 120.072ZM78.6895 122.367C78.0449 122.367 77.5436 122.569 77.1855 122.973C76.834 123.376 76.6126 123.923 76.5215 124.613H80.8477C80.8021 123.878 80.5775 123.321 80.1738 122.943C79.7767 122.559 79.2819 122.367 78.6895 122.367ZM78.6895 120.072C79.5749 120.072 80.3724 120.238 81.082 120.57C81.7917 120.902 82.3776 121.426 82.8398 122.143C83.2565 122.774 83.5267 123.507 83.6504 124.34C83.722 124.828 83.7513 125.531 83.7383 126.449H76.4531C76.4922 127.517 76.8275 128.266 77.459 128.695C77.8431 128.962 78.3053 129.096 78.8457 129.096C79.4186 129.096 79.8841 128.933 80.2422 128.607C80.4375 128.432 80.61 128.188 80.7598 127.875H83.6016C83.5299 128.507 83.2012 129.148 82.6152 129.799C81.7038 130.834 80.4277 131.352 78.7871 131.352C77.4329 131.352 76.2383 130.915 75.2031 130.043C74.168 129.171 73.6504 127.751 73.6504 125.785C73.6504 123.943 74.1159 122.53 75.0469 121.547C75.9844 120.564 77.1986 120.072 78.6895 120.072ZM91.5215 120.102C92.6217 120.102 93.5202 120.391 94.2168 120.971C94.9199 121.544 95.2715 122.497 95.2715 123.832V131H92.4199V124.525C92.4199 123.965 92.3451 123.536 92.1953 123.236C91.9219 122.689 91.401 122.416 90.6328 122.416C89.6888 122.416 89.041 122.816 88.6895 123.617C88.5072 124.04 88.416 124.581 88.416 125.238V131H85.6426V120.375H88.3281V121.928C88.6862 121.381 89.0247 120.987 89.3438 120.746C89.9167 120.316 90.6426 120.102 91.5215 120.102ZM108.436 120.355H111.258L112.879 128.021L114.539 120.355H117.439L114.354 131H111.492L109.822 123.246L108.133 131H105.242L102.254 120.355H105.242L106.902 127.992L108.436 120.355ZM121.844 119.086H119.021V116.518H121.844V119.086ZM119.021 120.355H121.844V131H119.021V120.355ZM123.455 122.436V120.453H124.939V117.484H127.693V120.453H129.422V122.436H127.693V128.061C127.693 128.497 127.749 128.77 127.859 128.881C127.97 128.985 128.309 129.037 128.875 129.037C128.96 129.037 129.048 129.037 129.139 129.037C129.236 129.031 129.331 129.024 129.422 129.018V131.098L128.104 131.146C126.788 131.192 125.89 130.964 125.408 130.463C125.096 130.144 124.939 129.652 124.939 128.988V122.436H123.455ZM137.078 120.082C137.736 120.082 138.331 120.196 138.865 120.424C139.406 120.652 139.848 121 140.193 121.469C140.486 121.866 140.665 122.276 140.73 122.699C140.796 123.116 140.828 123.799 140.828 124.75V131H137.986V124.525C137.986 123.952 137.889 123.49 137.693 123.139C137.439 122.644 136.958 122.396 136.248 122.396C135.512 122.396 134.952 122.644 134.568 123.139C134.191 123.627 134.002 124.327 134.002 125.238V131H131.229V116.654H134.002V121.742C134.406 121.124 134.871 120.694 135.398 120.453C135.932 120.206 136.492 120.082 137.078 120.082ZM151.844 131H149.061V116.605H151.844V131ZM159.344 129.037C160.158 129.037 160.783 128.747 161.219 128.168C161.655 127.589 161.873 126.765 161.873 125.697C161.873 124.63 161.655 123.809 161.219 123.236C160.783 122.657 160.158 122.367 159.344 122.367C158.53 122.367 157.902 122.657 157.459 123.236C157.023 123.809 156.805 124.63 156.805 125.697C156.805 126.765 157.023 127.589 157.459 128.168C157.902 128.747 158.53 129.037 159.344 129.037ZM164.793 125.697C164.793 127.26 164.344 128.598 163.445 129.711C162.547 130.818 161.183 131.371 159.354 131.371C157.524 131.371 156.16 130.818 155.262 129.711C154.363 128.598 153.914 127.26 153.914 125.697C153.914 124.161 154.363 122.829 155.262 121.703C156.16 120.577 157.524 120.014 159.354 120.014C161.183 120.014 162.547 120.577 163.445 121.703C164.344 122.829 164.793 124.161 164.793 125.697ZM173.152 124.174C173.1 123.777 172.967 123.419 172.752 123.1C172.439 122.67 171.954 122.455 171.297 122.455C170.359 122.455 169.718 122.921 169.373 123.852C169.191 124.346 169.1 125.004 169.1 125.824C169.1 126.605 169.191 127.234 169.373 127.709C169.705 128.594 170.33 129.037 171.248 129.037C171.899 129.037 172.361 128.861 172.635 128.51C172.908 128.158 173.074 127.702 173.133 127.143H175.975C175.91 127.989 175.604 128.79 175.057 129.545C174.184 130.762 172.892 131.371 171.18 131.371C169.467 131.371 168.208 130.863 167.4 129.848C166.593 128.832 166.189 127.514 166.189 125.893C166.189 124.063 166.635 122.641 167.527 121.625C168.419 120.609 169.65 120.102 171.219 120.102C172.553 120.102 173.644 120.401 174.49 121C175.343 121.599 175.848 122.657 176.004 124.174H173.152ZM183.797 125.824C183.621 125.935 183.442 126.026 183.26 126.098C183.084 126.163 182.84 126.225 182.527 126.283L181.902 126.4C181.316 126.505 180.896 126.632 180.643 126.781C180.213 127.035 179.998 127.429 179.998 127.963C179.998 128.438 180.128 128.783 180.389 128.998C180.656 129.206 180.978 129.311 181.355 129.311C181.954 129.311 182.505 129.135 183.006 128.783C183.514 128.432 183.777 127.79 183.797 126.859V125.824ZM182.107 124.525C182.622 124.46 182.99 124.379 183.211 124.281C183.608 124.112 183.807 123.848 183.807 123.49C183.807 123.054 183.654 122.755 183.348 122.592C183.048 122.423 182.605 122.338 182.02 122.338C181.362 122.338 180.896 122.501 180.623 122.826C180.428 123.067 180.298 123.393 180.232 123.803H177.547C177.605 122.872 177.866 122.107 178.328 121.508C179.064 120.57 180.327 120.102 182.117 120.102C183.283 120.102 184.318 120.333 185.223 120.795C186.128 121.257 186.58 122.13 186.58 123.412V128.295C186.58 128.633 186.587 129.044 186.6 129.525C186.619 129.89 186.674 130.137 186.766 130.268C186.857 130.398 186.993 130.505 187.176 130.59V131H184.148C184.064 130.785 184.005 130.583 183.973 130.395C183.94 130.206 183.914 129.991 183.895 129.75C183.51 130.167 183.068 130.521 182.566 130.814C181.967 131.16 181.29 131.332 180.535 131.332C179.572 131.332 178.774 131.059 178.143 130.512C177.518 129.958 177.205 129.177 177.205 128.168C177.205 126.859 177.71 125.912 178.719 125.326C179.272 125.007 180.086 124.779 181.16 124.643L182.107 124.525ZM187.967 122.436V120.453H189.451V117.484H192.205V120.453H193.934V122.436H192.205V128.061C192.205 128.497 192.26 128.77 192.371 128.881C192.482 128.985 192.82 129.037 193.387 129.037C193.471 129.037 193.559 129.037 193.65 129.037C193.748 129.031 193.842 129.024 193.934 129.018V131.098L192.615 131.146C191.3 131.192 190.402 130.964 189.92 130.463C189.607 130.144 189.451 129.652 189.451 128.988V122.436H187.967ZM198.582 119.086H195.76V116.518H198.582V119.086ZM195.76 120.355H198.582V131H195.76V120.355ZM206.062 129.037C206.876 129.037 207.501 128.747 207.938 128.168C208.374 127.589 208.592 126.765 208.592 125.697C208.592 124.63 208.374 123.809 207.938 123.236C207.501 122.657 206.876 122.367 206.062 122.367C205.249 122.367 204.62 122.657 204.178 123.236C203.742 123.809 203.523 124.63 203.523 125.697C203.523 126.765 203.742 127.589 204.178 128.168C204.62 128.747 205.249 129.037 206.062 129.037ZM211.512 125.697C211.512 127.26 211.062 128.598 210.164 129.711C209.266 130.818 207.902 131.371 206.072 131.371C204.243 131.371 202.879 130.818 201.98 129.711C201.082 128.598 200.633 127.26 200.633 125.697C200.633 124.161 201.082 122.829 201.98 121.703C202.879 120.577 204.243 120.014 206.072 120.014C207.902 120.014 209.266 120.577 210.164 121.703C211.062 122.829 211.512 124.161 211.512 125.697ZM219.412 120.102C220.512 120.102 221.411 120.391 222.107 120.971C222.811 121.544 223.162 122.497 223.162 123.832V131H220.311V124.525C220.311 123.965 220.236 123.536 220.086 123.236C219.812 122.689 219.292 122.416 218.523 122.416C217.579 122.416 216.932 122.816 216.58 123.617C216.398 124.04 216.307 124.581 216.307 125.238V131H213.533V120.375H216.219V121.928C216.577 121.381 216.915 120.987 217.234 120.746C217.807 120.316 218.533 120.102 219.412 120.102ZM225.594 133.314C226.154 133.158 226.564 132.898 226.824 132.533C227.091 132.169 227.244 131.658 227.283 131H225.594V128.09H228.602V130.609C228.602 131.052 228.543 131.514 228.426 131.996C228.309 132.478 228.09 132.895 227.771 133.246C227.426 133.624 227.02 133.907 226.551 134.096C226.089 134.291 225.77 134.389 225.594 134.389V133.314ZM32.2051 145.436V143.453H33.6895V140.484H36.4434V143.453H38.1719V145.436H36.4434V151.061C36.4434 151.497 36.4987 151.77 36.6094 151.881C36.7201 151.985 37.0586 152.037 37.625 152.037C37.7096 152.037 37.7975 152.037 37.8887 152.037C37.9863 152.031 38.0807 152.024 38.1719 152.018V154.098L36.8535 154.146C35.5384 154.192 34.64 153.964 34.1582 153.463C33.8457 153.144 33.6895 152.652 33.6895 151.988V145.436H32.2051ZM45.8281 148.824C45.6523 148.935 45.4733 149.026 45.291 149.098C45.1152 149.163 44.8711 149.225 44.5586 149.283L43.9336 149.4C43.3477 149.505 42.9277 149.632 42.6738 149.781C42.2441 150.035 42.0293 150.429 42.0293 150.963C42.0293 151.438 42.1595 151.783 42.4199 151.998C42.6868 152.206 43.0091 152.311 43.3867 152.311C43.9857 152.311 44.5358 152.135 45.0371 151.783C45.5449 151.432 45.8086 150.79 45.8281 149.859V148.824ZM44.1387 147.525C44.653 147.46 45.0208 147.379 45.2422 147.281C45.6393 147.112 45.8379 146.848 45.8379 146.49C45.8379 146.054 45.6849 145.755 45.3789 145.592C45.0794 145.423 44.6367 145.338 44.0508 145.338C43.3932 145.338 42.9277 145.501 42.6543 145.826C42.459 146.067 42.3288 146.393 42.2637 146.803H39.5781C39.6367 145.872 39.8971 145.107 40.3594 144.508C41.0951 143.57 42.3581 143.102 44.1484 143.102C45.3138 143.102 46.349 143.333 47.2539 143.795C48.1589 144.257 48.6113 145.13 48.6113 146.412V151.295C48.6113 151.633 48.6178 152.044 48.6309 152.525C48.6504 152.89 48.7057 153.137 48.7969 153.268C48.888 153.398 49.0247 153.505 49.207 153.59V154H46.1797C46.0951 153.785 46.0365 153.583 46.0039 153.395C45.9714 153.206 45.9453 152.991 45.9258 152.75C45.5417 153.167 45.099 153.521 44.5977 153.814C43.9987 154.16 43.3216 154.332 42.5664 154.332C41.6029 154.332 40.8053 154.059 40.1738 153.512C39.5488 152.958 39.2363 152.177 39.2363 151.168C39.2363 149.859 39.7409 148.912 40.75 148.326C41.3034 148.007 42.1172 147.779 43.1914 147.643L44.1387 147.525ZM53.9336 154H51.1504V139.605H53.9336V154ZM56.6289 139.654H59.3633V147.408L62.8301 143.404H66.2773L62.5566 147.477L66.4238 154H63.0645L60.5156 149.449L59.3633 150.65V154H56.6289V139.654Z" fill="#BD1F1F"/>
<path id="pending:" d="M41.6328 84.6777C41.6328 83.8574 41.444 83.1315 41.0664 82.5C40.6953 81.8685 40.0898 81.5527 39.25 81.5527C38.2409 81.5527 37.5475 82.0312 37.1699 82.9883C36.9746 83.4961 36.877 84.1406 36.877 84.9219C36.877 86.1589 37.2057 87.028 37.8633 87.5293C38.2539 87.8223 38.7161 87.9688 39.25 87.9688C40.0247 87.9688 40.6139 87.6693 41.0176 87.0703C41.4277 86.4714 41.6328 85.6738 41.6328 84.6777ZM40.0508 79.1211C41.2943 79.1211 42.3457 79.5801 43.2051 80.498C44.071 81.416 44.5039 82.7637 44.5039 84.541C44.5039 86.416 44.0807 87.8451 43.2344 88.8281C42.3945 89.8112 41.3105 90.3027 39.9824 90.3027C39.1361 90.3027 38.4329 90.0911 37.873 89.668C37.5671 89.4336 37.2676 89.0918 36.9746 88.6426V94.1895H34.2207V79.3555H36.8867V80.9277C37.1862 80.4655 37.5052 80.1009 37.8438 79.834C38.4622 79.3587 39.1979 79.1211 40.0508 79.1211ZM50.7246 81.3672C50.0801 81.3672 49.5788 81.569 49.2207 81.9727C48.8691 82.3763 48.6478 82.9232 48.5566 83.6133H52.8828C52.8372 82.8776 52.6126 82.321 52.209 81.9434C51.8118 81.5592 51.3171 81.3672 50.7246 81.3672ZM50.7246 79.0723C51.61 79.0723 52.4076 79.2383 53.1172 79.5703C53.8268 79.9023 54.4128 80.4264 54.875 81.1426C55.2917 81.7741 55.5618 82.5065 55.6855 83.3398C55.7572 83.8281 55.7865 84.5312 55.7734 85.4492H48.4883C48.5273 86.5169 48.8626 87.2656 49.4941 87.6953C49.8783 87.9622 50.3405 88.0957 50.8809 88.0957C51.4538 88.0957 51.9193 87.9329 52.2773 87.6074C52.4727 87.4316 52.6452 87.1875 52.7949 86.875H55.6367C55.5651 87.5065 55.2363 88.1478 54.6504 88.7988C53.7389 89.834 52.4629 90.3516 50.8223 90.3516C49.4681 90.3516 48.2734 89.9154 47.2383 89.043C46.2031 88.1706 45.6855 86.7513 45.6855 84.7852C45.6855 82.9427 46.151 81.5299 47.082 80.5469C48.0195 79.5638 49.2337 79.0723 50.7246 79.0723ZM63.5566 79.1016C64.6569 79.1016 65.5553 79.3913 66.252 79.9707C66.9551 80.5436 67.3066 81.4974 67.3066 82.832V90H64.4551V83.5254C64.4551 82.9655 64.3802 82.5358 64.2305 82.2363C63.957 81.6895 63.4362 81.416 62.668 81.416C61.724 81.416 61.0762 81.8164 60.7246 82.6172C60.5423 83.0404 60.4512 83.5807 60.4512 84.2383V90H57.6777V79.375H60.3633V80.9277C60.7214 80.3809 61.0599 79.987 61.3789 79.7461C61.9518 79.3164 62.6777 79.1016 63.5566 79.1016ZM73.8105 79.1016C74.4551 79.1016 75.028 79.2448 75.5293 79.5312C76.0306 79.8112 76.4375 80.2018 76.75 80.7031V75.625H79.5723V90H76.8672V88.5254C76.4701 89.1569 76.0176 89.6159 75.5098 89.9023C75.002 90.1888 74.3704 90.332 73.6152 90.332C72.3717 90.332 71.3236 89.8307 70.4707 88.8281C69.6243 87.819 69.2012 86.5267 69.2012 84.9512C69.2012 83.1348 69.6178 81.7057 70.4512 80.6641C71.291 79.6224 72.4108 79.1016 73.8105 79.1016ZM74.416 87.9883C75.2038 87.9883 75.8027 87.6953 76.2129 87.1094C76.623 86.5234 76.8281 85.765 76.8281 84.834C76.8281 83.5319 76.4993 82.6009 75.8418 82.041C75.4382 81.7025 74.9694 81.5332 74.4355 81.5332C73.6217 81.5332 73.0228 81.8424 72.6387 82.4609C72.2611 83.0729 72.0723 83.8346 72.0723 84.7461C72.0723 85.7292 72.2643 86.5169 72.6484 87.1094C73.0391 87.6953 73.6283 87.9883 74.416 87.9883ZM84.9727 78.0859H82.1504V75.5176H84.9727V78.0859ZM82.1504 79.3555H84.9727V90H82.1504V79.3555ZM93.5762 79.1016C94.6764 79.1016 95.5749 79.3913 96.2715 79.9707C96.9746 80.5436 97.3262 81.4974 97.3262 82.832V90H94.4746V83.5254C94.4746 82.9655 94.3997 82.5358 94.25 82.2363C93.9766 81.6895 93.4557 81.416 92.6875 81.416C91.7435 81.416 91.0957 81.8164 90.7441 82.6172C90.5618 83.0404 90.4707 83.5807 90.4707 84.2383V90H87.6973V79.375H90.3828V80.9277C90.7409 80.3809 91.0794 79.987 91.3984 79.7461C91.9714 79.3164 92.6973 79.1016 93.5762 79.1016ZM104.475 87.7148C105.126 87.7148 105.676 87.4707 106.125 86.9824C106.574 86.4876 106.799 85.7031 106.799 84.6289C106.799 83.6198 106.584 82.8516 106.154 82.3242C105.731 81.7969 105.161 81.5332 104.445 81.5332C103.469 81.5332 102.795 81.9922 102.424 82.9102C102.229 83.3984 102.131 84.0007 102.131 84.7168C102.131 85.3353 102.235 85.8854 102.443 86.3672C102.821 87.2656 103.498 87.7148 104.475 87.7148ZM103.781 79.1016C104.315 79.1016 104.781 79.1829 105.178 79.3457C105.855 79.6257 106.402 80.14 106.818 80.8887V79.3555H109.523V89.4531C109.523 90.8268 109.292 91.862 108.83 92.5586C108.036 93.7565 106.512 94.3555 104.26 94.3555C102.899 94.3555 101.789 94.0885 100.93 93.5547C100.07 93.0208 99.5951 92.2233 99.5039 91.1621H102.531C102.609 91.4876 102.736 91.722 102.912 91.8652C103.212 92.1191 103.716 92.2461 104.426 92.2461C105.428 92.2461 106.099 91.9108 106.438 91.2402C106.659 90.8105 106.77 90.0879 106.77 89.0723V88.3887C106.503 88.8444 106.216 89.1862 105.91 89.4141C105.357 89.8372 104.637 90.0488 103.752 90.0488C102.385 90.0488 101.291 89.5703 100.471 88.6133C99.6569 87.6497 99.25 86.3477 99.25 84.707C99.25 83.125 99.6439 81.7969 100.432 80.7227C101.219 79.6419 102.336 79.1016 103.781 79.1016ZM113.098 79.7754H116.057V82.6855H113.098V79.7754ZM113.098 87.0898H116.057V90H113.098V87.0898Z" fill="#BD1F1F"/>
<rect x="0.5" y="0.5" width="299" height="399" stroke="#CCCCCC"/>
</g>
</svg>
