<svg width="300" height="400" viewBox="0 0 300 400" fill="none" xmlns="http://www.w3.org/2000/svg">
<g id="eggs4">
<g id="test">
<path id="transaction, poll" d="M32.2051 80.4355V78.4531H33.6895V75.4844H36.4434V78.4531H38.1719V80.4355H36.4434V86.0605C36.4434 86.4967 36.4987 86.7702 36.6094 86.8809C36.7201 86.985 37.0586 87.0371 37.625 87.0371C37.7096 87.0371 37.7975 87.0371 37.8887 87.0371C37.9863 87.0306 38.0807 87.0241 38.1719 87.0176V89.0977L36.8535 89.1465C35.5384 89.1921 34.64 88.9642 34.1582 88.4629C33.8457 88.1439 33.6895 87.6523 33.6895 86.9883V80.4355H32.2051ZM45.7402 78.1016C45.7923 78.1016 45.8346 78.1048 45.8672 78.1113C45.9062 78.1113 45.9876 78.1146 46.1113 78.1211V80.9727C45.9355 80.9531 45.7793 80.9401 45.6426 80.9336C45.5059 80.9271 45.3952 80.9238 45.3105 80.9238C44.1908 80.9238 43.4388 81.2884 43.0547 82.0176C42.8398 82.4277 42.7324 83.0592 42.7324 83.9121V89H39.9297V78.3555H42.5859V80.2109C43.0156 79.5013 43.39 79.0163 43.709 78.7559C44.2298 78.3197 44.9069 78.1016 45.7402 78.1016ZM53.6211 83.8242C53.4453 83.9349 53.2663 84.026 53.084 84.0977C52.9082 84.1628 52.6641 84.2246 52.3516 84.2832L51.7266 84.4004C51.1406 84.5046 50.7207 84.6315 50.4668 84.7812C50.0371 85.0352 49.8223 85.429 49.8223 85.9629C49.8223 86.4382 49.9525 86.7832 50.2129 86.998C50.4798 87.2064 50.8021 87.3105 51.1797 87.3105C51.7786 87.3105 52.3288 87.1348 52.8301 86.7832C53.3379 86.4316 53.6016 85.7904 53.6211 84.8594V83.8242ZM51.9316 82.5254C52.446 82.4603 52.8138 82.3789 53.0352 82.2812C53.4323 82.112 53.6309 81.8483 53.6309 81.4902C53.6309 81.054 53.4779 80.7546 53.1719 80.5918C52.8724 80.4225 52.4297 80.3379 51.8438 80.3379C51.1862 80.3379 50.7207 80.5007 50.4473 80.8262C50.252 81.0671 50.1217 81.3926 50.0566 81.8027H47.3711C47.4297 80.8717 47.6901 80.1068 48.1523 79.5078C48.888 78.5703 50.151 78.1016 51.9414 78.1016C53.1068 78.1016 54.1419 78.3327 55.0469 78.7949C55.9518 79.2572 56.4043 80.1296 56.4043 81.4121V86.2949C56.4043 86.6335 56.4108 87.0436 56.4238 87.5254C56.4434 87.89 56.4987 88.1374 56.5898 88.2676C56.681 88.3978 56.8177 88.5052 57 88.5898V89H53.9727C53.888 88.7852 53.8294 88.5833 53.7969 88.3945C53.7643 88.2057 53.7383 87.9909 53.7188 87.75C53.3346 88.1667 52.8919 88.5215 52.3906 88.8145C51.7917 89.1595 51.1146 89.332 50.3594 89.332C49.3958 89.332 48.5983 89.0586 47.9668 88.5117C47.3418 87.9583 47.0293 87.1771 47.0293 86.168C47.0293 84.8594 47.5339 83.9121 48.543 83.3262C49.0964 83.0072 49.9102 82.7793 50.9844 82.6426L51.9316 82.5254ZM64.7832 78.1016C65.8835 78.1016 66.7819 78.3913 67.4785 78.9707C68.1816 79.5436 68.5332 80.4974 68.5332 81.832V89H65.6816V82.5254C65.6816 81.9655 65.6068 81.5358 65.457 81.2363C65.1836 80.6895 64.6628 80.416 63.8945 80.416C62.9505 80.416 62.3027 80.8164 61.9512 81.6172C61.7689 82.0404 61.6777 82.5807 61.6777 83.2383V89H58.9043V78.375H61.5898V79.9277C61.9479 79.3809 62.2865 78.987 62.6055 78.7461C63.1784 78.3164 63.9043 78.1016 64.7832 78.1016ZM73.2793 85.6016C73.3379 86.0964 73.4648 86.4479 73.6602 86.6562C74.0052 87.0273 74.6432 87.2129 75.5742 87.2129C76.1211 87.2129 76.554 87.1315 76.873 86.9688C77.1986 86.806 77.3613 86.5618 77.3613 86.2363C77.3613 85.9238 77.2311 85.6862 76.9707 85.5234C76.7103 85.3607 75.7435 85.0807 74.0703 84.6836C72.8659 84.3841 72.0163 84.0098 71.5215 83.5605C71.0267 83.1178 70.7793 82.4798 70.7793 81.6465C70.7793 80.6634 71.1634 79.8203 71.9316 79.1172C72.7064 78.4076 73.7936 78.0527 75.1934 78.0527C76.5215 78.0527 77.6022 78.3197 78.4355 78.8535C79.2754 79.3809 79.7572 80.2956 79.8809 81.5977H77.0977C77.0586 81.2396 76.9577 80.9564 76.7949 80.748C76.4889 80.3704 75.9681 80.1816 75.2324 80.1816C74.627 80.1816 74.194 80.276 73.9336 80.4648C73.6797 80.6536 73.5527 80.875 73.5527 81.1289C73.5527 81.4479 73.6895 81.679 73.9629 81.8223C74.2363 81.972 75.2031 82.2292 76.8633 82.5938C77.9701 82.8542 78.8001 83.248 79.3535 83.7754C79.9004 84.3092 80.1738 84.9766 80.1738 85.7773C80.1738 86.832 79.7799 87.6947 78.9922 88.3652C78.2109 89.0293 77 89.3613 75.3594 89.3613C73.6862 89.3613 72.4492 89.0098 71.6484 88.3066C70.8542 87.597 70.457 86.6953 70.457 85.6016H73.2793ZM88.1133 83.8242C87.9375 83.9349 87.7585 84.026 87.5762 84.0977C87.4004 84.1628 87.1562 84.2246 86.8438 84.2832L86.2188 84.4004C85.6328 84.5046 85.2129 84.6315 84.959 84.7812C84.5293 85.0352 84.3145 85.429 84.3145 85.9629C84.3145 86.4382 84.4447 86.7832 84.7051 86.998C84.972 87.2064 85.2943 87.3105 85.6719 87.3105C86.2708 87.3105 86.821 87.1348 87.3223 86.7832C87.8301 86.4316 88.0938 85.7904 88.1133 84.8594V83.8242ZM86.4238 82.5254C86.9382 82.4603 87.306 82.3789 87.5273 82.2812C87.9245 82.112 88.123 81.8483 88.123 81.4902C88.123 81.054 87.9701 80.7546 87.6641 80.5918C87.3646 80.4225 86.9219 80.3379 86.3359 80.3379C85.6784 80.3379 85.2129 80.5007 84.9395 80.8262C84.7441 81.0671 84.6139 81.3926 84.5488 81.8027H81.8633C81.9219 80.8717 82.1823 80.1068 82.6445 79.5078C83.3802 78.5703 84.6432 78.1016 86.4336 78.1016C87.599 78.1016 88.6341 78.3327 89.5391 78.7949C90.444 79.2572 90.8965 80.1296 90.8965 81.4121V86.2949C90.8965 86.6335 90.903 87.0436 90.916 87.5254C90.9355 87.89 90.9909 88.1374 91.082 88.2676C91.1732 88.3978 91.3099 88.5052 91.4922 88.5898V89H88.4648C88.3802 88.7852 88.3216 88.5833 88.2891 88.3945C88.2565 88.2057 88.2305 87.9909 88.2109 87.75C87.8268 88.1667 87.3841 88.5215 86.8828 88.8145C86.2839 89.1595 85.6068 89.332 84.8516 89.332C83.888 89.332 83.0905 89.0586 82.459 88.5117C81.834 87.9583 81.5215 87.1771 81.5215 86.168C81.5215 84.8594 82.026 83.9121 83.0352 83.3262C83.5885 83.0072 84.4023 82.7793 85.4766 82.6426L86.4238 82.5254ZM99.7344 82.1738C99.6823 81.7767 99.5488 81.4186 99.334 81.0996C99.0215 80.6699 98.5365 80.4551 97.8789 80.4551C96.9414 80.4551 96.3001 80.9206 95.9551 81.8516C95.7728 82.3464 95.6816 83.0039 95.6816 83.8242C95.6816 84.6055 95.7728 85.2337 95.9551 85.709C96.2871 86.5944 96.9121 87.0371 97.8301 87.0371C98.4811 87.0371 98.9434 86.8613 99.2168 86.5098C99.4902 86.1582 99.6562 85.7025 99.7148 85.1426H102.557C102.492 85.9889 102.186 86.7897 101.639 87.5449C100.766 88.7624 99.474 89.3711 97.7617 89.3711C96.0495 89.3711 94.7897 88.8633 93.9824 87.8477C93.1751 86.832 92.7715 85.5137 92.7715 83.8926C92.7715 82.0632 93.2174 80.6406 94.1094 79.625C95.0013 78.6094 96.2318 78.1016 97.8008 78.1016C99.1354 78.1016 100.226 78.401 101.072 79C101.925 79.599 102.43 80.6569 102.586 82.1738H99.7344ZM103.416 80.4355V78.4531H104.9V75.4844H107.654V78.4531H109.383V80.4355H107.654V86.0605C107.654 86.4967 107.71 86.7702 107.82 86.8809C107.931 86.985 108.27 87.0371 108.836 87.0371C108.921 87.0371 109.008 87.0371 109.1 87.0371C109.197 87.0306 109.292 87.0241 109.383 87.0176V89.0977L108.064 89.1465C106.749 89.1921 105.851 88.9642 105.369 88.4629C105.057 88.1439 104.9 87.6523 104.9 86.9883V80.4355H103.416ZM114.031 77.0859H111.209V74.5176H114.031V77.0859ZM111.209 78.3555H114.031V89H111.209V78.3555ZM121.512 87.0371C122.326 87.0371 122.951 86.7474 123.387 86.168C123.823 85.5885 124.041 84.765 124.041 83.6973C124.041 82.6296 123.823 81.8092 123.387 81.2363C122.951 80.6569 122.326 80.3672 121.512 80.3672C120.698 80.3672 120.07 80.6569 119.627 81.2363C119.191 81.8092 118.973 82.6296 118.973 83.6973C118.973 84.765 119.191 85.5885 119.627 86.168C120.07 86.7474 120.698 87.0371 121.512 87.0371ZM126.961 83.6973C126.961 85.2598 126.512 86.5977 125.613 87.7109C124.715 88.8177 123.351 89.3711 121.521 89.3711C119.692 89.3711 118.328 88.8177 117.43 87.7109C116.531 86.5977 116.082 85.2598 116.082 83.6973C116.082 82.1608 116.531 80.8294 117.43 79.7031C118.328 78.5768 119.692 78.0137 121.521 78.0137C123.351 78.0137 124.715 78.5768 125.613 79.7031C126.512 80.8294 126.961 82.1608 126.961 83.6973ZM134.861 78.1016C135.962 78.1016 136.86 78.3913 137.557 78.9707C138.26 79.5436 138.611 80.4974 138.611 81.832V89H135.76V82.5254C135.76 81.9655 135.685 81.5358 135.535 81.2363C135.262 80.6895 134.741 80.416 133.973 80.416C133.029 80.416 132.381 80.8164 132.029 81.6172C131.847 82.0404 131.756 82.5807 131.756 83.2383V89H128.982V78.375H131.668V79.9277C132.026 79.3809 132.365 78.987 132.684 78.7461C133.257 78.3164 133.982 78.1016 134.861 78.1016ZM141.043 91.3145C141.603 91.1582 142.013 90.8978 142.273 90.5332C142.54 90.1686 142.693 89.6576 142.732 89H141.043V86.0898H144.051V88.6094C144.051 89.0521 143.992 89.5143 143.875 89.9961C143.758 90.4779 143.54 90.8945 143.221 91.2461C142.876 91.6237 142.469 91.9069 142 92.0957C141.538 92.291 141.219 92.3887 141.043 92.3887V91.3145ZM40.6328 106.678C40.6328 105.857 40.444 105.132 40.0664 104.5C39.6953 103.868 39.0898 103.553 38.25 103.553C37.2409 103.553 36.5475 104.031 36.1699 104.988C35.9746 105.496 35.877 106.141 35.877 106.922C35.877 108.159 36.2057 109.028 36.8633 109.529C37.2539 109.822 37.7161 109.969 38.25 109.969C39.0247 109.969 39.6139 109.669 40.0176 109.07C40.4277 108.471 40.6328 107.674 40.6328 106.678ZM39.0508 101.121C40.2943 101.121 41.3457 101.58 42.2051 102.498C43.071 103.416 43.5039 104.764 43.5039 106.541C43.5039 108.416 43.0807 109.845 42.2344 110.828C41.3945 111.811 40.3105 112.303 38.9824 112.303C38.1361 112.303 37.4329 112.091 36.873 111.668C36.5671 111.434 36.2676 111.092 35.9746 110.643V116.189H33.2207V101.355H35.8867V102.928C36.1862 102.465 36.5052 102.101 36.8438 101.834C37.4622 101.359 38.1979 101.121 39.0508 101.121ZM50.3008 110.037C51.1146 110.037 51.7396 109.747 52.1758 109.168C52.612 108.589 52.8301 107.765 52.8301 106.697C52.8301 105.63 52.612 104.809 52.1758 104.236C51.7396 103.657 51.1146 103.367 50.3008 103.367C49.487 103.367 48.8587 103.657 48.416 104.236C47.9798 104.809 47.7617 105.63 47.7617 106.697C47.7617 107.765 47.9798 108.589 48.416 109.168C48.8587 109.747 49.487 110.037 50.3008 110.037ZM55.75 106.697C55.75 108.26 55.3008 109.598 54.4023 110.711C53.5039 111.818 52.14 112.371 50.3105 112.371C48.4811 112.371 47.1172 111.818 46.2188 110.711C45.3203 109.598 44.8711 108.26 44.8711 106.697C44.8711 105.161 45.3203 103.829 46.2188 102.703C47.1172 101.577 48.4811 101.014 50.3105 101.014C52.14 101.014 53.5039 101.577 54.4023 102.703C55.3008 103.829 55.75 105.161 55.75 106.697ZM60.5938 112H57.8105V97.6055H60.5938V112ZM66.1602 112H63.377V97.6055H66.1602V112Z" fill="#BD1F1F"/>
<path id="pending:" d="M41.6328 42.6777C41.6328 41.8574 41.444 41.1315 41.0664 40.5C40.6953 39.8685 40.0898 39.5527 39.25 39.5527C38.2409 39.5527 37.5475 40.0312 37.1699 40.9883C36.9746 41.4961 36.877 42.1406 36.877 42.9219C36.877 44.1589 37.2057 45.028 37.8633 45.5293C38.2539 45.8223 38.7161 45.9688 39.25 45.9688C40.0247 45.9688 40.6139 45.6693 41.0176 45.0703C41.4277 44.4714 41.6328 43.6738 41.6328 42.6777ZM40.0508 37.1211C41.2943 37.1211 42.3457 37.5801 43.2051 38.498C44.071 39.416 44.5039 40.7637 44.5039 42.541C44.5039 44.416 44.0807 45.8451 43.2344 46.8281C42.3945 47.8112 41.3105 48.3027 39.9824 48.3027C39.1361 48.3027 38.4329 48.0911 37.873 47.668C37.5671 47.4336 37.2676 47.0918 36.9746 46.6426V52.1895H34.2207V37.3555H36.8867V38.9277C37.1862 38.4655 37.5052 38.1009 37.8438 37.834C38.4622 37.3587 39.1979 37.1211 40.0508 37.1211ZM50.7246 39.3672C50.0801 39.3672 49.5788 39.569 49.2207 39.9727C48.8691 40.3763 48.6478 40.9232 48.5566 41.6133H52.8828C52.8372 40.8776 52.6126 40.321 52.209 39.9434C51.8118 39.5592 51.3171 39.3672 50.7246 39.3672ZM50.7246 37.0723C51.61 37.0723 52.4076 37.2383 53.1172 37.5703C53.8268 37.9023 54.4128 38.4264 54.875 39.1426C55.2917 39.7741 55.5618 40.5065 55.6855 41.3398C55.7572 41.8281 55.7865 42.5312 55.7734 43.4492H48.4883C48.5273 44.5169 48.8626 45.2656 49.4941 45.6953C49.8783 45.9622 50.3405 46.0957 50.8809 46.0957C51.4538 46.0957 51.9193 45.9329 52.2773 45.6074C52.4727 45.4316 52.6452 45.1875 52.7949 44.875H55.6367C55.5651 45.5065 55.2363 46.1478 54.6504 46.7988C53.7389 47.834 52.4629 48.3516 50.8223 48.3516C49.4681 48.3516 48.2734 47.9154 47.2383 47.043C46.2031 46.1706 45.6855 44.7513 45.6855 42.7852C45.6855 40.9427 46.151 39.5299 47.082 38.5469C48.0195 37.5638 49.2337 37.0723 50.7246 37.0723ZM63.5566 37.1016C64.6569 37.1016 65.5553 37.3913 66.252 37.9707C66.9551 38.5436 67.3066 39.4974 67.3066 40.832V48H64.4551V41.5254C64.4551 40.9655 64.3802 40.5358 64.2305 40.2363C63.957 39.6895 63.4362 39.416 62.668 39.416C61.724 39.416 61.0762 39.8164 60.7246 40.6172C60.5423 41.0404 60.4512 41.5807 60.4512 42.2383V48H57.6777V37.375H60.3633V38.9277C60.7214 38.3809 61.0599 37.987 61.3789 37.7461C61.9518 37.3164 62.6777 37.1016 63.5566 37.1016ZM73.8105 37.1016C74.4551 37.1016 75.028 37.2448 75.5293 37.5312C76.0306 37.8112 76.4375 38.2018 76.75 38.7031V33.625H79.5723V48H76.8672V46.5254C76.4701 47.1569 76.0176 47.6159 75.5098 47.9023C75.002 48.1888 74.3704 48.332 73.6152 48.332C72.3717 48.332 71.3236 47.8307 70.4707 46.8281C69.6243 45.819 69.2012 44.5267 69.2012 42.9512C69.2012 41.1348 69.6178 39.7057 70.4512 38.6641C71.291 37.6224 72.4108 37.1016 73.8105 37.1016ZM74.416 45.9883C75.2038 45.9883 75.8027 45.6953 76.2129 45.1094C76.623 44.5234 76.8281 43.765 76.8281 42.834C76.8281 41.5319 76.4993 40.6009 75.8418 40.041C75.4382 39.7025 74.9694 39.5332 74.4355 39.5332C73.6217 39.5332 73.0228 39.8424 72.6387 40.4609C72.2611 41.0729 72.0723 41.8346 72.0723 42.7461C72.0723 43.7292 72.2643 44.5169 72.6484 45.1094C73.0391 45.6953 73.6283 45.9883 74.416 45.9883ZM84.9727 36.0859H82.1504V33.5176H84.9727V36.0859ZM82.1504 37.3555H84.9727V48H82.1504V37.3555ZM93.5762 37.1016C94.6764 37.1016 95.5749 37.3913 96.2715 37.9707C96.9746 38.5436 97.3262 39.4974 97.3262 40.832V48H94.4746V41.5254C94.4746 40.9655 94.3997 40.5358 94.25 40.2363C93.9766 39.6895 93.4557 39.416 92.6875 39.416C91.7435 39.416 91.0957 39.8164 90.7441 40.6172C90.5618 41.0404 90.4707 41.5807 90.4707 42.2383V48H87.6973V37.375H90.3828V38.9277C90.7409 38.3809 91.0794 37.987 91.3984 37.7461C91.9714 37.3164 92.6973 37.1016 93.5762 37.1016ZM104.475 45.7148C105.126 45.7148 105.676 45.4707 106.125 44.9824C106.574 44.4876 106.799 43.7031 106.799 42.6289C106.799 41.6198 106.584 40.8516 106.154 40.3242C105.731 39.7969 105.161 39.5332 104.445 39.5332C103.469 39.5332 102.795 39.9922 102.424 40.9102C102.229 41.3984 102.131 42.0007 102.131 42.7168C102.131 43.3353 102.235 43.8854 102.443 44.3672C102.821 45.2656 103.498 45.7148 104.475 45.7148ZM103.781 37.1016C104.315 37.1016 104.781 37.1829 105.178 37.3457C105.855 37.6257 106.402 38.14 106.818 38.8887V37.3555H109.523V47.4531C109.523 48.8268 109.292 49.862 108.83 50.5586C108.036 51.7565 106.512 52.3555 104.26 52.3555C102.899 52.3555 101.789 52.0885 100.93 51.5547C100.07 51.0208 99.5951 50.2233 99.5039 49.1621H102.531C102.609 49.4876 102.736 49.722 102.912 49.8652C103.212 50.1191 103.716 50.2461 104.426 50.2461C105.428 50.2461 106.099 49.9108 106.438 49.2402C106.659 48.8105 106.77 48.0879 106.77 47.0723V46.3887C106.503 46.8444 106.216 47.1862 105.91 47.4141C105.357 47.8372 104.637 48.0488 103.752 48.0488C102.385 48.0488 101.291 47.5703 100.471 46.6133C99.6569 45.6497 99.25 44.3477 99.25 42.707C99.25 41.125 99.6439 39.7969 100.432 38.7227C101.219 37.6419 102.336 37.1016 103.781 37.1016ZM113.098 37.7754H116.057V40.6855H113.098V37.7754ZM113.098 45.0898H116.057V48H113.098V45.0898Z" fill="#BD1F1F"/>
</g>
<g id="survey1" filter="url(#filter0_d)">
<rect x="23" y="163" width="122" height="63" fill="white"/>
<path id="survey 1" d="M46.4668 197.602C46.5254 198.096 46.6523 198.448 46.8477 198.656C47.1927 199.027 47.8307 199.213 48.7617 199.213C49.3086 199.213 49.7415 199.132 50.0605 198.969C50.3861 198.806 50.5488 198.562 50.5488 198.236C50.5488 197.924 50.4186 197.686 50.1582 197.523C49.8978 197.361 48.931 197.081 47.2578 196.684C46.0534 196.384 45.2038 196.01 44.709 195.561C44.2142 195.118 43.9668 194.48 43.9668 193.646C43.9668 192.663 44.3509 191.82 45.1191 191.117C45.8939 190.408 46.9811 190.053 48.3809 190.053C49.709 190.053 50.7897 190.32 51.623 190.854C52.4629 191.381 52.9447 192.296 53.0684 193.598H50.2852C50.2461 193.24 50.1452 192.956 49.9824 192.748C49.6764 192.37 49.1556 192.182 48.4199 192.182C47.8145 192.182 47.3815 192.276 47.1211 192.465C46.8672 192.654 46.7402 192.875 46.7402 193.129C46.7402 193.448 46.877 193.679 47.1504 193.822C47.4238 193.972 48.3906 194.229 50.0508 194.594C51.1576 194.854 51.9876 195.248 52.541 195.775C53.0879 196.309 53.3613 196.977 53.3613 197.777C53.3613 198.832 52.9674 199.695 52.1797 200.365C51.3984 201.029 50.1875 201.361 48.5469 201.361C46.8737 201.361 45.6367 201.01 44.8359 200.307C44.0417 199.597 43.6445 198.695 43.6445 197.602H46.4668ZM58.2051 190.355V196.771C58.2051 197.377 58.2767 197.833 58.4199 198.139C58.6738 198.679 59.1719 198.949 59.9141 198.949C60.8646 198.949 61.5156 198.565 61.8672 197.797C62.0495 197.38 62.1406 196.83 62.1406 196.146V190.355H64.9629V201H62.2578V199.496C62.2318 199.529 62.1667 199.626 62.0625 199.789C61.9583 199.952 61.8346 200.095 61.6914 200.219C61.2552 200.609 60.832 200.876 60.4219 201.02C60.0182 201.163 59.543 201.234 58.9961 201.234C57.4206 201.234 56.3594 200.668 55.8125 199.535C55.5065 198.91 55.3535 197.989 55.3535 196.771V190.355H58.2051ZM73.4395 190.102C73.4915 190.102 73.5339 190.105 73.5664 190.111C73.6055 190.111 73.6868 190.115 73.8105 190.121V192.973C73.6348 192.953 73.4785 192.94 73.3418 192.934C73.2051 192.927 73.0944 192.924 73.0098 192.924C71.89 192.924 71.138 193.288 70.7539 194.018C70.5391 194.428 70.4316 195.059 70.4316 195.912V201H67.6289V190.355H70.2852V192.211C70.7148 191.501 71.0892 191.016 71.4082 190.756C71.929 190.32 72.6061 190.102 73.4395 190.102ZM82.0137 190.355H85.002L81.1641 201H78.2246L74.4062 190.355H77.5312L79.748 198.207L82.0137 190.355ZM90.7832 192.367C90.1387 192.367 89.6374 192.569 89.2793 192.973C88.9277 193.376 88.7064 193.923 88.6152 194.613H92.9414C92.8958 193.878 92.6712 193.321 92.2676 192.943C91.8704 192.559 91.3757 192.367 90.7832 192.367ZM90.7832 190.072C91.6686 190.072 92.4661 190.238 93.1758 190.57C93.8854 190.902 94.4714 191.426 94.9336 192.143C95.3503 192.774 95.6204 193.507 95.7441 194.34C95.8158 194.828 95.8451 195.531 95.832 196.449H88.5469C88.5859 197.517 88.9212 198.266 89.5527 198.695C89.9368 198.962 90.3991 199.096 90.9395 199.096C91.5124 199.096 91.9779 198.933 92.3359 198.607C92.5312 198.432 92.7038 198.188 92.8535 197.875H95.6953C95.6237 198.507 95.2949 199.148 94.709 199.799C93.7975 200.834 92.5215 201.352 90.8809 201.352C89.5267 201.352 88.332 200.915 87.2969 200.043C86.2617 199.171 85.7441 197.751 85.7441 195.785C85.7441 193.943 86.2096 192.53 87.1406 191.547C88.0781 190.564 89.2923 190.072 90.7832 190.072ZM98.1465 203.041L98.498 203.061C98.7715 203.074 99.0319 203.064 99.2793 203.031C99.5267 202.999 99.735 202.924 99.9043 202.807C100.067 202.696 100.217 202.465 100.354 202.113C100.497 201.762 100.555 201.547 100.529 201.469L96.623 190.355H99.7188L102.043 198.207L104.24 190.355H107.199L103.547 200.824C102.844 202.842 102.287 204.092 101.877 204.574C101.467 205.062 100.646 205.307 99.416 205.307C99.1686 205.307 98.9701 205.303 98.8203 205.297C98.6706 205.297 98.446 205.287 98.1465 205.268V203.041ZM114.504 191.234V189.34C115.383 189.301 115.998 189.242 116.35 189.164C116.91 189.04 117.365 188.793 117.717 188.422C117.958 188.168 118.14 187.829 118.264 187.406C118.335 187.152 118.371 186.964 118.371 186.84H120.686V201H117.834V191.234H114.504Z" fill="#BD1F1F"/>
<rect x="23.5" y="163.5" width="121" height="62" stroke="#CCCCCC"/>
</g>
<g id="survey2" filter="url(#filter1_d)">
<rect x="92" y="259" width="122" height="63" fill="white"/>
<path id="survey 2" d="M115.467 293.602C115.525 294.096 115.652 294.448 115.848 294.656C116.193 295.027 116.831 295.213 117.762 295.213C118.309 295.213 118.742 295.132 119.061 294.969C119.386 294.806 119.549 294.562 119.549 294.236C119.549 293.924 119.419 293.686 119.158 293.523C118.898 293.361 117.931 293.081 116.258 292.684C115.053 292.384 114.204 292.01 113.709 291.561C113.214 291.118 112.967 290.48 112.967 289.646C112.967 288.663 113.351 287.82 114.119 287.117C114.894 286.408 115.981 286.053 117.381 286.053C118.709 286.053 119.79 286.32 120.623 286.854C121.463 287.381 121.945 288.296 122.068 289.598H119.285C119.246 289.24 119.145 288.956 118.982 288.748C118.676 288.37 118.156 288.182 117.42 288.182C116.814 288.182 116.382 288.276 116.121 288.465C115.867 288.654 115.74 288.875 115.74 289.129C115.74 289.448 115.877 289.679 116.15 289.822C116.424 289.972 117.391 290.229 119.051 290.594C120.158 290.854 120.988 291.248 121.541 291.775C122.088 292.309 122.361 292.977 122.361 293.777C122.361 294.832 121.967 295.695 121.18 296.365C120.398 297.029 119.188 297.361 117.547 297.361C115.874 297.361 114.637 297.01 113.836 296.307C113.042 295.597 112.645 294.695 112.645 293.602H115.467ZM127.205 286.355V292.771C127.205 293.377 127.277 293.833 127.42 294.139C127.674 294.679 128.172 294.949 128.914 294.949C129.865 294.949 130.516 294.565 130.867 293.797C131.049 293.38 131.141 292.83 131.141 292.146V286.355H133.963V297H131.258V295.496C131.232 295.529 131.167 295.626 131.062 295.789C130.958 295.952 130.835 296.095 130.691 296.219C130.255 296.609 129.832 296.876 129.422 297.02C129.018 297.163 128.543 297.234 127.996 297.234C126.421 297.234 125.359 296.668 124.812 295.535C124.507 294.91 124.354 293.989 124.354 292.771V286.355H127.205ZM142.439 286.102C142.492 286.102 142.534 286.105 142.566 286.111C142.605 286.111 142.687 286.115 142.811 286.121V288.973C142.635 288.953 142.479 288.94 142.342 288.934C142.205 288.927 142.094 288.924 142.01 288.924C140.89 288.924 140.138 289.288 139.754 290.018C139.539 290.428 139.432 291.059 139.432 291.912V297H136.629V286.355H139.285V288.211C139.715 287.501 140.089 287.016 140.408 286.756C140.929 286.32 141.606 286.102 142.439 286.102ZM151.014 286.355H154.002L150.164 297H147.225L143.406 286.355H146.531L148.748 294.207L151.014 286.355ZM159.783 288.367C159.139 288.367 158.637 288.569 158.279 288.973C157.928 289.376 157.706 289.923 157.615 290.613H161.941C161.896 289.878 161.671 289.321 161.268 288.943C160.87 288.559 160.376 288.367 159.783 288.367ZM159.783 286.072C160.669 286.072 161.466 286.238 162.176 286.57C162.885 286.902 163.471 287.426 163.934 288.143C164.35 288.774 164.62 289.507 164.744 290.34C164.816 290.828 164.845 291.531 164.832 292.449H157.547C157.586 293.517 157.921 294.266 158.553 294.695C158.937 294.962 159.399 295.096 159.939 295.096C160.512 295.096 160.978 294.933 161.336 294.607C161.531 294.432 161.704 294.188 161.854 293.875H164.695C164.624 294.507 164.295 295.148 163.709 295.799C162.798 296.834 161.521 297.352 159.881 297.352C158.527 297.352 157.332 296.915 156.297 296.043C155.262 295.171 154.744 293.751 154.744 291.785C154.744 289.943 155.21 288.53 156.141 287.547C157.078 286.564 158.292 286.072 159.783 286.072ZM167.146 299.041L167.498 299.061C167.771 299.074 168.032 299.064 168.279 299.031C168.527 298.999 168.735 298.924 168.904 298.807C169.067 298.696 169.217 298.465 169.354 298.113C169.497 297.762 169.555 297.547 169.529 297.469L165.623 286.355H168.719L171.043 294.207L173.24 286.355H176.199L172.547 296.824C171.844 298.842 171.287 300.092 170.877 300.574C170.467 301.062 169.646 301.307 168.416 301.307C168.169 301.307 167.97 301.303 167.82 301.297C167.671 301.297 167.446 301.287 167.146 301.268V299.041ZM182.742 297C182.768 295.984 182.986 295.057 183.396 294.217C183.794 293.273 184.731 292.273 186.209 291.219C187.492 290.301 188.322 289.643 188.699 289.246C189.279 288.628 189.568 287.951 189.568 287.215C189.568 286.616 189.402 286.118 189.07 285.721C188.738 285.324 188.263 285.125 187.645 285.125C186.798 285.125 186.222 285.441 185.916 286.072C185.74 286.437 185.636 287.016 185.604 287.811H182.898C182.944 286.606 183.162 285.633 183.553 284.891C184.295 283.478 185.613 282.771 187.508 282.771C189.005 282.771 190.197 283.188 191.082 284.021C191.967 284.848 192.41 285.945 192.41 287.312C192.41 288.361 192.098 289.292 191.473 290.105C191.062 290.646 190.389 291.248 189.451 291.912L188.338 292.703C187.641 293.198 187.163 293.556 186.902 293.777C186.648 293.999 186.434 294.256 186.258 294.549H192.439V297H182.742Z" fill="#BD1F1F"/>
<rect x="92.5" y="259.5" width="121" height="62" stroke="#CCCCCC"/>
</g>
</g>
<defs>
<filter id="filter0_d" x="23" y="163" width="126" height="67" filterUnits="userSpaceOnUse" color-interpolation-filters="sRGB">
<feFlood flood-opacity="0" result="BackgroundImageFix"/>
<feColorMatrix in="SourceAlpha" type="matrix" values="0 0 0 0 0 0 0 0 0 0 0 0 0 0 0 0 0 0 127 0"/>
<feOffset dx="4" dy="4"/>
<feColorMatrix type="matrix" values="0 0 0 0 0 0 0 0 0 0 0 0 0 0 0 0 0 0 0.1 0"/>
<feBlend mode="normal" in2="BackgroundImageFix" result="effect1_dropShadow"/>
<feBlend mode="normal" in="SourceGraphic" in2="effect1_dropShadow" result="shape"/>
</filter>
<filter id="filter1_d" x="92" y="259" width="126" height="67" filterUnits="userSpaceOnUse" color-interpolation-filters="sRGB">
<feFlood flood-opacity="0" result="BackgroundImageFix"/>
<feColorMatrix in="SourceAlpha" type="matrix" values="0 0 0 0 0 0 0 0 0 0 0 0 0 0 0 0 0 0 127 0"/>
<feOffset dx="4" dy="4"/>
<feColorMatrix type="matrix" values="0 0 0 0 0 0 0 0 0 0 0 0 0 0 0 0 0 0 0.1 0"/>
<feBlend mode="normal" in2="BackgroundImageFix" result="effect1_dropShadow"/>
<feBlend mode="normal" in="SourceGraphic" in2="effect1_dropShadow" result="shape"/>
</filter>
</defs>
</svg>
