<svg width="350" height="561" viewBox="0 0 350 561" fill="none" xmlns="http://www.w3.org/2000/svg">
<g id="story1-3" clip-path="url(#clip0)">
<g id="Frame 23">
<g id="talk-left">
<g id="Frame 14" clip-path="url(#clip1)">
<g id="avatar">
<rect width="50" height="50" transform="translate(20 -21)" fill="#CCCCCC"/>
<path id="avatar image" d="M29.8945 0.330078C29.8945 0.634766 30.0059 0.875 30.2285 1.05078C30.4512 1.22656 30.7148 1.31445 31.0195 1.31445C31.3906 1.31445 31.75 1.22852 32.0977 1.05664C32.6836 0.771484 32.9766 0.304688 32.9766 -0.34375V-1.19336C32.8477 -1.11133 32.6816 -1.04297 32.4785 -0.988281C32.2754 -0.933594 32.0762 -0.894531 31.8809 -0.871094L31.2422 -0.789062C30.8594 -0.738281 30.5723 -0.658203 30.3809 -0.548828C30.0566 -0.365234 29.8945 -0.0722656 29.8945 0.330078ZM32.4492 -1.80273C32.6914 -1.83398 32.8535 -1.93555 32.9355 -2.10742C32.9824 -2.20117 33.0059 -2.33594 33.0059 -2.51172C33.0059 -2.87109 32.877 -3.13086 32.6191 -3.29102C32.3652 -3.45508 32 -3.53711 31.5234 -3.53711C30.9727 -3.53711 30.582 -3.38867 30.3516 -3.0918C30.2227 -2.92773 30.1387 -2.68359 30.0996 -2.35938H29.1152C29.1348 -3.13281 29.3848 -3.66992 29.8652 -3.9707C30.3496 -4.27539 30.9102 -4.42773 31.5469 -4.42773C32.2852 -4.42773 32.8848 -4.28711 33.3457 -4.00586C33.8027 -3.72461 34.0312 -3.28711 34.0312 -2.69336V0.921875C34.0312 1.03125 34.0527 1.11914 34.0957 1.18555C34.1426 1.25195 34.2383 1.28516 34.3828 1.28516C34.4297 1.28516 34.4824 1.2832 34.541 1.2793C34.5996 1.27148 34.6621 1.26172 34.7285 1.25V2.0293C34.5645 2.07617 34.4395 2.10547 34.3535 2.11719C34.2676 2.12891 34.1504 2.13477 34.002 2.13477C33.6387 2.13477 33.375 2.00586 33.2109 1.74805C33.125 1.61133 33.0645 1.41797 33.0293 1.16797C32.8145 1.44922 32.5059 1.69336 32.1035 1.90039C31.7012 2.10742 31.2578 2.21094 30.7734 2.21094C30.1914 2.21094 29.7148 2.03516 29.3438 1.68359C28.9766 1.32812 28.793 0.884766 28.793 0.353516C28.793 -0.228516 28.9746 -0.679688 29.3379 -1C29.7012 -1.32031 30.1777 -1.51758 30.7676 -1.5918L32.4492 -1.80273ZM36.2812 -4.27539L37.957 0.833984L39.709 -4.27539H40.8633L38.4961 2H37.3711L35.0566 -4.27539H36.2812ZM42.5742 0.330078C42.5742 0.634766 42.6855 0.875 42.9082 1.05078C43.1309 1.22656 43.3945 1.31445 43.6992 1.31445C44.0703 1.31445 44.4297 1.22852 44.7773 1.05664C45.3633 0.771484 45.6562 0.304688 45.6562 -0.34375V-1.19336C45.5273 -1.11133 45.3613 -1.04297 45.1582 -0.988281C44.9551 -0.933594 44.7559 -0.894531 44.5605 -0.871094L43.9219 -0.789062C43.5391 -0.738281 43.252 -0.658203 43.0605 -0.548828C42.7363 -0.365234 42.5742 -0.0722656 42.5742 0.330078ZM45.1289 -1.80273C45.3711 -1.83398 45.5332 -1.93555 45.6152 -2.10742C45.6621 -2.20117 45.6855 -2.33594 45.6855 -2.51172C45.6855 -2.87109 45.5566 -3.13086 45.2988 -3.29102C45.0449 -3.45508 44.6797 -3.53711 44.2031 -3.53711C43.6523 -3.53711 43.2617 -3.38867 43.0312 -3.0918C42.9023 -2.92773 42.8184 -2.68359 42.7793 -2.35938H41.7949C41.8145 -3.13281 42.0645 -3.66992 42.5449 -3.9707C43.0293 -4.27539 43.5898 -4.42773 44.2266 -4.42773C44.9648 -4.42773 45.5645 -4.28711 46.0254 -4.00586C46.4824 -3.72461 46.7109 -3.28711 46.7109 -2.69336V0.921875C46.7109 1.03125 46.7324 1.11914 46.7754 1.18555C46.8223 1.25195 46.918 1.28516 47.0625 1.28516C47.1094 1.28516 47.1621 1.2832 47.2207 1.2793C47.2793 1.27148 47.3418 1.26172 47.4082 1.25V2.0293C47.2441 2.07617 47.1191 2.10547 47.0332 2.11719C46.9473 2.12891 46.8301 2.13477 46.6816 2.13477C46.3184 2.13477 46.0547 2.00586 45.8906 1.74805C45.8047 1.61133 45.7441 1.41797 45.709 1.16797C45.4941 1.44922 45.1855 1.69336 44.7832 1.90039C44.3809 2.10742 43.9375 2.21094 43.4531 2.21094C42.8711 2.21094 42.3945 2.03516 42.0234 1.68359C41.6562 1.32812 41.4727 0.884766 41.4727 0.353516C41.4727 -0.228516 41.6543 -0.679688 42.0176 -1C42.3809 -1.32031 42.8574 -1.51758 43.4473 -1.5918L45.1289 -1.80273ZM48.6562 -6.02734H49.7227V-4.27539H50.7246V-3.41406H49.7227V0.681641C49.7227 0.900391 49.7969 1.04688 49.9453 1.12109C50.0273 1.16406 50.1641 1.18555 50.3555 1.18555C50.4062 1.18555 50.4609 1.18555 50.5195 1.18555C50.5781 1.18164 50.6465 1.17578 50.7246 1.16797V2C50.6035 2.03516 50.4766 2.06055 50.3438 2.07617C50.2148 2.0918 50.0742 2.09961 49.9219 2.09961C49.4297 2.09961 49.0957 1.97461 48.9199 1.72461C48.7441 1.4707 48.6562 1.14258 48.6562 0.740234V-3.41406H47.8066V-4.27539H48.6562V-6.02734ZM52.5938 0.330078C52.5938 0.634766 52.7051 0.875 52.9277 1.05078C53.1504 1.22656 53.4141 1.31445 53.7188 1.31445C54.0898 1.31445 54.4492 1.22852 54.7969 1.05664C55.3828 0.771484 55.6758 0.304688 55.6758 -0.34375V-1.19336C55.5469 -1.11133 55.3809 -1.04297 55.1777 -0.988281C54.9746 -0.933594 54.7754 -0.894531 54.5801 -0.871094L53.9414 -0.789062C53.5586 -0.738281 53.2715 -0.658203 53.0801 -0.548828C52.7559 -0.365234 52.5938 -0.0722656 52.5938 0.330078ZM55.1484 -1.80273C55.3906 -1.83398 55.5527 -1.93555 55.6348 -2.10742C55.6816 -2.20117 55.7051 -2.33594 55.7051 -2.51172C55.7051 -2.87109 55.5762 -3.13086 55.3184 -3.29102C55.0645 -3.45508 54.6992 -3.53711 54.2227 -3.53711C53.6719 -3.53711 53.2812 -3.38867 53.0508 -3.0918C52.9219 -2.92773 52.8379 -2.68359 52.7988 -2.35938H51.8145C51.834 -3.13281 52.084 -3.66992 52.5645 -3.9707C53.0488 -4.27539 53.6094 -4.42773 54.2461 -4.42773C54.9844 -4.42773 55.584 -4.28711 56.0449 -4.00586C56.502 -3.72461 56.7305 -3.28711 56.7305 -2.69336V0.921875C56.7305 1.03125 56.752 1.11914 56.7949 1.18555C56.8418 1.25195 56.9375 1.28516 57.082 1.28516C57.1289 1.28516 57.1816 1.2832 57.2402 1.2793C57.2988 1.27148 57.3613 1.26172 57.4277 1.25V2.0293C57.2637 2.07617 57.1387 2.10547 57.0527 2.11719C56.9668 2.12891 56.8496 2.13477 56.7012 2.13477C56.3379 2.13477 56.0742 2.00586 55.9102 1.74805C55.8242 1.61133 55.7637 1.41797 55.7285 1.16797C55.5137 1.44922 55.2051 1.69336 54.8027 1.90039C54.4004 2.10742 53.957 2.21094 53.4727 2.21094C52.8906 2.21094 52.4141 2.03516 52.043 1.68359C51.6758 1.32812 51.4922 0.884766 51.4922 0.353516C51.4922 -0.228516 51.6738 -0.679688 52.0371 -1C52.4004 -1.32031 52.877 -1.51758 53.4668 -1.5918L55.1484 -1.80273ZM58.4941 -4.27539H59.4961V-3.19141C59.5781 -3.40234 59.7793 -3.6582 60.0996 -3.95898C60.4199 -4.26367 60.7891 -4.41602 61.207 -4.41602C61.2266 -4.41602 61.2598 -4.41406 61.3066 -4.41016C61.3535 -4.40625 61.4336 -4.39844 61.5469 -4.38672V-3.27344C61.4844 -3.28516 61.4258 -3.29297 61.3711 -3.29688C61.3203 -3.30078 61.2637 -3.30273 61.2012 -3.30273C60.6699 -3.30273 60.2617 -3.13086 59.9766 -2.78711C59.6914 -2.44727 59.5488 -2.05469 59.5488 -1.60938V2H58.4941V-4.27539ZM29.4199 7.75391H30.4922V14H29.4199V7.75391ZM29.4199 5.39258H30.4922V6.58789H29.4199V5.39258ZM32.0918 7.72461H33.1348V8.61523C33.3848 8.30664 33.6113 8.08203 33.8145 7.94141C34.1621 7.70312 34.5566 7.58398 34.998 7.58398C35.498 7.58398 35.9004 7.70703 36.2051 7.95312C36.377 8.09375 36.5332 8.30078 36.6738 8.57422C36.9082 8.23828 37.1836 7.99023 37.5 7.83008C37.8164 7.66602 38.1719 7.58398 38.5664 7.58398C39.4102 7.58398 39.9844 7.88867 40.2891 8.49805C40.4531 8.82617 40.5352 9.26758 40.5352 9.82227V14H39.4395V9.64062C39.4395 9.22266 39.334 8.93555 39.123 8.7793C38.916 8.62305 38.6621 8.54492 38.3613 8.54492C37.9473 8.54492 37.5898 8.68359 37.2891 8.96094C36.9922 9.23828 36.8438 9.70117 36.8438 10.3496V14H35.7715V9.9043C35.7715 9.47852 35.7207 9.16797 35.6191 8.97266C35.459 8.67969 35.1602 8.5332 34.7227 8.5332C34.3242 8.5332 33.9609 8.6875 33.6328 8.99609C33.3086 9.30469 33.1465 9.86328 33.1465 10.6719V14H32.0918V7.72461ZM42.8965 12.3301C42.8965 12.6348 43.0078 12.875 43.2305 13.0508C43.4531 13.2266 43.7168 13.3145 44.0215 13.3145C44.3926 13.3145 44.752 13.2285 45.0996 13.0566C45.6855 12.7715 45.9785 12.3047 45.9785 11.6562V10.8066C45.8496 10.8887 45.6836 10.957 45.4805 11.0117C45.2773 11.0664 45.0781 11.1055 44.8828 11.1289L44.2441 11.2109C43.8613 11.2617 43.5742 11.3418 43.3828 11.4512C43.0586 11.6348 42.8965 11.9277 42.8965 12.3301ZM45.4512 10.1973C45.6934 10.166 45.8555 10.0645 45.9375 9.89258C45.9844 9.79883 46.0078 9.66406 46.0078 9.48828C46.0078 9.12891 45.8789 8.86914 45.6211 8.70898C45.3672 8.54492 45.002 8.46289 44.5254 8.46289C43.9746 8.46289 43.584 8.61133 43.3535 8.9082C43.2246 9.07227 43.1406 9.31641 43.1016 9.64062H42.1172C42.1367 8.86719 42.3867 8.33008 42.8672 8.0293C43.3516 7.72461 43.9121 7.57227 44.5488 7.57227C45.2871 7.57227 45.8867 7.71289 46.3477 7.99414C46.8047 8.27539 47.0332 8.71289 47.0332 9.30664V12.9219C47.0332 13.0312 47.0547 13.1191 47.0977 13.1855C47.1445 13.252 47.2402 13.2852 47.3848 13.2852C47.4316 13.2852 47.4844 13.2832 47.543 13.2793C47.6016 13.2715 47.6641 13.2617 47.7305 13.25V14.0293C47.5664 14.0762 47.4414 14.1055 47.3555 14.1172C47.2695 14.1289 47.1523 14.1348 47.0039 14.1348C46.6406 14.1348 46.377 14.0059 46.2129 13.748C46.127 13.6113 46.0664 13.418 46.0312 13.168C45.8164 13.4492 45.5078 13.6934 45.1055 13.9004C44.7031 14.1074 44.2598 14.2109 43.7754 14.2109C43.1934 14.2109 42.7168 14.0352 42.3457 13.6836C41.9785 13.3281 41.7949 12.8848 41.7949 12.3535C41.7949 11.7715 41.9766 11.3203 42.3398 11C42.7031 10.6797 43.1797 10.4824 43.7695 10.4082L45.4512 10.1973ZM50.9824 7.61328C51.4746 7.61328 51.9043 7.73438 52.2715 7.97656C52.4707 8.11328 52.6738 8.3125 52.8809 8.57422V7.7832H53.8535V13.4902C53.8535 14.2871 53.7363 14.916 53.502 15.377C53.0645 16.2285 52.2383 16.6543 51.0234 16.6543C50.3477 16.6543 49.7793 16.502 49.3184 16.1973C48.8574 15.8965 48.5996 15.4238 48.5449 14.7793H49.6172C49.668 15.0605 49.7695 15.2773 49.9219 15.4297C50.1602 15.6641 50.5352 15.7812 51.0469 15.7812C51.8555 15.7812 52.3848 15.4961 52.6348 14.9258C52.7832 14.5898 52.8516 13.9902 52.8398 13.127C52.6289 13.4473 52.375 13.6855 52.0781 13.8418C51.7812 13.998 51.3887 14.0762 50.9004 14.0762C50.2207 14.0762 49.625 13.8359 49.1133 13.3555C48.6055 12.8711 48.3516 12.0723 48.3516 10.959C48.3516 9.9082 48.6074 9.08789 49.1191 8.49805C49.6348 7.9082 50.2559 7.61328 50.9824 7.61328ZM52.8809 10.8359C52.8809 10.0586 52.7207 9.48242 52.4004 9.10742C52.0801 8.73242 51.6719 8.54492 51.1758 8.54492C50.4336 8.54492 49.9258 8.89258 49.6523 9.58789C49.5078 9.95898 49.4355 10.4453 49.4355 11.0469C49.4355 11.7539 49.5781 12.293 49.8633 12.6641C50.1523 13.0312 50.5391 13.2148 51.0234 13.2148C51.7812 13.2148 52.3145 12.873 52.623 12.1895C52.7949 11.8027 52.8809 11.3516 52.8809 10.8359ZM58.0605 7.58398C58.5059 7.58398 58.9375 7.68945 59.3555 7.90039C59.7734 8.10742 60.0918 8.37695 60.3105 8.70898C60.5215 9.02539 60.6621 9.39453 60.7324 9.81641C60.7949 10.1055 60.8262 10.5664 60.8262 11.1992H56.2266C56.2461 11.8359 56.3965 12.3477 56.6777 12.7344C56.959 13.1172 57.3945 13.3086 57.9844 13.3086C58.5352 13.3086 58.9746 13.127 59.3027 12.7637C59.4902 12.5527 59.623 12.3086 59.7012 12.0312H60.7383C60.7109 12.2617 60.6191 12.5195 60.4629 12.8047C60.3105 13.0859 60.1387 13.3164 59.9473 13.4961C59.627 13.8086 59.2305 14.0195 58.7578 14.1289C58.5039 14.1914 58.2168 14.2227 57.8965 14.2227C57.1152 14.2227 56.4531 13.9395 55.9102 13.373C55.3672 12.8027 55.0957 12.0059 55.0957 10.9824C55.0957 9.97461 55.3691 9.15625 55.916 8.52734C56.4629 7.89844 57.1777 7.58398 58.0605 7.58398ZM59.7422 10.3613C59.6992 9.9043 59.5996 9.53906 59.4434 9.26562C59.1543 8.75781 58.6719 8.50391 57.9961 8.50391C57.5117 8.50391 57.1055 8.67969 56.7773 9.03125C56.4492 9.37891 56.2754 9.82227 56.2559 10.3613H59.7422Z" fill="#CCCCCC"/>
</g>
<path id="Vector" d="M85 -4.75L75 4L85 12.75L85 -4.75Z" fill="#EEEEEE"/>
</g>
<g id="Frame 12" clip-path="url(#clip2)">
<rect width="245" height="56" transform="translate(85 -21)" fill="#EEEEEE"/>
<rect id="Rectangle 9" x="95" width="65" height="10" fill="#666666"/>
<rect id="Rectangle 11" x="95" y="11" width="225" height="3" fill="#EEEEEE"/>
<g id="Frame 15">
<rect id="Rectangle 13" x="95" y="15" width="50" height="10" fill="#CCCCCC"/>
<rect id="Rectangle 16" x="150" y="15" width="50" height="10" fill="#CCCCCC"/>
</g>
</g>
</g>
</g>
<g id="talk-right">
<g id="Frame 12_2" clip-path="url(#clip3)">
<rect width="245" height="67" transform="translate(20 50)" fill="#EEEEEE"/>
<rect id="Rectangle 7" x="40" y="60" width="215" height="10" fill="#666666"/>
<rect id="Rectangle 14" x="40" y="71" width="215" height="10" fill="#666666"/>
<rect id="Rectangle 9_2" x="190" y="82" width="65" height="10" fill="#666666"/>
<rect id="Rectangle 11_2" x="30" y="93" width="225" height="3" fill="#EEEEEE"/>
<g id="Frame 15_2">
<rect id="Rectangle 13_2" x="150" y="97" width="50" height="10" fill="#CCCCCC"/>
<rect id="Rectangle 16_2" x="205" y="97" width="50" height="10" fill="#CCCCCC"/>
</g>
</g>
<g id="Frame 15_3">
<path id="Vector_2" d="M265 83.75L275 75L265 66.25V83.75Z" fill="#EEEEEE"/>
<g id="avatar_2">
<rect width="50" height="50" transform="translate(280 50)" fill="#CCCCCC"/>
<path id="avatar image_2" d="M289.895 71.3301C289.895 71.6348 290.006 71.875 290.229 72.0508C290.451 72.2266 290.715 72.3145 291.02 72.3145C291.391 72.3145 291.75 72.2285 292.098 72.0566C292.684 71.7715 292.977 71.3047 292.977 70.6562V69.8066C292.848 69.8887 292.682 69.957 292.479 70.0117C292.275 70.0664 292.076 70.1055 291.881 70.1289L291.242 70.2109C290.859 70.2617 290.572 70.3418 290.381 70.4512C290.057 70.6348 289.895 70.9277 289.895 71.3301ZM292.449 69.1973C292.691 69.166 292.854 69.0645 292.936 68.8926C292.982 68.7988 293.006 68.6641 293.006 68.4883C293.006 68.1289 292.877 67.8691 292.619 67.709C292.365 67.5449 292 67.4629 291.523 67.4629C290.973 67.4629 290.582 67.6113 290.352 67.9082C290.223 68.0723 290.139 68.3164 290.1 68.6406H289.115C289.135 67.8672 289.385 67.3301 289.865 67.0293C290.35 66.7246 290.91 66.5723 291.547 66.5723C292.285 66.5723 292.885 66.7129 293.346 66.9941C293.803 67.2754 294.031 67.7129 294.031 68.3066V71.9219C294.031 72.0312 294.053 72.1191 294.096 72.1855C294.143 72.252 294.238 72.2852 294.383 72.2852C294.43 72.2852 294.482 72.2832 294.541 72.2793C294.6 72.2715 294.662 72.2617 294.729 72.25V73.0293C294.564 73.0762 294.439 73.1055 294.354 73.1172C294.268 73.1289 294.15 73.1348 294.002 73.1348C293.639 73.1348 293.375 73.0059 293.211 72.748C293.125 72.6113 293.064 72.418 293.029 72.168C292.814 72.4492 292.506 72.6934 292.104 72.9004C291.701 73.1074 291.258 73.2109 290.773 73.2109C290.191 73.2109 289.715 73.0352 289.344 72.6836C288.977 72.3281 288.793 71.8848 288.793 71.3535C288.793 70.7715 288.975 70.3203 289.338 70C289.701 69.6797 290.178 69.4824 290.768 69.4082L292.449 69.1973ZM296.281 66.7246L297.957 71.834L299.709 66.7246H300.863L298.496 73H297.371L295.057 66.7246H296.281ZM302.574 71.3301C302.574 71.6348 302.686 71.875 302.908 72.0508C303.131 72.2266 303.395 72.3145 303.699 72.3145C304.07 72.3145 304.43 72.2285 304.777 72.0566C305.363 71.7715 305.656 71.3047 305.656 70.6562V69.8066C305.527 69.8887 305.361 69.957 305.158 70.0117C304.955 70.0664 304.756 70.1055 304.561 70.1289L303.922 70.2109C303.539 70.2617 303.252 70.3418 303.061 70.4512C302.736 70.6348 302.574 70.9277 302.574 71.3301ZM305.129 69.1973C305.371 69.166 305.533 69.0645 305.615 68.8926C305.662 68.7988 305.686 68.6641 305.686 68.4883C305.686 68.1289 305.557 67.8691 305.299 67.709C305.045 67.5449 304.68 67.4629 304.203 67.4629C303.652 67.4629 303.262 67.6113 303.031 67.9082C302.902 68.0723 302.818 68.3164 302.779 68.6406H301.795C301.814 67.8672 302.064 67.3301 302.545 67.0293C303.029 66.7246 303.59 66.5723 304.227 66.5723C304.965 66.5723 305.564 66.7129 306.025 66.9941C306.482 67.2754 306.711 67.7129 306.711 68.3066V71.9219C306.711 72.0312 306.732 72.1191 306.775 72.1855C306.822 72.252 306.918 72.2852 307.062 72.2852C307.109 72.2852 307.162 72.2832 307.221 72.2793C307.279 72.2715 307.342 72.2617 307.408 72.25V73.0293C307.244 73.0762 307.119 73.1055 307.033 73.1172C306.947 73.1289 306.83 73.1348 306.682 73.1348C306.318 73.1348 306.055 73.0059 305.891 72.748C305.805 72.6113 305.744 72.418 305.709 72.168C305.494 72.4492 305.186 72.6934 304.783 72.9004C304.381 73.1074 303.938 73.2109 303.453 73.2109C302.871 73.2109 302.395 73.0352 302.023 72.6836C301.656 72.3281 301.473 71.8848 301.473 71.3535C301.473 70.7715 301.654 70.3203 302.018 70C302.381 69.6797 302.857 69.4824 303.447 69.4082L305.129 69.1973ZM308.656 64.9727H309.723V66.7246H310.725V67.5859H309.723V71.6816C309.723 71.9004 309.797 72.0469 309.945 72.1211C310.027 72.1641 310.164 72.1855 310.355 72.1855C310.406 72.1855 310.461 72.1855 310.52 72.1855C310.578 72.1816 310.646 72.1758 310.725 72.168V73C310.604 73.0352 310.477 73.0605 310.344 73.0762C310.215 73.0918 310.074 73.0996 309.922 73.0996C309.43 73.0996 309.096 72.9746 308.92 72.7246C308.744 72.4707 308.656 72.1426 308.656 71.7402V67.5859H307.807V66.7246H308.656V64.9727ZM312.594 71.3301C312.594 71.6348 312.705 71.875 312.928 72.0508C313.15 72.2266 313.414 72.3145 313.719 72.3145C314.09 72.3145 314.449 72.2285 314.797 72.0566C315.383 71.7715 315.676 71.3047 315.676 70.6562V69.8066C315.547 69.8887 315.381 69.957 315.178 70.0117C314.975 70.0664 314.775 70.1055 314.58 70.1289L313.941 70.2109C313.559 70.2617 313.271 70.3418 313.08 70.4512C312.756 70.6348 312.594 70.9277 312.594 71.3301ZM315.148 69.1973C315.391 69.166 315.553 69.0645 315.635 68.8926C315.682 68.7988 315.705 68.6641 315.705 68.4883C315.705 68.1289 315.576 67.8691 315.318 67.709C315.064 67.5449 314.699 67.4629 314.223 67.4629C313.672 67.4629 313.281 67.6113 313.051 67.9082C312.922 68.0723 312.838 68.3164 312.799 68.6406H311.814C311.834 67.8672 312.084 67.3301 312.564 67.0293C313.049 66.7246 313.609 66.5723 314.246 66.5723C314.984 66.5723 315.584 66.7129 316.045 66.9941C316.502 67.2754 316.73 67.7129 316.73 68.3066V71.9219C316.73 72.0312 316.752 72.1191 316.795 72.1855C316.842 72.252 316.938 72.2852 317.082 72.2852C317.129 72.2852 317.182 72.2832 317.24 72.2793C317.299 72.2715 317.361 72.2617 317.428 72.25V73.0293C317.264 73.0762 317.139 73.1055 317.053 73.1172C316.967 73.1289 316.85 73.1348 316.701 73.1348C316.338 73.1348 316.074 73.0059 315.91 72.748C315.824 72.6113 315.764 72.418 315.729 72.168C315.514 72.4492 315.205 72.6934 314.803 72.9004C314.4 73.1074 313.957 73.2109 313.473 73.2109C312.891 73.2109 312.414 73.0352 312.043 72.6836C311.676 72.3281 311.492 71.8848 311.492 71.3535C311.492 70.7715 311.674 70.3203 312.037 70C312.4 69.6797 312.877 69.4824 313.467 69.4082L315.148 69.1973ZM318.494 66.7246H319.496V67.8086C319.578 67.5977 319.779 67.3418 320.1 67.041C320.42 66.7363 320.789 66.584 321.207 66.584C321.227 66.584 321.26 66.5859 321.307 66.5898C321.354 66.5938 321.434 66.6016 321.547 66.6133V67.7266C321.484 67.7148 321.426 67.707 321.371 67.7031C321.32 67.6992 321.264 67.6973 321.201 67.6973C320.67 67.6973 320.262 67.8691 319.977 68.2129C319.691 68.5527 319.549 68.9453 319.549 69.3906V73H318.494V66.7246ZM289.42 78.7539H290.492V85H289.42V78.7539ZM289.42 76.3926H290.492V77.5879H289.42V76.3926ZM292.092 78.7246H293.135V79.6152C293.385 79.3066 293.611 79.082 293.814 78.9414C294.162 78.7031 294.557 78.584 294.998 78.584C295.498 78.584 295.9 78.707 296.205 78.9531C296.377 79.0938 296.533 79.3008 296.674 79.5742C296.908 79.2383 297.184 78.9902 297.5 78.8301C297.816 78.666 298.172 78.584 298.566 78.584C299.41 78.584 299.984 78.8887 300.289 79.498C300.453 79.8262 300.535 80.2676 300.535 80.8223V85H299.439V80.6406C299.439 80.2227 299.334 79.9355 299.123 79.7793C298.916 79.623 298.662 79.5449 298.361 79.5449C297.947 79.5449 297.59 79.6836 297.289 79.9609C296.992 80.2383 296.844 80.7012 296.844 81.3496V85H295.771V80.9043C295.771 80.4785 295.721 80.168 295.619 79.9727C295.459 79.6797 295.16 79.5332 294.723 79.5332C294.324 79.5332 293.961 79.6875 293.633 79.9961C293.309 80.3047 293.146 80.8633 293.146 81.6719V85H292.092V78.7246ZM302.896 83.3301C302.896 83.6348 303.008 83.875 303.23 84.0508C303.453 84.2266 303.717 84.3145 304.021 84.3145C304.393 84.3145 304.752 84.2285 305.1 84.0566C305.686 83.7715 305.979 83.3047 305.979 82.6562V81.8066C305.85 81.8887 305.684 81.957 305.48 82.0117C305.277 82.0664 305.078 82.1055 304.883 82.1289L304.244 82.2109C303.861 82.2617 303.574 82.3418 303.383 82.4512C303.059 82.6348 302.896 82.9277 302.896 83.3301ZM305.451 81.1973C305.693 81.166 305.855 81.0645 305.938 80.8926C305.984 80.7988 306.008 80.6641 306.008 80.4883C306.008 80.1289 305.879 79.8691 305.621 79.709C305.367 79.5449 305.002 79.4629 304.525 79.4629C303.975 79.4629 303.584 79.6113 303.354 79.9082C303.225 80.0723 303.141 80.3164 303.102 80.6406H302.117C302.137 79.8672 302.387 79.3301 302.867 79.0293C303.352 78.7246 303.912 78.5723 304.549 78.5723C305.287 78.5723 305.887 78.7129 306.348 78.9941C306.805 79.2754 307.033 79.7129 307.033 80.3066V83.9219C307.033 84.0312 307.055 84.1191 307.098 84.1855C307.145 84.252 307.24 84.2852 307.385 84.2852C307.432 84.2852 307.484 84.2832 307.543 84.2793C307.602 84.2715 307.664 84.2617 307.73 84.25V85.0293C307.566 85.0762 307.441 85.1055 307.355 85.1172C307.27 85.1289 307.152 85.1348 307.004 85.1348C306.641 85.1348 306.377 85.0059 306.213 84.748C306.127 84.6113 306.066 84.418 306.031 84.168C305.816 84.4492 305.508 84.6934 305.105 84.9004C304.703 85.1074 304.26 85.2109 303.775 85.2109C303.193 85.2109 302.717 85.0352 302.346 84.6836C301.979 84.3281 301.795 83.8848 301.795 83.3535C301.795 82.7715 301.977 82.3203 302.34 82C302.703 81.6797 303.18 81.4824 303.77 81.4082L305.451 81.1973ZM310.982 78.6133C311.475 78.6133 311.904 78.7344 312.271 78.9766C312.471 79.1133 312.674 79.3125 312.881 79.5742V78.7832H313.854V84.4902C313.854 85.2871 313.736 85.916 313.502 86.377C313.064 87.2285 312.238 87.6543 311.023 87.6543C310.348 87.6543 309.779 87.502 309.318 87.1973C308.857 86.8965 308.6 86.4238 308.545 85.7793H309.617C309.668 86.0605 309.77 86.2773 309.922 86.4297C310.16 86.6641 310.535 86.7812 311.047 86.7812C311.855 86.7812 312.385 86.4961 312.635 85.9258C312.783 85.5898 312.852 84.9902 312.84 84.127C312.629 84.4473 312.375 84.6855 312.078 84.8418C311.781 84.998 311.389 85.0762 310.9 85.0762C310.221 85.0762 309.625 84.8359 309.113 84.3555C308.605 83.8711 308.352 83.0723 308.352 81.959C308.352 80.9082 308.607 80.0879 309.119 79.498C309.635 78.9082 310.256 78.6133 310.982 78.6133ZM312.881 81.8359C312.881 81.0586 312.721 80.4824 312.4 80.1074C312.08 79.7324 311.672 79.5449 311.176 79.5449C310.434 79.5449 309.926 79.8926 309.652 80.5879C309.508 80.959 309.436 81.4453 309.436 82.0469C309.436 82.7539 309.578 83.293 309.863 83.6641C310.152 84.0312 310.539 84.2148 311.023 84.2148C311.781 84.2148 312.314 83.873 312.623 83.1895C312.795 82.8027 312.881 82.3516 312.881 81.8359ZM318.061 78.584C318.506 78.584 318.938 78.6895 319.355 78.9004C319.773 79.1074 320.092 79.377 320.311 79.709C320.521 80.0254 320.662 80.3945 320.732 80.8164C320.795 81.1055 320.826 81.5664 320.826 82.1992H316.227C316.246 82.8359 316.396 83.3477 316.678 83.7344C316.959 84.1172 317.395 84.3086 317.984 84.3086C318.535 84.3086 318.975 84.127 319.303 83.7637C319.49 83.5527 319.623 83.3086 319.701 83.0312H320.738C320.711 83.2617 320.619 83.5195 320.463 83.8047C320.311 84.0859 320.139 84.3164 319.947 84.4961C319.627 84.8086 319.23 85.0195 318.758 85.1289C318.504 85.1914 318.217 85.2227 317.896 85.2227C317.115 85.2227 316.453 84.9395 315.91 84.373C315.367 83.8027 315.096 83.0059 315.096 81.9824C315.096 80.9746 315.369 80.1562 315.916 79.5273C316.463 78.8984 317.178 78.584 318.061 78.584ZM319.742 81.3613C319.699 80.9043 319.6 80.5391 319.443 80.2656C319.154 79.7578 318.672 79.5039 317.996 79.5039C317.512 79.5039 317.105 79.6797 316.777 80.0312C316.449 80.3789 316.275 80.8223 316.256 81.3613H319.742Z" fill="#CCCCCC"/>
</g>
</g>
</g>
<g id="talk-left_2">
<g id="Frame 14_2" clip-path="url(#clip4)">
<g id="avatar_3">
<rect width="50" height="50" transform="translate(20 132)" fill="#CCCCCC"/>
<path id="avatar image_3" d="M29.8945 153.33C29.8945 153.635 30.0059 153.875 30.2285 154.051C30.4512 154.227 30.7148 154.314 31.0195 154.314C31.3906 154.314 31.75 154.229 32.0977 154.057C32.6836 153.771 32.9766 153.305 32.9766 152.656V151.807C32.8477 151.889 32.6816 151.957 32.4785 152.012C32.2754 152.066 32.0762 152.105 31.8809 152.129L31.2422 152.211C30.8594 152.262 30.5723 152.342 30.3809 152.451C30.0566 152.635 29.8945 152.928 29.8945 153.33ZM32.4492 151.197C32.6914 151.166 32.8535 151.064 32.9355 150.893C32.9824 150.799 33.0059 150.664 33.0059 150.488C33.0059 150.129 32.877 149.869 32.6191 149.709C32.3652 149.545 32 149.463 31.5234 149.463C30.9727 149.463 30.582 149.611 30.3516 149.908C30.2227 150.072 30.1387 150.316 30.0996 150.641H29.1152C29.1348 149.867 29.3848 149.33 29.8652 149.029C30.3496 148.725 30.9102 148.572 31.5469 148.572C32.2852 148.572 32.8848 148.713 33.3457 148.994C33.8027 149.275 34.0312 149.713 34.0312 150.307V153.922C34.0312 154.031 34.0527 154.119 34.0957 154.186C34.1426 154.252 34.2383 154.285 34.3828 154.285C34.4297 154.285 34.4824 154.283 34.541 154.279C34.5996 154.271 34.6621 154.262 34.7285 154.25V155.029C34.5645 155.076 34.4395 155.105 34.3535 155.117C34.2676 155.129 34.1504 155.135 34.002 155.135C33.6387 155.135 33.375 155.006 33.2109 154.748C33.125 154.611 33.0645 154.418 33.0293 154.168C32.8145 154.449 32.5059 154.693 32.1035 154.9C31.7012 155.107 31.2578 155.211 30.7734 155.211C30.1914 155.211 29.7148 155.035 29.3438 154.684C28.9766 154.328 28.793 153.885 28.793 153.354C28.793 152.771 28.9746 152.32 29.3379 152C29.7012 151.68 30.1777 151.482 30.7676 151.408L32.4492 151.197ZM36.2812 148.725L37.957 153.834L39.709 148.725H40.8633L38.4961 155H37.3711L35.0566 148.725H36.2812ZM42.5742 153.33C42.5742 153.635 42.6855 153.875 42.9082 154.051C43.1309 154.227 43.3945 154.314 43.6992 154.314C44.0703 154.314 44.4297 154.229 44.7773 154.057C45.3633 153.771 45.6562 153.305 45.6562 152.656V151.807C45.5273 151.889 45.3613 151.957 45.1582 152.012C44.9551 152.066 44.7559 152.105 44.5605 152.129L43.9219 152.211C43.5391 152.262 43.252 152.342 43.0605 152.451C42.7363 152.635 42.5742 152.928 42.5742 153.33ZM45.1289 151.197C45.3711 151.166 45.5332 151.064 45.6152 150.893C45.6621 150.799 45.6855 150.664 45.6855 150.488C45.6855 150.129 45.5566 149.869 45.2988 149.709C45.0449 149.545 44.6797 149.463 44.2031 149.463C43.6523 149.463 43.2617 149.611 43.0312 149.908C42.9023 150.072 42.8184 150.316 42.7793 150.641H41.7949C41.8145 149.867 42.0645 149.33 42.5449 149.029C43.0293 148.725 43.5898 148.572 44.2266 148.572C44.9648 148.572 45.5645 148.713 46.0254 148.994C46.4824 149.275 46.7109 149.713 46.7109 150.307V153.922C46.7109 154.031 46.7324 154.119 46.7754 154.186C46.8223 154.252 46.918 154.285 47.0625 154.285C47.1094 154.285 47.1621 154.283 47.2207 154.279C47.2793 154.271 47.3418 154.262 47.4082 154.25V155.029C47.2441 155.076 47.1191 155.105 47.0332 155.117C46.9473 155.129 46.8301 155.135 46.6816 155.135C46.3184 155.135 46.0547 155.006 45.8906 154.748C45.8047 154.611 45.7441 154.418 45.709 154.168C45.4941 154.449 45.1855 154.693 44.7832 154.9C44.3809 155.107 43.9375 155.211 43.4531 155.211C42.8711 155.211 42.3945 155.035 42.0234 154.684C41.6562 154.328 41.4727 153.885 41.4727 153.354C41.4727 152.771 41.6543 152.32 42.0176 152C42.3809 151.68 42.8574 151.482 43.4473 151.408L45.1289 151.197ZM48.6562 146.973H49.7227V148.725H50.7246V149.586H49.7227V153.682C49.7227 153.9 49.7969 154.047 49.9453 154.121C50.0273 154.164 50.1641 154.186 50.3555 154.186C50.4062 154.186 50.4609 154.186 50.5195 154.186C50.5781 154.182 50.6465 154.176 50.7246 154.168V155C50.6035 155.035 50.4766 155.061 50.3438 155.076C50.2148 155.092 50.0742 155.1 49.9219 155.1C49.4297 155.1 49.0957 154.975 48.9199 154.725C48.7441 154.471 48.6562 154.143 48.6562 153.74V149.586H47.8066V148.725H48.6562V146.973ZM52.5938 153.33C52.5938 153.635 52.7051 153.875 52.9277 154.051C53.1504 154.227 53.4141 154.314 53.7188 154.314C54.0898 154.314 54.4492 154.229 54.7969 154.057C55.3828 153.771 55.6758 153.305 55.6758 152.656V151.807C55.5469 151.889 55.3809 151.957 55.1777 152.012C54.9746 152.066 54.7754 152.105 54.5801 152.129L53.9414 152.211C53.5586 152.262 53.2715 152.342 53.0801 152.451C52.7559 152.635 52.5938 152.928 52.5938 153.33ZM55.1484 151.197C55.3906 151.166 55.5527 151.064 55.6348 150.893C55.6816 150.799 55.7051 150.664 55.7051 150.488C55.7051 150.129 55.5762 149.869 55.3184 149.709C55.0645 149.545 54.6992 149.463 54.2227 149.463C53.6719 149.463 53.2812 149.611 53.0508 149.908C52.9219 150.072 52.8379 150.316 52.7988 150.641H51.8145C51.834 149.867 52.084 149.33 52.5645 149.029C53.0488 148.725 53.6094 148.572 54.2461 148.572C54.9844 148.572 55.584 148.713 56.0449 148.994C56.502 149.275 56.7305 149.713 56.7305 150.307V153.922C56.7305 154.031 56.752 154.119 56.7949 154.186C56.8418 154.252 56.9375 154.285 57.082 154.285C57.1289 154.285 57.1816 154.283 57.2402 154.279C57.2988 154.271 57.3613 154.262 57.4277 154.25V155.029C57.2637 155.076 57.1387 155.105 57.0527 155.117C56.9668 155.129 56.8496 155.135 56.7012 155.135C56.3379 155.135 56.0742 155.006 55.9102 154.748C55.8242 154.611 55.7637 154.418 55.7285 154.168C55.5137 154.449 55.2051 154.693 54.8027 154.9C54.4004 155.107 53.957 155.211 53.4727 155.211C52.8906 155.211 52.4141 155.035 52.043 154.684C51.6758 154.328 51.4922 153.885 51.4922 153.354C51.4922 152.771 51.6738 152.32 52.0371 152C52.4004 151.68 52.877 151.482 53.4668 151.408L55.1484 151.197ZM58.4941 148.725H59.4961V149.809C59.5781 149.598 59.7793 149.342 60.0996 149.041C60.4199 148.736 60.7891 148.584 61.207 148.584C61.2266 148.584 61.2598 148.586 61.3066 148.59C61.3535 148.594 61.4336 148.602 61.5469 148.613V149.727C61.4844 149.715 61.4258 149.707 61.3711 149.703C61.3203 149.699 61.2637 149.697 61.2012 149.697C60.6699 149.697 60.2617 149.869 59.9766 150.213C59.6914 150.553 59.5488 150.945 59.5488 151.391V155H58.4941V148.725ZM29.4199 160.754H30.4922V167H29.4199V160.754ZM29.4199 158.393H30.4922V159.588H29.4199V158.393ZM32.0918 160.725H33.1348V161.615C33.3848 161.307 33.6113 161.082 33.8145 160.941C34.1621 160.703 34.5566 160.584 34.998 160.584C35.498 160.584 35.9004 160.707 36.2051 160.953C36.377 161.094 36.5332 161.301 36.6738 161.574C36.9082 161.238 37.1836 160.99 37.5 160.83C37.8164 160.666 38.1719 160.584 38.5664 160.584C39.4102 160.584 39.9844 160.889 40.2891 161.498C40.4531 161.826 40.5352 162.268 40.5352 162.822V167H39.4395V162.641C39.4395 162.223 39.334 161.936 39.123 161.779C38.916 161.623 38.6621 161.545 38.3613 161.545C37.9473 161.545 37.5898 161.684 37.2891 161.961C36.9922 162.238 36.8438 162.701 36.8438 163.35V167H35.7715V162.904C35.7715 162.479 35.7207 162.168 35.6191 161.973C35.459 161.68 35.1602 161.533 34.7227 161.533C34.3242 161.533 33.9609 161.688 33.6328 161.996C33.3086 162.305 33.1465 162.863 33.1465 163.672V167H32.0918V160.725ZM42.8965 165.33C42.8965 165.635 43.0078 165.875 43.2305 166.051C43.4531 166.227 43.7168 166.314 44.0215 166.314C44.3926 166.314 44.752 166.229 45.0996 166.057C45.6855 165.771 45.9785 165.305 45.9785 164.656V163.807C45.8496 163.889 45.6836 163.957 45.4805 164.012C45.2773 164.066 45.0781 164.105 44.8828 164.129L44.2441 164.211C43.8613 164.262 43.5742 164.342 43.3828 164.451C43.0586 164.635 42.8965 164.928 42.8965 165.33ZM45.4512 163.197C45.6934 163.166 45.8555 163.064 45.9375 162.893C45.9844 162.799 46.0078 162.664 46.0078 162.488C46.0078 162.129 45.8789 161.869 45.6211 161.709C45.3672 161.545 45.002 161.463 44.5254 161.463C43.9746 161.463 43.584 161.611 43.3535 161.908C43.2246 162.072 43.1406 162.316 43.1016 162.641H42.1172C42.1367 161.867 42.3867 161.33 42.8672 161.029C43.3516 160.725 43.9121 160.572 44.5488 160.572C45.2871 160.572 45.8867 160.713 46.3477 160.994C46.8047 161.275 47.0332 161.713 47.0332 162.307V165.922C47.0332 166.031 47.0547 166.119 47.0977 166.186C47.1445 166.252 47.2402 166.285 47.3848 166.285C47.4316 166.285 47.4844 166.283 47.543 166.279C47.6016 166.271 47.6641 166.262 47.7305 166.25V167.029C47.5664 167.076 47.4414 167.105 47.3555 167.117C47.2695 167.129 47.1523 167.135 47.0039 167.135C46.6406 167.135 46.377 167.006 46.2129 166.748C46.127 166.611 46.0664 166.418 46.0312 166.168C45.8164 166.449 45.5078 166.693 45.1055 166.9C44.7031 167.107 44.2598 167.211 43.7754 167.211C43.1934 167.211 42.7168 167.035 42.3457 166.684C41.9785 166.328 41.7949 165.885 41.7949 165.354C41.7949 164.771 41.9766 164.32 42.3398 164C42.7031 163.68 43.1797 163.482 43.7695 163.408L45.4512 163.197ZM50.9824 160.613C51.4746 160.613 51.9043 160.734 52.2715 160.977C52.4707 161.113 52.6738 161.312 52.8809 161.574V160.783H53.8535V166.49C53.8535 167.287 53.7363 167.916 53.502 168.377C53.0645 169.229 52.2383 169.654 51.0234 169.654C50.3477 169.654 49.7793 169.502 49.3184 169.197C48.8574 168.896 48.5996 168.424 48.5449 167.779H49.6172C49.668 168.061 49.7695 168.277 49.9219 168.43C50.1602 168.664 50.5352 168.781 51.0469 168.781C51.8555 168.781 52.3848 168.496 52.6348 167.926C52.7832 167.59 52.8516 166.99 52.8398 166.127C52.6289 166.447 52.375 166.686 52.0781 166.842C51.7812 166.998 51.3887 167.076 50.9004 167.076C50.2207 167.076 49.625 166.836 49.1133 166.355C48.6055 165.871 48.3516 165.072 48.3516 163.959C48.3516 162.908 48.6074 162.088 49.1191 161.498C49.6348 160.908 50.2559 160.613 50.9824 160.613ZM52.8809 163.836C52.8809 163.059 52.7207 162.482 52.4004 162.107C52.0801 161.732 51.6719 161.545 51.1758 161.545C50.4336 161.545 49.9258 161.893 49.6523 162.588C49.5078 162.959 49.4355 163.445 49.4355 164.047C49.4355 164.754 49.5781 165.293 49.8633 165.664C50.1523 166.031 50.5391 166.215 51.0234 166.215C51.7812 166.215 52.3145 165.873 52.623 165.189C52.7949 164.803 52.8809 164.352 52.8809 163.836ZM58.0605 160.584C58.5059 160.584 58.9375 160.689 59.3555 160.9C59.7734 161.107 60.0918 161.377 60.3105 161.709C60.5215 162.025 60.6621 162.395 60.7324 162.816C60.7949 163.105 60.8262 163.566 60.8262 164.199H56.2266C56.2461 164.836 56.3965 165.348 56.6777 165.734C56.959 166.117 57.3945 166.309 57.9844 166.309C58.5352 166.309 58.9746 166.127 59.3027 165.764C59.4902 165.553 59.623 165.309 59.7012 165.031H60.7383C60.7109 165.262 60.6191 165.52 60.4629 165.805C60.3105 166.086 60.1387 166.316 59.9473 166.496C59.627 166.809 59.2305 167.02 58.7578 167.129C58.5039 167.191 58.2168 167.223 57.8965 167.223C57.1152 167.223 56.4531 166.939 55.9102 166.373C55.3672 165.803 55.0957 165.006 55.0957 163.982C55.0957 162.975 55.3691 162.156 55.916 161.527C56.4629 160.898 57.1777 160.584 58.0605 160.584ZM59.7422 163.361C59.6992 162.904 59.5996 162.539 59.4434 162.266C59.1543 161.758 58.6719 161.504 57.9961 161.504C57.5117 161.504 57.1055 161.68 56.7773 162.031C56.4492 162.379 56.2754 162.822 56.2559 163.361H59.7422Z" fill="#CCCCCC"/>
</g>
<path id="Vector_3" d="M85 148.25L75 157L85 165.75L85 148.25Z" fill="#EEEEEE"/>
</g>
<g id="Frame 12_3" clip-path="url(#clip5)">
<rect width="245" height="67" transform="translate(85 132)" fill="#EEEEEE"/>
<rect id="Rectangle 7_2" x="95" y="142" width="215" height="10" fill="#666666"/>
<rect id="Rectangle 12" x="95" y="153" width="223" height="10" fill="#666666"/>
<rect id="Rectangle 15" x="95" y="164" width="206" height="10" fill="#666666"/>
<rect id="Rectangle 11_3" x="95" y="175" width="225" height="3" fill="#EEEEEE"/>
<g id="Frame 15_4">
<rect id="Rectangle 13_3" x="95" y="179" width="50" height="10" fill="#CCCCCC"/>
<rect id="Rectangle 16_3" x="150" y="179" width="50" height="10" fill="#CCCCCC"/>
</g>
</g>
</g>
<g id="location">
<rect width="310" height="327" transform="translate(20 214)" fill="#EEEEEE"/>
<g id="Frame 16">
<g id="ok">
<path id="Vector_4" d="M48.2902 234.669V228.573C48.2902 227.36 47.8085 226.197 46.951 225.339C46.0934 224.482 44.9304 224 43.7177 224L37.6209 237.718L33.0484 246.101L37.6209 254.484H54.8137C55.5489 254.492 56.2623 254.234 56.8225 253.758C57.3827 253.282 57.7519 252.619 57.8621 251.893L59.9655 238.175C60.0318 237.738 60.0023 237.292 59.8791 236.868C59.7559 236.443 59.5419 236.051 59.2519 235.717C58.962 235.384 58.603 235.117 58.1998 234.936C57.7967 234.755 57.359 234.664 56.9171 234.669H48.2902ZM37.6209 254.484H33.0484C32.2399 254.484 31.4645 254.163 30.8928 253.591C30.3212 253.019 30 252.244 30 251.435V240.766C30 239.958 30.3212 239.182 30.8928 238.611C31.4645 238.039 32.2399 237.718 33.0484 237.718H37.6209" fill="#666666"/>
</g>
<g id="Frame 13">
<path id="Rectangle 9_3" d="M70 224H158V236H70V224Z" fill="#666666"/>
<rect id="Rectangle 10" x="70" y="237" width="250" height="3" fill="#EEEEEE"/>
<rect id="Rectangle 7_3" x="70" y="241" width="224" height="10" fill="#999999"/>
<rect id="Rectangle 9_4" x="70" y="252" width="76" height="10" fill="#999999"/>
<g id="Frame 17">
<g id="Frame 2">
<rect x="70" y="273" width="68" height="23" rx="11.5" fill="#666666"/>
<path id="#pickup" d="M87.9834 285.227L88.3789 283.801H87.5684L87.1875 285.227H87.9834ZM85.2197 285.227H86.2109L86.5967 283.801H85.6006L85.8203 282.98H86.8164L87.3486 281.013H88.3203L87.7881 282.98H88.5986L89.1162 281.013H90.0879L89.5703 282.98H90.5518L90.332 283.801H89.3506L88.9551 285.227H89.9512L89.7314 286.047H88.7354L88.2129 288H87.2412L87.7637 286.047H86.9629L86.4307 288H85.459L85.9912 286.047H85L85.2197 285.227ZM94.8828 285.339C94.8828 284.929 94.7884 284.566 94.5996 284.25C94.4141 283.934 94.1113 283.776 93.6914 283.776C93.1868 283.776 92.8402 284.016 92.6514 284.494C92.5537 284.748 92.5049 285.07 92.5049 285.461C92.5049 286.079 92.6693 286.514 92.998 286.765C93.1934 286.911 93.4245 286.984 93.6914 286.984C94.0788 286.984 94.3734 286.835 94.5752 286.535C94.7803 286.236 94.8828 285.837 94.8828 285.339ZM94.0918 282.561C94.7135 282.561 95.2393 282.79 95.6689 283.249C96.1019 283.708 96.3184 284.382 96.3184 285.271C96.3184 286.208 96.1068 286.923 95.6836 287.414C95.2637 287.906 94.7217 288.151 94.0576 288.151C93.6344 288.151 93.2829 288.046 93.0029 287.834C92.8499 287.717 92.7002 287.546 92.5537 287.321V290.095H91.1768V282.678H92.5098V283.464C92.6595 283.233 92.819 283.05 92.9883 282.917C93.2975 282.679 93.6654 282.561 94.0918 282.561ZM98.7598 282.043H97.3486V280.759H98.7598V282.043ZM97.3486 282.678H98.7598V288H97.3486V282.678ZM103.291 284.587C103.265 284.388 103.198 284.209 103.091 284.05C102.935 283.835 102.692 283.728 102.363 283.728C101.895 283.728 101.574 283.96 101.401 284.426C101.31 284.673 101.265 285.002 101.265 285.412C101.265 285.803 101.31 286.117 101.401 286.354C101.567 286.797 101.88 287.019 102.339 287.019C102.664 287.019 102.896 286.931 103.032 286.755C103.169 286.579 103.252 286.351 103.281 286.071H104.702C104.67 286.494 104.517 286.895 104.243 287.272C103.807 287.881 103.161 288.186 102.305 288.186C101.449 288.186 100.819 287.932 100.415 287.424C100.011 286.916 99.8096 286.257 99.8096 285.446C99.8096 284.532 100.033 283.82 100.479 283.312C100.924 282.805 101.54 282.551 102.324 282.551C102.992 282.551 103.537 282.701 103.96 283C104.386 283.299 104.639 283.828 104.717 284.587H103.291ZM105.664 280.827H107.031V284.704L108.765 282.702H110.488L108.628 284.738L110.562 288H108.882L107.607 285.725L107.031 286.325V288H105.664V280.827ZM112.632 282.678V285.886C112.632 286.188 112.668 286.416 112.739 286.569C112.866 286.84 113.115 286.975 113.486 286.975C113.962 286.975 114.287 286.783 114.463 286.398C114.554 286.19 114.6 285.915 114.6 285.573V282.678H116.011V288H114.658V287.248C114.645 287.264 114.613 287.313 114.561 287.395C114.508 287.476 114.447 287.548 114.375 287.609C114.157 287.805 113.945 287.938 113.74 288.01C113.538 288.081 113.301 288.117 113.027 288.117C112.24 288.117 111.709 287.834 111.436 287.268C111.283 286.955 111.206 286.494 111.206 285.886V282.678H112.632ZM121.025 285.339C121.025 284.929 120.931 284.566 120.742 284.25C120.557 283.934 120.254 283.776 119.834 283.776C119.329 283.776 118.983 284.016 118.794 284.494C118.696 284.748 118.647 285.07 118.647 285.461C118.647 286.079 118.812 286.514 119.141 286.765C119.336 286.911 119.567 286.984 119.834 286.984C120.221 286.984 120.516 286.835 120.718 286.535C120.923 286.236 121.025 285.837 121.025 285.339ZM120.234 282.561C120.856 282.561 121.382 282.79 121.812 283.249C122.244 283.708 122.461 284.382 122.461 285.271C122.461 286.208 122.249 286.923 121.826 287.414C121.406 287.906 120.864 288.151 120.2 288.151C119.777 288.151 119.425 288.046 119.146 287.834C118.993 287.717 118.843 287.546 118.696 287.321V290.095H117.319V282.678H118.652V283.464C118.802 283.233 118.962 283.05 119.131 282.917C119.44 282.679 119.808 282.561 120.234 282.561Z" fill="white"/>
</g>
<path id="Rectangle 11_4" d="M148 279.5H188V289.5H148V279.5Z" fill="#999999"/>
<path id="Rectangle 12_2" d="M198 279.5H221V289.5H198V279.5Z" fill="#999999"/>
<path id="Rectangle 13_4" d="M231 279.5H275V289.5H231V279.5Z" fill="#999999"/>
</g>
</g>
</g>
<g id="Group 10">
<g id="Group 11">
<path id="Vector 5" d="M158 441.5L238 364L199 341.5" stroke="#999999" stroke-width="3"/>
<g id="Group 9">
<circle id="Ellipse" opacity="0.2" cx="198.5" cy="341" r="16" fill="#999999"/>
<circle id="Ellipse_2" cx="199" cy="340.5" r="7.5" fill="#999999"/>
</g>
<g id="Group 6">
<g id="Oval 5" filter="url(#filter0_d)">
<path fill-rule="evenodd" clip-rule="evenodd" d="M147.5 472C158.546 472 167.5 463.046 167.5 452C167.5 440.954 158.546 432 147.5 432C136.454 432 127.5 440.954 127.5 452C127.5 463.046 136.454 472 147.5 472Z" fill="#999999"/>
</g>
<g id="navigation">
<path id="Shape" fill-rule="evenodd" clip-rule="evenodd" d="M141.5 451.684L153.5 446L147.816 458L146.553 452.947L141.5 451.684V451.684Z" stroke="white" stroke-width="1.5" stroke-linecap="round" stroke-linejoin="round"/>
</g>
</g>
</g>
<g id="talk-right_2" clip-path="url(#clip6)">
<g id="Frame 12_4" clip-path="url(#clip7)">
<rect width="82" height="52" transform="translate(83.5 316)" fill="white"/>
<rect id="Rectangle 7_4" x="97.5" y="326" width="58" height="10" fill="#999999"/>
<rect id="Rectangle 14_2" x="93.5" y="337" width="62" height="10" fill="#999999"/>
<rect id="Rectangle 9_5" x="136.5" y="348" width="19" height="10" fill="#999999"/>
</g>
<path id="Vector_5" d="M165.5 350.75L175.5 342L165.5 333.25V350.75Z" fill="white"/>
</g>
<g id="talk-right_3" clip-path="url(#clip8)">
<g id="Frame 12_5" clip-path="url(#clip9)">
<rect width="82" height="52" transform="matrix(-1 0 0 1 266.5 425)" fill="white"/>
<rect id="Rectangle 7_5" width="58" height="10" transform="matrix(-1 0 0 1 252.5 435)" fill="#999999"/>
<rect id="Rectangle 14_3" width="62" height="10" transform="matrix(-1 0 0 1 256.5 446)" fill="#999999"/>
<rect id="Rectangle 9_6" width="19" height="10" transform="matrix(-1 0 0 1 213.5 457)" fill="#999999"/>
</g>
<path id="Vector_6" d="M184.5 459.75L174.5 451L184.5 442.25V459.75Z" fill="white"/>
</g>
</g>
<rect id="Rectangle 17" x="293" y="487" width="27" height="3" fill="#EEEEEE"/>
<g id="Frame 20">
<rect width="290" height="31" transform="translate(30 500)" fill="#666666"/>
<path id="I Accept" d="M157.856 519H156.362V511.803H157.856V519ZM163.643 516.28H165.469L164.57 513.448L163.643 516.28ZM163.735 511.803H165.435L167.983 519H166.353L165.889 517.521H163.237L162.739 519H161.167L163.735 511.803ZM171.968 515.587C171.942 515.388 171.875 515.209 171.768 515.05C171.611 514.835 171.369 514.728 171.04 514.728C170.571 514.728 170.251 514.96 170.078 515.426C169.987 515.673 169.941 516.002 169.941 516.412C169.941 516.803 169.987 517.117 170.078 517.354C170.244 517.797 170.557 518.019 171.016 518.019C171.341 518.019 171.572 517.931 171.709 517.755C171.846 517.579 171.929 517.351 171.958 517.071H173.379C173.346 517.494 173.193 517.895 172.92 518.272C172.484 518.881 171.838 519.186 170.981 519.186C170.125 519.186 169.495 518.932 169.092 518.424C168.688 517.916 168.486 517.257 168.486 516.446C168.486 515.532 168.709 514.82 169.155 514.312C169.601 513.805 170.216 513.551 171.001 513.551C171.668 513.551 172.214 513.701 172.637 514C173.063 514.299 173.315 514.828 173.394 515.587H171.968ZM177.534 515.587C177.508 515.388 177.441 515.209 177.334 515.05C177.178 514.835 176.935 514.728 176.606 514.728C176.138 514.728 175.817 514.96 175.645 515.426C175.553 515.673 175.508 516.002 175.508 516.412C175.508 516.803 175.553 517.117 175.645 517.354C175.811 517.797 176.123 518.019 176.582 518.019C176.908 518.019 177.139 517.931 177.275 517.755C177.412 517.579 177.495 517.351 177.524 517.071H178.945C178.913 517.494 178.76 517.895 178.486 518.272C178.05 518.881 177.404 519.186 176.548 519.186C175.692 519.186 175.062 518.932 174.658 518.424C174.255 517.916 174.053 517.257 174.053 516.446C174.053 515.532 174.276 514.82 174.722 514.312C175.168 513.805 175.783 513.551 176.567 513.551C177.235 513.551 177.78 513.701 178.203 514C178.63 514.299 178.882 514.828 178.96 515.587H177.534ZM182.021 514.684C181.699 514.684 181.449 514.785 181.27 514.986C181.094 515.188 180.983 515.462 180.938 515.807H183.101C183.078 515.439 182.965 515.16 182.764 514.972C182.565 514.78 182.318 514.684 182.021 514.684ZM182.021 513.536C182.464 513.536 182.863 513.619 183.218 513.785C183.573 513.951 183.866 514.213 184.097 514.571C184.305 514.887 184.44 515.253 184.502 515.67C184.538 515.914 184.552 516.266 184.546 516.725H180.903C180.923 517.258 181.09 517.633 181.406 517.848C181.598 517.981 181.829 518.048 182.1 518.048C182.386 518.048 182.619 517.966 182.798 517.804C182.896 517.716 182.982 517.594 183.057 517.438H184.478C184.442 517.753 184.277 518.074 183.984 518.399C183.529 518.917 182.891 519.176 182.07 519.176C181.393 519.176 180.796 518.958 180.278 518.521C179.761 518.085 179.502 517.376 179.502 516.393C179.502 515.471 179.735 514.765 180.2 514.273C180.669 513.782 181.276 513.536 182.021 513.536ZM189.155 516.339C189.155 515.929 189.061 515.566 188.872 515.25C188.687 514.934 188.384 514.776 187.964 514.776C187.459 514.776 187.113 515.016 186.924 515.494C186.826 515.748 186.777 516.07 186.777 516.461C186.777 517.079 186.942 517.514 187.271 517.765C187.466 517.911 187.697 517.984 187.964 517.984C188.351 517.984 188.646 517.835 188.848 517.535C189.053 517.236 189.155 516.837 189.155 516.339ZM188.364 513.561C188.986 513.561 189.512 513.79 189.941 514.249C190.374 514.708 190.591 515.382 190.591 516.271C190.591 517.208 190.379 517.923 189.956 518.414C189.536 518.906 188.994 519.151 188.33 519.151C187.907 519.151 187.555 519.046 187.275 518.834C187.122 518.717 186.973 518.546 186.826 518.321V521.095H185.449V513.678H186.782V514.464C186.932 514.233 187.091 514.05 187.261 513.917C187.57 513.679 187.938 513.561 188.364 513.561ZM191.055 514.718V513.727H191.797V512.242H193.174V513.727H194.038V514.718H193.174V517.53C193.174 517.748 193.201 517.885 193.257 517.94C193.312 517.993 193.481 518.019 193.765 518.019C193.807 518.019 193.851 518.019 193.896 518.019C193.945 518.015 193.993 518.012 194.038 518.009V519.049L193.379 519.073C192.721 519.096 192.272 518.982 192.031 518.731C191.875 518.572 191.797 518.326 191.797 517.994V514.718H191.055Z" fill="white"/>
</g>
</g>
</g>
<defs>
<filter id="filter0_d" x="107.5" y="417" width="80" height="80" filterUnits="userSpaceOnUse" color-interpolation-filters="sRGB">
<feFlood flood-opacity="0" result="BackgroundImageFix"/>
<feColorMatrix in="SourceAlpha" type="matrix" values="0 0 0 0 0 0 0 0 0 0 0 0 0 0 0 0 0 0 127 0"/>
<feOffset dy="5"/>
<feGaussianBlur stdDeviation="10"/>
<feColorMatrix type="matrix" values="0 0 0 0 0.376471 0 0 0 0 0.392157 0 0 0 0 0.439216 0 0 0 0.1 0"/>
<feBlend mode="normal" in2="BackgroundImageFix" result="effect1_dropShadow"/>
<feBlend mode="normal" in="SourceGraphic" in2="effect1_dropShadow" result="shape"/>
</filter>
<clipPath id="clip0">
<rect width="350" height="561" fill="white"/>
</clipPath>
<clipPath id="clip1">
<rect width="65" height="50" fill="white" transform="translate(20 -21)"/>
</clipPath>
<clipPath id="clip2">
<rect width="245" height="56" fill="white" transform="translate(85 -21)"/>
</clipPath>
<clipPath id="clip3">
<rect width="245" height="67" fill="white" transform="translate(20 50)"/>
</clipPath>
<clipPath id="clip4">
<rect width="65" height="50" fill="white" transform="translate(20 132)"/>
</clipPath>
<clipPath id="clip5">
<rect width="245" height="67" fill="white" transform="translate(85 132)"/>
</clipPath>
<clipPath id="clip6">
<rect width="92" height="52" fill="white" transform="translate(83.5 316)"/>
</clipPath>
<clipPath id="clip7">
<rect width="82" height="52" fill="white" transform="translate(83.5 316)"/>
</clipPath>
<clipPath id="clip8">
<rect width="92" height="52" fill="white" transform="matrix(-1 0 0 1 266.5 425)"/>
</clipPath>
<clipPath id="clip9">
<rect width="82" height="52" fill="white" transform="matrix(-1 0 0 1 266.5 425)"/>
</clipPath>
</defs>
</svg>
