<svg width="350" height="517" viewBox="0 0 350 517" fill="none" xmlns="http://www.w3.org/2000/svg">
<g id="story1-2" clip-path="url(#clip0)">
<g id="Frame 26">
<g id="talk-right">
<g id="Frame 12">
<rect width="245" height="78" transform="translate(20 -38)" fill="#EEEEEE"/>
<rect id="Rectangle 14" x="40" y="-6" width="215" height="10" fill="#666666"/>
<rect id="Rectangle 9" x="190" y="5" width="65" height="10" fill="#666666"/>
<rect id="Rectangle 11" x="30" y="16" width="225" height="3" fill="#EEEEEE"/>
<g id="Frame 15">
<rect id="Rectangle 13" x="150" y="20" width="50" height="10" fill="#CCCCCC"/>
<rect id="Rectangle 16" x="205" y="20" width="50" height="10" fill="#CCCCCC"/>
</g>
</g>
<g id="Frame 15_2">
<g id="avatar">
<rect width="50" height="50" transform="translate(280 -38)" fill="#CCCCCC"/>
</g>
</g>
</g>
</g>
<g id="talk-left">
<g id="Frame 14" clip-path="url(#clip1)">
<g id="avatar_2">
<rect width="50" height="50" transform="translate(20 55)" fill="#CCCCCC"/>
<path id="avatar image" d="M29.8945 76.3301C29.8945 76.6348 30.0059 76.875 30.2285 77.0508C30.4512 77.2266 30.7148 77.3145 31.0195 77.3145C31.3906 77.3145 31.75 77.2285 32.0977 77.0566C32.6836 76.7715 32.9766 76.3047 32.9766 75.6562V74.8066C32.8477 74.8887 32.6816 74.957 32.4785 75.0117C32.2754 75.0664 32.0762 75.1055 31.8809 75.1289L31.2422 75.2109C30.8594 75.2617 30.5723 75.3418 30.3809 75.4512C30.0566 75.6348 29.8945 75.9277 29.8945 76.3301ZM32.4492 74.1973C32.6914 74.166 32.8535 74.0645 32.9355 73.8926C32.9824 73.7988 33.0059 73.6641 33.0059 73.4883C33.0059 73.1289 32.877 72.8691 32.6191 72.709C32.3652 72.5449 32 72.4629 31.5234 72.4629C30.9727 72.4629 30.582 72.6113 30.3516 72.9082C30.2227 73.0723 30.1387 73.3164 30.0996 73.6406H29.1152C29.1348 72.8672 29.3848 72.3301 29.8652 72.0293C30.3496 71.7246 30.9102 71.5723 31.5469 71.5723C32.2852 71.5723 32.8848 71.7129 33.3457 71.9941C33.8027 72.2754 34.0312 72.7129 34.0312 73.3066V76.9219C34.0312 77.0312 34.0527 77.1191 34.0957 77.1855C34.1426 77.252 34.2383 77.2852 34.3828 77.2852C34.4297 77.2852 34.4824 77.2832 34.541 77.2793C34.5996 77.2715 34.6621 77.2617 34.7285 77.25V78.0293C34.5645 78.0762 34.4395 78.1055 34.3535 78.1172C34.2676 78.1289 34.1504 78.1348 34.002 78.1348C33.6387 78.1348 33.375 78.0059 33.2109 77.748C33.125 77.6113 33.0645 77.418 33.0293 77.168C32.8145 77.4492 32.5059 77.6934 32.1035 77.9004C31.7012 78.1074 31.2578 78.2109 30.7734 78.2109C30.1914 78.2109 29.7148 78.0352 29.3438 77.6836C28.9766 77.3281 28.793 76.8848 28.793 76.3535C28.793 75.7715 28.9746 75.3203 29.3379 75C29.7012 74.6797 30.1777 74.4824 30.7676 74.4082L32.4492 74.1973ZM36.2812 71.7246L37.957 76.834L39.709 71.7246H40.8633L38.4961 78H37.3711L35.0566 71.7246H36.2812ZM42.5742 76.3301C42.5742 76.6348 42.6855 76.875 42.9082 77.0508C43.1309 77.2266 43.3945 77.3145 43.6992 77.3145C44.0703 77.3145 44.4297 77.2285 44.7773 77.0566C45.3633 76.7715 45.6562 76.3047 45.6562 75.6562V74.8066C45.5273 74.8887 45.3613 74.957 45.1582 75.0117C44.9551 75.0664 44.7559 75.1055 44.5605 75.1289L43.9219 75.2109C43.5391 75.2617 43.252 75.3418 43.0605 75.4512C42.7363 75.6348 42.5742 75.9277 42.5742 76.3301ZM45.1289 74.1973C45.3711 74.166 45.5332 74.0645 45.6152 73.8926C45.6621 73.7988 45.6855 73.6641 45.6855 73.4883C45.6855 73.1289 45.5566 72.8691 45.2988 72.709C45.0449 72.5449 44.6797 72.4629 44.2031 72.4629C43.6523 72.4629 43.2617 72.6113 43.0312 72.9082C42.9023 73.0723 42.8184 73.3164 42.7793 73.6406H41.7949C41.8145 72.8672 42.0645 72.3301 42.5449 72.0293C43.0293 71.7246 43.5898 71.5723 44.2266 71.5723C44.9648 71.5723 45.5645 71.7129 46.0254 71.9941C46.4824 72.2754 46.7109 72.7129 46.7109 73.3066V76.9219C46.7109 77.0312 46.7324 77.1191 46.7754 77.1855C46.8223 77.252 46.918 77.2852 47.0625 77.2852C47.1094 77.2852 47.1621 77.2832 47.2207 77.2793C47.2793 77.2715 47.3418 77.2617 47.4082 77.25V78.0293C47.2441 78.0762 47.1191 78.1055 47.0332 78.1172C46.9473 78.1289 46.8301 78.1348 46.6816 78.1348C46.3184 78.1348 46.0547 78.0059 45.8906 77.748C45.8047 77.6113 45.7441 77.418 45.709 77.168C45.4941 77.4492 45.1855 77.6934 44.7832 77.9004C44.3809 78.1074 43.9375 78.2109 43.4531 78.2109C42.8711 78.2109 42.3945 78.0352 42.0234 77.6836C41.6562 77.3281 41.4727 76.8848 41.4727 76.3535C41.4727 75.7715 41.6543 75.3203 42.0176 75C42.3809 74.6797 42.8574 74.4824 43.4473 74.4082L45.1289 74.1973ZM48.6562 69.9727H49.7227V71.7246H50.7246V72.5859H49.7227V76.6816C49.7227 76.9004 49.7969 77.0469 49.9453 77.1211C50.0273 77.1641 50.1641 77.1855 50.3555 77.1855C50.4062 77.1855 50.4609 77.1855 50.5195 77.1855C50.5781 77.1816 50.6465 77.1758 50.7246 77.168V78C50.6035 78.0352 50.4766 78.0605 50.3438 78.0762C50.2148 78.0918 50.0742 78.0996 49.9219 78.0996C49.4297 78.0996 49.0957 77.9746 48.9199 77.7246C48.7441 77.4707 48.6562 77.1426 48.6562 76.7402V72.5859H47.8066V71.7246H48.6562V69.9727ZM52.5938 76.3301C52.5938 76.6348 52.7051 76.875 52.9277 77.0508C53.1504 77.2266 53.4141 77.3145 53.7188 77.3145C54.0898 77.3145 54.4492 77.2285 54.7969 77.0566C55.3828 76.7715 55.6758 76.3047 55.6758 75.6562V74.8066C55.5469 74.8887 55.3809 74.957 55.1777 75.0117C54.9746 75.0664 54.7754 75.1055 54.5801 75.1289L53.9414 75.2109C53.5586 75.2617 53.2715 75.3418 53.0801 75.4512C52.7559 75.6348 52.5938 75.9277 52.5938 76.3301ZM55.1484 74.1973C55.3906 74.166 55.5527 74.0645 55.6348 73.8926C55.6816 73.7988 55.7051 73.6641 55.7051 73.4883C55.7051 73.1289 55.5762 72.8691 55.3184 72.709C55.0645 72.5449 54.6992 72.4629 54.2227 72.4629C53.6719 72.4629 53.2812 72.6113 53.0508 72.9082C52.9219 73.0723 52.8379 73.3164 52.7988 73.6406H51.8145C51.834 72.8672 52.084 72.3301 52.5645 72.0293C53.0488 71.7246 53.6094 71.5723 54.2461 71.5723C54.9844 71.5723 55.584 71.7129 56.0449 71.9941C56.502 72.2754 56.7305 72.7129 56.7305 73.3066V76.9219C56.7305 77.0312 56.752 77.1191 56.7949 77.1855C56.8418 77.252 56.9375 77.2852 57.082 77.2852C57.1289 77.2852 57.1816 77.2832 57.2402 77.2793C57.2988 77.2715 57.3613 77.2617 57.4277 77.25V78.0293C57.2637 78.0762 57.1387 78.1055 57.0527 78.1172C56.9668 78.1289 56.8496 78.1348 56.7012 78.1348C56.3379 78.1348 56.0742 78.0059 55.9102 77.748C55.8242 77.6113 55.7637 77.418 55.7285 77.168C55.5137 77.4492 55.2051 77.6934 54.8027 77.9004C54.4004 78.1074 53.957 78.2109 53.4727 78.2109C52.8906 78.2109 52.4141 78.0352 52.043 77.6836C51.6758 77.3281 51.4922 76.8848 51.4922 76.3535C51.4922 75.7715 51.6738 75.3203 52.0371 75C52.4004 74.6797 52.877 74.4824 53.4668 74.4082L55.1484 74.1973ZM58.4941 71.7246H59.4961V72.8086C59.5781 72.5977 59.7793 72.3418 60.0996 72.041C60.4199 71.7363 60.7891 71.584 61.207 71.584C61.2266 71.584 61.2598 71.5859 61.3066 71.5898C61.3535 71.5938 61.4336 71.6016 61.5469 71.6133V72.7266C61.4844 72.7148 61.4258 72.707 61.3711 72.7031C61.3203 72.6992 61.2637 72.6973 61.2012 72.6973C60.6699 72.6973 60.2617 72.8691 59.9766 73.2129C59.6914 73.5527 59.5488 73.9453 59.5488 74.3906V78H58.4941V71.7246ZM29.4199 83.7539H30.4922V90H29.4199V83.7539ZM29.4199 81.3926H30.4922V82.5879H29.4199V81.3926ZM32.0918 83.7246H33.1348V84.6152C33.3848 84.3066 33.6113 84.082 33.8145 83.9414C34.1621 83.7031 34.5566 83.584 34.998 83.584C35.498 83.584 35.9004 83.707 36.2051 83.9531C36.377 84.0938 36.5332 84.3008 36.6738 84.5742C36.9082 84.2383 37.1836 83.9902 37.5 83.8301C37.8164 83.666 38.1719 83.584 38.5664 83.584C39.4102 83.584 39.9844 83.8887 40.2891 84.498C40.4531 84.8262 40.5352 85.2676 40.5352 85.8223V90H39.4395V85.6406C39.4395 85.2227 39.334 84.9355 39.123 84.7793C38.916 84.623 38.6621 84.5449 38.3613 84.5449C37.9473 84.5449 37.5898 84.6836 37.2891 84.9609C36.9922 85.2383 36.8438 85.7012 36.8438 86.3496V90H35.7715V85.9043C35.7715 85.4785 35.7207 85.168 35.6191 84.9727C35.459 84.6797 35.1602 84.5332 34.7227 84.5332C34.3242 84.5332 33.9609 84.6875 33.6328 84.9961C33.3086 85.3047 33.1465 85.8633 33.1465 86.6719V90H32.0918V83.7246ZM42.8965 88.3301C42.8965 88.6348 43.0078 88.875 43.2305 89.0508C43.4531 89.2266 43.7168 89.3145 44.0215 89.3145C44.3926 89.3145 44.752 89.2285 45.0996 89.0566C45.6855 88.7715 45.9785 88.3047 45.9785 87.6562V86.8066C45.8496 86.8887 45.6836 86.957 45.4805 87.0117C45.2773 87.0664 45.0781 87.1055 44.8828 87.1289L44.2441 87.2109C43.8613 87.2617 43.5742 87.3418 43.3828 87.4512C43.0586 87.6348 42.8965 87.9277 42.8965 88.3301ZM45.4512 86.1973C45.6934 86.166 45.8555 86.0645 45.9375 85.8926C45.9844 85.7988 46.0078 85.6641 46.0078 85.4883C46.0078 85.1289 45.8789 84.8691 45.6211 84.709C45.3672 84.5449 45.002 84.4629 44.5254 84.4629C43.9746 84.4629 43.584 84.6113 43.3535 84.9082C43.2246 85.0723 43.1406 85.3164 43.1016 85.6406H42.1172C42.1367 84.8672 42.3867 84.3301 42.8672 84.0293C43.3516 83.7246 43.9121 83.5723 44.5488 83.5723C45.2871 83.5723 45.8867 83.7129 46.3477 83.9941C46.8047 84.2754 47.0332 84.7129 47.0332 85.3066V88.9219C47.0332 89.0312 47.0547 89.1191 47.0977 89.1855C47.1445 89.252 47.2402 89.2852 47.3848 89.2852C47.4316 89.2852 47.4844 89.2832 47.543 89.2793C47.6016 89.2715 47.6641 89.2617 47.7305 89.25V90.0293C47.5664 90.0762 47.4414 90.1055 47.3555 90.1172C47.2695 90.1289 47.1523 90.1348 47.0039 90.1348C46.6406 90.1348 46.377 90.0059 46.2129 89.748C46.127 89.6113 46.0664 89.418 46.0312 89.168C45.8164 89.4492 45.5078 89.6934 45.1055 89.9004C44.7031 90.1074 44.2598 90.2109 43.7754 90.2109C43.1934 90.2109 42.7168 90.0352 42.3457 89.6836C41.9785 89.3281 41.7949 88.8848 41.7949 88.3535C41.7949 87.7715 41.9766 87.3203 42.3398 87C42.7031 86.6797 43.1797 86.4824 43.7695 86.4082L45.4512 86.1973ZM50.9824 83.6133C51.4746 83.6133 51.9043 83.7344 52.2715 83.9766C52.4707 84.1133 52.6738 84.3125 52.8809 84.5742V83.7832H53.8535V89.4902C53.8535 90.2871 53.7363 90.916 53.502 91.377C53.0645 92.2285 52.2383 92.6543 51.0234 92.6543C50.3477 92.6543 49.7793 92.502 49.3184 92.1973C48.8574 91.8965 48.5996 91.4238 48.5449 90.7793H49.6172C49.668 91.0605 49.7695 91.2773 49.9219 91.4297C50.1602 91.6641 50.5352 91.7812 51.0469 91.7812C51.8555 91.7812 52.3848 91.4961 52.6348 90.9258C52.7832 90.5898 52.8516 89.9902 52.8398 89.127C52.6289 89.4473 52.375 89.6855 52.0781 89.8418C51.7812 89.998 51.3887 90.0762 50.9004 90.0762C50.2207 90.0762 49.625 89.8359 49.1133 89.3555C48.6055 88.8711 48.3516 88.0723 48.3516 86.959C48.3516 85.9082 48.6074 85.0879 49.1191 84.498C49.6348 83.9082 50.2559 83.6133 50.9824 83.6133ZM52.8809 86.8359C52.8809 86.0586 52.7207 85.4824 52.4004 85.1074C52.0801 84.7324 51.6719 84.5449 51.1758 84.5449C50.4336 84.5449 49.9258 84.8926 49.6523 85.5879C49.5078 85.959 49.4355 86.4453 49.4355 87.0469C49.4355 87.7539 49.5781 88.293 49.8633 88.6641C50.1523 89.0312 50.5391 89.2148 51.0234 89.2148C51.7812 89.2148 52.3145 88.873 52.623 88.1895C52.7949 87.8027 52.8809 87.3516 52.8809 86.8359ZM58.0605 83.584C58.5059 83.584 58.9375 83.6895 59.3555 83.9004C59.7734 84.1074 60.0918 84.377 60.3105 84.709C60.5215 85.0254 60.6621 85.3945 60.7324 85.8164C60.7949 86.1055 60.8262 86.5664 60.8262 87.1992H56.2266C56.2461 87.8359 56.3965 88.3477 56.6777 88.7344C56.959 89.1172 57.3945 89.3086 57.9844 89.3086C58.5352 89.3086 58.9746 89.127 59.3027 88.7637C59.4902 88.5527 59.623 88.3086 59.7012 88.0312H60.7383C60.7109 88.2617 60.6191 88.5195 60.4629 88.8047C60.3105 89.0859 60.1387 89.3164 59.9473 89.4961C59.627 89.8086 59.2305 90.0195 58.7578 90.1289C58.5039 90.1914 58.2168 90.2227 57.8965 90.2227C57.1152 90.2227 56.4531 89.9395 55.9102 89.373C55.3672 88.8027 55.0957 88.0059 55.0957 86.9824C55.0957 85.9746 55.3691 85.1562 55.916 84.5273C56.4629 83.8984 57.1777 83.584 58.0605 83.584ZM59.7422 86.3613C59.6992 85.9043 59.5996 85.5391 59.4434 85.2656C59.1543 84.7578 58.6719 84.5039 57.9961 84.5039C57.5117 84.5039 57.1055 84.6797 56.7773 85.0312C56.4492 85.3789 56.2754 85.8223 56.2559 86.3613H59.7422Z" fill="#CCCCCC"/>
</g>
<path id="Vector" d="M85 71.25L75 80L85 88.75L85 71.25Z" fill="#EEEEEE"/>
</g>
<g id="Frame 12_2">
<rect width="245" height="89" transform="translate(85 55)" fill="#EEEEEE"/>
<rect id="Rectangle 7" x="95" y="65" width="215" height="10" fill="#666666"/>
<rect id="Rectangle 8" x="95" y="76" width="225" height="10" fill="#666666"/>
<rect id="Rectangle 14_2" x="95" y="87" width="215" height="10" fill="#666666"/>
<rect id="Rectangle 12" x="95" y="98" width="223" height="10" fill="#666666"/>
<rect id="Rectangle 9_2" x="95" y="109" width="65" height="10" fill="#666666"/>
<rect id="Rectangle 11_2" x="95" y="120" width="225" height="3" fill="#EEEEEE"/>
<g id="Frame 15_3">
<rect id="Rectangle 13_2" x="95" y="124" width="50" height="10" fill="#CCCCCC"/>
<rect id="Rectangle 16_2" x="150" y="124" width="50" height="10" fill="#CCCCCC"/>
</g>
</g>
</g>
<g id="talk-right_2">
<g id="Frame 12_3">
<rect width="245" height="78" transform="translate(20 159)" fill="#EEEEEE"/>
<rect id="Rectangle 7_2" x="40" y="169" width="215" height="10" fill="#666666"/>
<rect id="Rectangle 8_2" x="30" y="180" width="225" height="10" fill="#666666"/>
<rect id="Rectangle 14_3" x="40" y="191" width="215" height="10" fill="#666666"/>
<rect id="Rectangle 9_3" x="190" y="202" width="65" height="10" fill="#666666"/>
<rect id="Rectangle 11_3" x="30" y="213" width="225" height="3" fill="#EEEEEE"/>
<g id="Frame 15_4">
<rect id="Rectangle 13_3" x="150" y="217" width="50" height="10" fill="#CCCCCC"/>
<rect id="Rectangle 16_3" x="205" y="217" width="50" height="10" fill="#CCCCCC"/>
</g>
</g>
<g id="Frame 15_5">
<path id="Vector_2" d="M265 192.75L275 184L265 175.25V192.75Z" fill="#EEEEEE"/>
<g id="avatar_3">
<rect width="50" height="50" transform="translate(280 159)" fill="#CCCCCC"/>
<path id="avatar image_2" d="M289.895 180.33C289.895 180.635 290.006 180.875 290.229 181.051C290.451 181.227 290.715 181.314 291.02 181.314C291.391 181.314 291.75 181.229 292.098 181.057C292.684 180.771 292.977 180.305 292.977 179.656V178.807C292.848 178.889 292.682 178.957 292.479 179.012C292.275 179.066 292.076 179.105 291.881 179.129L291.242 179.211C290.859 179.262 290.572 179.342 290.381 179.451C290.057 179.635 289.895 179.928 289.895 180.33ZM292.449 178.197C292.691 178.166 292.854 178.064 292.936 177.893C292.982 177.799 293.006 177.664 293.006 177.488C293.006 177.129 292.877 176.869 292.619 176.709C292.365 176.545 292 176.463 291.523 176.463C290.973 176.463 290.582 176.611 290.352 176.908C290.223 177.072 290.139 177.316 290.1 177.641H289.115C289.135 176.867 289.385 176.33 289.865 176.029C290.35 175.725 290.91 175.572 291.547 175.572C292.285 175.572 292.885 175.713 293.346 175.994C293.803 176.275 294.031 176.713 294.031 177.307V180.922C294.031 181.031 294.053 181.119 294.096 181.186C294.143 181.252 294.238 181.285 294.383 181.285C294.43 181.285 294.482 181.283 294.541 181.279C294.6 181.271 294.662 181.262 294.729 181.25V182.029C294.564 182.076 294.439 182.105 294.354 182.117C294.268 182.129 294.15 182.135 294.002 182.135C293.639 182.135 293.375 182.006 293.211 181.748C293.125 181.611 293.064 181.418 293.029 181.168C292.814 181.449 292.506 181.693 292.104 181.9C291.701 182.107 291.258 182.211 290.773 182.211C290.191 182.211 289.715 182.035 289.344 181.684C288.977 181.328 288.793 180.885 288.793 180.354C288.793 179.771 288.975 179.32 289.338 179C289.701 178.68 290.178 178.482 290.768 178.408L292.449 178.197ZM296.281 175.725L297.957 180.834L299.709 175.725H300.863L298.496 182H297.371L295.057 175.725H296.281ZM302.574 180.33C302.574 180.635 302.686 180.875 302.908 181.051C303.131 181.227 303.395 181.314 303.699 181.314C304.07 181.314 304.43 181.229 304.777 181.057C305.363 180.771 305.656 180.305 305.656 179.656V178.807C305.527 178.889 305.361 178.957 305.158 179.012C304.955 179.066 304.756 179.105 304.561 179.129L303.922 179.211C303.539 179.262 303.252 179.342 303.061 179.451C302.736 179.635 302.574 179.928 302.574 180.33ZM305.129 178.197C305.371 178.166 305.533 178.064 305.615 177.893C305.662 177.799 305.686 177.664 305.686 177.488C305.686 177.129 305.557 176.869 305.299 176.709C305.045 176.545 304.68 176.463 304.203 176.463C303.652 176.463 303.262 176.611 303.031 176.908C302.902 177.072 302.818 177.316 302.779 177.641H301.795C301.814 176.867 302.064 176.33 302.545 176.029C303.029 175.725 303.59 175.572 304.227 175.572C304.965 175.572 305.564 175.713 306.025 175.994C306.482 176.275 306.711 176.713 306.711 177.307V180.922C306.711 181.031 306.732 181.119 306.775 181.186C306.822 181.252 306.918 181.285 307.062 181.285C307.109 181.285 307.162 181.283 307.221 181.279C307.279 181.271 307.342 181.262 307.408 181.25V182.029C307.244 182.076 307.119 182.105 307.033 182.117C306.947 182.129 306.83 182.135 306.682 182.135C306.318 182.135 306.055 182.006 305.891 181.748C305.805 181.611 305.744 181.418 305.709 181.168C305.494 181.449 305.186 181.693 304.783 181.9C304.381 182.107 303.938 182.211 303.453 182.211C302.871 182.211 302.395 182.035 302.023 181.684C301.656 181.328 301.473 180.885 301.473 180.354C301.473 179.771 301.654 179.32 302.018 179C302.381 178.68 302.857 178.482 303.447 178.408L305.129 178.197ZM308.656 173.973H309.723V175.725H310.725V176.586H309.723V180.682C309.723 180.9 309.797 181.047 309.945 181.121C310.027 181.164 310.164 181.186 310.355 181.186C310.406 181.186 310.461 181.186 310.52 181.186C310.578 181.182 310.646 181.176 310.725 181.168V182C310.604 182.035 310.477 182.061 310.344 182.076C310.215 182.092 310.074 182.1 309.922 182.1C309.43 182.1 309.096 181.975 308.92 181.725C308.744 181.471 308.656 181.143 308.656 180.74V176.586H307.807V175.725H308.656V173.973ZM312.594 180.33C312.594 180.635 312.705 180.875 312.928 181.051C313.15 181.227 313.414 181.314 313.719 181.314C314.09 181.314 314.449 181.229 314.797 181.057C315.383 180.771 315.676 180.305 315.676 179.656V178.807C315.547 178.889 315.381 178.957 315.178 179.012C314.975 179.066 314.775 179.105 314.58 179.129L313.941 179.211C313.559 179.262 313.271 179.342 313.08 179.451C312.756 179.635 312.594 179.928 312.594 180.33ZM315.148 178.197C315.391 178.166 315.553 178.064 315.635 177.893C315.682 177.799 315.705 177.664 315.705 177.488C315.705 177.129 315.576 176.869 315.318 176.709C315.064 176.545 314.699 176.463 314.223 176.463C313.672 176.463 313.281 176.611 313.051 176.908C312.922 177.072 312.838 177.316 312.799 177.641H311.814C311.834 176.867 312.084 176.33 312.564 176.029C313.049 175.725 313.609 175.572 314.246 175.572C314.984 175.572 315.584 175.713 316.045 175.994C316.502 176.275 316.73 176.713 316.73 177.307V180.922C316.73 181.031 316.752 181.119 316.795 181.186C316.842 181.252 316.938 181.285 317.082 181.285C317.129 181.285 317.182 181.283 317.24 181.279C317.299 181.271 317.361 181.262 317.428 181.25V182.029C317.264 182.076 317.139 182.105 317.053 182.117C316.967 182.129 316.85 182.135 316.701 182.135C316.338 182.135 316.074 182.006 315.91 181.748C315.824 181.611 315.764 181.418 315.729 181.168C315.514 181.449 315.205 181.693 314.803 181.9C314.4 182.107 313.957 182.211 313.473 182.211C312.891 182.211 312.414 182.035 312.043 181.684C311.676 181.328 311.492 180.885 311.492 180.354C311.492 179.771 311.674 179.32 312.037 179C312.4 178.68 312.877 178.482 313.467 178.408L315.148 178.197ZM318.494 175.725H319.496V176.809C319.578 176.598 319.779 176.342 320.1 176.041C320.42 175.736 320.789 175.584 321.207 175.584C321.227 175.584 321.26 175.586 321.307 175.59C321.354 175.594 321.434 175.602 321.547 175.613V176.727C321.484 176.715 321.426 176.707 321.371 176.703C321.32 176.699 321.264 176.697 321.201 176.697C320.67 176.697 320.262 176.869 319.977 177.213C319.691 177.553 319.549 177.945 319.549 178.391V182H318.494V175.725ZM289.42 187.754H290.492V194H289.42V187.754ZM289.42 185.393H290.492V186.588H289.42V185.393ZM292.092 187.725H293.135V188.615C293.385 188.307 293.611 188.082 293.814 187.941C294.162 187.703 294.557 187.584 294.998 187.584C295.498 187.584 295.9 187.707 296.205 187.953C296.377 188.094 296.533 188.301 296.674 188.574C296.908 188.238 297.184 187.99 297.5 187.83C297.816 187.666 298.172 187.584 298.566 187.584C299.41 187.584 299.984 187.889 300.289 188.498C300.453 188.826 300.535 189.268 300.535 189.822V194H299.439V189.641C299.439 189.223 299.334 188.936 299.123 188.779C298.916 188.623 298.662 188.545 298.361 188.545C297.947 188.545 297.59 188.684 297.289 188.961C296.992 189.238 296.844 189.701 296.844 190.35V194H295.771V189.904C295.771 189.479 295.721 189.168 295.619 188.973C295.459 188.68 295.16 188.533 294.723 188.533C294.324 188.533 293.961 188.688 293.633 188.996C293.309 189.305 293.146 189.863 293.146 190.672V194H292.092V187.725ZM302.896 192.33C302.896 192.635 303.008 192.875 303.23 193.051C303.453 193.227 303.717 193.314 304.021 193.314C304.393 193.314 304.752 193.229 305.1 193.057C305.686 192.771 305.979 192.305 305.979 191.656V190.807C305.85 190.889 305.684 190.957 305.48 191.012C305.277 191.066 305.078 191.105 304.883 191.129L304.244 191.211C303.861 191.262 303.574 191.342 303.383 191.451C303.059 191.635 302.896 191.928 302.896 192.33ZM305.451 190.197C305.693 190.166 305.855 190.064 305.938 189.893C305.984 189.799 306.008 189.664 306.008 189.488C306.008 189.129 305.879 188.869 305.621 188.709C305.367 188.545 305.002 188.463 304.525 188.463C303.975 188.463 303.584 188.611 303.354 188.908C303.225 189.072 303.141 189.316 303.102 189.641H302.117C302.137 188.867 302.387 188.33 302.867 188.029C303.352 187.725 303.912 187.572 304.549 187.572C305.287 187.572 305.887 187.713 306.348 187.994C306.805 188.275 307.033 188.713 307.033 189.307V192.922C307.033 193.031 307.055 193.119 307.098 193.186C307.145 193.252 307.24 193.285 307.385 193.285C307.432 193.285 307.484 193.283 307.543 193.279C307.602 193.271 307.664 193.262 307.73 193.25V194.029C307.566 194.076 307.441 194.105 307.355 194.117C307.27 194.129 307.152 194.135 307.004 194.135C306.641 194.135 306.377 194.006 306.213 193.748C306.127 193.611 306.066 193.418 306.031 193.168C305.816 193.449 305.508 193.693 305.105 193.9C304.703 194.107 304.26 194.211 303.775 194.211C303.193 194.211 302.717 194.035 302.346 193.684C301.979 193.328 301.795 192.885 301.795 192.354C301.795 191.771 301.977 191.32 302.34 191C302.703 190.68 303.18 190.482 303.77 190.408L305.451 190.197ZM310.982 187.613C311.475 187.613 311.904 187.734 312.271 187.977C312.471 188.113 312.674 188.312 312.881 188.574V187.783H313.854V193.49C313.854 194.287 313.736 194.916 313.502 195.377C313.064 196.229 312.238 196.654 311.023 196.654C310.348 196.654 309.779 196.502 309.318 196.197C308.857 195.896 308.6 195.424 308.545 194.779H309.617C309.668 195.061 309.77 195.277 309.922 195.43C310.16 195.664 310.535 195.781 311.047 195.781C311.855 195.781 312.385 195.496 312.635 194.926C312.783 194.59 312.852 193.99 312.84 193.127C312.629 193.447 312.375 193.686 312.078 193.842C311.781 193.998 311.389 194.076 310.9 194.076C310.221 194.076 309.625 193.836 309.113 193.355C308.605 192.871 308.352 192.072 308.352 190.959C308.352 189.908 308.607 189.088 309.119 188.498C309.635 187.908 310.256 187.613 310.982 187.613ZM312.881 190.836C312.881 190.059 312.721 189.482 312.4 189.107C312.08 188.732 311.672 188.545 311.176 188.545C310.434 188.545 309.926 188.893 309.652 189.588C309.508 189.959 309.436 190.445 309.436 191.047C309.436 191.754 309.578 192.293 309.863 192.664C310.152 193.031 310.539 193.215 311.023 193.215C311.781 193.215 312.314 192.873 312.623 192.189C312.795 191.803 312.881 191.352 312.881 190.836ZM318.061 187.584C318.506 187.584 318.938 187.689 319.355 187.9C319.773 188.107 320.092 188.377 320.311 188.709C320.521 189.025 320.662 189.395 320.732 189.816C320.795 190.105 320.826 190.566 320.826 191.199H316.227C316.246 191.836 316.396 192.348 316.678 192.734C316.959 193.117 317.395 193.309 317.984 193.309C318.535 193.309 318.975 193.127 319.303 192.764C319.49 192.553 319.623 192.309 319.701 192.031H320.738C320.711 192.262 320.619 192.52 320.463 192.805C320.311 193.086 320.139 193.316 319.947 193.496C319.627 193.809 319.23 194.02 318.758 194.129C318.504 194.191 318.217 194.223 317.896 194.223C317.115 194.223 316.453 193.939 315.91 193.373C315.367 192.803 315.096 192.006 315.096 190.982C315.096 189.975 315.369 189.156 315.916 188.527C316.463 187.898 317.178 187.584 318.061 187.584ZM319.742 190.361C319.699 189.904 319.6 189.539 319.443 189.266C319.154 188.758 318.672 188.504 317.996 188.504C317.512 188.504 317.105 188.68 316.777 189.031C316.449 189.379 316.275 189.822 316.256 190.361H319.742Z" fill="#CCCCCC"/>
</g>
</g>
</g>
<g id="talk-left_2">
<g id="Frame 14_2" clip-path="url(#clip2)">
<g id="avatar_4">
<rect width="50" height="50" transform="translate(20 252)" fill="#CCCCCC"/>
<path id="avatar image_3" d="M29.8945 273.33C29.8945 273.635 30.0059 273.875 30.2285 274.051C30.4512 274.227 30.7148 274.314 31.0195 274.314C31.3906 274.314 31.75 274.229 32.0977 274.057C32.6836 273.771 32.9766 273.305 32.9766 272.656V271.807C32.8477 271.889 32.6816 271.957 32.4785 272.012C32.2754 272.066 32.0762 272.105 31.8809 272.129L31.2422 272.211C30.8594 272.262 30.5723 272.342 30.3809 272.451C30.0566 272.635 29.8945 272.928 29.8945 273.33ZM32.4492 271.197C32.6914 271.166 32.8535 271.064 32.9355 270.893C32.9824 270.799 33.0059 270.664 33.0059 270.488C33.0059 270.129 32.877 269.869 32.6191 269.709C32.3652 269.545 32 269.463 31.5234 269.463C30.9727 269.463 30.582 269.611 30.3516 269.908C30.2227 270.072 30.1387 270.316 30.0996 270.641H29.1152C29.1348 269.867 29.3848 269.33 29.8652 269.029C30.3496 268.725 30.9102 268.572 31.5469 268.572C32.2852 268.572 32.8848 268.713 33.3457 268.994C33.8027 269.275 34.0312 269.713 34.0312 270.307V273.922C34.0312 274.031 34.0527 274.119 34.0957 274.186C34.1426 274.252 34.2383 274.285 34.3828 274.285C34.4297 274.285 34.4824 274.283 34.541 274.279C34.5996 274.271 34.6621 274.262 34.7285 274.25V275.029C34.5645 275.076 34.4395 275.105 34.3535 275.117C34.2676 275.129 34.1504 275.135 34.002 275.135C33.6387 275.135 33.375 275.006 33.2109 274.748C33.125 274.611 33.0645 274.418 33.0293 274.168C32.8145 274.449 32.5059 274.693 32.1035 274.9C31.7012 275.107 31.2578 275.211 30.7734 275.211C30.1914 275.211 29.7148 275.035 29.3438 274.684C28.9766 274.328 28.793 273.885 28.793 273.354C28.793 272.771 28.9746 272.32 29.3379 272C29.7012 271.68 30.1777 271.482 30.7676 271.408L32.4492 271.197ZM36.2812 268.725L37.957 273.834L39.709 268.725H40.8633L38.4961 275H37.3711L35.0566 268.725H36.2812ZM42.5742 273.33C42.5742 273.635 42.6855 273.875 42.9082 274.051C43.1309 274.227 43.3945 274.314 43.6992 274.314C44.0703 274.314 44.4297 274.229 44.7773 274.057C45.3633 273.771 45.6562 273.305 45.6562 272.656V271.807C45.5273 271.889 45.3613 271.957 45.1582 272.012C44.9551 272.066 44.7559 272.105 44.5605 272.129L43.9219 272.211C43.5391 272.262 43.252 272.342 43.0605 272.451C42.7363 272.635 42.5742 272.928 42.5742 273.33ZM45.1289 271.197C45.3711 271.166 45.5332 271.064 45.6152 270.893C45.6621 270.799 45.6855 270.664 45.6855 270.488C45.6855 270.129 45.5566 269.869 45.2988 269.709C45.0449 269.545 44.6797 269.463 44.2031 269.463C43.6523 269.463 43.2617 269.611 43.0312 269.908C42.9023 270.072 42.8184 270.316 42.7793 270.641H41.7949C41.8145 269.867 42.0645 269.33 42.5449 269.029C43.0293 268.725 43.5898 268.572 44.2266 268.572C44.9648 268.572 45.5645 268.713 46.0254 268.994C46.4824 269.275 46.7109 269.713 46.7109 270.307V273.922C46.7109 274.031 46.7324 274.119 46.7754 274.186C46.8223 274.252 46.918 274.285 47.0625 274.285C47.1094 274.285 47.1621 274.283 47.2207 274.279C47.2793 274.271 47.3418 274.262 47.4082 274.25V275.029C47.2441 275.076 47.1191 275.105 47.0332 275.117C46.9473 275.129 46.8301 275.135 46.6816 275.135C46.3184 275.135 46.0547 275.006 45.8906 274.748C45.8047 274.611 45.7441 274.418 45.709 274.168C45.4941 274.449 45.1855 274.693 44.7832 274.9C44.3809 275.107 43.9375 275.211 43.4531 275.211C42.8711 275.211 42.3945 275.035 42.0234 274.684C41.6562 274.328 41.4727 273.885 41.4727 273.354C41.4727 272.771 41.6543 272.32 42.0176 272C42.3809 271.68 42.8574 271.482 43.4473 271.408L45.1289 271.197ZM48.6562 266.973H49.7227V268.725H50.7246V269.586H49.7227V273.682C49.7227 273.9 49.7969 274.047 49.9453 274.121C50.0273 274.164 50.1641 274.186 50.3555 274.186C50.4062 274.186 50.4609 274.186 50.5195 274.186C50.5781 274.182 50.6465 274.176 50.7246 274.168V275C50.6035 275.035 50.4766 275.061 50.3438 275.076C50.2148 275.092 50.0742 275.1 49.9219 275.1C49.4297 275.1 49.0957 274.975 48.9199 274.725C48.7441 274.471 48.6562 274.143 48.6562 273.74V269.586H47.8066V268.725H48.6562V266.973ZM52.5938 273.33C52.5938 273.635 52.7051 273.875 52.9277 274.051C53.1504 274.227 53.4141 274.314 53.7188 274.314C54.0898 274.314 54.4492 274.229 54.7969 274.057C55.3828 273.771 55.6758 273.305 55.6758 272.656V271.807C55.5469 271.889 55.3809 271.957 55.1777 272.012C54.9746 272.066 54.7754 272.105 54.5801 272.129L53.9414 272.211C53.5586 272.262 53.2715 272.342 53.0801 272.451C52.7559 272.635 52.5938 272.928 52.5938 273.33ZM55.1484 271.197C55.3906 271.166 55.5527 271.064 55.6348 270.893C55.6816 270.799 55.7051 270.664 55.7051 270.488C55.7051 270.129 55.5762 269.869 55.3184 269.709C55.0645 269.545 54.6992 269.463 54.2227 269.463C53.6719 269.463 53.2812 269.611 53.0508 269.908C52.9219 270.072 52.8379 270.316 52.7988 270.641H51.8145C51.834 269.867 52.084 269.33 52.5645 269.029C53.0488 268.725 53.6094 268.572 54.2461 268.572C54.9844 268.572 55.584 268.713 56.0449 268.994C56.502 269.275 56.7305 269.713 56.7305 270.307V273.922C56.7305 274.031 56.752 274.119 56.7949 274.186C56.8418 274.252 56.9375 274.285 57.082 274.285C57.1289 274.285 57.1816 274.283 57.2402 274.279C57.2988 274.271 57.3613 274.262 57.4277 274.25V275.029C57.2637 275.076 57.1387 275.105 57.0527 275.117C56.9668 275.129 56.8496 275.135 56.7012 275.135C56.3379 275.135 56.0742 275.006 55.9102 274.748C55.8242 274.611 55.7637 274.418 55.7285 274.168C55.5137 274.449 55.2051 274.693 54.8027 274.9C54.4004 275.107 53.957 275.211 53.4727 275.211C52.8906 275.211 52.4141 275.035 52.043 274.684C51.6758 274.328 51.4922 273.885 51.4922 273.354C51.4922 272.771 51.6738 272.32 52.0371 272C52.4004 271.68 52.877 271.482 53.4668 271.408L55.1484 271.197ZM58.4941 268.725H59.4961V269.809C59.5781 269.598 59.7793 269.342 60.0996 269.041C60.4199 268.736 60.7891 268.584 61.207 268.584C61.2266 268.584 61.2598 268.586 61.3066 268.59C61.3535 268.594 61.4336 268.602 61.5469 268.613V269.727C61.4844 269.715 61.4258 269.707 61.3711 269.703C61.3203 269.699 61.2637 269.697 61.2012 269.697C60.6699 269.697 60.2617 269.869 59.9766 270.213C59.6914 270.553 59.5488 270.945 59.5488 271.391V275H58.4941V268.725ZM29.4199 280.754H30.4922V287H29.4199V280.754ZM29.4199 278.393H30.4922V279.588H29.4199V278.393ZM32.0918 280.725H33.1348V281.615C33.3848 281.307 33.6113 281.082 33.8145 280.941C34.1621 280.703 34.5566 280.584 34.998 280.584C35.498 280.584 35.9004 280.707 36.2051 280.953C36.377 281.094 36.5332 281.301 36.6738 281.574C36.9082 281.238 37.1836 280.99 37.5 280.83C37.8164 280.666 38.1719 280.584 38.5664 280.584C39.4102 280.584 39.9844 280.889 40.2891 281.498C40.4531 281.826 40.5352 282.268 40.5352 282.822V287H39.4395V282.641C39.4395 282.223 39.334 281.936 39.123 281.779C38.916 281.623 38.6621 281.545 38.3613 281.545C37.9473 281.545 37.5898 281.684 37.2891 281.961C36.9922 282.238 36.8438 282.701 36.8438 283.35V287H35.7715V282.904C35.7715 282.479 35.7207 282.168 35.6191 281.973C35.459 281.68 35.1602 281.533 34.7227 281.533C34.3242 281.533 33.9609 281.688 33.6328 281.996C33.3086 282.305 33.1465 282.863 33.1465 283.672V287H32.0918V280.725ZM42.8965 285.33C42.8965 285.635 43.0078 285.875 43.2305 286.051C43.4531 286.227 43.7168 286.314 44.0215 286.314C44.3926 286.314 44.752 286.229 45.0996 286.057C45.6855 285.771 45.9785 285.305 45.9785 284.656V283.807C45.8496 283.889 45.6836 283.957 45.4805 284.012C45.2773 284.066 45.0781 284.105 44.8828 284.129L44.2441 284.211C43.8613 284.262 43.5742 284.342 43.3828 284.451C43.0586 284.635 42.8965 284.928 42.8965 285.33ZM45.4512 283.197C45.6934 283.166 45.8555 283.064 45.9375 282.893C45.9844 282.799 46.0078 282.664 46.0078 282.488C46.0078 282.129 45.8789 281.869 45.6211 281.709C45.3672 281.545 45.002 281.463 44.5254 281.463C43.9746 281.463 43.584 281.611 43.3535 281.908C43.2246 282.072 43.1406 282.316 43.1016 282.641H42.1172C42.1367 281.867 42.3867 281.33 42.8672 281.029C43.3516 280.725 43.9121 280.572 44.5488 280.572C45.2871 280.572 45.8867 280.713 46.3477 280.994C46.8047 281.275 47.0332 281.713 47.0332 282.307V285.922C47.0332 286.031 47.0547 286.119 47.0977 286.186C47.1445 286.252 47.2402 286.285 47.3848 286.285C47.4316 286.285 47.4844 286.283 47.543 286.279C47.6016 286.271 47.6641 286.262 47.7305 286.25V287.029C47.5664 287.076 47.4414 287.105 47.3555 287.117C47.2695 287.129 47.1523 287.135 47.0039 287.135C46.6406 287.135 46.377 287.006 46.2129 286.748C46.127 286.611 46.0664 286.418 46.0312 286.168C45.8164 286.449 45.5078 286.693 45.1055 286.9C44.7031 287.107 44.2598 287.211 43.7754 287.211C43.1934 287.211 42.7168 287.035 42.3457 286.684C41.9785 286.328 41.7949 285.885 41.7949 285.354C41.7949 284.771 41.9766 284.32 42.3398 284C42.7031 283.68 43.1797 283.482 43.7695 283.408L45.4512 283.197ZM50.9824 280.613C51.4746 280.613 51.9043 280.734 52.2715 280.977C52.4707 281.113 52.6738 281.312 52.8809 281.574V280.783H53.8535V286.49C53.8535 287.287 53.7363 287.916 53.502 288.377C53.0645 289.229 52.2383 289.654 51.0234 289.654C50.3477 289.654 49.7793 289.502 49.3184 289.197C48.8574 288.896 48.5996 288.424 48.5449 287.779H49.6172C49.668 288.061 49.7695 288.277 49.9219 288.43C50.1602 288.664 50.5352 288.781 51.0469 288.781C51.8555 288.781 52.3848 288.496 52.6348 287.926C52.7832 287.59 52.8516 286.99 52.8398 286.127C52.6289 286.447 52.375 286.686 52.0781 286.842C51.7812 286.998 51.3887 287.076 50.9004 287.076C50.2207 287.076 49.625 286.836 49.1133 286.355C48.6055 285.871 48.3516 285.072 48.3516 283.959C48.3516 282.908 48.6074 282.088 49.1191 281.498C49.6348 280.908 50.2559 280.613 50.9824 280.613ZM52.8809 283.836C52.8809 283.059 52.7207 282.482 52.4004 282.107C52.0801 281.732 51.6719 281.545 51.1758 281.545C50.4336 281.545 49.9258 281.893 49.6523 282.588C49.5078 282.959 49.4355 283.445 49.4355 284.047C49.4355 284.754 49.5781 285.293 49.8633 285.664C50.1523 286.031 50.5391 286.215 51.0234 286.215C51.7812 286.215 52.3145 285.873 52.623 285.189C52.7949 284.803 52.8809 284.352 52.8809 283.836ZM58.0605 280.584C58.5059 280.584 58.9375 280.689 59.3555 280.9C59.7734 281.107 60.0918 281.377 60.3105 281.709C60.5215 282.025 60.6621 282.395 60.7324 282.816C60.7949 283.105 60.8262 283.566 60.8262 284.199H56.2266C56.2461 284.836 56.3965 285.348 56.6777 285.734C56.959 286.117 57.3945 286.309 57.9844 286.309C58.5352 286.309 58.9746 286.127 59.3027 285.764C59.4902 285.553 59.623 285.309 59.7012 285.031H60.7383C60.7109 285.262 60.6191 285.52 60.4629 285.805C60.3105 286.086 60.1387 286.316 59.9473 286.496C59.627 286.809 59.2305 287.02 58.7578 287.129C58.5039 287.191 58.2168 287.223 57.8965 287.223C57.1152 287.223 56.4531 286.939 55.9102 286.373C55.3672 285.803 55.0957 285.006 55.0957 283.982C55.0957 282.975 55.3691 282.156 55.916 281.527C56.4629 280.898 57.1777 280.584 58.0605 280.584ZM59.7422 283.361C59.6992 282.904 59.5996 282.539 59.4434 282.266C59.1543 281.758 58.6719 281.504 57.9961 281.504C57.5117 281.504 57.1055 281.68 56.7773 282.031C56.4492 282.379 56.2754 282.822 56.2559 283.361H59.7422Z" fill="#CCCCCC"/>
</g>
<path id="Vector_3" d="M85 268.25L75 277L85 285.75L85 268.25Z" fill="#EEEEEE"/>
</g>
<g id="Frame 12_4" clip-path="url(#clip3)">
<rect width="245" height="56" transform="translate(85 252)" fill="#EEEEEE"/>
<rect id="Rectangle 15" x="95" y="262" width="206" height="10" fill="#666666"/>
<rect id="Rectangle 9_4" x="95" y="273" width="65" height="10" fill="#666666"/>
<rect id="Rectangle 11_4" x="95" y="284" width="225" height="3" fill="#EEEEEE"/>
<g id="Frame 15_6">
<rect id="Rectangle 13_4" x="95" y="288" width="50" height="10" fill="#CCCCCC"/>
<rect id="Rectangle 16_4" x="150" y="288" width="50" height="10" fill="#CCCCCC"/>
</g>
</g>
</g>
<g id="talk-right_3">
<g id="Frame 12_5" clip-path="url(#clip4)">
<rect width="245" height="67" transform="translate(20 323)" fill="#EEEEEE"/>
<rect id="Rectangle 7_3" x="40" y="333" width="215" height="10" fill="#666666"/>
<rect id="Rectangle 14_4" x="40" y="344" width="215" height="10" fill="#666666"/>
<rect id="Rectangle 9_5" x="190" y="355" width="65" height="10" fill="#666666"/>
<rect id="Rectangle 11_5" x="30" y="366" width="225" height="3" fill="#EEEEEE"/>
<g id="Frame 15_7">
<rect id="Rectangle 13_5" x="150" y="370" width="50" height="10" fill="#CCCCCC"/>
<rect id="Rectangle 16_5" x="205" y="370" width="50" height="10" fill="#CCCCCC"/>
</g>
</g>
<g id="Frame 15_8">
<path id="Vector_4" d="M265 356.75L275 348L265 339.25V356.75Z" fill="#EEEEEE"/>
<g id="avatar_5">
<rect width="50" height="50" transform="translate(280 323)" fill="#CCCCCC"/>
<path id="avatar image_4" d="M289.895 344.33C289.895 344.635 290.006 344.875 290.229 345.051C290.451 345.227 290.715 345.314 291.02 345.314C291.391 345.314 291.75 345.229 292.098 345.057C292.684 344.771 292.977 344.305 292.977 343.656V342.807C292.848 342.889 292.682 342.957 292.479 343.012C292.275 343.066 292.076 343.105 291.881 343.129L291.242 343.211C290.859 343.262 290.572 343.342 290.381 343.451C290.057 343.635 289.895 343.928 289.895 344.33ZM292.449 342.197C292.691 342.166 292.854 342.064 292.936 341.893C292.982 341.799 293.006 341.664 293.006 341.488C293.006 341.129 292.877 340.869 292.619 340.709C292.365 340.545 292 340.463 291.523 340.463C290.973 340.463 290.582 340.611 290.352 340.908C290.223 341.072 290.139 341.316 290.1 341.641H289.115C289.135 340.867 289.385 340.33 289.865 340.029C290.35 339.725 290.91 339.572 291.547 339.572C292.285 339.572 292.885 339.713 293.346 339.994C293.803 340.275 294.031 340.713 294.031 341.307V344.922C294.031 345.031 294.053 345.119 294.096 345.186C294.143 345.252 294.238 345.285 294.383 345.285C294.43 345.285 294.482 345.283 294.541 345.279C294.6 345.271 294.662 345.262 294.729 345.25V346.029C294.564 346.076 294.439 346.105 294.354 346.117C294.268 346.129 294.15 346.135 294.002 346.135C293.639 346.135 293.375 346.006 293.211 345.748C293.125 345.611 293.064 345.418 293.029 345.168C292.814 345.449 292.506 345.693 292.104 345.9C291.701 346.107 291.258 346.211 290.773 346.211C290.191 346.211 289.715 346.035 289.344 345.684C288.977 345.328 288.793 344.885 288.793 344.354C288.793 343.771 288.975 343.32 289.338 343C289.701 342.68 290.178 342.482 290.768 342.408L292.449 342.197ZM296.281 339.725L297.957 344.834L299.709 339.725H300.863L298.496 346H297.371L295.057 339.725H296.281ZM302.574 344.33C302.574 344.635 302.686 344.875 302.908 345.051C303.131 345.227 303.395 345.314 303.699 345.314C304.07 345.314 304.43 345.229 304.777 345.057C305.363 344.771 305.656 344.305 305.656 343.656V342.807C305.527 342.889 305.361 342.957 305.158 343.012C304.955 343.066 304.756 343.105 304.561 343.129L303.922 343.211C303.539 343.262 303.252 343.342 303.061 343.451C302.736 343.635 302.574 343.928 302.574 344.33ZM305.129 342.197C305.371 342.166 305.533 342.064 305.615 341.893C305.662 341.799 305.686 341.664 305.686 341.488C305.686 341.129 305.557 340.869 305.299 340.709C305.045 340.545 304.68 340.463 304.203 340.463C303.652 340.463 303.262 340.611 303.031 340.908C302.902 341.072 302.818 341.316 302.779 341.641H301.795C301.814 340.867 302.064 340.33 302.545 340.029C303.029 339.725 303.59 339.572 304.227 339.572C304.965 339.572 305.564 339.713 306.025 339.994C306.482 340.275 306.711 340.713 306.711 341.307V344.922C306.711 345.031 306.732 345.119 306.775 345.186C306.822 345.252 306.918 345.285 307.062 345.285C307.109 345.285 307.162 345.283 307.221 345.279C307.279 345.271 307.342 345.262 307.408 345.25V346.029C307.244 346.076 307.119 346.105 307.033 346.117C306.947 346.129 306.83 346.135 306.682 346.135C306.318 346.135 306.055 346.006 305.891 345.748C305.805 345.611 305.744 345.418 305.709 345.168C305.494 345.449 305.186 345.693 304.783 345.9C304.381 346.107 303.938 346.211 303.453 346.211C302.871 346.211 302.395 346.035 302.023 345.684C301.656 345.328 301.473 344.885 301.473 344.354C301.473 343.771 301.654 343.32 302.018 343C302.381 342.68 302.857 342.482 303.447 342.408L305.129 342.197ZM308.656 337.973H309.723V339.725H310.725V340.586H309.723V344.682C309.723 344.9 309.797 345.047 309.945 345.121C310.027 345.164 310.164 345.186 310.355 345.186C310.406 345.186 310.461 345.186 310.52 345.186C310.578 345.182 310.646 345.176 310.725 345.168V346C310.604 346.035 310.477 346.061 310.344 346.076C310.215 346.092 310.074 346.1 309.922 346.1C309.43 346.1 309.096 345.975 308.92 345.725C308.744 345.471 308.656 345.143 308.656 344.74V340.586H307.807V339.725H308.656V337.973ZM312.594 344.33C312.594 344.635 312.705 344.875 312.928 345.051C313.15 345.227 313.414 345.314 313.719 345.314C314.09 345.314 314.449 345.229 314.797 345.057C315.383 344.771 315.676 344.305 315.676 343.656V342.807C315.547 342.889 315.381 342.957 315.178 343.012C314.975 343.066 314.775 343.105 314.58 343.129L313.941 343.211C313.559 343.262 313.271 343.342 313.08 343.451C312.756 343.635 312.594 343.928 312.594 344.33ZM315.148 342.197C315.391 342.166 315.553 342.064 315.635 341.893C315.682 341.799 315.705 341.664 315.705 341.488C315.705 341.129 315.576 340.869 315.318 340.709C315.064 340.545 314.699 340.463 314.223 340.463C313.672 340.463 313.281 340.611 313.051 340.908C312.922 341.072 312.838 341.316 312.799 341.641H311.814C311.834 340.867 312.084 340.33 312.564 340.029C313.049 339.725 313.609 339.572 314.246 339.572C314.984 339.572 315.584 339.713 316.045 339.994C316.502 340.275 316.73 340.713 316.73 341.307V344.922C316.73 345.031 316.752 345.119 316.795 345.186C316.842 345.252 316.938 345.285 317.082 345.285C317.129 345.285 317.182 345.283 317.24 345.279C317.299 345.271 317.361 345.262 317.428 345.25V346.029C317.264 346.076 317.139 346.105 317.053 346.117C316.967 346.129 316.85 346.135 316.701 346.135C316.338 346.135 316.074 346.006 315.91 345.748C315.824 345.611 315.764 345.418 315.729 345.168C315.514 345.449 315.205 345.693 314.803 345.9C314.4 346.107 313.957 346.211 313.473 346.211C312.891 346.211 312.414 346.035 312.043 345.684C311.676 345.328 311.492 344.885 311.492 344.354C311.492 343.771 311.674 343.32 312.037 343C312.4 342.68 312.877 342.482 313.467 342.408L315.148 342.197ZM318.494 339.725H319.496V340.809C319.578 340.598 319.779 340.342 320.1 340.041C320.42 339.736 320.789 339.584 321.207 339.584C321.227 339.584 321.26 339.586 321.307 339.59C321.354 339.594 321.434 339.602 321.547 339.613V340.727C321.484 340.715 321.426 340.707 321.371 340.703C321.32 340.699 321.264 340.697 321.201 340.697C320.67 340.697 320.262 340.869 319.977 341.213C319.691 341.553 319.549 341.945 319.549 342.391V346H318.494V339.725ZM289.42 351.754H290.492V358H289.42V351.754ZM289.42 349.393H290.492V350.588H289.42V349.393ZM292.092 351.725H293.135V352.615C293.385 352.307 293.611 352.082 293.814 351.941C294.162 351.703 294.557 351.584 294.998 351.584C295.498 351.584 295.9 351.707 296.205 351.953C296.377 352.094 296.533 352.301 296.674 352.574C296.908 352.238 297.184 351.99 297.5 351.83C297.816 351.666 298.172 351.584 298.566 351.584C299.41 351.584 299.984 351.889 300.289 352.498C300.453 352.826 300.535 353.268 300.535 353.822V358H299.439V353.641C299.439 353.223 299.334 352.936 299.123 352.779C298.916 352.623 298.662 352.545 298.361 352.545C297.947 352.545 297.59 352.684 297.289 352.961C296.992 353.238 296.844 353.701 296.844 354.35V358H295.771V353.904C295.771 353.479 295.721 353.168 295.619 352.973C295.459 352.68 295.16 352.533 294.723 352.533C294.324 352.533 293.961 352.688 293.633 352.996C293.309 353.305 293.146 353.863 293.146 354.672V358H292.092V351.725ZM302.896 356.33C302.896 356.635 303.008 356.875 303.23 357.051C303.453 357.227 303.717 357.314 304.021 357.314C304.393 357.314 304.752 357.229 305.1 357.057C305.686 356.771 305.979 356.305 305.979 355.656V354.807C305.85 354.889 305.684 354.957 305.48 355.012C305.277 355.066 305.078 355.105 304.883 355.129L304.244 355.211C303.861 355.262 303.574 355.342 303.383 355.451C303.059 355.635 302.896 355.928 302.896 356.33ZM305.451 354.197C305.693 354.166 305.855 354.064 305.938 353.893C305.984 353.799 306.008 353.664 306.008 353.488C306.008 353.129 305.879 352.869 305.621 352.709C305.367 352.545 305.002 352.463 304.525 352.463C303.975 352.463 303.584 352.611 303.354 352.908C303.225 353.072 303.141 353.316 303.102 353.641H302.117C302.137 352.867 302.387 352.33 302.867 352.029C303.352 351.725 303.912 351.572 304.549 351.572C305.287 351.572 305.887 351.713 306.348 351.994C306.805 352.275 307.033 352.713 307.033 353.307V356.922C307.033 357.031 307.055 357.119 307.098 357.186C307.145 357.252 307.24 357.285 307.385 357.285C307.432 357.285 307.484 357.283 307.543 357.279C307.602 357.271 307.664 357.262 307.73 357.25V358.029C307.566 358.076 307.441 358.105 307.355 358.117C307.27 358.129 307.152 358.135 307.004 358.135C306.641 358.135 306.377 358.006 306.213 357.748C306.127 357.611 306.066 357.418 306.031 357.168C305.816 357.449 305.508 357.693 305.105 357.9C304.703 358.107 304.26 358.211 303.775 358.211C303.193 358.211 302.717 358.035 302.346 357.684C301.979 357.328 301.795 356.885 301.795 356.354C301.795 355.771 301.977 355.32 302.34 355C302.703 354.68 303.18 354.482 303.77 354.408L305.451 354.197ZM310.982 351.613C311.475 351.613 311.904 351.734 312.271 351.977C312.471 352.113 312.674 352.312 312.881 352.574V351.783H313.854V357.49C313.854 358.287 313.736 358.916 313.502 359.377C313.064 360.229 312.238 360.654 311.023 360.654C310.348 360.654 309.779 360.502 309.318 360.197C308.857 359.896 308.6 359.424 308.545 358.779H309.617C309.668 359.061 309.77 359.277 309.922 359.43C310.16 359.664 310.535 359.781 311.047 359.781C311.855 359.781 312.385 359.496 312.635 358.926C312.783 358.59 312.852 357.99 312.84 357.127C312.629 357.447 312.375 357.686 312.078 357.842C311.781 357.998 311.389 358.076 310.9 358.076C310.221 358.076 309.625 357.836 309.113 357.355C308.605 356.871 308.352 356.072 308.352 354.959C308.352 353.908 308.607 353.088 309.119 352.498C309.635 351.908 310.256 351.613 310.982 351.613ZM312.881 354.836C312.881 354.059 312.721 353.482 312.4 353.107C312.08 352.732 311.672 352.545 311.176 352.545C310.434 352.545 309.926 352.893 309.652 353.588C309.508 353.959 309.436 354.445 309.436 355.047C309.436 355.754 309.578 356.293 309.863 356.664C310.152 357.031 310.539 357.215 311.023 357.215C311.781 357.215 312.314 356.873 312.623 356.189C312.795 355.803 312.881 355.352 312.881 354.836ZM318.061 351.584C318.506 351.584 318.938 351.689 319.355 351.9C319.773 352.107 320.092 352.377 320.311 352.709C320.521 353.025 320.662 353.395 320.732 353.816C320.795 354.105 320.826 354.566 320.826 355.199H316.227C316.246 355.836 316.396 356.348 316.678 356.734C316.959 357.117 317.395 357.309 317.984 357.309C318.535 357.309 318.975 357.127 319.303 356.764C319.49 356.553 319.623 356.309 319.701 356.031H320.738C320.711 356.262 320.619 356.52 320.463 356.805C320.311 357.086 320.139 357.316 319.947 357.496C319.627 357.809 319.23 358.02 318.758 358.129C318.504 358.191 318.217 358.223 317.896 358.223C317.115 358.223 316.453 357.939 315.91 357.373C315.367 356.803 315.096 356.006 315.096 354.982C315.096 353.975 315.369 353.156 315.916 352.527C316.463 351.898 317.178 351.584 318.061 351.584ZM319.742 354.361C319.699 353.904 319.6 353.539 319.443 353.266C319.154 352.758 318.672 352.504 317.996 352.504C317.512 352.504 317.105 352.68 316.777 353.031C316.449 353.379 316.275 353.822 316.256 354.361H319.742Z" fill="#CCCCCC"/>
</g>
</g>
</g>
<g id="talk-left_3">
<g id="Frame 14_3" clip-path="url(#clip5)">
<g id="avatar_6">
<rect width="50" height="50" transform="translate(20 405)" fill="#CCCCCC"/>
<path id="avatar image_5" d="M29.8945 426.33C29.8945 426.635 30.0059 426.875 30.2285 427.051C30.4512 427.227 30.7148 427.314 31.0195 427.314C31.3906 427.314 31.75 427.229 32.0977 427.057C32.6836 426.771 32.9766 426.305 32.9766 425.656V424.807C32.8477 424.889 32.6816 424.957 32.4785 425.012C32.2754 425.066 32.0762 425.105 31.8809 425.129L31.2422 425.211C30.8594 425.262 30.5723 425.342 30.3809 425.451C30.0566 425.635 29.8945 425.928 29.8945 426.33ZM32.4492 424.197C32.6914 424.166 32.8535 424.064 32.9355 423.893C32.9824 423.799 33.0059 423.664 33.0059 423.488C33.0059 423.129 32.877 422.869 32.6191 422.709C32.3652 422.545 32 422.463 31.5234 422.463C30.9727 422.463 30.582 422.611 30.3516 422.908C30.2227 423.072 30.1387 423.316 30.0996 423.641H29.1152C29.1348 422.867 29.3848 422.33 29.8652 422.029C30.3496 421.725 30.9102 421.572 31.5469 421.572C32.2852 421.572 32.8848 421.713 33.3457 421.994C33.8027 422.275 34.0312 422.713 34.0312 423.307V426.922C34.0312 427.031 34.0527 427.119 34.0957 427.186C34.1426 427.252 34.2383 427.285 34.3828 427.285C34.4297 427.285 34.4824 427.283 34.541 427.279C34.5996 427.271 34.6621 427.262 34.7285 427.25V428.029C34.5645 428.076 34.4395 428.105 34.3535 428.117C34.2676 428.129 34.1504 428.135 34.002 428.135C33.6387 428.135 33.375 428.006 33.2109 427.748C33.125 427.611 33.0645 427.418 33.0293 427.168C32.8145 427.449 32.5059 427.693 32.1035 427.9C31.7012 428.107 31.2578 428.211 30.7734 428.211C30.1914 428.211 29.7148 428.035 29.3438 427.684C28.9766 427.328 28.793 426.885 28.793 426.354C28.793 425.771 28.9746 425.32 29.3379 425C29.7012 424.68 30.1777 424.482 30.7676 424.408L32.4492 424.197ZM36.2812 421.725L37.957 426.834L39.709 421.725H40.8633L38.4961 428H37.3711L35.0566 421.725H36.2812ZM42.5742 426.33C42.5742 426.635 42.6855 426.875 42.9082 427.051C43.1309 427.227 43.3945 427.314 43.6992 427.314C44.0703 427.314 44.4297 427.229 44.7773 427.057C45.3633 426.771 45.6562 426.305 45.6562 425.656V424.807C45.5273 424.889 45.3613 424.957 45.1582 425.012C44.9551 425.066 44.7559 425.105 44.5605 425.129L43.9219 425.211C43.5391 425.262 43.252 425.342 43.0605 425.451C42.7363 425.635 42.5742 425.928 42.5742 426.33ZM45.1289 424.197C45.3711 424.166 45.5332 424.064 45.6152 423.893C45.6621 423.799 45.6855 423.664 45.6855 423.488C45.6855 423.129 45.5566 422.869 45.2988 422.709C45.0449 422.545 44.6797 422.463 44.2031 422.463C43.6523 422.463 43.2617 422.611 43.0312 422.908C42.9023 423.072 42.8184 423.316 42.7793 423.641H41.7949C41.8145 422.867 42.0645 422.33 42.5449 422.029C43.0293 421.725 43.5898 421.572 44.2266 421.572C44.9648 421.572 45.5645 421.713 46.0254 421.994C46.4824 422.275 46.7109 422.713 46.7109 423.307V426.922C46.7109 427.031 46.7324 427.119 46.7754 427.186C46.8223 427.252 46.918 427.285 47.0625 427.285C47.1094 427.285 47.1621 427.283 47.2207 427.279C47.2793 427.271 47.3418 427.262 47.4082 427.25V428.029C47.2441 428.076 47.1191 428.105 47.0332 428.117C46.9473 428.129 46.8301 428.135 46.6816 428.135C46.3184 428.135 46.0547 428.006 45.8906 427.748C45.8047 427.611 45.7441 427.418 45.709 427.168C45.4941 427.449 45.1855 427.693 44.7832 427.9C44.3809 428.107 43.9375 428.211 43.4531 428.211C42.8711 428.211 42.3945 428.035 42.0234 427.684C41.6562 427.328 41.4727 426.885 41.4727 426.354C41.4727 425.771 41.6543 425.32 42.0176 425C42.3809 424.68 42.8574 424.482 43.4473 424.408L45.1289 424.197ZM48.6562 419.973H49.7227V421.725H50.7246V422.586H49.7227V426.682C49.7227 426.9 49.7969 427.047 49.9453 427.121C50.0273 427.164 50.1641 427.186 50.3555 427.186C50.4062 427.186 50.4609 427.186 50.5195 427.186C50.5781 427.182 50.6465 427.176 50.7246 427.168V428C50.6035 428.035 50.4766 428.061 50.3438 428.076C50.2148 428.092 50.0742 428.1 49.9219 428.1C49.4297 428.1 49.0957 427.975 48.9199 427.725C48.7441 427.471 48.6562 427.143 48.6562 426.74V422.586H47.8066V421.725H48.6562V419.973ZM52.5938 426.33C52.5938 426.635 52.7051 426.875 52.9277 427.051C53.1504 427.227 53.4141 427.314 53.7188 427.314C54.0898 427.314 54.4492 427.229 54.7969 427.057C55.3828 426.771 55.6758 426.305 55.6758 425.656V424.807C55.5469 424.889 55.3809 424.957 55.1777 425.012C54.9746 425.066 54.7754 425.105 54.5801 425.129L53.9414 425.211C53.5586 425.262 53.2715 425.342 53.0801 425.451C52.7559 425.635 52.5938 425.928 52.5938 426.33ZM55.1484 424.197C55.3906 424.166 55.5527 424.064 55.6348 423.893C55.6816 423.799 55.7051 423.664 55.7051 423.488C55.7051 423.129 55.5762 422.869 55.3184 422.709C55.0645 422.545 54.6992 422.463 54.2227 422.463C53.6719 422.463 53.2812 422.611 53.0508 422.908C52.9219 423.072 52.8379 423.316 52.7988 423.641H51.8145C51.834 422.867 52.084 422.33 52.5645 422.029C53.0488 421.725 53.6094 421.572 54.2461 421.572C54.9844 421.572 55.584 421.713 56.0449 421.994C56.502 422.275 56.7305 422.713 56.7305 423.307V426.922C56.7305 427.031 56.752 427.119 56.7949 427.186C56.8418 427.252 56.9375 427.285 57.082 427.285C57.1289 427.285 57.1816 427.283 57.2402 427.279C57.2988 427.271 57.3613 427.262 57.4277 427.25V428.029C57.2637 428.076 57.1387 428.105 57.0527 428.117C56.9668 428.129 56.8496 428.135 56.7012 428.135C56.3379 428.135 56.0742 428.006 55.9102 427.748C55.8242 427.611 55.7637 427.418 55.7285 427.168C55.5137 427.449 55.2051 427.693 54.8027 427.9C54.4004 428.107 53.957 428.211 53.4727 428.211C52.8906 428.211 52.4141 428.035 52.043 427.684C51.6758 427.328 51.4922 426.885 51.4922 426.354C51.4922 425.771 51.6738 425.32 52.0371 425C52.4004 424.68 52.877 424.482 53.4668 424.408L55.1484 424.197ZM58.4941 421.725H59.4961V422.809C59.5781 422.598 59.7793 422.342 60.0996 422.041C60.4199 421.736 60.7891 421.584 61.207 421.584C61.2266 421.584 61.2598 421.586 61.3066 421.59C61.3535 421.594 61.4336 421.602 61.5469 421.613V422.727C61.4844 422.715 61.4258 422.707 61.3711 422.703C61.3203 422.699 61.2637 422.697 61.2012 422.697C60.6699 422.697 60.2617 422.869 59.9766 423.213C59.6914 423.553 59.5488 423.945 59.5488 424.391V428H58.4941V421.725ZM29.4199 433.754H30.4922V440H29.4199V433.754ZM29.4199 431.393H30.4922V432.588H29.4199V431.393ZM32.0918 433.725H33.1348V434.615C33.3848 434.307 33.6113 434.082 33.8145 433.941C34.1621 433.703 34.5566 433.584 34.998 433.584C35.498 433.584 35.9004 433.707 36.2051 433.953C36.377 434.094 36.5332 434.301 36.6738 434.574C36.9082 434.238 37.1836 433.99 37.5 433.83C37.8164 433.666 38.1719 433.584 38.5664 433.584C39.4102 433.584 39.9844 433.889 40.2891 434.498C40.4531 434.826 40.5352 435.268 40.5352 435.822V440H39.4395V435.641C39.4395 435.223 39.334 434.936 39.123 434.779C38.916 434.623 38.6621 434.545 38.3613 434.545C37.9473 434.545 37.5898 434.684 37.2891 434.961C36.9922 435.238 36.8438 435.701 36.8438 436.35V440H35.7715V435.904C35.7715 435.479 35.7207 435.168 35.6191 434.973C35.459 434.68 35.1602 434.533 34.7227 434.533C34.3242 434.533 33.9609 434.688 33.6328 434.996C33.3086 435.305 33.1465 435.863 33.1465 436.672V440H32.0918V433.725ZM42.8965 438.33C42.8965 438.635 43.0078 438.875 43.2305 439.051C43.4531 439.227 43.7168 439.314 44.0215 439.314C44.3926 439.314 44.752 439.229 45.0996 439.057C45.6855 438.771 45.9785 438.305 45.9785 437.656V436.807C45.8496 436.889 45.6836 436.957 45.4805 437.012C45.2773 437.066 45.0781 437.105 44.8828 437.129L44.2441 437.211C43.8613 437.262 43.5742 437.342 43.3828 437.451C43.0586 437.635 42.8965 437.928 42.8965 438.33ZM45.4512 436.197C45.6934 436.166 45.8555 436.064 45.9375 435.893C45.9844 435.799 46.0078 435.664 46.0078 435.488C46.0078 435.129 45.8789 434.869 45.6211 434.709C45.3672 434.545 45.002 434.463 44.5254 434.463C43.9746 434.463 43.584 434.611 43.3535 434.908C43.2246 435.072 43.1406 435.316 43.1016 435.641H42.1172C42.1367 434.867 42.3867 434.33 42.8672 434.029C43.3516 433.725 43.9121 433.572 44.5488 433.572C45.2871 433.572 45.8867 433.713 46.3477 433.994C46.8047 434.275 47.0332 434.713 47.0332 435.307V438.922C47.0332 439.031 47.0547 439.119 47.0977 439.186C47.1445 439.252 47.2402 439.285 47.3848 439.285C47.4316 439.285 47.4844 439.283 47.543 439.279C47.6016 439.271 47.6641 439.262 47.7305 439.25V440.029C47.5664 440.076 47.4414 440.105 47.3555 440.117C47.2695 440.129 47.1523 440.135 47.0039 440.135C46.6406 440.135 46.377 440.006 46.2129 439.748C46.127 439.611 46.0664 439.418 46.0312 439.168C45.8164 439.449 45.5078 439.693 45.1055 439.9C44.7031 440.107 44.2598 440.211 43.7754 440.211C43.1934 440.211 42.7168 440.035 42.3457 439.684C41.9785 439.328 41.7949 438.885 41.7949 438.354C41.7949 437.771 41.9766 437.32 42.3398 437C42.7031 436.68 43.1797 436.482 43.7695 436.408L45.4512 436.197ZM50.9824 433.613C51.4746 433.613 51.9043 433.734 52.2715 433.977C52.4707 434.113 52.6738 434.312 52.8809 434.574V433.783H53.8535V439.49C53.8535 440.287 53.7363 440.916 53.502 441.377C53.0645 442.229 52.2383 442.654 51.0234 442.654C50.3477 442.654 49.7793 442.502 49.3184 442.197C48.8574 441.896 48.5996 441.424 48.5449 440.779H49.6172C49.668 441.061 49.7695 441.277 49.9219 441.43C50.1602 441.664 50.5352 441.781 51.0469 441.781C51.8555 441.781 52.3848 441.496 52.6348 440.926C52.7832 440.59 52.8516 439.99 52.8398 439.127C52.6289 439.447 52.375 439.686 52.0781 439.842C51.7812 439.998 51.3887 440.076 50.9004 440.076C50.2207 440.076 49.625 439.836 49.1133 439.355C48.6055 438.871 48.3516 438.072 48.3516 436.959C48.3516 435.908 48.6074 435.088 49.1191 434.498C49.6348 433.908 50.2559 433.613 50.9824 433.613ZM52.8809 436.836C52.8809 436.059 52.7207 435.482 52.4004 435.107C52.0801 434.732 51.6719 434.545 51.1758 434.545C50.4336 434.545 49.9258 434.893 49.6523 435.588C49.5078 435.959 49.4355 436.445 49.4355 437.047C49.4355 437.754 49.5781 438.293 49.8633 438.664C50.1523 439.031 50.5391 439.215 51.0234 439.215C51.7812 439.215 52.3145 438.873 52.623 438.189C52.7949 437.803 52.8809 437.352 52.8809 436.836ZM58.0605 433.584C58.5059 433.584 58.9375 433.689 59.3555 433.9C59.7734 434.107 60.0918 434.377 60.3105 434.709C60.5215 435.025 60.6621 435.395 60.7324 435.816C60.7949 436.105 60.8262 436.566 60.8262 437.199H56.2266C56.2461 437.836 56.3965 438.348 56.6777 438.734C56.959 439.117 57.3945 439.309 57.9844 439.309C58.5352 439.309 58.9746 439.127 59.3027 438.764C59.4902 438.553 59.623 438.309 59.7012 438.031H60.7383C60.7109 438.262 60.6191 438.52 60.4629 438.805C60.3105 439.086 60.1387 439.316 59.9473 439.496C59.627 439.809 59.2305 440.02 58.7578 440.129C58.5039 440.191 58.2168 440.223 57.8965 440.223C57.1152 440.223 56.4531 439.939 55.9102 439.373C55.3672 438.803 55.0957 438.006 55.0957 436.982C55.0957 435.975 55.3691 435.156 55.916 434.527C56.4629 433.898 57.1777 433.584 58.0605 433.584ZM59.7422 436.361C59.6992 435.904 59.5996 435.539 59.4434 435.266C59.1543 434.758 58.6719 434.504 57.9961 434.504C57.5117 434.504 57.1055 434.68 56.7773 435.031C56.4492 435.379 56.2754 435.822 56.2559 436.361H59.7422Z" fill="#CCCCCC"/>
</g>
<path id="Vector_5" d="M85 421.25L75 430L85 438.75L85 421.25Z" fill="#EEEEEE"/>
</g>
<g id="Frame 12_6" clip-path="url(#clip6)">
<rect width="245" height="67" transform="translate(85 405)" fill="#EEEEEE"/>
<rect id="Rectangle 7_4" x="95" y="415" width="215" height="10" fill="#666666"/>
<rect id="Rectangle 12_2" x="95" y="426" width="223" height="10" fill="#666666"/>
<rect id="Rectangle 15_2" x="95" y="437" width="206" height="10" fill="#666666"/>
<rect id="Rectangle 11_6" x="95" y="448" width="225" height="3" fill="#EEEEEE"/>
<g id="Frame 15_9">
<rect id="Rectangle 13_6" x="95" y="452" width="50" height="10" fill="#CCCCCC"/>
<rect id="Rectangle 16_6" x="150" y="452" width="50" height="10" fill="#CCCCCC"/>
</g>
</g>
</g>
<g id="Frame 24">
<g id="talk-right_4">
<g id="Frame 12_7" clip-path="url(#clip7)">
<rect width="245" height="67" transform="translate(20 487)" fill="#EEEEEE"/>
<rect id="Rectangle 7_5" x="40" y="497" width="215" height="10" fill="#666666"/>
<rect id="Rectangle 14_5" x="40" y="508" width="215" height="10" fill="#666666"/>
</g>
<g id="Frame 15_10">
<path id="Vector_6" d="M265 520.75L275 512L265 503.25V520.75Z" fill="#EEEEEE"/>
<g id="avatar_7">
<rect width="50" height="50" transform="translate(280 487)" fill="#CCCCCC"/>
<path id="avatar image_6" d="M289.895 508.33C289.895 508.635 290.006 508.875 290.229 509.051C290.451 509.227 290.715 509.314 291.02 509.314C291.391 509.314 291.75 509.229 292.098 509.057C292.684 508.771 292.977 508.305 292.977 507.656V506.807C292.848 506.889 292.682 506.957 292.479 507.012C292.275 507.066 292.076 507.105 291.881 507.129L291.242 507.211C290.859 507.262 290.572 507.342 290.381 507.451C290.057 507.635 289.895 507.928 289.895 508.33ZM292.449 506.197C292.691 506.166 292.854 506.064 292.936 505.893C292.982 505.799 293.006 505.664 293.006 505.488C293.006 505.129 292.877 504.869 292.619 504.709C292.365 504.545 292 504.463 291.523 504.463C290.973 504.463 290.582 504.611 290.352 504.908C290.223 505.072 290.139 505.316 290.1 505.641H289.115C289.135 504.867 289.385 504.33 289.865 504.029C290.35 503.725 290.91 503.572 291.547 503.572C292.285 503.572 292.885 503.713 293.346 503.994C293.803 504.275 294.031 504.713 294.031 505.307V508.922C294.031 509.031 294.053 509.119 294.096 509.186C294.143 509.252 294.238 509.285 294.383 509.285C294.43 509.285 294.482 509.283 294.541 509.279C294.6 509.271 294.662 509.262 294.729 509.25V510.029C294.564 510.076 294.439 510.105 294.354 510.117C294.268 510.129 294.15 510.135 294.002 510.135C293.639 510.135 293.375 510.006 293.211 509.748C293.125 509.611 293.064 509.418 293.029 509.168C292.814 509.449 292.506 509.693 292.104 509.9C291.701 510.107 291.258 510.211 290.773 510.211C290.191 510.211 289.715 510.035 289.344 509.684C288.977 509.328 288.793 508.885 288.793 508.354C288.793 507.771 288.975 507.32 289.338 507C289.701 506.68 290.178 506.482 290.768 506.408L292.449 506.197ZM296.281 503.725L297.957 508.834L299.709 503.725H300.863L298.496 510H297.371L295.057 503.725H296.281ZM302.574 508.33C302.574 508.635 302.686 508.875 302.908 509.051C303.131 509.227 303.395 509.314 303.699 509.314C304.07 509.314 304.43 509.229 304.777 509.057C305.363 508.771 305.656 508.305 305.656 507.656V506.807C305.527 506.889 305.361 506.957 305.158 507.012C304.955 507.066 304.756 507.105 304.561 507.129L303.922 507.211C303.539 507.262 303.252 507.342 303.061 507.451C302.736 507.635 302.574 507.928 302.574 508.33ZM305.129 506.197C305.371 506.166 305.533 506.064 305.615 505.893C305.662 505.799 305.686 505.664 305.686 505.488C305.686 505.129 305.557 504.869 305.299 504.709C305.045 504.545 304.68 504.463 304.203 504.463C303.652 504.463 303.262 504.611 303.031 504.908C302.902 505.072 302.818 505.316 302.779 505.641H301.795C301.814 504.867 302.064 504.33 302.545 504.029C303.029 503.725 303.59 503.572 304.227 503.572C304.965 503.572 305.564 503.713 306.025 503.994C306.482 504.275 306.711 504.713 306.711 505.307V508.922C306.711 509.031 306.732 509.119 306.775 509.186C306.822 509.252 306.918 509.285 307.062 509.285C307.109 509.285 307.162 509.283 307.221 509.279C307.279 509.271 307.342 509.262 307.408 509.25V510.029C307.244 510.076 307.119 510.105 307.033 510.117C306.947 510.129 306.83 510.135 306.682 510.135C306.318 510.135 306.055 510.006 305.891 509.748C305.805 509.611 305.744 509.418 305.709 509.168C305.494 509.449 305.186 509.693 304.783 509.9C304.381 510.107 303.938 510.211 303.453 510.211C302.871 510.211 302.395 510.035 302.023 509.684C301.656 509.328 301.473 508.885 301.473 508.354C301.473 507.771 301.654 507.32 302.018 507C302.381 506.68 302.857 506.482 303.447 506.408L305.129 506.197ZM308.656 501.973H309.723V503.725H310.725V504.586H309.723V508.682C309.723 508.9 309.797 509.047 309.945 509.121C310.027 509.164 310.164 509.186 310.355 509.186C310.406 509.186 310.461 509.186 310.52 509.186C310.578 509.182 310.646 509.176 310.725 509.168V510C310.604 510.035 310.477 510.061 310.344 510.076C310.215 510.092 310.074 510.1 309.922 510.1C309.43 510.1 309.096 509.975 308.92 509.725C308.744 509.471 308.656 509.143 308.656 508.74V504.586H307.807V503.725H308.656V501.973ZM312.594 508.33C312.594 508.635 312.705 508.875 312.928 509.051C313.15 509.227 313.414 509.314 313.719 509.314C314.09 509.314 314.449 509.229 314.797 509.057C315.383 508.771 315.676 508.305 315.676 507.656V506.807C315.547 506.889 315.381 506.957 315.178 507.012C314.975 507.066 314.775 507.105 314.58 507.129L313.941 507.211C313.559 507.262 313.271 507.342 313.08 507.451C312.756 507.635 312.594 507.928 312.594 508.33ZM315.148 506.197C315.391 506.166 315.553 506.064 315.635 505.893C315.682 505.799 315.705 505.664 315.705 505.488C315.705 505.129 315.576 504.869 315.318 504.709C315.064 504.545 314.699 504.463 314.223 504.463C313.672 504.463 313.281 504.611 313.051 504.908C312.922 505.072 312.838 505.316 312.799 505.641H311.814C311.834 504.867 312.084 504.33 312.564 504.029C313.049 503.725 313.609 503.572 314.246 503.572C314.984 503.572 315.584 503.713 316.045 503.994C316.502 504.275 316.73 504.713 316.73 505.307V508.922C316.73 509.031 316.752 509.119 316.795 509.186C316.842 509.252 316.938 509.285 317.082 509.285C317.129 509.285 317.182 509.283 317.24 509.279C317.299 509.271 317.361 509.262 317.428 509.25V510.029C317.264 510.076 317.139 510.105 317.053 510.117C316.967 510.129 316.85 510.135 316.701 510.135C316.338 510.135 316.074 510.006 315.91 509.748C315.824 509.611 315.764 509.418 315.729 509.168C315.514 509.449 315.205 509.693 314.803 509.9C314.4 510.107 313.957 510.211 313.473 510.211C312.891 510.211 312.414 510.035 312.043 509.684C311.676 509.328 311.492 508.885 311.492 508.354C311.492 507.771 311.674 507.32 312.037 507C312.4 506.68 312.877 506.482 313.467 506.408L315.148 506.197ZM318.494 503.725H319.496V504.809C319.578 504.598 319.779 504.342 320.1 504.041C320.42 503.736 320.789 503.584 321.207 503.584C321.227 503.584 321.26 503.586 321.307 503.59C321.354 503.594 321.434 503.602 321.547 503.613V504.727C321.484 504.715 321.426 504.707 321.371 504.703C321.32 504.699 321.264 504.697 321.201 504.697C320.67 504.697 320.262 504.869 319.977 505.213C319.691 505.553 319.549 505.945 319.549 506.391V510H318.494V503.725ZM289.42 515.754H290.492V522H289.42V515.754ZM289.42 513.393H290.492V514.588H289.42V513.393ZM292.092 515.725H293.135V516.615C293.385 516.307 293.611 516.082 293.814 515.941C294.162 515.703 294.557 515.584 294.998 515.584C295.498 515.584 295.9 515.707 296.205 515.953C296.377 516.094 296.533 516.301 296.674 516.574C296.908 516.238 297.184 515.99 297.5 515.83C297.816 515.666 298.172 515.584 298.566 515.584C299.41 515.584 299.984 515.889 300.289 516.498C300.453 516.826 300.535 517.268 300.535 517.822V522H299.439V517.641C299.439 517.223 299.334 516.936 299.123 516.779C298.916 516.623 298.662 516.545 298.361 516.545C297.947 516.545 297.59 516.684 297.289 516.961C296.992 517.238 296.844 517.701 296.844 518.35V522H295.771V517.904C295.771 517.479 295.721 517.168 295.619 516.973C295.459 516.68 295.16 516.533 294.723 516.533C294.324 516.533 293.961 516.688 293.633 516.996C293.309 517.305 293.146 517.863 293.146 518.672V522H292.092V515.725ZM302.896 520.33C302.896 520.635 303.008 520.875 303.23 521.051C303.453 521.227 303.717 521.314 304.021 521.314C304.393 521.314 304.752 521.229 305.1 521.057C305.686 520.771 305.979 520.305 305.979 519.656V518.807C305.85 518.889 305.684 518.957 305.48 519.012C305.277 519.066 305.078 519.105 304.883 519.129L304.244 519.211C303.861 519.262 303.574 519.342 303.383 519.451C303.059 519.635 302.896 519.928 302.896 520.33ZM305.451 518.197C305.693 518.166 305.855 518.064 305.938 517.893C305.984 517.799 306.008 517.664 306.008 517.488C306.008 517.129 305.879 516.869 305.621 516.709C305.367 516.545 305.002 516.463 304.525 516.463C303.975 516.463 303.584 516.611 303.354 516.908C303.225 517.072 303.141 517.316 303.102 517.641H302.117C302.137 516.867 302.387 516.33 302.867 516.029C303.352 515.725 303.912 515.572 304.549 515.572C305.287 515.572 305.887 515.713 306.348 515.994C306.805 516.275 307.033 516.713 307.033 517.307V520.922C307.033 521.031 307.055 521.119 307.098 521.186C307.145 521.252 307.24 521.285 307.385 521.285C307.432 521.285 307.484 521.283 307.543 521.279C307.602 521.271 307.664 521.262 307.73 521.25V522.029C307.566 522.076 307.441 522.105 307.355 522.117C307.27 522.129 307.152 522.135 307.004 522.135C306.641 522.135 306.377 522.006 306.213 521.748C306.127 521.611 306.066 521.418 306.031 521.168C305.816 521.449 305.508 521.693 305.105 521.9C304.703 522.107 304.26 522.211 303.775 522.211C303.193 522.211 302.717 522.035 302.346 521.684C301.979 521.328 301.795 520.885 301.795 520.354C301.795 519.771 301.977 519.32 302.34 519C302.703 518.68 303.18 518.482 303.77 518.408L305.451 518.197ZM310.982 515.613C311.475 515.613 311.904 515.734 312.271 515.977C312.471 516.113 312.674 516.312 312.881 516.574V515.783H313.854V521.49C313.854 522.287 313.736 522.916 313.502 523.377C313.064 524.229 312.238 524.654 311.023 524.654C310.348 524.654 309.779 524.502 309.318 524.197C308.857 523.896 308.6 523.424 308.545 522.779H309.617C309.668 523.061 309.77 523.277 309.922 523.43C310.16 523.664 310.535 523.781 311.047 523.781C311.855 523.781 312.385 523.496 312.635 522.926C312.783 522.59 312.852 521.99 312.84 521.127C312.629 521.447 312.375 521.686 312.078 521.842C311.781 521.998 311.389 522.076 310.9 522.076C310.221 522.076 309.625 521.836 309.113 521.355C308.605 520.871 308.352 520.072 308.352 518.959C308.352 517.908 308.607 517.088 309.119 516.498C309.635 515.908 310.256 515.613 310.982 515.613ZM312.881 518.836C312.881 518.059 312.721 517.482 312.4 517.107C312.08 516.732 311.672 516.545 311.176 516.545C310.434 516.545 309.926 516.893 309.652 517.588C309.508 517.959 309.436 518.445 309.436 519.047C309.436 519.754 309.578 520.293 309.863 520.664C310.152 521.031 310.539 521.215 311.023 521.215C311.781 521.215 312.314 520.873 312.623 520.189C312.795 519.803 312.881 519.352 312.881 518.836ZM318.061 515.584C318.506 515.584 318.938 515.689 319.355 515.9C319.773 516.107 320.092 516.377 320.311 516.709C320.521 517.025 320.662 517.395 320.732 517.816C320.795 518.105 320.826 518.566 320.826 519.199H316.227C316.246 519.836 316.396 520.348 316.678 520.734C316.959 521.117 317.395 521.309 317.984 521.309C318.535 521.309 318.975 521.127 319.303 520.764C319.49 520.553 319.623 520.309 319.701 520.031H320.738C320.711 520.262 320.619 520.52 320.463 520.805C320.311 521.086 320.139 521.316 319.947 521.496C319.627 521.809 319.23 522.02 318.758 522.129C318.504 522.191 318.217 522.223 317.896 522.223C317.115 522.223 316.453 521.939 315.91 521.373C315.367 520.803 315.096 520.006 315.096 518.982C315.096 517.975 315.369 517.156 315.916 516.527C316.463 515.898 317.178 515.584 318.061 515.584ZM319.742 518.361C319.699 517.904 319.6 517.539 319.443 517.266C319.154 516.758 318.672 516.504 317.996 516.504C317.512 516.504 317.105 516.68 316.777 517.031C316.449 517.379 316.275 517.822 316.256 518.361H319.742Z" fill="#CCCCCC"/>
</g>
</g>
</g>
</g>
</g>
<defs>
<clipPath id="clip0">
<rect width="350" height="517" fill="white"/>
</clipPath>
<clipPath id="clip1">
<rect width="65" height="50" fill="white" transform="translate(20 55)"/>
</clipPath>
<clipPath id="clip2">
<rect width="65" height="50" fill="white" transform="translate(20 252)"/>
</clipPath>
<clipPath id="clip3">
<rect width="245" height="56" fill="white" transform="translate(85 252)"/>
</clipPath>
<clipPath id="clip4">
<rect width="245" height="67" fill="white" transform="translate(20 323)"/>
</clipPath>
<clipPath id="clip5">
<rect width="65" height="50" fill="white" transform="translate(20 405)"/>
</clipPath>
<clipPath id="clip6">
<rect width="245" height="67" fill="white" transform="translate(85 405)"/>
</clipPath>
<clipPath id="clip7">
<rect width="245" height="67" fill="white" transform="translate(20 487)"/>
</clipPath>
</defs>
</svg>
