<svg width="350" height="464" viewBox="0 0 350 464" fill="none" xmlns="http://www.w3.org/2000/svg">
<g id="story1-1" clip-path="url(#clip0)">
<g id="Frame 3">
<path id="Results for" d="M23.1719 29.6738V32.3809H25.5576C26.0316 32.3809 26.387 32.3262 26.624 32.2168C27.0433 32.0254 27.2529 31.6471 27.2529 31.082C27.2529 30.4714 27.0501 30.0612 26.6445 29.8516C26.4167 29.7331 26.0749 29.6738 25.6191 29.6738H23.1719ZM26.0566 27.9238C26.763 27.9375 27.3053 28.0241 27.6836 28.1836C28.0664 28.3431 28.39 28.5778 28.6543 28.8877C28.873 29.1429 29.0462 29.4255 29.1738 29.7354C29.3014 30.0452 29.3652 30.3984 29.3652 30.7949C29.3652 31.2734 29.2445 31.7451 29.0029 32.21C28.7614 32.6702 28.3626 32.9961 27.8066 33.1875C28.2715 33.3743 28.5996 33.641 28.791 33.9873C28.987 34.3291 29.085 34.8532 29.085 35.5596V36.2363C29.085 36.6966 29.1032 37.0088 29.1396 37.1729C29.1943 37.4326 29.3219 37.624 29.5225 37.7471V38H27.2051C27.1413 37.7767 27.0957 37.5967 27.0684 37.46C27.0137 37.1774 26.984 36.888 26.9795 36.5918L26.9658 35.6553C26.9567 35.0127 26.8382 34.5843 26.6104 34.3701C26.387 34.1559 25.9655 34.0488 25.3457 34.0488H23.1719V38H21.1143V27.9238H26.0566ZM33.9658 31.957C33.5146 31.957 33.1637 32.0983 32.9131 32.3809C32.667 32.6634 32.512 33.0462 32.4482 33.5293H35.4766C35.4447 33.0143 35.2874 32.6247 35.0049 32.3604C34.7269 32.0915 34.3805 31.957 33.9658 31.957ZM33.9658 30.3506C34.5856 30.3506 35.1439 30.4668 35.6406 30.6992C36.1374 30.9316 36.5475 31.2985 36.8711 31.7998C37.1628 32.2419 37.3519 32.7546 37.4385 33.3379C37.4886 33.6797 37.5091 34.1719 37.5 34.8145H32.4004C32.4277 35.5618 32.6624 36.0859 33.1045 36.3867C33.3734 36.5736 33.6969 36.667 34.0752 36.667C34.4762 36.667 34.8021 36.5531 35.0527 36.3252C35.1895 36.2021 35.3102 36.0312 35.415 35.8125H37.4043C37.3542 36.2546 37.124 36.7035 36.7139 37.1592C36.0758 37.8838 35.1826 38.2461 34.0342 38.2461C33.0863 38.2461 32.25 37.9408 31.5254 37.3301C30.8008 36.7194 30.4385 35.7259 30.4385 34.3496C30.4385 33.0599 30.7643 32.071 31.416 31.3828C32.0723 30.6947 32.9222 30.3506 33.9658 30.3506ZM40.3369 35.6211C40.3779 35.9674 40.4668 36.2135 40.6035 36.3594C40.8451 36.6191 41.2917 36.749 41.9434 36.749C42.3262 36.749 42.6292 36.6921 42.8525 36.5781C43.0804 36.4642 43.1943 36.2933 43.1943 36.0654C43.1943 35.8467 43.1032 35.6803 42.9209 35.5664C42.7386 35.4525 42.0618 35.2565 40.8906 34.9785C40.0475 34.7689 39.4528 34.5068 39.1064 34.1924C38.7601 33.8825 38.5869 33.4359 38.5869 32.8525C38.5869 32.1644 38.8558 31.5742 39.3936 31.082C39.9359 30.5853 40.6969 30.3369 41.6768 30.3369C42.6064 30.3369 43.363 30.5238 43.9463 30.8975C44.5342 31.2666 44.8714 31.9069 44.958 32.8184H43.0098C42.9824 32.5677 42.9118 32.3695 42.7979 32.2236C42.5837 31.9593 42.2191 31.8271 41.7041 31.8271C41.2803 31.8271 40.9772 31.8932 40.7949 32.0254C40.6172 32.1576 40.5283 32.3125 40.5283 32.4902C40.5283 32.7135 40.624 32.8753 40.8154 32.9756C41.0068 33.0804 41.6836 33.2604 42.8457 33.5156C43.6204 33.6979 44.2015 33.9736 44.5889 34.3428C44.9717 34.7165 45.1631 35.1836 45.1631 35.7441C45.1631 36.4824 44.8874 37.0863 44.3359 37.5557C43.7891 38.0205 42.9414 38.2529 41.793 38.2529C40.6217 38.2529 39.7559 38.0068 39.1953 37.5146C38.6393 37.0179 38.3613 36.3867 38.3613 35.6211H40.3369ZM48.5537 30.5488V35.04C48.5537 35.4639 48.6038 35.7829 48.7041 35.9971C48.8818 36.3753 49.2305 36.5645 49.75 36.5645C50.4154 36.5645 50.8711 36.2956 51.1172 35.7578C51.2448 35.4661 51.3086 35.0811 51.3086 34.6025V30.5488H53.2842V38H51.3906V36.9473C51.3724 36.9701 51.3268 37.0384 51.2539 37.1523C51.181 37.2663 51.0944 37.3665 50.9941 37.4531C50.6888 37.7266 50.3926 37.9134 50.1055 38.0137C49.8229 38.1139 49.4902 38.1641 49.1074 38.1641C48.0046 38.1641 47.2617 37.7676 46.8789 36.9746C46.6647 36.5371 46.5576 35.8923 46.5576 35.04V30.5488H48.5537ZM57.1602 38H55.2119V27.9238H57.1602V38ZM58.3018 32.0049V30.6172H59.3408V28.5391H61.2686V30.6172H62.4785V32.0049H61.2686V35.9424C61.2686 36.2477 61.3073 36.4391 61.3848 36.5166C61.4622 36.5895 61.6992 36.626 62.0957 36.626C62.1549 36.626 62.2165 36.626 62.2803 36.626C62.3486 36.6214 62.4147 36.6169 62.4785 36.6123V38.0684L61.5557 38.1025C60.6351 38.1344 60.0062 37.9749 59.6689 37.624C59.4502 37.4007 59.3408 37.0566 59.3408 36.5918V32.0049H58.3018ZM65.2471 35.6211C65.2881 35.9674 65.377 36.2135 65.5137 36.3594C65.7552 36.6191 66.2018 36.749 66.8535 36.749C67.2363 36.749 67.5394 36.6921 67.7627 36.5781C67.9906 36.4642 68.1045 36.2933 68.1045 36.0654C68.1045 35.8467 68.0133 35.6803 67.8311 35.5664C67.6488 35.4525 66.972 35.2565 65.8008 34.9785C64.9577 34.7689 64.363 34.5068 64.0166 34.1924C63.6702 33.8825 63.4971 33.4359 63.4971 32.8525C63.4971 32.1644 63.766 31.5742 64.3037 31.082C64.846 30.5853 65.6071 30.3369 66.5869 30.3369C67.5166 30.3369 68.2731 30.5238 68.8564 30.8975C69.4443 31.2666 69.7816 31.9069 69.8682 32.8184H67.9199C67.8926 32.5677 67.8219 32.3695 67.708 32.2236C67.4938 31.9593 67.1292 31.8271 66.6143 31.8271C66.1904 31.8271 65.8874 31.8932 65.7051 32.0254C65.5273 32.1576 65.4385 32.3125 65.4385 32.4902C65.4385 32.7135 65.5342 32.8753 65.7256 32.9756C65.917 33.0804 66.5938 33.2604 67.7559 33.5156C68.5306 33.6979 69.1117 33.9736 69.499 34.3428C69.8818 34.7165 70.0732 35.1836 70.0732 35.7441C70.0732 36.4824 69.7975 37.0863 69.2461 37.5557C68.6992 38.0205 67.8516 38.2529 66.7031 38.2529C65.5319 38.2529 64.666 38.0068 64.1055 37.5146C63.5495 37.0179 63.2715 36.3867 63.2715 35.6211H65.2471ZM78.167 27.8213C78.29 27.8213 78.4017 27.8258 78.502 27.835C78.6022 27.8395 78.7389 27.8486 78.9121 27.8623V29.4482C78.8027 29.4346 78.6182 29.4255 78.3584 29.4209C78.1032 29.4118 77.9255 29.4688 77.8252 29.5918C77.7295 29.7103 77.6816 29.8424 77.6816 29.9883C77.6816 30.1341 77.6816 30.3438 77.6816 30.6172H78.96V31.9912H77.6816V38H75.7402V31.9912H74.6533V30.6172H75.7197V30.1387C75.7197 29.3411 75.8542 28.792 76.123 28.4912C76.4056 28.0446 77.0869 27.8213 78.167 27.8213ZM83.4238 36.626C83.9935 36.626 84.431 36.4232 84.7363 36.0176C85.0417 35.612 85.1943 35.0355 85.1943 34.2881C85.1943 33.5407 85.0417 32.9665 84.7363 32.5654C84.431 32.1598 83.9935 31.957 83.4238 31.957C82.8542 31.957 82.4144 32.1598 82.1045 32.5654C81.7992 32.9665 81.6465 33.5407 81.6465 34.2881C81.6465 35.0355 81.7992 35.612 82.1045 36.0176C82.4144 36.4232 82.8542 36.626 83.4238 36.626ZM87.2383 34.2881C87.2383 35.3818 86.9238 36.3184 86.2949 37.0977C85.666 37.8724 84.7113 38.2598 83.4307 38.2598C82.1501 38.2598 81.1953 37.8724 80.5664 37.0977C79.9375 36.3184 79.623 35.3818 79.623 34.2881C79.623 33.2126 79.9375 32.2806 80.5664 31.4922C81.1953 30.7038 82.1501 30.3096 83.4307 30.3096C84.7113 30.3096 85.666 30.7038 86.2949 31.4922C86.9238 32.2806 87.2383 33.2126 87.2383 34.2881ZM92.6865 30.3711C92.723 30.3711 92.7526 30.3734 92.7754 30.3779C92.8027 30.3779 92.8597 30.3802 92.9463 30.3848V32.3809C92.8232 32.3672 92.7139 32.3581 92.6182 32.3535C92.5225 32.349 92.445 32.3467 92.3857 32.3467C91.6019 32.3467 91.0755 32.6019 90.8066 33.1123C90.6562 33.3994 90.5811 33.8415 90.5811 34.4385V38H88.6191V30.5488H90.4785V31.8477C90.7793 31.3509 91.0413 31.0114 91.2646 30.8291C91.6292 30.5238 92.1032 30.3711 92.6865 30.3711Z" fill="black"/>
<g id="Frame 1">
<rect x="99" y="20" width="69" height="26" rx="13" fill="#EEEEEE"/>
<path id="#offer" d="M118.177 34.1172L118.73 32.1211H117.596L117.062 34.1172H118.177ZM114.308 34.1172H115.695L116.235 32.1211H114.841L115.148 30.9727H116.543L117.288 28.2178H118.648L117.903 30.9727H119.038L119.763 28.2178H121.123L120.398 30.9727H121.772L121.465 32.1211H120.091L119.537 34.1172H120.932L120.624 35.2656H119.229L118.498 38H117.138L117.869 35.2656H116.748L116.003 38H114.643L115.388 35.2656H114L114.308 34.1172ZM126.045 36.626C126.615 36.626 127.052 36.4232 127.357 36.0176C127.663 35.612 127.815 35.0355 127.815 34.2881C127.815 33.5407 127.663 32.9665 127.357 32.5654C127.052 32.1598 126.615 31.957 126.045 31.957C125.475 31.957 125.035 32.1598 124.726 32.5654C124.42 32.9665 124.268 33.5407 124.268 34.2881C124.268 35.0355 124.42 35.612 124.726 36.0176C125.035 36.4232 125.475 36.626 126.045 36.626ZM129.859 34.2881C129.859 35.3818 129.545 36.3184 128.916 37.0977C128.287 37.8724 127.332 38.2598 126.052 38.2598C124.771 38.2598 123.816 37.8724 123.188 37.0977C122.559 36.3184 122.244 35.3818 122.244 34.2881C122.244 33.2126 122.559 32.2806 123.188 31.4922C123.816 30.7038 124.771 30.3096 126.052 30.3096C127.332 30.3096 128.287 30.7038 128.916 31.4922C129.545 32.2806 129.859 33.2126 129.859 34.2881ZM134.009 27.8213C134.132 27.8213 134.243 27.8258 134.344 27.835C134.444 27.8395 134.581 27.8486 134.754 27.8623V29.4482C134.645 29.4346 134.46 29.4255 134.2 29.4209C133.945 29.4118 133.767 29.4688 133.667 29.5918C133.571 29.7103 133.523 29.8424 133.523 29.9883C133.523 30.1341 133.523 30.3438 133.523 30.6172H134.802V31.9912H133.523V38H131.582V31.9912H130.495V30.6172H131.562V30.1387C131.562 29.3411 131.696 28.792 131.965 28.4912C132.247 28.0446 132.929 27.8213 134.009 27.8213ZM138.671 27.8213C138.794 27.8213 138.906 27.8258 139.006 27.835C139.106 27.8395 139.243 27.8486 139.416 27.8623V29.4482C139.307 29.4346 139.122 29.4255 138.862 29.4209C138.607 29.4118 138.429 29.4688 138.329 29.5918C138.233 29.7103 138.186 29.8424 138.186 29.9883C138.186 30.1341 138.186 30.3438 138.186 30.6172H139.464V31.9912H138.186V38H136.244V31.9912H135.157V30.6172H136.224V30.1387C136.224 29.3411 136.358 28.792 136.627 28.4912C136.91 28.0446 137.591 27.8213 138.671 27.8213ZM143.524 31.957C143.073 31.957 142.722 32.0983 142.472 32.3809C142.226 32.6634 142.071 33.0462 142.007 33.5293H145.035C145.003 33.0143 144.846 32.6247 144.563 32.3604C144.285 32.0915 143.939 31.957 143.524 31.957ZM143.524 30.3506C144.144 30.3506 144.702 30.4668 145.199 30.6992C145.696 30.9316 146.106 31.2985 146.43 31.7998C146.721 32.2419 146.91 32.7546 146.997 33.3379C147.047 33.6797 147.068 34.1719 147.059 34.8145H141.959C141.986 35.5618 142.221 36.0859 142.663 36.3867C142.932 36.5736 143.256 36.667 143.634 36.667C144.035 36.667 144.361 36.5531 144.611 36.3252C144.748 36.2021 144.869 36.0312 144.974 35.8125H146.963C146.913 36.2546 146.683 36.7035 146.272 37.1592C145.634 37.8838 144.741 38.2461 143.593 38.2461C142.645 38.2461 141.809 37.9408 141.084 37.3301C140.359 36.7194 139.997 35.7259 139.997 34.3496C139.997 33.0599 140.323 32.071 140.975 31.3828C141.631 30.6947 142.481 30.3506 143.524 30.3506ZM152.425 30.3711C152.461 30.3711 152.491 30.3734 152.514 30.3779C152.541 30.3779 152.598 30.3802 152.685 30.3848V32.3809C152.562 32.3672 152.452 32.3581 152.356 32.3535C152.261 32.349 152.183 32.3467 152.124 32.3467C151.34 32.3467 150.814 32.6019 150.545 33.1123C150.395 33.3994 150.319 33.8415 150.319 34.4385V38H148.357V30.5488H150.217V31.8477C150.518 31.3509 150.78 31.0114 151.003 30.8291C151.368 30.5238 151.841 30.3711 152.425 30.3711Z" fill="black"/>
</g>
<path id="and" d="M178.018 34.377C177.895 34.4544 177.769 34.5182 177.642 34.5684C177.519 34.6139 177.348 34.6572 177.129 34.6982L176.691 34.7803C176.281 34.8532 175.987 34.9421 175.81 35.0469C175.509 35.2246 175.358 35.5003 175.358 35.874C175.358 36.2067 175.45 36.4482 175.632 36.5986C175.819 36.7445 176.044 36.8174 176.309 36.8174C176.728 36.8174 177.113 36.6943 177.464 36.4482C177.819 36.2021 178.004 35.7533 178.018 35.1016V34.377ZM176.835 33.4678C177.195 33.4222 177.452 33.3652 177.607 33.2969C177.885 33.1784 178.024 32.9938 178.024 32.7432C178.024 32.4378 177.917 32.2282 177.703 32.1143C177.493 31.9958 177.184 31.9365 176.773 31.9365C176.313 31.9365 175.987 32.0505 175.796 32.2783C175.659 32.4469 175.568 32.6748 175.522 32.9619H173.643C173.684 32.3102 173.866 31.7747 174.189 31.3555C174.704 30.6992 175.589 30.3711 176.842 30.3711C177.658 30.3711 178.382 30.5329 179.016 30.8564C179.649 31.18 179.966 31.7907 179.966 32.6885V36.1064C179.966 36.3434 179.97 36.6305 179.979 36.9678C179.993 37.223 180.032 37.3962 180.096 37.4873C180.16 37.5785 180.255 37.6536 180.383 37.7129V38H178.264C178.204 37.8496 178.163 37.7083 178.141 37.5762C178.118 37.444 178.1 37.2936 178.086 37.125C177.817 37.4167 177.507 37.665 177.156 37.8701C176.737 38.1117 176.263 38.2324 175.734 38.2324C175.06 38.2324 174.502 38.041 174.06 37.6582C173.622 37.2708 173.403 36.724 173.403 36.0176C173.403 35.1016 173.757 34.4385 174.463 34.0283C174.85 33.805 175.42 33.6455 176.172 33.5498L176.835 33.4678ZM185.831 30.3711C186.601 30.3711 187.23 30.5739 187.718 30.9795C188.21 31.3805 188.456 32.0482 188.456 32.9824V38H186.46V33.4678C186.46 33.0758 186.408 32.7751 186.303 32.5654C186.111 32.1826 185.747 31.9912 185.209 31.9912C184.548 31.9912 184.095 32.2715 183.849 32.832C183.721 33.1283 183.657 33.5065 183.657 33.9668V38H181.716V30.5625H183.596V31.6494C183.846 31.2666 184.083 30.9909 184.307 30.8223C184.708 30.5215 185.216 30.3711 185.831 30.3711ZM193.009 30.3711C193.46 30.3711 193.861 30.4714 194.212 30.6719C194.563 30.8678 194.848 31.1413 195.066 31.4922V27.9375H197.042V38H195.148V36.9678C194.87 37.4098 194.554 37.7311 194.198 37.9316C193.843 38.1322 193.401 38.2324 192.872 38.2324C192.002 38.2324 191.268 37.8815 190.671 37.1797C190.078 36.4733 189.782 35.5687 189.782 34.4658C189.782 33.1943 190.074 32.194 190.657 31.4648C191.245 30.7357 192.029 30.3711 193.009 30.3711ZM193.433 36.5918C193.984 36.5918 194.403 36.3867 194.69 35.9766C194.978 35.5664 195.121 35.0355 195.121 34.3838C195.121 33.4723 194.891 32.8206 194.431 32.4287C194.148 32.1917 193.82 32.0732 193.446 32.0732C192.877 32.0732 192.457 32.2897 192.188 32.7227C191.924 33.151 191.792 33.6842 191.792 34.3223C191.792 35.0104 191.926 35.5618 192.195 35.9766C192.469 36.3867 192.881 36.5918 193.433 36.5918Z" fill="black"/>
<g id="Frame 2">
<rect x="203" y="20" width="97" height="26" rx="13" fill="#EEEEEE"/>
<path id="#compost" d="M222.177 34.1172L222.73 32.1211H221.596L221.062 34.1172H222.177ZM218.308 34.1172H219.695L220.235 32.1211H218.841L219.148 30.9727H220.543L221.288 28.2178H222.648L221.903 30.9727H223.038L223.763 28.2178H225.123L224.398 30.9727H225.772L225.465 32.1211H224.091L223.537 34.1172H224.932L224.624 35.2656H223.229L222.498 38H221.138L221.869 35.2656H220.748L220.003 38H218.643L219.388 35.2656H218L218.308 34.1172ZM231.152 33.2217C231.116 32.9437 231.022 32.693 230.872 32.4697C230.653 32.1689 230.314 32.0186 229.854 32.0186C229.197 32.0186 228.748 32.3444 228.507 32.9961C228.379 33.3424 228.315 33.8027 228.315 34.377C228.315 34.9238 228.379 35.3636 228.507 35.6963C228.739 36.3161 229.177 36.626 229.819 36.626C230.275 36.626 230.599 36.5029 230.79 36.2568C230.981 36.0107 231.098 35.6917 231.139 35.2998H233.128C233.082 35.8923 232.868 36.4528 232.485 36.9814C231.875 37.8337 230.97 38.2598 229.771 38.2598C228.573 38.2598 227.691 37.9043 227.126 37.1934C226.561 36.4824 226.278 35.5596 226.278 34.4248C226.278 33.1442 226.59 32.1484 227.215 31.4375C227.839 30.7266 228.701 30.3711 229.799 30.3711C230.733 30.3711 231.496 30.5807 232.089 31C232.686 31.4193 233.039 32.1598 233.148 33.2217H231.152ZM237.838 36.626C238.408 36.626 238.845 36.4232 239.15 36.0176C239.456 35.612 239.608 35.0355 239.608 34.2881C239.608 33.5407 239.456 32.9665 239.15 32.5654C238.845 32.1598 238.408 31.957 237.838 31.957C237.268 31.957 236.828 32.1598 236.519 32.5654C236.213 32.9665 236.061 33.5407 236.061 34.2881C236.061 35.0355 236.213 35.612 236.519 36.0176C236.828 36.4232 237.268 36.626 237.838 36.626ZM241.652 34.2881C241.652 35.3818 241.338 36.3184 240.709 37.0977C240.08 37.8724 239.125 38.2598 237.845 38.2598C236.564 38.2598 235.609 37.8724 234.98 37.0977C234.352 36.3184 234.037 35.3818 234.037 34.2881C234.037 33.2126 234.352 32.2806 234.98 31.4922C235.609 30.7038 236.564 30.3096 237.845 30.3096C239.125 30.3096 240.08 30.7038 240.709 31.4922C241.338 32.2806 241.652 33.2126 241.652 34.2881ZM251.38 30.3848C251.708 30.3848 252.032 30.4486 252.351 30.5762C252.67 30.7038 252.959 30.9271 253.219 31.2461C253.428 31.5059 253.57 31.8249 253.643 32.2031C253.688 32.4538 253.711 32.8206 253.711 33.3037L253.697 38H251.701V33.2559C251.701 32.9733 251.656 32.7409 251.564 32.5586C251.391 32.2122 251.072 32.0391 250.607 32.0391C250.07 32.0391 249.698 32.2624 249.493 32.709C249.388 32.946 249.336 33.2308 249.336 33.5635V38H247.374V33.5635C247.374 33.1214 247.328 32.8001 247.237 32.5996C247.073 32.2396 246.752 32.0596 246.273 32.0596C245.717 32.0596 245.344 32.2396 245.152 32.5996C245.048 32.8047 244.995 33.11 244.995 33.5156V38H243.02V30.5625H244.913V31.6494C245.155 31.262 245.382 30.9863 245.597 30.8223C245.975 30.5306 246.465 30.3848 247.066 30.3848C247.636 30.3848 248.096 30.5101 248.447 30.7607C248.73 30.9932 248.944 31.2917 249.09 31.6562C249.345 31.2188 249.662 30.8975 250.04 30.6924C250.441 30.4873 250.888 30.3848 251.38 30.3848ZM260.643 34.2744C260.643 33.7002 260.51 33.1921 260.246 32.75C259.986 32.3079 259.562 32.0869 258.975 32.0869C258.268 32.0869 257.783 32.4219 257.519 33.0918C257.382 33.4473 257.313 33.8984 257.313 34.4453C257.313 35.3112 257.544 35.9196 258.004 36.2705C258.277 36.4756 258.601 36.5781 258.975 36.5781C259.517 36.5781 259.929 36.3685 260.212 35.9492C260.499 35.5299 260.643 34.9717 260.643 34.2744ZM259.535 30.3848C260.406 30.3848 261.142 30.7061 261.743 31.3486C262.349 31.9912 262.652 32.9346 262.652 34.1787C262.652 35.4912 262.356 36.4915 261.764 37.1797C261.176 37.8678 260.417 38.2119 259.487 38.2119C258.895 38.2119 258.403 38.0638 258.011 37.7676C257.797 37.6035 257.587 37.3643 257.382 37.0498V40.9326H255.454V30.5488H257.32V31.6494C257.53 31.3258 257.753 31.0706 257.99 30.8838C258.423 30.5511 258.938 30.3848 259.535 30.3848ZM267.41 36.626C267.98 36.626 268.417 36.4232 268.723 36.0176C269.028 35.612 269.181 35.0355 269.181 34.2881C269.181 33.5407 269.028 32.9665 268.723 32.5654C268.417 32.1598 267.98 31.957 267.41 31.957C266.84 31.957 266.401 32.1598 266.091 32.5654C265.785 32.9665 265.633 33.5407 265.633 34.2881C265.633 35.0355 265.785 35.612 266.091 36.0176C266.401 36.4232 266.84 36.626 267.41 36.626ZM271.225 34.2881C271.225 35.3818 270.91 36.3184 270.281 37.0977C269.652 37.8724 268.698 38.2598 267.417 38.2598C266.136 38.2598 265.182 37.8724 264.553 37.0977C263.924 36.3184 263.609 35.3818 263.609 34.2881C263.609 33.2126 263.924 32.2806 264.553 31.4922C265.182 30.7038 266.136 30.3096 267.417 30.3096C268.698 30.3096 269.652 30.7038 270.281 31.4922C270.91 32.2806 271.225 33.2126 271.225 34.2881ZM274.144 35.6211C274.185 35.9674 274.273 36.2135 274.41 36.3594C274.652 36.6191 275.098 36.749 275.75 36.749C276.133 36.749 276.436 36.6921 276.659 36.5781C276.887 36.4642 277.001 36.2933 277.001 36.0654C277.001 35.8467 276.91 35.6803 276.728 35.5664C276.545 35.4525 275.868 35.2565 274.697 34.9785C273.854 34.7689 273.259 34.5068 272.913 34.1924C272.567 33.8825 272.394 33.4359 272.394 32.8525C272.394 32.1644 272.662 31.5742 273.2 31.082C273.743 30.5853 274.504 30.3369 275.483 30.3369C276.413 30.3369 277.17 30.5238 277.753 30.8975C278.341 31.2666 278.678 31.9069 278.765 32.8184H276.816C276.789 32.5677 276.718 32.3695 276.604 32.2236C276.39 31.9593 276.026 31.8271 275.511 31.8271C275.087 31.8271 274.784 31.8932 274.602 32.0254C274.424 32.1576 274.335 32.3125 274.335 32.4902C274.335 32.7135 274.431 32.8753 274.622 32.9756C274.813 33.0804 275.49 33.2604 276.652 33.5156C277.427 33.6979 278.008 33.9736 278.396 34.3428C278.778 34.7165 278.97 35.1836 278.97 35.7441C278.97 36.4824 278.694 37.0863 278.143 37.5557C277.596 38.0205 276.748 38.2529 275.6 38.2529C274.428 38.2529 273.562 38.0068 273.002 37.5146C272.446 37.0179 272.168 36.3867 272.168 35.6211H274.144ZM279.653 32.0049V30.6172H280.692V28.5391H282.62V30.6172H283.83V32.0049H282.62V35.9424C282.62 36.2477 282.659 36.4391 282.736 36.5166C282.814 36.5895 283.051 36.626 283.447 36.626C283.507 36.626 283.568 36.626 283.632 36.626C283.7 36.6214 283.766 36.6169 283.83 36.6123V38.0684L282.907 38.1025C281.987 38.1344 281.358 37.9749 281.021 37.624C280.802 37.4007 280.692 37.0566 280.692 36.5918V32.0049H279.653Z" fill="black"/>
</g>
</g>
<g id="location">
<rect width="310" height="79" transform="translate(20 61)" fill="#EEEEEE"/>
<g id="location icon">
<path id="Vector" fill-rule="evenodd" clip-rule="evenodd" d="M46.8421 80.7368C52.3053 80.7368 58.6842 84.0495 58.6842 93.3826C58.6842 102.43 48.3689 112.993 47.93 113.435C47.7881 113.58 47.6189 113.695 47.4321 113.773C47.2453 113.852 47.0447 113.892 46.8421 113.892C46.6395 113.892 46.4389 113.852 46.2521 113.773C46.0653 113.695 45.8961 113.58 45.7542 113.435C45.3153 112.993 35 102.432 35 93.3842C35 84.0495 41.3789 80.7368 46.8421 80.7368ZM50.7895 96.5263C54.2726 96.5263 57.1053 93.6937 57.1053 90.2105C57.1053 86.7274 54.2726 83.8947 50.7895 83.8947C47.3063 83.8947 44.4737 86.729 44.4737 90.2105C44.4737 93.6937 47.3079 96.5263 50.7895 96.5263Z" fill="white"/>
<path id="Vector_2" d="M50.7895 76C44.2337 76 36.5789 79.7847 36.5789 90.4521C36.5789 100.791 48.9579 112.862 49.4853 113.371C49.8468 113.721 50.3174 113.895 50.7895 113.895C51.2632 113.895 51.7321 113.721 52.0953 113.371C52.6211 112.864 65 100.791 65 90.4521C65 79.7847 57.3453 76 50.7895 76ZM50.7895 110.737C47.5368 107.262 39.6721 98.0863 39.6721 90.6211C39.6721 79.9868 48.1811 79.1579 50.7895 79.1579C53.3979 79.1579 61.9068 79.9853 61.9068 90.6211C61.9068 98.0737 54.0405 107.258 50.7879 110.737H50.7895ZM50.7895 82.3158C46.4363 82.3158 42.8947 85.8574 42.8947 90.2105C42.8947 94.5637 46.4363 98.1053 50.7895 98.1053C55.1426 98.1053 58.6842 94.5637 58.6842 90.2105C58.6842 85.8574 55.1426 82.3158 50.7895 82.3158ZM50.7895 95.11C49.4906 95.1083 48.2453 94.5916 47.3269 93.6731C46.4084 92.7547 45.8917 91.5094 45.89 90.2105C45.8917 88.9116 46.4084 87.6664 47.3269 86.7479C48.2453 85.8295 49.4906 85.3127 50.7895 85.3111C52.0885 85.3123 53.334 85.8289 54.2525 86.7475C55.1711 87.666 55.6877 88.9115 55.689 90.2105C55.6877 91.5096 55.1711 92.755 54.2525 93.6736C53.334 94.5922 52.0885 95.1087 50.7895 95.11Z" fill="#32363E"/>
</g>
<g id="Frame 6">
<g id="Frame 8">
<rect id="Rectangle 9" x="75" y="76" width="114" height="12" fill="#666666"/>
<rect id="Rectangle 2" x="195" y="78.5" width="104" height="7" fill="#EEEEEE"/>
<g id="cancel icon">
<path id="Vector_3" d="M306.306 85.1423L306.306 85.1419C306.217 85.135 306.133 85.1044 306.06 85.0534L306.146 84.9307L306.06 85.0534C305.987 85.0024 305.93 84.9328 305.894 84.8519C305.857 84.771 305.843 84.6819 305.853 84.5937C305.863 84.5056 305.897 84.4218 305.95 84.351L305.956 84.3427L305.964 84.3354L313.304 76.9952L313.41 77.1013L313.304 76.9952C313.397 76.9022 313.523 76.85 313.654 76.85C313.786 76.85 313.912 76.9022 314.005 76.9952V76.9952M306.306 85.1423L314.005 76.9952M306.306 85.1423L306.317 85.1423C306.446 85.1431 306.57 85.0934 306.663 85.0039L306.663 85.0039L306.664 85.0022L314.005 77.6965L314.005 77.6962C314.098 77.6032 314.15 77.4772 314.15 77.3457C314.15 77.2142 314.098 77.0881 314.005 76.9952M306.306 85.1423L314.005 76.9952" fill="black" stroke="black" stroke-width="0.3"/>
<path id="Vector_4" d="M313.602 85.1417L313.615 85.143L313.628 85.1419C313.717 85.135 313.801 85.1045 313.874 85.0535C313.947 85.0025 314.004 84.9329 314.04 84.852C314.077 84.7711 314.091 84.6819 314.081 84.5938C314.071 84.5057 314.037 84.4218 313.984 84.3511L313.978 84.3428L313.97 84.3355L306.63 76.9953L306.61 76.9756L306.585 76.9643C306.494 76.9237 306.392 76.9117 306.294 76.9299C306.196 76.9482 306.105 76.9958 306.035 77.0664L306.141 77.1725L306.035 77.0664C305.964 77.1371 305.916 77.2275 305.898 77.3257C305.88 77.4239 305.892 77.5254 305.933 77.6167L305.944 77.6422L305.964 77.6618L313.304 85.0021L313.304 85.0021L313.305 85.0033C313.385 85.0817 313.49 85.1305 313.602 85.1417Z" fill="black" stroke="black" stroke-width="0.3"/>
</g>
</g>
<g id="Frame 13">
<rect id="Rectangle 7" x="75" y="93" width="224" height="10" fill="#999999"/>
<rect id="Rectangle 8" x="75" y="104" width="235" height="10" fill="#999999"/>
<rect id="Rectangle 9_2" x="75" y="115" width="76" height="10" fill="#999999"/>
</g>
</g>
</g>
<g id="Frame 4">
<path id="6 items" d="M21.709 162.759C21.709 163.14 21.8115 163.451 22.0166 163.691C22.2217 163.932 22.4821 164.053 22.7979 164.053C23.1071 164.053 23.3496 163.937 23.5254 163.706C23.7044 163.472 23.7939 163.169 23.7939 162.798C23.7939 162.384 23.693 162.069 23.4912 161.851C23.2894 161.629 23.042 161.519 22.749 161.519C22.5114 161.519 22.3014 161.59 22.1191 161.733C21.8457 161.945 21.709 162.287 21.709 162.759ZM23.667 159.702C23.667 159.588 23.623 159.463 23.5352 159.326C23.3854 159.105 23.1592 158.994 22.8564 158.994C22.404 158.994 22.0817 159.248 21.8896 159.756C21.7855 160.036 21.7139 160.449 21.6748 160.996C21.8473 160.791 22.0475 160.641 22.2754 160.547C22.5033 160.452 22.7637 160.405 23.0566 160.405C23.6849 160.405 24.1992 160.618 24.5996 161.045C25.0033 161.471 25.2051 162.017 25.2051 162.681C25.2051 163.341 25.0081 163.924 24.6143 164.429C24.2204 164.933 23.6084 165.186 22.7783 165.186C21.8864 165.186 21.2288 164.813 20.8057 164.067C20.4769 163.485 20.3125 162.733 20.3125 161.812C20.3125 161.271 20.3353 160.832 20.3809 160.493C20.4622 159.891 20.6201 159.39 20.8545 158.989C21.0563 158.647 21.32 158.372 21.6455 158.164C21.9743 157.956 22.3665 157.852 22.8223 157.852C23.4798 157.852 24.0039 158.021 24.3945 158.359C24.7852 158.695 25.0049 159.142 25.0537 159.702H23.667ZM30.4297 159.043H29.0186V157.759H30.4297V159.043ZM29.0186 159.678H30.4297V165H29.0186V159.678ZM31.2354 160.718V159.727H31.9775V158.242H33.3545V159.727H34.2188V160.718H33.3545V163.53C33.3545 163.748 33.3822 163.885 33.4375 163.94C33.4928 163.993 33.6621 164.019 33.9453 164.019C33.9876 164.019 34.0316 164.019 34.0771 164.019C34.126 164.015 34.1732 164.012 34.2188 164.009V165.049L33.5596 165.073C32.902 165.096 32.4528 164.982 32.2119 164.731C32.0557 164.572 31.9775 164.326 31.9775 163.994V160.718H31.2354ZM37.2119 160.684C36.8896 160.684 36.639 160.785 36.46 160.986C36.2842 161.188 36.1735 161.462 36.1279 161.807H38.291C38.2682 161.439 38.1559 161.16 37.9541 160.972C37.7555 160.78 37.5081 160.684 37.2119 160.684ZM37.2119 159.536C37.6546 159.536 38.0534 159.619 38.4082 159.785C38.763 159.951 39.056 160.213 39.2871 160.571C39.4954 160.887 39.6305 161.253 39.6924 161.67C39.7282 161.914 39.7428 162.266 39.7363 162.725H36.0938C36.1133 163.258 36.2809 163.633 36.5967 163.848C36.7887 163.981 37.0199 164.048 37.29 164.048C37.5765 164.048 37.8092 163.966 37.9883 163.804C38.0859 163.716 38.1722 163.594 38.2471 163.438H39.668C39.6322 163.753 39.4678 164.074 39.1748 164.399C38.7191 164.917 38.0811 165.176 37.2607 165.176C36.5837 165.176 35.9863 164.958 35.4688 164.521C34.9512 164.085 34.6924 163.376 34.6924 162.393C34.6924 161.471 34.9251 160.765 35.3906 160.273C35.8594 159.782 36.4665 159.536 37.2119 159.536ZM46.626 159.561C46.8604 159.561 47.0915 159.606 47.3193 159.697C47.5472 159.788 47.7539 159.948 47.9395 160.176C48.0892 160.361 48.1901 160.589 48.2422 160.859C48.2747 161.038 48.291 161.3 48.291 161.646L48.2812 165H46.8555V161.611C46.8555 161.41 46.8229 161.243 46.7578 161.113C46.6341 160.866 46.4062 160.742 46.0742 160.742C45.6901 160.742 45.4248 160.902 45.2783 161.221C45.2035 161.39 45.166 161.593 45.166 161.831V165H43.7646V161.831C43.7646 161.515 43.7321 161.286 43.667 161.143C43.5498 160.885 43.3203 160.757 42.9785 160.757C42.5814 160.757 42.3145 160.885 42.1777 161.143C42.1029 161.289 42.0654 161.507 42.0654 161.797V165H40.6543V159.688H42.0068V160.464C42.1794 160.187 42.3421 159.99 42.4951 159.873C42.7653 159.665 43.1152 159.561 43.5449 159.561C43.9518 159.561 44.2806 159.65 44.5312 159.829C44.7331 159.995 44.8861 160.208 44.9902 160.469C45.1725 160.156 45.3988 159.927 45.6689 159.78C45.9554 159.634 46.2744 159.561 46.626 159.561ZM50.6592 163.301C50.6885 163.548 50.752 163.724 50.8496 163.828C51.0221 164.014 51.3411 164.106 51.8066 164.106C52.0801 164.106 52.2965 164.066 52.4561 163.984C52.6188 163.903 52.7002 163.781 52.7002 163.618C52.7002 163.462 52.6351 163.343 52.5049 163.262C52.3747 163.18 51.8913 163.04 51.0547 162.842C50.4525 162.692 50.0277 162.505 49.7803 162.28C49.5329 162.059 49.4092 161.74 49.4092 161.323C49.4092 160.832 49.6012 160.41 49.9854 160.059C50.3727 159.704 50.9163 159.526 51.6162 159.526C52.2803 159.526 52.8206 159.66 53.2373 159.927C53.6572 160.19 53.8981 160.648 53.96 161.299H52.5684C52.5488 161.12 52.4984 160.978 52.417 160.874C52.264 160.685 52.0036 160.591 51.6357 160.591C51.333 160.591 51.1165 160.638 50.9863 160.732C50.8594 160.827 50.7959 160.938 50.7959 161.064C50.7959 161.224 50.8643 161.34 51.001 161.411C51.1377 161.486 51.6211 161.615 52.4512 161.797C53.0046 161.927 53.4196 162.124 53.6963 162.388C53.9697 162.655 54.1064 162.988 54.1064 163.389C54.1064 163.916 53.9095 164.347 53.5156 164.683C53.125 165.015 52.5195 165.181 51.6992 165.181C50.8626 165.181 50.2441 165.005 49.8438 164.653C49.4466 164.299 49.248 163.848 49.248 163.301H50.6592Z" fill="black"/>
<rect id="Rectangle 1" x="65" y="157.5" width="167" height="8" fill="white"/>
<g id="Frame 5">
<path id="Sort by closest" d="M243.851 162.778C243.896 163.107 243.986 163.353 244.119 163.516C244.363 163.812 244.782 163.96 245.374 163.96C245.729 163.96 246.017 163.921 246.238 163.843C246.658 163.693 246.868 163.415 246.868 163.008C246.868 162.77 246.764 162.586 246.556 162.456C246.347 162.329 246.02 162.217 245.574 162.119L244.812 161.948C244.064 161.779 243.546 161.595 243.26 161.396C242.775 161.064 242.532 160.545 242.532 159.839C242.532 159.194 242.767 158.659 243.235 158.232C243.704 157.806 244.393 157.593 245.301 157.593C246.059 157.593 246.705 157.795 247.239 158.198C247.776 158.599 248.058 159.181 248.084 159.946H246.639C246.613 159.513 246.424 159.206 246.072 159.023C245.838 158.903 245.547 158.843 245.198 158.843C244.811 158.843 244.502 158.921 244.271 159.077C244.039 159.233 243.924 159.451 243.924 159.731C243.924 159.989 244.038 160.181 244.266 160.308C244.412 160.392 244.725 160.492 245.203 160.605L246.443 160.903C246.987 161.034 247.397 161.208 247.674 161.426C248.104 161.764 248.318 162.254 248.318 162.896C248.318 163.553 248.066 164.1 247.562 164.536C247.06 164.969 246.351 165.186 245.433 165.186C244.495 165.186 243.758 164.972 243.221 164.546C242.684 164.116 242.415 163.527 242.415 162.778H243.851ZM251.707 164.019C252.114 164.019 252.426 163.874 252.645 163.584C252.863 163.294 252.972 162.882 252.972 162.349C252.972 161.815 252.863 161.405 252.645 161.118C252.426 160.828 252.114 160.684 251.707 160.684C251.3 160.684 250.986 160.828 250.765 161.118C250.547 161.405 250.438 161.815 250.438 162.349C250.438 162.882 250.547 163.294 250.765 163.584C250.986 163.874 251.3 164.019 251.707 164.019ZM254.432 162.349C254.432 163.13 254.207 163.799 253.758 164.355C253.309 164.909 252.627 165.186 251.712 165.186C250.797 165.186 250.115 164.909 249.666 164.355C249.217 163.799 248.992 163.13 248.992 162.349C248.992 161.58 249.217 160.915 249.666 160.352C250.115 159.788 250.797 159.507 251.712 159.507C252.627 159.507 253.309 159.788 253.758 160.352C254.207 160.915 254.432 161.58 254.432 162.349ZM258.323 159.551C258.349 159.551 258.37 159.552 258.387 159.556C258.406 159.556 258.447 159.557 258.509 159.561V160.986C258.421 160.977 258.343 160.97 258.274 160.967C258.206 160.964 258.151 160.962 258.108 160.962C257.549 160.962 257.173 161.144 256.98 161.509C256.873 161.714 256.819 162.03 256.819 162.456V165H255.418V159.678H256.746V160.605C256.961 160.251 257.148 160.008 257.308 159.878C257.568 159.66 257.907 159.551 258.323 159.551ZM258.782 160.718V159.727H259.524V158.242H260.901V159.727H261.766V160.718H260.901V163.53C260.901 163.748 260.929 163.885 260.984 163.94C261.04 163.993 261.209 164.019 261.492 164.019C261.535 164.019 261.578 164.019 261.624 164.019C261.673 164.015 261.72 164.012 261.766 164.009V165.049L261.106 165.073C260.449 165.096 260 164.982 259.759 164.731C259.603 164.572 259.524 164.326 259.524 163.994V160.718H258.782ZM268.318 159.561C269.018 159.561 269.565 159.813 269.959 160.317C270.356 160.822 270.555 161.473 270.555 162.271C270.555 163.097 270.359 163.783 269.969 164.326C269.578 164.87 269.033 165.142 268.333 165.142C267.894 165.142 267.54 165.054 267.273 164.878C267.114 164.774 266.941 164.591 266.756 164.331V165H265.394V157.812H266.78V160.371C266.956 160.124 267.15 159.935 267.361 159.805C267.612 159.642 267.931 159.561 268.318 159.561ZM267.962 163.994C268.32 163.994 268.598 163.849 268.797 163.56C268.995 163.27 269.095 162.889 269.095 162.417C269.095 162.039 269.046 161.727 268.948 161.479C268.763 161.011 268.421 160.776 267.923 160.776C267.418 160.776 267.072 161.006 266.883 161.465C266.785 161.709 266.736 162.025 266.736 162.412C266.736 162.868 266.837 163.245 267.039 163.545C267.241 163.844 267.549 163.994 267.962 163.994ZM271.771 166.021L271.946 166.03C272.083 166.037 272.213 166.032 272.337 166.016C272.461 165.999 272.565 165.962 272.649 165.903C272.731 165.848 272.806 165.732 272.874 165.557C272.946 165.381 272.975 165.273 272.962 165.234L271.009 159.678H272.557L273.719 163.604L274.817 159.678H276.297L274.471 164.912C274.119 165.921 273.841 166.546 273.636 166.787C273.431 167.031 273.021 167.153 272.405 167.153C272.282 167.153 272.182 167.152 272.107 167.148C272.033 167.148 271.92 167.144 271.771 167.134V166.021ZM283.084 161.587C283.058 161.388 282.991 161.209 282.884 161.05C282.728 160.835 282.485 160.728 282.156 160.728C281.688 160.728 281.367 160.96 281.194 161.426C281.103 161.673 281.058 162.002 281.058 162.412C281.058 162.803 281.103 163.117 281.194 163.354C281.36 163.797 281.673 164.019 282.132 164.019C282.457 164.019 282.688 163.931 282.825 163.755C282.962 163.579 283.045 163.351 283.074 163.071H284.495C284.463 163.494 284.31 163.895 284.036 164.272C283.6 164.881 282.954 165.186 282.098 165.186C281.242 165.186 280.612 164.932 280.208 164.424C279.804 163.916 279.603 163.257 279.603 162.446C279.603 161.532 279.826 160.82 280.271 160.312C280.717 159.805 281.333 159.551 282.117 159.551C282.785 159.551 283.33 159.701 283.753 160C284.179 160.299 284.432 160.828 284.51 161.587H283.084ZM286.893 165H285.501V157.803H286.893V165ZM290.643 164.019C291.049 164.019 291.362 163.874 291.58 163.584C291.798 163.294 291.907 162.882 291.907 162.349C291.907 161.815 291.798 161.405 291.58 161.118C291.362 160.828 291.049 160.684 290.643 160.684C290.236 160.684 289.922 160.828 289.7 161.118C289.482 161.405 289.373 161.815 289.373 162.349C289.373 162.882 289.482 163.294 289.7 163.584C289.922 163.874 290.236 164.019 290.643 164.019ZM293.367 162.349C293.367 163.13 293.143 163.799 292.693 164.355C292.244 164.909 291.562 165.186 290.647 165.186C289.733 165.186 289.051 164.909 288.602 164.355C288.152 163.799 287.928 163.13 287.928 162.349C287.928 161.58 288.152 160.915 288.602 160.352C289.051 159.788 289.733 159.507 290.647 159.507C291.562 159.507 292.244 159.788 292.693 160.352C293.143 160.915 293.367 161.58 293.367 162.349ZM295.452 163.301C295.481 163.548 295.545 163.724 295.643 163.828C295.815 164.014 296.134 164.106 296.6 164.106C296.873 164.106 297.09 164.066 297.249 163.984C297.412 163.903 297.493 163.781 297.493 163.618C297.493 163.462 297.428 163.343 297.298 163.262C297.168 163.18 296.684 163.04 295.848 162.842C295.245 162.692 294.821 162.505 294.573 162.28C294.326 162.059 294.202 161.74 294.202 161.323C294.202 160.832 294.394 160.41 294.778 160.059C295.166 159.704 295.709 159.526 296.409 159.526C297.073 159.526 297.614 159.66 298.03 159.927C298.45 160.19 298.691 160.648 298.753 161.299H297.361C297.342 161.12 297.291 160.978 297.21 160.874C297.057 160.685 296.797 160.591 296.429 160.591C296.126 160.591 295.91 160.638 295.779 160.732C295.652 160.827 295.589 160.938 295.589 161.064C295.589 161.224 295.657 161.34 295.794 161.411C295.931 161.486 296.414 161.615 297.244 161.797C297.798 161.927 298.213 162.124 298.489 162.388C298.763 162.655 298.899 162.988 298.899 163.389C298.899 163.916 298.702 164.347 298.309 164.683C297.918 165.015 297.312 165.181 296.492 165.181C295.656 165.181 295.037 165.005 294.637 164.653C294.24 164.299 294.041 163.848 294.041 163.301H295.452ZM302.034 160.684C301.712 160.684 301.461 160.785 301.282 160.986C301.106 161.188 300.996 161.462 300.95 161.807H303.113C303.09 161.439 302.978 161.16 302.776 160.972C302.578 160.78 302.33 160.684 302.034 160.684ZM302.034 159.536C302.477 159.536 302.876 159.619 303.23 159.785C303.585 159.951 303.878 160.213 304.109 160.571C304.318 160.887 304.453 161.253 304.515 161.67C304.55 161.914 304.565 162.266 304.559 162.725H300.916C300.936 163.258 301.103 163.633 301.419 163.848C301.611 163.981 301.842 164.048 302.112 164.048C302.399 164.048 302.632 163.966 302.811 163.804C302.908 163.716 302.994 163.594 303.069 163.438H304.49C304.454 163.753 304.29 164.074 303.997 164.399C303.541 164.917 302.903 165.176 302.083 165.176C301.406 165.176 300.809 164.958 300.291 164.521C299.773 164.085 299.515 163.376 299.515 162.393C299.515 161.471 299.747 160.765 300.213 160.273C300.682 159.782 301.289 159.536 302.034 159.536ZM306.585 163.301C306.614 163.548 306.678 163.724 306.775 163.828C306.948 164.014 307.267 164.106 307.732 164.106C308.006 164.106 308.222 164.066 308.382 163.984C308.545 163.903 308.626 163.781 308.626 163.618C308.626 163.462 308.561 163.343 308.431 163.262C308.3 163.18 307.817 163.04 306.98 162.842C306.378 162.692 305.953 162.505 305.706 162.28C305.459 162.059 305.335 161.74 305.335 161.323C305.335 160.832 305.527 160.41 305.911 160.059C306.299 159.704 306.842 159.526 307.542 159.526C308.206 159.526 308.746 159.66 309.163 159.927C309.583 160.19 309.824 160.648 309.886 161.299H308.494C308.475 161.12 308.424 160.978 308.343 160.874C308.19 160.685 307.929 160.591 307.562 160.591C307.259 160.591 307.042 160.638 306.912 160.732C306.785 160.827 306.722 160.938 306.722 161.064C306.722 161.224 306.79 161.34 306.927 161.411C307.063 161.486 307.547 161.615 308.377 161.797C308.93 161.927 309.345 162.124 309.622 162.388C309.896 162.655 310.032 162.988 310.032 163.389C310.032 163.916 309.835 164.347 309.441 164.683C309.051 165.015 308.445 165.181 307.625 165.181C306.788 165.181 306.17 165.005 305.77 164.653C305.372 164.299 305.174 163.848 305.174 163.301H306.585ZM310.521 160.718V159.727H311.263V158.242H312.64V159.727H313.504V160.718H312.64V163.53C312.64 163.748 312.667 163.885 312.723 163.94C312.778 163.993 312.947 164.019 313.23 164.019C313.273 164.019 313.317 164.019 313.362 164.019C313.411 164.015 313.458 164.012 313.504 164.009V165.049L312.845 165.073C312.187 165.096 311.738 164.982 311.497 164.731C311.341 164.572 311.263 164.326 311.263 163.994V160.718H310.521Z" fill="black"/>
<g id="chevron icon">
<path id="Vector_5" d="M327.75 160.25L324 164.625L320.25 160.25" stroke="black" stroke-width="1.5" stroke-linecap="round" stroke-linejoin="round"/>
</g>
</g>
</g>
<g id="result-2" clip-path="url(#clip1)">
<g id="avatar">
<rect width="50" height="50" transform="translate(20 183)" fill="#CCCCCC"/>
<path id="avatar image" d="M29.8945 204.33C29.8945 204.635 30.0059 204.875 30.2285 205.051C30.4512 205.227 30.7148 205.314 31.0195 205.314C31.3906 205.314 31.75 205.229 32.0977 205.057C32.6836 204.771 32.9766 204.305 32.9766 203.656V202.807C32.8477 202.889 32.6816 202.957 32.4785 203.012C32.2754 203.066 32.0762 203.105 31.8809 203.129L31.2422 203.211C30.8594 203.262 30.5723 203.342 30.3809 203.451C30.0566 203.635 29.8945 203.928 29.8945 204.33ZM32.4492 202.197C32.6914 202.166 32.8535 202.064 32.9355 201.893C32.9824 201.799 33.0059 201.664 33.0059 201.488C33.0059 201.129 32.877 200.869 32.6191 200.709C32.3652 200.545 32 200.463 31.5234 200.463C30.9727 200.463 30.582 200.611 30.3516 200.908C30.2227 201.072 30.1387 201.316 30.0996 201.641H29.1152C29.1348 200.867 29.3848 200.33 29.8652 200.029C30.3496 199.725 30.9102 199.572 31.5469 199.572C32.2852 199.572 32.8848 199.713 33.3457 199.994C33.8027 200.275 34.0312 200.713 34.0312 201.307V204.922C34.0312 205.031 34.0527 205.119 34.0957 205.186C34.1426 205.252 34.2383 205.285 34.3828 205.285C34.4297 205.285 34.4824 205.283 34.541 205.279C34.5996 205.271 34.6621 205.262 34.7285 205.25V206.029C34.5645 206.076 34.4395 206.105 34.3535 206.117C34.2676 206.129 34.1504 206.135 34.002 206.135C33.6387 206.135 33.375 206.006 33.2109 205.748C33.125 205.611 33.0645 205.418 33.0293 205.168C32.8145 205.449 32.5059 205.693 32.1035 205.9C31.7012 206.107 31.2578 206.211 30.7734 206.211C30.1914 206.211 29.7148 206.035 29.3438 205.684C28.9766 205.328 28.793 204.885 28.793 204.354C28.793 203.771 28.9746 203.32 29.3379 203C29.7012 202.68 30.1777 202.482 30.7676 202.408L32.4492 202.197ZM36.2812 199.725L37.957 204.834L39.709 199.725H40.8633L38.4961 206H37.3711L35.0566 199.725H36.2812ZM42.5742 204.33C42.5742 204.635 42.6855 204.875 42.9082 205.051C43.1309 205.227 43.3945 205.314 43.6992 205.314C44.0703 205.314 44.4297 205.229 44.7773 205.057C45.3633 204.771 45.6562 204.305 45.6562 203.656V202.807C45.5273 202.889 45.3613 202.957 45.1582 203.012C44.9551 203.066 44.7559 203.105 44.5605 203.129L43.9219 203.211C43.5391 203.262 43.252 203.342 43.0605 203.451C42.7363 203.635 42.5742 203.928 42.5742 204.33ZM45.1289 202.197C45.3711 202.166 45.5332 202.064 45.6152 201.893C45.6621 201.799 45.6855 201.664 45.6855 201.488C45.6855 201.129 45.5566 200.869 45.2988 200.709C45.0449 200.545 44.6797 200.463 44.2031 200.463C43.6523 200.463 43.2617 200.611 43.0312 200.908C42.9023 201.072 42.8184 201.316 42.7793 201.641H41.7949C41.8145 200.867 42.0645 200.33 42.5449 200.029C43.0293 199.725 43.5898 199.572 44.2266 199.572C44.9648 199.572 45.5645 199.713 46.0254 199.994C46.4824 200.275 46.7109 200.713 46.7109 201.307V204.922C46.7109 205.031 46.7324 205.119 46.7754 205.186C46.8223 205.252 46.918 205.285 47.0625 205.285C47.1094 205.285 47.1621 205.283 47.2207 205.279C47.2793 205.271 47.3418 205.262 47.4082 205.25V206.029C47.2441 206.076 47.1191 206.105 47.0332 206.117C46.9473 206.129 46.8301 206.135 46.6816 206.135C46.3184 206.135 46.0547 206.006 45.8906 205.748C45.8047 205.611 45.7441 205.418 45.709 205.168C45.4941 205.449 45.1855 205.693 44.7832 205.9C44.3809 206.107 43.9375 206.211 43.4531 206.211C42.8711 206.211 42.3945 206.035 42.0234 205.684C41.6562 205.328 41.4727 204.885 41.4727 204.354C41.4727 203.771 41.6543 203.32 42.0176 203C42.3809 202.68 42.8574 202.482 43.4473 202.408L45.1289 202.197ZM48.6562 197.973H49.7227V199.725H50.7246V200.586H49.7227V204.682C49.7227 204.9 49.7969 205.047 49.9453 205.121C50.0273 205.164 50.1641 205.186 50.3555 205.186C50.4062 205.186 50.4609 205.186 50.5195 205.186C50.5781 205.182 50.6465 205.176 50.7246 205.168V206C50.6035 206.035 50.4766 206.061 50.3438 206.076C50.2148 206.092 50.0742 206.1 49.9219 206.1C49.4297 206.1 49.0957 205.975 48.9199 205.725C48.7441 205.471 48.6562 205.143 48.6562 204.74V200.586H47.8066V199.725H48.6562V197.973ZM52.5938 204.33C52.5938 204.635 52.7051 204.875 52.9277 205.051C53.1504 205.227 53.4141 205.314 53.7188 205.314C54.0898 205.314 54.4492 205.229 54.7969 205.057C55.3828 204.771 55.6758 204.305 55.6758 203.656V202.807C55.5469 202.889 55.3809 202.957 55.1777 203.012C54.9746 203.066 54.7754 203.105 54.5801 203.129L53.9414 203.211C53.5586 203.262 53.2715 203.342 53.0801 203.451C52.7559 203.635 52.5938 203.928 52.5938 204.33ZM55.1484 202.197C55.3906 202.166 55.5527 202.064 55.6348 201.893C55.6816 201.799 55.7051 201.664 55.7051 201.488C55.7051 201.129 55.5762 200.869 55.3184 200.709C55.0645 200.545 54.6992 200.463 54.2227 200.463C53.6719 200.463 53.2812 200.611 53.0508 200.908C52.9219 201.072 52.8379 201.316 52.7988 201.641H51.8145C51.834 200.867 52.084 200.33 52.5645 200.029C53.0488 199.725 53.6094 199.572 54.2461 199.572C54.9844 199.572 55.584 199.713 56.0449 199.994C56.502 200.275 56.7305 200.713 56.7305 201.307V204.922C56.7305 205.031 56.752 205.119 56.7949 205.186C56.8418 205.252 56.9375 205.285 57.082 205.285C57.1289 205.285 57.1816 205.283 57.2402 205.279C57.2988 205.271 57.3613 205.262 57.4277 205.25V206.029C57.2637 206.076 57.1387 206.105 57.0527 206.117C56.9668 206.129 56.8496 206.135 56.7012 206.135C56.3379 206.135 56.0742 206.006 55.9102 205.748C55.8242 205.611 55.7637 205.418 55.7285 205.168C55.5137 205.449 55.2051 205.693 54.8027 205.9C54.4004 206.107 53.957 206.211 53.4727 206.211C52.8906 206.211 52.4141 206.035 52.043 205.684C51.6758 205.328 51.4922 204.885 51.4922 204.354C51.4922 203.771 51.6738 203.32 52.0371 203C52.4004 202.68 52.877 202.482 53.4668 202.408L55.1484 202.197ZM58.4941 199.725H59.4961V200.809C59.5781 200.598 59.7793 200.342 60.0996 200.041C60.4199 199.736 60.7891 199.584 61.207 199.584C61.2266 199.584 61.2598 199.586 61.3066 199.59C61.3535 199.594 61.4336 199.602 61.5469 199.613V200.727C61.4844 200.715 61.4258 200.707 61.3711 200.703C61.3203 200.699 61.2637 200.697 61.2012 200.697C60.6699 200.697 60.2617 200.869 59.9766 201.213C59.6914 201.553 59.5488 201.945 59.5488 202.391V206H58.4941V199.725ZM29.4199 211.754H30.4922V218H29.4199V211.754ZM29.4199 209.393H30.4922V210.588H29.4199V209.393ZM32.0918 211.725H33.1348V212.615C33.3848 212.307 33.6113 212.082 33.8145 211.941C34.1621 211.703 34.5566 211.584 34.998 211.584C35.498 211.584 35.9004 211.707 36.2051 211.953C36.377 212.094 36.5332 212.301 36.6738 212.574C36.9082 212.238 37.1836 211.99 37.5 211.83C37.8164 211.666 38.1719 211.584 38.5664 211.584C39.4102 211.584 39.9844 211.889 40.2891 212.498C40.4531 212.826 40.5352 213.268 40.5352 213.822V218H39.4395V213.641C39.4395 213.223 39.334 212.936 39.123 212.779C38.916 212.623 38.6621 212.545 38.3613 212.545C37.9473 212.545 37.5898 212.684 37.2891 212.961C36.9922 213.238 36.8438 213.701 36.8438 214.35V218H35.7715V213.904C35.7715 213.479 35.7207 213.168 35.6191 212.973C35.459 212.68 35.1602 212.533 34.7227 212.533C34.3242 212.533 33.9609 212.688 33.6328 212.996C33.3086 213.305 33.1465 213.863 33.1465 214.672V218H32.0918V211.725ZM42.8965 216.33C42.8965 216.635 43.0078 216.875 43.2305 217.051C43.4531 217.227 43.7168 217.314 44.0215 217.314C44.3926 217.314 44.752 217.229 45.0996 217.057C45.6855 216.771 45.9785 216.305 45.9785 215.656V214.807C45.8496 214.889 45.6836 214.957 45.4805 215.012C45.2773 215.066 45.0781 215.105 44.8828 215.129L44.2441 215.211C43.8613 215.262 43.5742 215.342 43.3828 215.451C43.0586 215.635 42.8965 215.928 42.8965 216.33ZM45.4512 214.197C45.6934 214.166 45.8555 214.064 45.9375 213.893C45.9844 213.799 46.0078 213.664 46.0078 213.488C46.0078 213.129 45.8789 212.869 45.6211 212.709C45.3672 212.545 45.002 212.463 44.5254 212.463C43.9746 212.463 43.584 212.611 43.3535 212.908C43.2246 213.072 43.1406 213.316 43.1016 213.641H42.1172C42.1367 212.867 42.3867 212.33 42.8672 212.029C43.3516 211.725 43.9121 211.572 44.5488 211.572C45.2871 211.572 45.8867 211.713 46.3477 211.994C46.8047 212.275 47.0332 212.713 47.0332 213.307V216.922C47.0332 217.031 47.0547 217.119 47.0977 217.186C47.1445 217.252 47.2402 217.285 47.3848 217.285C47.4316 217.285 47.4844 217.283 47.543 217.279C47.6016 217.271 47.6641 217.262 47.7305 217.25V218.029C47.5664 218.076 47.4414 218.105 47.3555 218.117C47.2695 218.129 47.1523 218.135 47.0039 218.135C46.6406 218.135 46.377 218.006 46.2129 217.748C46.127 217.611 46.0664 217.418 46.0312 217.168C45.8164 217.449 45.5078 217.693 45.1055 217.9C44.7031 218.107 44.2598 218.211 43.7754 218.211C43.1934 218.211 42.7168 218.035 42.3457 217.684C41.9785 217.328 41.7949 216.885 41.7949 216.354C41.7949 215.771 41.9766 215.32 42.3398 215C42.7031 214.68 43.1797 214.482 43.7695 214.408L45.4512 214.197ZM50.9824 211.613C51.4746 211.613 51.9043 211.734 52.2715 211.977C52.4707 212.113 52.6738 212.312 52.8809 212.574V211.783H53.8535V217.49C53.8535 218.287 53.7363 218.916 53.502 219.377C53.0645 220.229 52.2383 220.654 51.0234 220.654C50.3477 220.654 49.7793 220.502 49.3184 220.197C48.8574 219.896 48.5996 219.424 48.5449 218.779H49.6172C49.668 219.061 49.7695 219.277 49.9219 219.43C50.1602 219.664 50.5352 219.781 51.0469 219.781C51.8555 219.781 52.3848 219.496 52.6348 218.926C52.7832 218.59 52.8516 217.99 52.8398 217.127C52.6289 217.447 52.375 217.686 52.0781 217.842C51.7812 217.998 51.3887 218.076 50.9004 218.076C50.2207 218.076 49.625 217.836 49.1133 217.355C48.6055 216.871 48.3516 216.072 48.3516 214.959C48.3516 213.908 48.6074 213.088 49.1191 212.498C49.6348 211.908 50.2559 211.613 50.9824 211.613ZM52.8809 214.836C52.8809 214.059 52.7207 213.482 52.4004 213.107C52.0801 212.732 51.6719 212.545 51.1758 212.545C50.4336 212.545 49.9258 212.893 49.6523 213.588C49.5078 213.959 49.4355 214.445 49.4355 215.047C49.4355 215.754 49.5781 216.293 49.8633 216.664C50.1523 217.031 50.5391 217.215 51.0234 217.215C51.7812 217.215 52.3145 216.873 52.623 216.189C52.7949 215.803 52.8809 215.352 52.8809 214.836ZM58.0605 211.584C58.5059 211.584 58.9375 211.689 59.3555 211.9C59.7734 212.107 60.0918 212.377 60.3105 212.709C60.5215 213.025 60.6621 213.395 60.7324 213.816C60.7949 214.105 60.8262 214.566 60.8262 215.199H56.2266C56.2461 215.836 56.3965 216.348 56.6777 216.734C56.959 217.117 57.3945 217.309 57.9844 217.309C58.5352 217.309 58.9746 217.127 59.3027 216.764C59.4902 216.553 59.623 216.309 59.7012 216.031H60.7383C60.7109 216.262 60.6191 216.52 60.4629 216.805C60.3105 217.086 60.1387 217.316 59.9473 217.496C59.627 217.809 59.2305 218.02 58.7578 218.129C58.5039 218.191 58.2168 218.223 57.8965 218.223C57.1152 218.223 56.4531 217.939 55.9102 217.373C55.3672 216.803 55.0957 216.006 55.0957 214.982C55.0957 213.975 55.3691 213.156 55.916 212.527C56.4629 211.898 57.1777 211.584 58.0605 211.584ZM59.7422 214.361C59.6992 213.904 59.5996 213.539 59.4434 213.266C59.1543 212.758 58.6719 212.504 57.9961 212.504C57.5117 212.504 57.1055 212.68 56.7773 213.031C56.4492 213.379 56.2754 213.822 56.2559 214.361H59.7422Z" fill="#CCCCCC"/>
</g>
<g id="Frame 11">
<rect id="Rectangle 7_2" x="80" y="183" width="27" height="10" fill="#CCCCCC"/>
<rect id="Rectangle 11" x="80" y="194" width="32" height="10" fill="#CCCCCC"/>
<rect id="Rectangle 10" x="80" y="205" width="27" height="10" fill="#CCCCCC"/>
</g>
<g id="Frame 12" clip-path="url(#clip2)">
<rect id="Rectangle 7_3" x="122" y="183" width="164" height="10" fill="#666666"/>
<rect id="Rectangle 10_2" x="122" y="194" width="176" height="10" fill="#666666"/>
<rect id="Rectangle 8_2" x="122" y="205" width="182" height="10" fill="#666666"/>
<rect id="Rectangle 12" x="122" y="216" width="37" height="10" fill="#666666"/>
</g>
<g id="chevron">
<path id="Vector_6" d="M319.625 202.375L326.188 208L319.625 213.625" stroke="black" stroke-width="1.5" stroke-linecap="round" stroke-linejoin="round"/>
</g>
</g>
<g id="result-2_2" clip-path="url(#clip3)">
<g id="avatar_2">
<rect width="50" height="50" transform="translate(20 248)" fill="#CCCCCC"/>
<path id="avatar image_2" d="M29.8945 269.33C29.8945 269.635 30.0059 269.875 30.2285 270.051C30.4512 270.227 30.7148 270.314 31.0195 270.314C31.3906 270.314 31.75 270.229 32.0977 270.057C32.6836 269.771 32.9766 269.305 32.9766 268.656V267.807C32.8477 267.889 32.6816 267.957 32.4785 268.012C32.2754 268.066 32.0762 268.105 31.8809 268.129L31.2422 268.211C30.8594 268.262 30.5723 268.342 30.3809 268.451C30.0566 268.635 29.8945 268.928 29.8945 269.33ZM32.4492 267.197C32.6914 267.166 32.8535 267.064 32.9355 266.893C32.9824 266.799 33.0059 266.664 33.0059 266.488C33.0059 266.129 32.877 265.869 32.6191 265.709C32.3652 265.545 32 265.463 31.5234 265.463C30.9727 265.463 30.582 265.611 30.3516 265.908C30.2227 266.072 30.1387 266.316 30.0996 266.641H29.1152C29.1348 265.867 29.3848 265.33 29.8652 265.029C30.3496 264.725 30.9102 264.572 31.5469 264.572C32.2852 264.572 32.8848 264.713 33.3457 264.994C33.8027 265.275 34.0312 265.713 34.0312 266.307V269.922C34.0312 270.031 34.0527 270.119 34.0957 270.186C34.1426 270.252 34.2383 270.285 34.3828 270.285C34.4297 270.285 34.4824 270.283 34.541 270.279C34.5996 270.271 34.6621 270.262 34.7285 270.25V271.029C34.5645 271.076 34.4395 271.105 34.3535 271.117C34.2676 271.129 34.1504 271.135 34.002 271.135C33.6387 271.135 33.375 271.006 33.2109 270.748C33.125 270.611 33.0645 270.418 33.0293 270.168C32.8145 270.449 32.5059 270.693 32.1035 270.9C31.7012 271.107 31.2578 271.211 30.7734 271.211C30.1914 271.211 29.7148 271.035 29.3438 270.684C28.9766 270.328 28.793 269.885 28.793 269.354C28.793 268.771 28.9746 268.32 29.3379 268C29.7012 267.68 30.1777 267.482 30.7676 267.408L32.4492 267.197ZM36.2812 264.725L37.957 269.834L39.709 264.725H40.8633L38.4961 271H37.3711L35.0566 264.725H36.2812ZM42.5742 269.33C42.5742 269.635 42.6855 269.875 42.9082 270.051C43.1309 270.227 43.3945 270.314 43.6992 270.314C44.0703 270.314 44.4297 270.229 44.7773 270.057C45.3633 269.771 45.6562 269.305 45.6562 268.656V267.807C45.5273 267.889 45.3613 267.957 45.1582 268.012C44.9551 268.066 44.7559 268.105 44.5605 268.129L43.9219 268.211C43.5391 268.262 43.252 268.342 43.0605 268.451C42.7363 268.635 42.5742 268.928 42.5742 269.33ZM45.1289 267.197C45.3711 267.166 45.5332 267.064 45.6152 266.893C45.6621 266.799 45.6855 266.664 45.6855 266.488C45.6855 266.129 45.5566 265.869 45.2988 265.709C45.0449 265.545 44.6797 265.463 44.2031 265.463C43.6523 265.463 43.2617 265.611 43.0312 265.908C42.9023 266.072 42.8184 266.316 42.7793 266.641H41.7949C41.8145 265.867 42.0645 265.33 42.5449 265.029C43.0293 264.725 43.5898 264.572 44.2266 264.572C44.9648 264.572 45.5645 264.713 46.0254 264.994C46.4824 265.275 46.7109 265.713 46.7109 266.307V269.922C46.7109 270.031 46.7324 270.119 46.7754 270.186C46.8223 270.252 46.918 270.285 47.0625 270.285C47.1094 270.285 47.1621 270.283 47.2207 270.279C47.2793 270.271 47.3418 270.262 47.4082 270.25V271.029C47.2441 271.076 47.1191 271.105 47.0332 271.117C46.9473 271.129 46.8301 271.135 46.6816 271.135C46.3184 271.135 46.0547 271.006 45.8906 270.748C45.8047 270.611 45.7441 270.418 45.709 270.168C45.4941 270.449 45.1855 270.693 44.7832 270.9C44.3809 271.107 43.9375 271.211 43.4531 271.211C42.8711 271.211 42.3945 271.035 42.0234 270.684C41.6562 270.328 41.4727 269.885 41.4727 269.354C41.4727 268.771 41.6543 268.32 42.0176 268C42.3809 267.68 42.8574 267.482 43.4473 267.408L45.1289 267.197ZM48.6562 262.973H49.7227V264.725H50.7246V265.586H49.7227V269.682C49.7227 269.9 49.7969 270.047 49.9453 270.121C50.0273 270.164 50.1641 270.186 50.3555 270.186C50.4062 270.186 50.4609 270.186 50.5195 270.186C50.5781 270.182 50.6465 270.176 50.7246 270.168V271C50.6035 271.035 50.4766 271.061 50.3438 271.076C50.2148 271.092 50.0742 271.1 49.9219 271.1C49.4297 271.1 49.0957 270.975 48.9199 270.725C48.7441 270.471 48.6562 270.143 48.6562 269.74V265.586H47.8066V264.725H48.6562V262.973ZM52.5938 269.33C52.5938 269.635 52.7051 269.875 52.9277 270.051C53.1504 270.227 53.4141 270.314 53.7188 270.314C54.0898 270.314 54.4492 270.229 54.7969 270.057C55.3828 269.771 55.6758 269.305 55.6758 268.656V267.807C55.5469 267.889 55.3809 267.957 55.1777 268.012C54.9746 268.066 54.7754 268.105 54.5801 268.129L53.9414 268.211C53.5586 268.262 53.2715 268.342 53.0801 268.451C52.7559 268.635 52.5938 268.928 52.5938 269.33ZM55.1484 267.197C55.3906 267.166 55.5527 267.064 55.6348 266.893C55.6816 266.799 55.7051 266.664 55.7051 266.488C55.7051 266.129 55.5762 265.869 55.3184 265.709C55.0645 265.545 54.6992 265.463 54.2227 265.463C53.6719 265.463 53.2812 265.611 53.0508 265.908C52.9219 266.072 52.8379 266.316 52.7988 266.641H51.8145C51.834 265.867 52.084 265.33 52.5645 265.029C53.0488 264.725 53.6094 264.572 54.2461 264.572C54.9844 264.572 55.584 264.713 56.0449 264.994C56.502 265.275 56.7305 265.713 56.7305 266.307V269.922C56.7305 270.031 56.752 270.119 56.7949 270.186C56.8418 270.252 56.9375 270.285 57.082 270.285C57.1289 270.285 57.1816 270.283 57.2402 270.279C57.2988 270.271 57.3613 270.262 57.4277 270.25V271.029C57.2637 271.076 57.1387 271.105 57.0527 271.117C56.9668 271.129 56.8496 271.135 56.7012 271.135C56.3379 271.135 56.0742 271.006 55.9102 270.748C55.8242 270.611 55.7637 270.418 55.7285 270.168C55.5137 270.449 55.2051 270.693 54.8027 270.9C54.4004 271.107 53.957 271.211 53.4727 271.211C52.8906 271.211 52.4141 271.035 52.043 270.684C51.6758 270.328 51.4922 269.885 51.4922 269.354C51.4922 268.771 51.6738 268.32 52.0371 268C52.4004 267.68 52.877 267.482 53.4668 267.408L55.1484 267.197ZM58.4941 264.725H59.4961V265.809C59.5781 265.598 59.7793 265.342 60.0996 265.041C60.4199 264.736 60.7891 264.584 61.207 264.584C61.2266 264.584 61.2598 264.586 61.3066 264.59C61.3535 264.594 61.4336 264.602 61.5469 264.613V265.727C61.4844 265.715 61.4258 265.707 61.3711 265.703C61.3203 265.699 61.2637 265.697 61.2012 265.697C60.6699 265.697 60.2617 265.869 59.9766 266.213C59.6914 266.553 59.5488 266.945 59.5488 267.391V271H58.4941V264.725ZM29.4199 276.754H30.4922V283H29.4199V276.754ZM29.4199 274.393H30.4922V275.588H29.4199V274.393ZM32.0918 276.725H33.1348V277.615C33.3848 277.307 33.6113 277.082 33.8145 276.941C34.1621 276.703 34.5566 276.584 34.998 276.584C35.498 276.584 35.9004 276.707 36.2051 276.953C36.377 277.094 36.5332 277.301 36.6738 277.574C36.9082 277.238 37.1836 276.99 37.5 276.83C37.8164 276.666 38.1719 276.584 38.5664 276.584C39.4102 276.584 39.9844 276.889 40.2891 277.498C40.4531 277.826 40.5352 278.268 40.5352 278.822V283H39.4395V278.641C39.4395 278.223 39.334 277.936 39.123 277.779C38.916 277.623 38.6621 277.545 38.3613 277.545C37.9473 277.545 37.5898 277.684 37.2891 277.961C36.9922 278.238 36.8438 278.701 36.8438 279.35V283H35.7715V278.904C35.7715 278.479 35.7207 278.168 35.6191 277.973C35.459 277.68 35.1602 277.533 34.7227 277.533C34.3242 277.533 33.9609 277.688 33.6328 277.996C33.3086 278.305 33.1465 278.863 33.1465 279.672V283H32.0918V276.725ZM42.8965 281.33C42.8965 281.635 43.0078 281.875 43.2305 282.051C43.4531 282.227 43.7168 282.314 44.0215 282.314C44.3926 282.314 44.752 282.229 45.0996 282.057C45.6855 281.771 45.9785 281.305 45.9785 280.656V279.807C45.8496 279.889 45.6836 279.957 45.4805 280.012C45.2773 280.066 45.0781 280.105 44.8828 280.129L44.2441 280.211C43.8613 280.262 43.5742 280.342 43.3828 280.451C43.0586 280.635 42.8965 280.928 42.8965 281.33ZM45.4512 279.197C45.6934 279.166 45.8555 279.064 45.9375 278.893C45.9844 278.799 46.0078 278.664 46.0078 278.488C46.0078 278.129 45.8789 277.869 45.6211 277.709C45.3672 277.545 45.002 277.463 44.5254 277.463C43.9746 277.463 43.584 277.611 43.3535 277.908C43.2246 278.072 43.1406 278.316 43.1016 278.641H42.1172C42.1367 277.867 42.3867 277.33 42.8672 277.029C43.3516 276.725 43.9121 276.572 44.5488 276.572C45.2871 276.572 45.8867 276.713 46.3477 276.994C46.8047 277.275 47.0332 277.713 47.0332 278.307V281.922C47.0332 282.031 47.0547 282.119 47.0977 282.186C47.1445 282.252 47.2402 282.285 47.3848 282.285C47.4316 282.285 47.4844 282.283 47.543 282.279C47.6016 282.271 47.6641 282.262 47.7305 282.25V283.029C47.5664 283.076 47.4414 283.105 47.3555 283.117C47.2695 283.129 47.1523 283.135 47.0039 283.135C46.6406 283.135 46.377 283.006 46.2129 282.748C46.127 282.611 46.0664 282.418 46.0312 282.168C45.8164 282.449 45.5078 282.693 45.1055 282.9C44.7031 283.107 44.2598 283.211 43.7754 283.211C43.1934 283.211 42.7168 283.035 42.3457 282.684C41.9785 282.328 41.7949 281.885 41.7949 281.354C41.7949 280.771 41.9766 280.32 42.3398 280C42.7031 279.68 43.1797 279.482 43.7695 279.408L45.4512 279.197ZM50.9824 276.613C51.4746 276.613 51.9043 276.734 52.2715 276.977C52.4707 277.113 52.6738 277.312 52.8809 277.574V276.783H53.8535V282.49C53.8535 283.287 53.7363 283.916 53.502 284.377C53.0645 285.229 52.2383 285.654 51.0234 285.654C50.3477 285.654 49.7793 285.502 49.3184 285.197C48.8574 284.896 48.5996 284.424 48.5449 283.779H49.6172C49.668 284.061 49.7695 284.277 49.9219 284.43C50.1602 284.664 50.5352 284.781 51.0469 284.781C51.8555 284.781 52.3848 284.496 52.6348 283.926C52.7832 283.59 52.8516 282.99 52.8398 282.127C52.6289 282.447 52.375 282.686 52.0781 282.842C51.7812 282.998 51.3887 283.076 50.9004 283.076C50.2207 283.076 49.625 282.836 49.1133 282.355C48.6055 281.871 48.3516 281.072 48.3516 279.959C48.3516 278.908 48.6074 278.088 49.1191 277.498C49.6348 276.908 50.2559 276.613 50.9824 276.613ZM52.8809 279.836C52.8809 279.059 52.7207 278.482 52.4004 278.107C52.0801 277.732 51.6719 277.545 51.1758 277.545C50.4336 277.545 49.9258 277.893 49.6523 278.588C49.5078 278.959 49.4355 279.445 49.4355 280.047C49.4355 280.754 49.5781 281.293 49.8633 281.664C50.1523 282.031 50.5391 282.215 51.0234 282.215C51.7812 282.215 52.3145 281.873 52.623 281.189C52.7949 280.803 52.8809 280.352 52.8809 279.836ZM58.0605 276.584C58.5059 276.584 58.9375 276.689 59.3555 276.9C59.7734 277.107 60.0918 277.377 60.3105 277.709C60.5215 278.025 60.6621 278.395 60.7324 278.816C60.7949 279.105 60.8262 279.566 60.8262 280.199H56.2266C56.2461 280.836 56.3965 281.348 56.6777 281.734C56.959 282.117 57.3945 282.309 57.9844 282.309C58.5352 282.309 58.9746 282.127 59.3027 281.764C59.4902 281.553 59.623 281.309 59.7012 281.031H60.7383C60.7109 281.262 60.6191 281.52 60.4629 281.805C60.3105 282.086 60.1387 282.316 59.9473 282.496C59.627 282.809 59.2305 283.02 58.7578 283.129C58.5039 283.191 58.2168 283.223 57.8965 283.223C57.1152 283.223 56.4531 282.939 55.9102 282.373C55.3672 281.803 55.0957 281.006 55.0957 279.982C55.0957 278.975 55.3691 278.156 55.916 277.527C56.4629 276.898 57.1777 276.584 58.0605 276.584ZM59.7422 279.361C59.6992 278.904 59.5996 278.539 59.4434 278.266C59.1543 277.758 58.6719 277.504 57.9961 277.504C57.5117 277.504 57.1055 277.68 56.7773 278.031C56.4492 278.379 56.2754 278.822 56.2559 279.361H59.7422Z" fill="#CCCCCC"/>
</g>
<g id="Frame 11_2">
<rect id="Rectangle 7_4" x="80" y="248" width="27" height="10" fill="#CCCCCC"/>
<rect id="Rectangle 11_2" x="80" y="259" width="32" height="10" fill="#CCCCCC"/>
<rect id="Rectangle 10_3" x="80" y="270" width="27" height="10" fill="#CCCCCC"/>
</g>
<g id="Frame 12_2" clip-path="url(#clip4)">
<rect id="Rectangle 7_5" x="122" y="248" width="164" height="10" fill="#666666"/>
<rect id="Rectangle 10_4" x="122" y="259" width="176" height="10" fill="#666666"/>
<rect id="Rectangle 8_3" x="122" y="270" width="182" height="10" fill="#666666"/>
<rect id="Rectangle 9_3" x="122" y="281" width="65" height="10" fill="#666666"/>
</g>
<g id="chevron_2">
<path id="Vector_7" d="M319.625 267.375L326.188 273L319.625 278.625" stroke="black" stroke-width="1.5" stroke-linecap="round" stroke-linejoin="round"/>
</g>
</g>
<g id="result-3" clip-path="url(#clip5)">
<g id="avatar_3">
<rect width="50" height="50" transform="translate(20 313)" fill="#CCCCCC"/>
<path id="avatar image_3" d="M29.8945 334.33C29.8945 334.635 30.0059 334.875 30.2285 335.051C30.4512 335.227 30.7148 335.314 31.0195 335.314C31.3906 335.314 31.75 335.229 32.0977 335.057C32.6836 334.771 32.9766 334.305 32.9766 333.656V332.807C32.8477 332.889 32.6816 332.957 32.4785 333.012C32.2754 333.066 32.0762 333.105 31.8809 333.129L31.2422 333.211C30.8594 333.262 30.5723 333.342 30.3809 333.451C30.0566 333.635 29.8945 333.928 29.8945 334.33ZM32.4492 332.197C32.6914 332.166 32.8535 332.064 32.9355 331.893C32.9824 331.799 33.0059 331.664 33.0059 331.488C33.0059 331.129 32.877 330.869 32.6191 330.709C32.3652 330.545 32 330.463 31.5234 330.463C30.9727 330.463 30.582 330.611 30.3516 330.908C30.2227 331.072 30.1387 331.316 30.0996 331.641H29.1152C29.1348 330.867 29.3848 330.33 29.8652 330.029C30.3496 329.725 30.9102 329.572 31.5469 329.572C32.2852 329.572 32.8848 329.713 33.3457 329.994C33.8027 330.275 34.0312 330.713 34.0312 331.307V334.922C34.0312 335.031 34.0527 335.119 34.0957 335.186C34.1426 335.252 34.2383 335.285 34.3828 335.285C34.4297 335.285 34.4824 335.283 34.541 335.279C34.5996 335.271 34.6621 335.262 34.7285 335.25V336.029C34.5645 336.076 34.4395 336.105 34.3535 336.117C34.2676 336.129 34.1504 336.135 34.002 336.135C33.6387 336.135 33.375 336.006 33.2109 335.748C33.125 335.611 33.0645 335.418 33.0293 335.168C32.8145 335.449 32.5059 335.693 32.1035 335.9C31.7012 336.107 31.2578 336.211 30.7734 336.211C30.1914 336.211 29.7148 336.035 29.3438 335.684C28.9766 335.328 28.793 334.885 28.793 334.354C28.793 333.771 28.9746 333.32 29.3379 333C29.7012 332.68 30.1777 332.482 30.7676 332.408L32.4492 332.197ZM36.2812 329.725L37.957 334.834L39.709 329.725H40.8633L38.4961 336H37.3711L35.0566 329.725H36.2812ZM42.5742 334.33C42.5742 334.635 42.6855 334.875 42.9082 335.051C43.1309 335.227 43.3945 335.314 43.6992 335.314C44.0703 335.314 44.4297 335.229 44.7773 335.057C45.3633 334.771 45.6562 334.305 45.6562 333.656V332.807C45.5273 332.889 45.3613 332.957 45.1582 333.012C44.9551 333.066 44.7559 333.105 44.5605 333.129L43.9219 333.211C43.5391 333.262 43.252 333.342 43.0605 333.451C42.7363 333.635 42.5742 333.928 42.5742 334.33ZM45.1289 332.197C45.3711 332.166 45.5332 332.064 45.6152 331.893C45.6621 331.799 45.6855 331.664 45.6855 331.488C45.6855 331.129 45.5566 330.869 45.2988 330.709C45.0449 330.545 44.6797 330.463 44.2031 330.463C43.6523 330.463 43.2617 330.611 43.0312 330.908C42.9023 331.072 42.8184 331.316 42.7793 331.641H41.7949C41.8145 330.867 42.0645 330.33 42.5449 330.029C43.0293 329.725 43.5898 329.572 44.2266 329.572C44.9648 329.572 45.5645 329.713 46.0254 329.994C46.4824 330.275 46.7109 330.713 46.7109 331.307V334.922C46.7109 335.031 46.7324 335.119 46.7754 335.186C46.8223 335.252 46.918 335.285 47.0625 335.285C47.1094 335.285 47.1621 335.283 47.2207 335.279C47.2793 335.271 47.3418 335.262 47.4082 335.25V336.029C47.2441 336.076 47.1191 336.105 47.0332 336.117C46.9473 336.129 46.8301 336.135 46.6816 336.135C46.3184 336.135 46.0547 336.006 45.8906 335.748C45.8047 335.611 45.7441 335.418 45.709 335.168C45.4941 335.449 45.1855 335.693 44.7832 335.9C44.3809 336.107 43.9375 336.211 43.4531 336.211C42.8711 336.211 42.3945 336.035 42.0234 335.684C41.6562 335.328 41.4727 334.885 41.4727 334.354C41.4727 333.771 41.6543 333.32 42.0176 333C42.3809 332.68 42.8574 332.482 43.4473 332.408L45.1289 332.197ZM48.6562 327.973H49.7227V329.725H50.7246V330.586H49.7227V334.682C49.7227 334.9 49.7969 335.047 49.9453 335.121C50.0273 335.164 50.1641 335.186 50.3555 335.186C50.4062 335.186 50.4609 335.186 50.5195 335.186C50.5781 335.182 50.6465 335.176 50.7246 335.168V336C50.6035 336.035 50.4766 336.061 50.3438 336.076C50.2148 336.092 50.0742 336.1 49.9219 336.1C49.4297 336.1 49.0957 335.975 48.9199 335.725C48.7441 335.471 48.6562 335.143 48.6562 334.74V330.586H47.8066V329.725H48.6562V327.973ZM52.5938 334.33C52.5938 334.635 52.7051 334.875 52.9277 335.051C53.1504 335.227 53.4141 335.314 53.7188 335.314C54.0898 335.314 54.4492 335.229 54.7969 335.057C55.3828 334.771 55.6758 334.305 55.6758 333.656V332.807C55.5469 332.889 55.3809 332.957 55.1777 333.012C54.9746 333.066 54.7754 333.105 54.5801 333.129L53.9414 333.211C53.5586 333.262 53.2715 333.342 53.0801 333.451C52.7559 333.635 52.5938 333.928 52.5938 334.33ZM55.1484 332.197C55.3906 332.166 55.5527 332.064 55.6348 331.893C55.6816 331.799 55.7051 331.664 55.7051 331.488C55.7051 331.129 55.5762 330.869 55.3184 330.709C55.0645 330.545 54.6992 330.463 54.2227 330.463C53.6719 330.463 53.2812 330.611 53.0508 330.908C52.9219 331.072 52.8379 331.316 52.7988 331.641H51.8145C51.834 330.867 52.084 330.33 52.5645 330.029C53.0488 329.725 53.6094 329.572 54.2461 329.572C54.9844 329.572 55.584 329.713 56.0449 329.994C56.502 330.275 56.7305 330.713 56.7305 331.307V334.922C56.7305 335.031 56.752 335.119 56.7949 335.186C56.8418 335.252 56.9375 335.285 57.082 335.285C57.1289 335.285 57.1816 335.283 57.2402 335.279C57.2988 335.271 57.3613 335.262 57.4277 335.25V336.029C57.2637 336.076 57.1387 336.105 57.0527 336.117C56.9668 336.129 56.8496 336.135 56.7012 336.135C56.3379 336.135 56.0742 336.006 55.9102 335.748C55.8242 335.611 55.7637 335.418 55.7285 335.168C55.5137 335.449 55.2051 335.693 54.8027 335.9C54.4004 336.107 53.957 336.211 53.4727 336.211C52.8906 336.211 52.4141 336.035 52.043 335.684C51.6758 335.328 51.4922 334.885 51.4922 334.354C51.4922 333.771 51.6738 333.32 52.0371 333C52.4004 332.68 52.877 332.482 53.4668 332.408L55.1484 332.197ZM58.4941 329.725H59.4961V330.809C59.5781 330.598 59.7793 330.342 60.0996 330.041C60.4199 329.736 60.7891 329.584 61.207 329.584C61.2266 329.584 61.2598 329.586 61.3066 329.59C61.3535 329.594 61.4336 329.602 61.5469 329.613V330.727C61.4844 330.715 61.4258 330.707 61.3711 330.703C61.3203 330.699 61.2637 330.697 61.2012 330.697C60.6699 330.697 60.2617 330.869 59.9766 331.213C59.6914 331.553 59.5488 331.945 59.5488 332.391V336H58.4941V329.725ZM29.4199 341.754H30.4922V348H29.4199V341.754ZM29.4199 339.393H30.4922V340.588H29.4199V339.393ZM32.0918 341.725H33.1348V342.615C33.3848 342.307 33.6113 342.082 33.8145 341.941C34.1621 341.703 34.5566 341.584 34.998 341.584C35.498 341.584 35.9004 341.707 36.2051 341.953C36.377 342.094 36.5332 342.301 36.6738 342.574C36.9082 342.238 37.1836 341.99 37.5 341.83C37.8164 341.666 38.1719 341.584 38.5664 341.584C39.4102 341.584 39.9844 341.889 40.2891 342.498C40.4531 342.826 40.5352 343.268 40.5352 343.822V348H39.4395V343.641C39.4395 343.223 39.334 342.936 39.123 342.779C38.916 342.623 38.6621 342.545 38.3613 342.545C37.9473 342.545 37.5898 342.684 37.2891 342.961C36.9922 343.238 36.8438 343.701 36.8438 344.35V348H35.7715V343.904C35.7715 343.479 35.7207 343.168 35.6191 342.973C35.459 342.68 35.1602 342.533 34.7227 342.533C34.3242 342.533 33.9609 342.688 33.6328 342.996C33.3086 343.305 33.1465 343.863 33.1465 344.672V348H32.0918V341.725ZM42.8965 346.33C42.8965 346.635 43.0078 346.875 43.2305 347.051C43.4531 347.227 43.7168 347.314 44.0215 347.314C44.3926 347.314 44.752 347.229 45.0996 347.057C45.6855 346.771 45.9785 346.305 45.9785 345.656V344.807C45.8496 344.889 45.6836 344.957 45.4805 345.012C45.2773 345.066 45.0781 345.105 44.8828 345.129L44.2441 345.211C43.8613 345.262 43.5742 345.342 43.3828 345.451C43.0586 345.635 42.8965 345.928 42.8965 346.33ZM45.4512 344.197C45.6934 344.166 45.8555 344.064 45.9375 343.893C45.9844 343.799 46.0078 343.664 46.0078 343.488C46.0078 343.129 45.8789 342.869 45.6211 342.709C45.3672 342.545 45.002 342.463 44.5254 342.463C43.9746 342.463 43.584 342.611 43.3535 342.908C43.2246 343.072 43.1406 343.316 43.1016 343.641H42.1172C42.1367 342.867 42.3867 342.33 42.8672 342.029C43.3516 341.725 43.9121 341.572 44.5488 341.572C45.2871 341.572 45.8867 341.713 46.3477 341.994C46.8047 342.275 47.0332 342.713 47.0332 343.307V346.922C47.0332 347.031 47.0547 347.119 47.0977 347.186C47.1445 347.252 47.2402 347.285 47.3848 347.285C47.4316 347.285 47.4844 347.283 47.543 347.279C47.6016 347.271 47.6641 347.262 47.7305 347.25V348.029C47.5664 348.076 47.4414 348.105 47.3555 348.117C47.2695 348.129 47.1523 348.135 47.0039 348.135C46.6406 348.135 46.377 348.006 46.2129 347.748C46.127 347.611 46.0664 347.418 46.0312 347.168C45.8164 347.449 45.5078 347.693 45.1055 347.9C44.7031 348.107 44.2598 348.211 43.7754 348.211C43.1934 348.211 42.7168 348.035 42.3457 347.684C41.9785 347.328 41.7949 346.885 41.7949 346.354C41.7949 345.771 41.9766 345.32 42.3398 345C42.7031 344.68 43.1797 344.482 43.7695 344.408L45.4512 344.197ZM50.9824 341.613C51.4746 341.613 51.9043 341.734 52.2715 341.977C52.4707 342.113 52.6738 342.312 52.8809 342.574V341.783H53.8535V347.49C53.8535 348.287 53.7363 348.916 53.502 349.377C53.0645 350.229 52.2383 350.654 51.0234 350.654C50.3477 350.654 49.7793 350.502 49.3184 350.197C48.8574 349.896 48.5996 349.424 48.5449 348.779H49.6172C49.668 349.061 49.7695 349.277 49.9219 349.43C50.1602 349.664 50.5352 349.781 51.0469 349.781C51.8555 349.781 52.3848 349.496 52.6348 348.926C52.7832 348.59 52.8516 347.99 52.8398 347.127C52.6289 347.447 52.375 347.686 52.0781 347.842C51.7812 347.998 51.3887 348.076 50.9004 348.076C50.2207 348.076 49.625 347.836 49.1133 347.355C48.6055 346.871 48.3516 346.072 48.3516 344.959C48.3516 343.908 48.6074 343.088 49.1191 342.498C49.6348 341.908 50.2559 341.613 50.9824 341.613ZM52.8809 344.836C52.8809 344.059 52.7207 343.482 52.4004 343.107C52.0801 342.732 51.6719 342.545 51.1758 342.545C50.4336 342.545 49.9258 342.893 49.6523 343.588C49.5078 343.959 49.4355 344.445 49.4355 345.047C49.4355 345.754 49.5781 346.293 49.8633 346.664C50.1523 347.031 50.5391 347.215 51.0234 347.215C51.7812 347.215 52.3145 346.873 52.623 346.189C52.7949 345.803 52.8809 345.352 52.8809 344.836ZM58.0605 341.584C58.5059 341.584 58.9375 341.689 59.3555 341.9C59.7734 342.107 60.0918 342.377 60.3105 342.709C60.5215 343.025 60.6621 343.395 60.7324 343.816C60.7949 344.105 60.8262 344.566 60.8262 345.199H56.2266C56.2461 345.836 56.3965 346.348 56.6777 346.734C56.959 347.117 57.3945 347.309 57.9844 347.309C58.5352 347.309 58.9746 347.127 59.3027 346.764C59.4902 346.553 59.623 346.309 59.7012 346.031H60.7383C60.7109 346.262 60.6191 346.52 60.4629 346.805C60.3105 347.086 60.1387 347.316 59.9473 347.496C59.627 347.809 59.2305 348.02 58.7578 348.129C58.5039 348.191 58.2168 348.223 57.8965 348.223C57.1152 348.223 56.4531 347.939 55.9102 347.373C55.3672 346.803 55.0957 346.006 55.0957 344.982C55.0957 343.975 55.3691 343.156 55.916 342.527C56.4629 341.898 57.1777 341.584 58.0605 341.584ZM59.7422 344.361C59.6992 343.904 59.5996 343.539 59.4434 343.266C59.1543 342.758 58.6719 342.504 57.9961 342.504C57.5117 342.504 57.1055 342.68 56.7773 343.031C56.4492 343.379 56.2754 343.822 56.2559 344.361H59.7422Z" fill="#CCCCCC"/>
</g>
<g id="Frame 11_3">
<rect id="Rectangle 7_6" x="80" y="313" width="27" height="10" fill="#CCCCCC"/>
<rect id="Rectangle 11_3" x="80" y="324" width="32" height="10" fill="#CCCCCC"/>
<rect id="Rectangle 10_5" x="80" y="335" width="27" height="10" fill="#CCCCCC"/>
</g>
<g id="Frame 12_3" clip-path="url(#clip6)">
<rect id="Rectangle 7_7" x="122" y="313" width="164" height="10" fill="#666666"/>
<rect id="Rectangle 8_4" x="122" y="324" width="182" height="10" fill="#666666"/>
<rect id="Rectangle 12_2" x="122" y="335" width="37" height="10" fill="#666666"/>
</g>
<g id="chevron_3">
<path id="Vector_8" d="M319.625 332.375L326.188 338L319.625 343.625" stroke="black" stroke-width="1.5" stroke-linecap="round" stroke-linejoin="round"/>
</g>
</g>
<g id="result-3_2" clip-path="url(#clip7)">
<g id="avatar_4">
<rect width="50" height="50" transform="translate(20 378)" fill="#CCCCCC"/>
<path id="avatar image_4" d="M29.8945 399.33C29.8945 399.635 30.0059 399.875 30.2285 400.051C30.4512 400.227 30.7148 400.314 31.0195 400.314C31.3906 400.314 31.75 400.229 32.0977 400.057C32.6836 399.771 32.9766 399.305 32.9766 398.656V397.807C32.8477 397.889 32.6816 397.957 32.4785 398.012C32.2754 398.066 32.0762 398.105 31.8809 398.129L31.2422 398.211C30.8594 398.262 30.5723 398.342 30.3809 398.451C30.0566 398.635 29.8945 398.928 29.8945 399.33ZM32.4492 397.197C32.6914 397.166 32.8535 397.064 32.9355 396.893C32.9824 396.799 33.0059 396.664 33.0059 396.488C33.0059 396.129 32.877 395.869 32.6191 395.709C32.3652 395.545 32 395.463 31.5234 395.463C30.9727 395.463 30.582 395.611 30.3516 395.908C30.2227 396.072 30.1387 396.316 30.0996 396.641H29.1152C29.1348 395.867 29.3848 395.33 29.8652 395.029C30.3496 394.725 30.9102 394.572 31.5469 394.572C32.2852 394.572 32.8848 394.713 33.3457 394.994C33.8027 395.275 34.0312 395.713 34.0312 396.307V399.922C34.0312 400.031 34.0527 400.119 34.0957 400.186C34.1426 400.252 34.2383 400.285 34.3828 400.285C34.4297 400.285 34.4824 400.283 34.541 400.279C34.5996 400.271 34.6621 400.262 34.7285 400.25V401.029C34.5645 401.076 34.4395 401.105 34.3535 401.117C34.2676 401.129 34.1504 401.135 34.002 401.135C33.6387 401.135 33.375 401.006 33.2109 400.748C33.125 400.611 33.0645 400.418 33.0293 400.168C32.8145 400.449 32.5059 400.693 32.1035 400.9C31.7012 401.107 31.2578 401.211 30.7734 401.211C30.1914 401.211 29.7148 401.035 29.3438 400.684C28.9766 400.328 28.793 399.885 28.793 399.354C28.793 398.771 28.9746 398.32 29.3379 398C29.7012 397.68 30.1777 397.482 30.7676 397.408L32.4492 397.197ZM36.2812 394.725L37.957 399.834L39.709 394.725H40.8633L38.4961 401H37.3711L35.0566 394.725H36.2812ZM42.5742 399.33C42.5742 399.635 42.6855 399.875 42.9082 400.051C43.1309 400.227 43.3945 400.314 43.6992 400.314C44.0703 400.314 44.4297 400.229 44.7773 400.057C45.3633 399.771 45.6562 399.305 45.6562 398.656V397.807C45.5273 397.889 45.3613 397.957 45.1582 398.012C44.9551 398.066 44.7559 398.105 44.5605 398.129L43.9219 398.211C43.5391 398.262 43.252 398.342 43.0605 398.451C42.7363 398.635 42.5742 398.928 42.5742 399.33ZM45.1289 397.197C45.3711 397.166 45.5332 397.064 45.6152 396.893C45.6621 396.799 45.6855 396.664 45.6855 396.488C45.6855 396.129 45.5566 395.869 45.2988 395.709C45.0449 395.545 44.6797 395.463 44.2031 395.463C43.6523 395.463 43.2617 395.611 43.0312 395.908C42.9023 396.072 42.8184 396.316 42.7793 396.641H41.7949C41.8145 395.867 42.0645 395.33 42.5449 395.029C43.0293 394.725 43.5898 394.572 44.2266 394.572C44.9648 394.572 45.5645 394.713 46.0254 394.994C46.4824 395.275 46.7109 395.713 46.7109 396.307V399.922C46.7109 400.031 46.7324 400.119 46.7754 400.186C46.8223 400.252 46.918 400.285 47.0625 400.285C47.1094 400.285 47.1621 400.283 47.2207 400.279C47.2793 400.271 47.3418 400.262 47.4082 400.25V401.029C47.2441 401.076 47.1191 401.105 47.0332 401.117C46.9473 401.129 46.8301 401.135 46.6816 401.135C46.3184 401.135 46.0547 401.006 45.8906 400.748C45.8047 400.611 45.7441 400.418 45.709 400.168C45.4941 400.449 45.1855 400.693 44.7832 400.9C44.3809 401.107 43.9375 401.211 43.4531 401.211C42.8711 401.211 42.3945 401.035 42.0234 400.684C41.6562 400.328 41.4727 399.885 41.4727 399.354C41.4727 398.771 41.6543 398.32 42.0176 398C42.3809 397.68 42.8574 397.482 43.4473 397.408L45.1289 397.197ZM48.6562 392.973H49.7227V394.725H50.7246V395.586H49.7227V399.682C49.7227 399.9 49.7969 400.047 49.9453 400.121C50.0273 400.164 50.1641 400.186 50.3555 400.186C50.4062 400.186 50.4609 400.186 50.5195 400.186C50.5781 400.182 50.6465 400.176 50.7246 400.168V401C50.6035 401.035 50.4766 401.061 50.3438 401.076C50.2148 401.092 50.0742 401.1 49.9219 401.1C49.4297 401.1 49.0957 400.975 48.9199 400.725C48.7441 400.471 48.6562 400.143 48.6562 399.74V395.586H47.8066V394.725H48.6562V392.973ZM52.5938 399.33C52.5938 399.635 52.7051 399.875 52.9277 400.051C53.1504 400.227 53.4141 400.314 53.7188 400.314C54.0898 400.314 54.4492 400.229 54.7969 400.057C55.3828 399.771 55.6758 399.305 55.6758 398.656V397.807C55.5469 397.889 55.3809 397.957 55.1777 398.012C54.9746 398.066 54.7754 398.105 54.5801 398.129L53.9414 398.211C53.5586 398.262 53.2715 398.342 53.0801 398.451C52.7559 398.635 52.5938 398.928 52.5938 399.33ZM55.1484 397.197C55.3906 397.166 55.5527 397.064 55.6348 396.893C55.6816 396.799 55.7051 396.664 55.7051 396.488C55.7051 396.129 55.5762 395.869 55.3184 395.709C55.0645 395.545 54.6992 395.463 54.2227 395.463C53.6719 395.463 53.2812 395.611 53.0508 395.908C52.9219 396.072 52.8379 396.316 52.7988 396.641H51.8145C51.834 395.867 52.084 395.33 52.5645 395.029C53.0488 394.725 53.6094 394.572 54.2461 394.572C54.9844 394.572 55.584 394.713 56.0449 394.994C56.502 395.275 56.7305 395.713 56.7305 396.307V399.922C56.7305 400.031 56.752 400.119 56.7949 400.186C56.8418 400.252 56.9375 400.285 57.082 400.285C57.1289 400.285 57.1816 400.283 57.2402 400.279C57.2988 400.271 57.3613 400.262 57.4277 400.25V401.029C57.2637 401.076 57.1387 401.105 57.0527 401.117C56.9668 401.129 56.8496 401.135 56.7012 401.135C56.3379 401.135 56.0742 401.006 55.9102 400.748C55.8242 400.611 55.7637 400.418 55.7285 400.168C55.5137 400.449 55.2051 400.693 54.8027 400.9C54.4004 401.107 53.957 401.211 53.4727 401.211C52.8906 401.211 52.4141 401.035 52.043 400.684C51.6758 400.328 51.4922 399.885 51.4922 399.354C51.4922 398.771 51.6738 398.32 52.0371 398C52.4004 397.68 52.877 397.482 53.4668 397.408L55.1484 397.197ZM58.4941 394.725H59.4961V395.809C59.5781 395.598 59.7793 395.342 60.0996 395.041C60.4199 394.736 60.7891 394.584 61.207 394.584C61.2266 394.584 61.2598 394.586 61.3066 394.59C61.3535 394.594 61.4336 394.602 61.5469 394.613V395.727C61.4844 395.715 61.4258 395.707 61.3711 395.703C61.3203 395.699 61.2637 395.697 61.2012 395.697C60.6699 395.697 60.2617 395.869 59.9766 396.213C59.6914 396.553 59.5488 396.945 59.5488 397.391V401H58.4941V394.725ZM29.4199 406.754H30.4922V413H29.4199V406.754ZM29.4199 404.393H30.4922V405.588H29.4199V404.393ZM32.0918 406.725H33.1348V407.615C33.3848 407.307 33.6113 407.082 33.8145 406.941C34.1621 406.703 34.5566 406.584 34.998 406.584C35.498 406.584 35.9004 406.707 36.2051 406.953C36.377 407.094 36.5332 407.301 36.6738 407.574C36.9082 407.238 37.1836 406.99 37.5 406.83C37.8164 406.666 38.1719 406.584 38.5664 406.584C39.4102 406.584 39.9844 406.889 40.2891 407.498C40.4531 407.826 40.5352 408.268 40.5352 408.822V413H39.4395V408.641C39.4395 408.223 39.334 407.936 39.123 407.779C38.916 407.623 38.6621 407.545 38.3613 407.545C37.9473 407.545 37.5898 407.684 37.2891 407.961C36.9922 408.238 36.8438 408.701 36.8438 409.35V413H35.7715V408.904C35.7715 408.479 35.7207 408.168 35.6191 407.973C35.459 407.68 35.1602 407.533 34.7227 407.533C34.3242 407.533 33.9609 407.688 33.6328 407.996C33.3086 408.305 33.1465 408.863 33.1465 409.672V413H32.0918V406.725ZM42.8965 411.33C42.8965 411.635 43.0078 411.875 43.2305 412.051C43.4531 412.227 43.7168 412.314 44.0215 412.314C44.3926 412.314 44.752 412.229 45.0996 412.057C45.6855 411.771 45.9785 411.305 45.9785 410.656V409.807C45.8496 409.889 45.6836 409.957 45.4805 410.012C45.2773 410.066 45.0781 410.105 44.8828 410.129L44.2441 410.211C43.8613 410.262 43.5742 410.342 43.3828 410.451C43.0586 410.635 42.8965 410.928 42.8965 411.33ZM45.4512 409.197C45.6934 409.166 45.8555 409.064 45.9375 408.893C45.9844 408.799 46.0078 408.664 46.0078 408.488C46.0078 408.129 45.8789 407.869 45.6211 407.709C45.3672 407.545 45.002 407.463 44.5254 407.463C43.9746 407.463 43.584 407.611 43.3535 407.908C43.2246 408.072 43.1406 408.316 43.1016 408.641H42.1172C42.1367 407.867 42.3867 407.33 42.8672 407.029C43.3516 406.725 43.9121 406.572 44.5488 406.572C45.2871 406.572 45.8867 406.713 46.3477 406.994C46.8047 407.275 47.0332 407.713 47.0332 408.307V411.922C47.0332 412.031 47.0547 412.119 47.0977 412.186C47.1445 412.252 47.2402 412.285 47.3848 412.285C47.4316 412.285 47.4844 412.283 47.543 412.279C47.6016 412.271 47.6641 412.262 47.7305 412.25V413.029C47.5664 413.076 47.4414 413.105 47.3555 413.117C47.2695 413.129 47.1523 413.135 47.0039 413.135C46.6406 413.135 46.377 413.006 46.2129 412.748C46.127 412.611 46.0664 412.418 46.0312 412.168C45.8164 412.449 45.5078 412.693 45.1055 412.9C44.7031 413.107 44.2598 413.211 43.7754 413.211C43.1934 413.211 42.7168 413.035 42.3457 412.684C41.9785 412.328 41.7949 411.885 41.7949 411.354C41.7949 410.771 41.9766 410.32 42.3398 410C42.7031 409.68 43.1797 409.482 43.7695 409.408L45.4512 409.197ZM50.9824 406.613C51.4746 406.613 51.9043 406.734 52.2715 406.977C52.4707 407.113 52.6738 407.312 52.8809 407.574V406.783H53.8535V412.49C53.8535 413.287 53.7363 413.916 53.502 414.377C53.0645 415.229 52.2383 415.654 51.0234 415.654C50.3477 415.654 49.7793 415.502 49.3184 415.197C48.8574 414.896 48.5996 414.424 48.5449 413.779H49.6172C49.668 414.061 49.7695 414.277 49.9219 414.43C50.1602 414.664 50.5352 414.781 51.0469 414.781C51.8555 414.781 52.3848 414.496 52.6348 413.926C52.7832 413.59 52.8516 412.99 52.8398 412.127C52.6289 412.447 52.375 412.686 52.0781 412.842C51.7812 412.998 51.3887 413.076 50.9004 413.076C50.2207 413.076 49.625 412.836 49.1133 412.355C48.6055 411.871 48.3516 411.072 48.3516 409.959C48.3516 408.908 48.6074 408.088 49.1191 407.498C49.6348 406.908 50.2559 406.613 50.9824 406.613ZM52.8809 409.836C52.8809 409.059 52.7207 408.482 52.4004 408.107C52.0801 407.732 51.6719 407.545 51.1758 407.545C50.4336 407.545 49.9258 407.893 49.6523 408.588C49.5078 408.959 49.4355 409.445 49.4355 410.047C49.4355 410.754 49.5781 411.293 49.8633 411.664C50.1523 412.031 50.5391 412.215 51.0234 412.215C51.7812 412.215 52.3145 411.873 52.623 411.189C52.7949 410.803 52.8809 410.352 52.8809 409.836ZM58.0605 406.584C58.5059 406.584 58.9375 406.689 59.3555 406.9C59.7734 407.107 60.0918 407.377 60.3105 407.709C60.5215 408.025 60.6621 408.395 60.7324 408.816C60.7949 409.105 60.8262 409.566 60.8262 410.199H56.2266C56.2461 410.836 56.3965 411.348 56.6777 411.734C56.959 412.117 57.3945 412.309 57.9844 412.309C58.5352 412.309 58.9746 412.127 59.3027 411.764C59.4902 411.553 59.623 411.309 59.7012 411.031H60.7383C60.7109 411.262 60.6191 411.52 60.4629 411.805C60.3105 412.086 60.1387 412.316 59.9473 412.496C59.627 412.809 59.2305 413.02 58.7578 413.129C58.5039 413.191 58.2168 413.223 57.8965 413.223C57.1152 413.223 56.4531 412.939 55.9102 412.373C55.3672 411.803 55.0957 411.006 55.0957 409.982C55.0957 408.975 55.3691 408.156 55.916 407.527C56.4629 406.898 57.1777 406.584 58.0605 406.584ZM59.7422 409.361C59.6992 408.904 59.5996 408.539 59.4434 408.266C59.1543 407.758 58.6719 407.504 57.9961 407.504C57.5117 407.504 57.1055 407.68 56.7773 408.031C56.4492 408.379 56.2754 408.822 56.2559 409.361H59.7422Z" fill="#CCCCCC"/>
</g>
<g id="Frame 11_4">
<rect id="Rectangle 7_8" x="80" y="378" width="27" height="10" fill="#CCCCCC"/>
<rect id="Rectangle 11_4" x="80" y="389" width="32" height="10" fill="#CCCCCC"/>
<rect id="Rectangle 10_6" x="80" y="400" width="27" height="10" fill="#CCCCCC"/>
</g>
<g id="Frame 12_4" clip-path="url(#clip8)">
<rect id="Rectangle 7_9" x="122" y="378" width="164" height="10" fill="#666666"/>
<rect id="Rectangle 13" x="122" y="389" width="164" height="10" fill="#666666"/>
<rect id="Rectangle 8_5" x="122" y="400" width="182" height="10" fill="#666666"/>
<rect id="Rectangle 9_4" x="122" y="411" width="65" height="10" fill="#666666"/>
</g>
<g id="chevron_4">
<path id="Vector_9" d="M319.625 397.375L326.188 403L319.625 408.625" stroke="black" stroke-width="1.5" stroke-linecap="round" stroke-linejoin="round"/>
</g>
</g>
<g id="Frame 25">
<g id="result-3_3" clip-path="url(#clip9)">
<g id="avatar_5">
<rect width="50" height="50" transform="translate(20 456)" fill="#CCCCCC"/>
</g>
<g id="Frame 11_5">
<rect id="Rectangle 7_10" x="80" y="443" width="27" height="10" fill="#CCCCCC"/>
<rect id="Rectangle 11_5" x="80" y="454" width="32" height="10" fill="#CCCCCC"/>
</g>
<g id="Frame 12_5">
<rect id="Rectangle 7_11" x="122" y="443" width="164" height="10" fill="#666666"/>
<rect id="Rectangle 10_7" x="122" y="454" width="176" height="10" fill="#666666"/>
</g>
</g>
</g>
</g>
<defs>
<clipPath id="clip0">
<rect width="350" height="464" fill="white"/>
</clipPath>
<clipPath id="clip1">
<rect width="309" height="50" fill="white" transform="translate(20 183)"/>
</clipPath>
<clipPath id="clip2">
<rect width="182" height="43" fill="white" transform="translate(122 183)"/>
</clipPath>
<clipPath id="clip3">
<rect width="309" height="50" fill="white" transform="translate(20 248)"/>
</clipPath>
<clipPath id="clip4">
<rect width="182" height="43" fill="white" transform="translate(122 248)"/>
</clipPath>
<clipPath id="clip5">
<rect width="309" height="50" fill="white" transform="translate(20 313)"/>
</clipPath>
<clipPath id="clip6">
<rect width="182" height="32" fill="white" transform="translate(122 313)"/>
</clipPath>
<clipPath id="clip7">
<rect width="309" height="50" fill="white" transform="translate(20 378)"/>
</clipPath>
<clipPath id="clip8">
<rect width="182" height="43" fill="white" transform="translate(122 378)"/>
</clipPath>
<clipPath id="clip9">
<rect width="309" height="76" fill="white" transform="translate(20 443)"/>
</clipPath>
</defs>
</svg>
