<?xml version="1.0" standalone="no"?>
<!DOCTYPE svg PUBLIC "-//W3C//DTD SVG 20010904//EN"
 "http://www.w3.org/TR/2001/REC-SVG-20010904/DTD/svg10.dtd">
<svg version="1.0" xmlns="http://www.w3.org/2000/svg"
 width="700.000000pt" height="700.000000pt" viewBox="0 0 700.000000 700.000000"
 preserveAspectRatio="xMidYMid meet">
<metadata>
Created by potrace 1.11, written by Peter Selinger 2001-2013
</metadata>
<g transform="translate(0.000000,700.000000) scale(0.100000,-0.100000)"
fill="#000000" stroke="none">
<path d="M1338 6050 c0 -3 -2 -848 -3 -1877 l-1 -1873 30 -1 c36 0 900 0 964
1 l42 0 0 700 0 700 43 0 c378 0 1129 9 1152 14 17 3 39 8 51 11 12 3 39 7 60
11 73 11 246 74 349 125 184 93 347 231 472 401 70 95 161 294 177 388 3 19
10 53 14 75 4 22 7 114 7 205 -1 207 -21 304 -100 465 -93 191 -202 315 -380
431 -124 81 -309 158 -435 180 -14 3 -41 9 -60 14 -19 4 -60 12 -90 15 -30 4
-64 10 -75 12 -27 7 -2215 10 -2217 3z m1787 -384 c241 -53 401 -195 480 -429
16 -48 42 -174 43 -212 3 -73 1 -243 -2 -260 -2 -11 -7 -42 -10 -70 -42 -298
-201 -516 -433 -594 -111 -37 -180 -43 -508 -44 l-320 -1 -3 804 c-1 443 0
810 2 817 4 8 92 11 338 9 272 -2 348 -6 413 -20z"/>
<path d="M3094 3369 c-2 -4 142 -215 320 -470 178 -255 360 -515 403 -577 43
-63 83 -119 88 -125 9 -10 55 -78 77 -113 5 -8 -19 -45 -59 -96 -38 -45 -70
-85 -73 -88 -3 -3 -84 -102 -180 -220 -96 -118 -179 -220 -185 -226 -5 -6 -26
-30 -45 -54 -19 -24 -106 -130 -192 -236 -87 -106 -158 -195 -158 -197 0 -3
108 -5 240 -5 l241 0 30 41 c53 72 549 769 559 786 12 20 25 6 127 -141 39
-56 158 -226 263 -377 105 -150 195 -281 200 -291 9 -16 36 -18 365 -18 l355
-1 -63 92 c-34 51 -83 121 -108 157 -25 36 -151 216 -279 400 -128 184 -284
408 -347 497 -62 90 -116 169 -119 176 -2 7 5 24 16 38 11 13 38 44 59 69 81
96 226 266 236 276 6 6 31 35 56 64 24 29 49 58 54 64 6 6 33 38 60 70 28 33
61 71 74 85 13 14 37 43 55 65 17 21 42 51 56 66 44 49 124 143 145 169 11 14
39 46 62 71 23 24 40 46 38 48 -5 5 -485 6 -488 1 -6 -9 -122 -165 -129 -174
-7 -9 -253 -331 -428 -563 -30 -39 -57 -72 -60 -72 -3 1 -60 80 -128 178 -315
453 -424 608 -437 621 -10 11 -80 14 -355 15 -188 0 -344 -2 -346 -5z"/>
</g>
</svg>
