<svg width="131" height="131" viewBox="0 0 131 131" fill="none" xmlns="http://www.w3.org/2000/svg">
<path fill-rule="evenodd" clip-rule="evenodd" d="M44.3438 88H24.959V17.6875H62.9473C66.235 17.6875 69.3763 18.127 72.3711 19.0059C75.3984 19.8848 78.0677 21.2194 80.3789 23.0098C82.6901 24.7676 84.5293 26.9974 85.8965 29.6992C87.2962 32.3685 87.9961 35.5098 87.9961 39.123C87.9961 41.4017 87.6706 43.5501 87.0195 45.5684C86.3685 47.554 85.457 49.377 84.2852 51.0371C83.1458 52.6973 81.7949 54.1947 80.2324 55.5293C78.6699 56.8639 76.9609 57.987 75.1055 58.8984C73.25 59.8099 71.2806 60.5098 69.1973 60.998C67.1465 61.4863 65.0631 61.7305 62.9473 61.7305H44.3438V88ZM68.3672 39.123C68.3672 34.5983 67.2116 31.0501 64.9004 28.4785C62.6217 25.8743 59.1712 24.5723 54.5488 24.5723H44.3438V55.0898H54.5488C57.0228 55.0898 59.1224 54.6992 60.8477 53.918C62.6055 53.1042 64.0378 51.9811 65.1445 50.5488C66.2513 49.1165 67.0651 47.4401 67.5859 45.5195C68.1068 43.5664 68.3672 41.4342 68.3672 39.123ZM89.1875 113H102.391L85.0469 88.1172L102.391 67.8828H93.25L81.6094 83.1953L70.9062 67.8828H57.7031L74.6953 92.2188L57.7031 113H66.8438L78.1328 97.1797L89.1875 113Z" fill="white"/>
</svg>
