<svg width="131" height="131" viewBox="0 0 131 131" fill="none" xmlns="http://www.w3.org/2000/svg">
<path fill-rule="evenodd" clip-rule="evenodd" d="M131 0H0V131H131V0ZM71.2412 18.6969C68.5887 18.024 65.824 17.6875 62.9473 17.6875H24.959H24.959L24.959 88H44.3438V61.7305H62.9473C65.0631 61.7305 67.1465 61.4863 69.1973 60.998C71.2806 60.5098 73.25 59.8099 75.1055 58.8984C76.9609 57.987 78.6699 56.8639 80.2324 55.5293C81.7949 54.1947 83.1458 52.6973 84.2852 51.0371C85.457 49.377 86.3685 47.554 87.0195 45.5684C87.6706 43.5501 87.9961 41.4017 87.9961 39.123C87.9961 35.5098 87.2962 32.3685 85.8965 29.6992C85.8111 29.5303 85.7238 29.3633 85.6346 29.1981C84.2976 26.7205 82.5457 24.6577 80.3789 23.0098C80.09 22.786 79.7955 22.5693 79.4954 22.3598C77.3948 20.8929 75.02 19.7749 72.3711 19.0059C71.9967 18.896 71.6201 18.793 71.2412 18.6969ZM54.5488 24.5723C59.1712 24.5723 62.6217 25.8743 64.9004 28.4785C67.2116 31.0501 68.3672 34.5983 68.3672 39.123C68.3672 41.4342 68.1068 43.5664 67.5859 45.5195C67.5534 45.6395 67.5197 45.7586 67.4848 45.8768C66.9622 47.6487 66.1821 49.206 65.1445 50.5488C65.0062 50.7278 64.8627 50.902 64.7142 51.0714C63.6746 52.257 62.3858 53.2059 60.8477 53.918C60.632 54.0156 60.4105 54.1072 60.1832 54.1926C58.5917 54.7907 56.7136 55.0898 54.5488 55.0898H44.3438V24.5723H54.5488ZM85.0469 88.1172L102.391 113H89.1875L78.1328 97.1797L66.8438 113H57.7031L74.6953 92.2188L57.7031 67.8828H70.9062L81.6094 83.1953L93.25 67.8828H102.391L85.0469 88.1172Z" fill="black"/>
</svg>
