<svg width="15" height="15" viewBox="0 0 15 15" fill="none" xmlns="http://www.w3.org/2000/svg">
  <path
    fill-rule="evenodd"
    clip-rule="evenodd"
    d="M7 9C4.99169 9 3 7.983 3 5.5C3 3.017 4.99169 2 7 2H7.5H8H9.5H11.5C11.8038 2 12.05 2.24624 12.05 2.55C12.05 2.85376 11.8038 3.1 11.5 3.1H10V12.5C10 12.7761 9.77614 13 9.5 13C9.22386 13 9 12.7761 9 12.5V3.1H8V9V12.5C8 12.7761 7.77614 13 7.5 13C7.22386 13 7 12.7761 7 12.5V9ZM5.80002 5.50002C5.80002 4.36931 5.99585 3.1 7 3.1V7.9C5.99585 7.9 5.80002 6.63074 5.80002 5.50002Z"
    fill="currentColor"
  />
</svg>
